<svg width="174" height="177" viewBox="0 0 174 177" fill="none" xmlns="http://www.w3.org/2000/svg">
<g clip-path="url(#clip0_842_13252)">
<circle cx="87" cy="77.5" r="61.75" fill="#DCDCDC" stroke="#AEAEAE" stroke-width="1.5"/>
<mask id="mask0_842_13252" style="mask-type:alpha" maskUnits="userSpaceOnUse" x="24" y="7" width="126" height="134">
<path d="M148.75 78C148.75 112.104 121.104 139.75 87 139.75C52.8964 139.75 25.25 112.104 25.25 78V8.25H148.75V78Z" fill="#DCDCDC" stroke="#AEAEAE" stroke-width="1.5"/>
</mask>
<g mask="url(#mask0_842_13252)">
<rect x="50" y="14.2378" width="74.4329" height="155.762" rx="6" fill="#8E8E8E"/>
<rect x="52" y="18" width="70.7237" height="148" rx="6" fill="#FAFAFA"/>
<circle cx="78" cy="60" r="3" fill="#AEAEAE"/>
<circle cx="96" cy="60" r="3" fill="#AEAEAE"/>
<ellipse cx="87" cy="71.5" rx="4" ry="2.5" fill="#AEAEAE"/>
<line x1="72.6877" y1="57.6096" x2="77.6877" y2="53.6096" stroke="#AEAEAE"/>
<line x1="96.3123" y1="53.6096" x2="101.312" y2="57.6096" stroke="#AEAEAE"/>
</g>
<rect x="87.5" width="48" height="48" rx="4" fill="#AEAEAE"/>
<g clip-path="url(#clip1_842_13252)">
<path d="M111.5 30.4C111.082 30.4019 110.668 30.4861 110.282 30.648C109.897 30.8099 109.547 31.0461 109.252 31.3433C108.958 31.6405 108.725 31.9927 108.567 32.3799C108.409 32.7671 108.328 33.1817 108.33 33.6C108.33 35.3664 109.75 36.8 111.5 36.8C111.918 36.7979 112.332 36.7134 112.717 36.5515C113.103 36.3895 113.453 36.1532 113.747 35.8561C114.041 35.5589 114.274 35.2068 114.432 34.8197C114.59 34.4326 114.67 34.0181 114.668 33.6C114.668 31.832 113.25 30.4 111.5 30.4ZM104.78 26.8128L107.02 29.0752C107.605 28.4815 108.303 28.01 109.072 27.6882C109.841 27.3664 110.667 27.2007 111.501 27.2007C112.335 27.2007 113.16 27.3664 113.929 27.6882C114.699 28.01 115.396 28.4815 115.982 29.0752L118.22 26.8128C117.342 25.9223 116.296 25.2151 115.142 24.7325C113.989 24.2498 112.75 24.0013 111.5 24.0013C110.249 24.0013 109.011 24.2498 107.858 24.7325C106.704 25.2151 105.658 25.9223 104.78 26.8128ZM100.3 22.2848L102.54 24.5472C103.711 23.3601 105.105 22.4174 106.643 21.774C108.181 21.1307 109.832 20.7993 111.499 20.7993C113.166 20.7993 114.817 21.1307 116.355 21.774C117.893 22.4174 119.288 23.3601 120.458 24.5472L122.7 22.2848C121.237 20.8008 119.493 19.6224 117.57 18.8181C115.647 18.0138 113.584 17.5996 111.5 17.5996C109.416 17.5996 107.352 18.0138 105.43 18.8181C103.507 19.6224 101.763 20.8008 100.3 22.2848ZM95.8184 17.76L98.0584 20.0224C99.8144 18.2413 101.907 16.827 104.214 15.8617C106.522 14.8964 108.998 14.3993 111.499 14.3993C114 14.3993 116.477 14.8964 118.784 15.8617C121.091 16.827 123.184 18.2413 124.94 20.0224L127.18 17.76C125.131 15.6821 122.69 14.0321 119.998 12.9059C117.306 11.7797 114.417 11.1997 111.499 11.1997C108.581 11.1997 105.692 11.7797 103 12.9059C100.308 14.0321 97.8671 15.6821 95.8184 17.76Z" fill="#FAFAFA"/>
<rect x="109.5" y="9" width="4" height="19" rx="2" fill="#E84126"/>
<circle cx="111.5" cy="33.5" r="3.5" fill="#E84126"/>
</g>
</g>
<path d="M5.22754 162.047V172H3.92871V162.047H5.22754ZM8.42676 162.047V163.127H0.736328V162.047H8.42676ZM11.3359 164.604V172H10.0645V164.604H11.3359ZM9.96875 162.642C9.96875 162.437 10.0303 162.263 10.1533 162.122C10.2809 161.981 10.4678 161.91 10.7139 161.91C10.9554 161.91 11.14 161.981 11.2676 162.122C11.3997 162.263 11.4658 162.437 11.4658 162.642C11.4658 162.838 11.3997 163.006 11.2676 163.147C11.14 163.284 10.9554 163.353 10.7139 163.353C10.4678 163.353 10.2809 163.284 10.1533 163.147C10.0303 163.006 9.96875 162.838 9.96875 162.642ZM18.2783 170.564V161.5H19.5498V172H18.3877L18.2783 170.564ZM13.3018 168.384V168.24C13.3018 167.675 13.3701 167.162 13.5068 166.702C13.6481 166.237 13.8464 165.839 14.1016 165.506C14.3613 165.173 14.6689 164.918 15.0244 164.74C15.3844 164.558 15.7855 164.467 16.2275 164.467C16.6924 164.467 17.098 164.549 17.4443 164.713C17.7952 164.872 18.0915 165.107 18.333 165.417C18.5791 165.722 18.7728 166.091 18.9141 166.524C19.0553 166.957 19.1533 167.447 19.208 167.994V168.623C19.1579 169.165 19.0599 169.653 18.9141 170.086C18.7728 170.519 18.5791 170.888 18.333 171.193C18.0915 171.499 17.7952 171.733 17.4443 171.897C17.0934 172.057 16.6833 172.137 16.2139 172.137C15.7809 172.137 15.3844 172.043 15.0244 171.856C14.6689 171.67 14.3613 171.408 14.1016 171.07C13.8464 170.733 13.6481 170.337 13.5068 169.881C13.3701 169.421 13.3018 168.922 13.3018 168.384ZM14.5732 168.24V168.384C14.5732 168.753 14.6097 169.099 14.6826 169.423C14.7601 169.746 14.8786 170.031 15.0381 170.277C15.1976 170.523 15.4004 170.717 15.6465 170.858C15.8926 170.995 16.1865 171.063 16.5283 171.063C16.9476 171.063 17.2917 170.975 17.5605 170.797C17.834 170.619 18.0527 170.384 18.2168 170.093C18.3809 169.801 18.5085 169.484 18.5996 169.143V167.495C18.5449 167.244 18.4652 167.003 18.3604 166.771C18.2601 166.534 18.1279 166.324 17.9639 166.142C17.8044 165.955 17.6061 165.807 17.3691 165.697C17.1367 165.588 16.861 165.533 16.542 165.533C16.1956 165.533 15.8971 165.606 15.6465 165.752C15.4004 165.893 15.1976 166.089 15.0381 166.34C14.8786 166.586 14.7601 166.873 14.6826 167.201C14.6097 167.525 14.5732 167.871 14.5732 168.24ZM26.1299 170.735V166.928C26.1299 166.636 26.0706 166.383 25.9521 166.169C25.8382 165.95 25.665 165.782 25.4326 165.663C25.2002 165.545 24.9131 165.485 24.5713 165.485C24.2523 165.485 23.972 165.54 23.7305 165.649C23.4935 165.759 23.3066 165.902 23.1699 166.08C23.0378 166.258 22.9717 166.449 22.9717 166.654H21.707C21.707 166.39 21.7754 166.128 21.9121 165.868C22.0488 165.608 22.2448 165.374 22.5 165.164C22.7598 164.95 23.0697 164.781 23.4297 164.658C23.7943 164.531 24.1999 164.467 24.6465 164.467C25.1842 164.467 25.6582 164.558 26.0684 164.74C26.4831 164.923 26.8066 165.198 27.0391 165.567C27.276 165.932 27.3945 166.39 27.3945 166.941V170.387C27.3945 170.633 27.415 170.895 27.4561 171.173C27.5016 171.451 27.5677 171.69 27.6543 171.891V172H26.335C26.2712 171.854 26.221 171.66 26.1846 171.419C26.1481 171.173 26.1299 170.945 26.1299 170.735ZM26.3486 167.516L26.3623 168.404H25.084C24.724 168.404 24.4027 168.434 24.1201 168.493C23.8376 168.548 23.6006 168.632 23.4092 168.746C23.2178 168.86 23.0719 169.004 22.9717 169.177C22.8714 169.345 22.8213 169.544 22.8213 169.771C22.8213 170.004 22.8737 170.216 22.9785 170.407C23.0833 170.599 23.2406 170.751 23.4502 170.865C23.6644 170.975 23.9264 171.029 24.2363 171.029C24.6237 171.029 24.9655 170.947 25.2617 170.783C25.5579 170.619 25.7926 170.419 25.9658 170.182C26.1436 169.945 26.2393 169.715 26.2529 169.491L26.793 170.1C26.7611 170.291 26.6745 170.503 26.5332 170.735C26.3919 170.968 26.2028 171.191 25.9658 171.405C25.7334 171.615 25.4554 171.79 25.1318 171.932C24.8128 172.068 24.4528 172.137 24.0518 172.137C23.5505 172.137 23.1107 172.039 22.7324 171.843C22.3587 171.647 22.0671 171.385 21.8574 171.057C21.6523 170.724 21.5498 170.353 21.5498 169.942C21.5498 169.546 21.6273 169.197 21.7822 168.896C21.9372 168.591 22.1605 168.338 22.4521 168.138C22.7438 167.933 23.0947 167.778 23.5049 167.673C23.915 167.568 24.373 167.516 24.8789 167.516H26.3486ZM30.9053 161.5V172H29.6338V161.5H30.9053ZM35.4238 164.604L32.1973 168.056L30.3926 169.929L30.29 168.582L31.582 167.037L33.8789 164.604H35.4238ZM34.2686 172L31.6299 168.473L32.2861 167.345L35.7588 172H34.2686ZM44.5781 162.929L41.2832 172H39.9365L43.7305 162.047H44.5986L44.5781 162.929ZM47.3398 172L44.0381 162.929L44.0176 162.047H44.8857L48.6934 172H47.3398ZM47.1689 168.315V169.396H41.5771V168.315H47.1689ZM54.7471 170.564V161.5H56.0186V172H54.8564L54.7471 170.564ZM49.7705 168.384V168.24C49.7705 167.675 49.8389 167.162 49.9756 166.702C50.1169 166.237 50.3151 165.839 50.5703 165.506C50.8301 165.173 51.1377 164.918 51.4932 164.74C51.8532 164.558 52.2542 164.467 52.6963 164.467C53.1611 164.467 53.5667 164.549 53.9131 164.713C54.264 164.872 54.5602 165.107 54.8018 165.417C55.0479 165.722 55.2415 166.091 55.3828 166.524C55.5241 166.957 55.6221 167.447 55.6768 167.994V168.623C55.6266 169.165 55.5286 169.653 55.3828 170.086C55.2415 170.519 55.0479 170.888 54.8018 171.193C54.5602 171.499 54.264 171.733 53.9131 171.897C53.5622 172.057 53.152 172.137 52.6826 172.137C52.2497 172.137 51.8532 172.043 51.4932 171.856C51.1377 171.67 50.8301 171.408 50.5703 171.07C50.3151 170.733 50.1169 170.337 49.9756 169.881C49.8389 169.421 49.7705 168.922 49.7705 168.384ZM51.042 168.24V168.384C51.042 168.753 51.0785 169.099 51.1514 169.423C51.2288 169.746 51.3473 170.031 51.5068 170.277C51.6663 170.523 51.8691 170.717 52.1152 170.858C52.3613 170.995 52.6553 171.063 52.9971 171.063C53.4163 171.063 53.7604 170.975 54.0293 170.797C54.3027 170.619 54.5215 170.384 54.6855 170.093C54.8496 169.801 54.9772 169.484 55.0684 169.143V167.495C55.0137 167.244 54.9339 167.003 54.8291 166.771C54.7288 166.534 54.5967 166.324 54.4326 166.142C54.2731 165.955 54.0749 165.807 53.8379 165.697C53.6055 165.588 53.3298 165.533 53.0107 165.533C52.6644 165.533 52.3659 165.606 52.1152 165.752C51.8691 165.893 51.6663 166.089 51.5068 166.34C51.3473 166.586 51.2288 166.873 51.1514 167.201C51.0785 167.525 51.042 167.871 51.042 168.24ZM62.5986 170.735V166.928C62.5986 166.636 62.5394 166.383 62.4209 166.169C62.307 165.95 62.1338 165.782 61.9014 165.663C61.6689 165.545 61.3818 165.485 61.04 165.485C60.721 165.485 60.4408 165.54 60.1992 165.649C59.9622 165.759 59.7754 165.902 59.6387 166.08C59.5065 166.258 59.4404 166.449 59.4404 166.654H58.1758C58.1758 166.39 58.2441 166.128 58.3809 165.868C58.5176 165.608 58.7135 165.374 58.9688 165.164C59.2285 164.95 59.5384 164.781 59.8984 164.658C60.263 164.531 60.6686 164.467 61.1152 164.467C61.653 164.467 62.127 164.558 62.5371 164.74C62.9518 164.923 63.2754 165.198 63.5078 165.567C63.7448 165.932 63.8633 166.39 63.8633 166.941V170.387C63.8633 170.633 63.8838 170.895 63.9248 171.173C63.9704 171.451 64.0365 171.69 64.123 171.891V172H62.8037C62.7399 171.854 62.6898 171.66 62.6533 171.419C62.6169 171.173 62.5986 170.945 62.5986 170.735ZM62.8174 167.516L62.8311 168.404H61.5527C61.1927 168.404 60.8714 168.434 60.5889 168.493C60.3063 168.548 60.0693 168.632 59.8779 168.746C59.6865 168.86 59.5407 169.004 59.4404 169.177C59.3402 169.345 59.29 169.544 59.29 169.771C59.29 170.004 59.3424 170.216 59.4473 170.407C59.5521 170.599 59.7093 170.751 59.9189 170.865C60.1331 170.975 60.3952 171.029 60.7051 171.029C61.0924 171.029 61.4342 170.947 61.7305 170.783C62.0267 170.619 62.2614 170.419 62.4346 170.182C62.6123 169.945 62.708 169.715 62.7217 169.491L63.2617 170.1C63.2298 170.291 63.1432 170.503 63.002 170.735C62.8607 170.968 62.6715 171.191 62.4346 171.405C62.2021 171.615 61.9242 171.79 61.6006 171.932C61.2816 172.068 60.9215 172.137 60.5205 172.137C60.0192 172.137 59.5794 172.039 59.2012 171.843C58.8275 171.647 58.5358 171.385 58.3262 171.057C58.1211 170.724 58.0186 170.353 58.0186 169.942C58.0186 169.546 58.096 169.197 58.251 168.896C58.4059 168.591 58.6292 168.338 58.9209 168.138C59.2126 167.933 59.5635 167.778 59.9736 167.673C60.3838 167.568 60.8418 167.516 61.3477 167.516H62.8174ZM71.3359 162.047V172H70.0166V162.047H71.3359ZM77.3447 162.047L73.209 166.688L70.8848 169.102L70.666 167.693L72.416 165.766L75.7588 162.047H77.3447ZM76.0732 172L72.3887 167.146L73.1748 166.101L77.6455 172H76.0732ZM78.3398 168.384V168.227C78.3398 167.693 78.4173 167.199 78.5723 166.743C78.7272 166.283 78.9505 165.884 79.2422 165.547C79.5339 165.205 79.887 164.941 80.3018 164.754C80.7165 164.562 81.1813 164.467 81.6963 164.467C82.2158 164.467 82.6829 164.562 83.0977 164.754C83.5169 164.941 83.8724 165.205 84.1641 165.547C84.4603 165.884 84.6859 166.283 84.8408 166.743C84.9958 167.199 85.0732 167.693 85.0732 168.227V168.384C85.0732 168.917 84.9958 169.411 84.8408 169.867C84.6859 170.323 84.4603 170.722 84.1641 171.063C83.8724 171.401 83.5192 171.665 83.1045 171.856C82.6943 172.043 82.2295 172.137 81.71 172.137C81.1904 172.137 80.7233 172.043 80.3086 171.856C79.8939 171.665 79.5384 171.401 79.2422 171.063C78.9505 170.722 78.7272 170.323 78.5723 169.867C78.4173 169.411 78.3398 168.917 78.3398 168.384ZM79.6045 168.227V168.384C79.6045 168.753 79.6478 169.102 79.7344 169.43C79.821 169.753 79.9508 170.04 80.124 170.291C80.3018 170.542 80.5228 170.74 80.7871 170.886C81.0514 171.027 81.359 171.098 81.71 171.098C82.0563 171.098 82.3594 171.027 82.6191 170.886C82.8835 170.74 83.1022 170.542 83.2754 170.291C83.4486 170.04 83.5785 169.753 83.665 169.43C83.7562 169.102 83.8018 168.753 83.8018 168.384V168.227C83.8018 167.862 83.7562 167.518 83.665 167.194C83.5785 166.866 83.4463 166.577 83.2686 166.326C83.0954 166.071 82.8766 165.87 82.6123 165.725C82.3525 165.579 82.0472 165.506 81.6963 165.506C81.3499 165.506 81.0446 165.579 80.7803 165.725C80.5205 165.87 80.3018 166.071 80.124 166.326C79.9508 166.577 79.821 166.866 79.7344 167.194C79.6478 167.518 79.6045 167.862 79.6045 168.227ZM88.1738 166.183V172H86.9092V164.604H88.1055L88.1738 166.183ZM87.873 168.021L87.3467 168.001C87.3512 167.495 87.4264 167.028 87.5723 166.6C87.7181 166.167 87.9232 165.791 88.1875 165.472C88.4518 165.153 88.7663 164.907 89.1309 164.733C89.5 164.556 89.9079 164.467 90.3545 164.467C90.7191 164.467 91.0472 164.517 91.3389 164.617C91.6305 164.713 91.8789 164.868 92.084 165.082C92.2936 165.296 92.4531 165.574 92.5625 165.916C92.6719 166.253 92.7266 166.666 92.7266 167.153V172H91.4551V167.14C91.4551 166.752 91.3981 166.442 91.2842 166.21C91.1702 165.973 91.0039 165.802 90.7852 165.697C90.5664 165.588 90.2975 165.533 89.9785 165.533C89.6641 165.533 89.377 165.599 89.1172 165.731C88.862 165.864 88.641 166.046 88.4541 166.278C88.2718 166.511 88.1283 166.777 88.0234 167.078C87.9232 167.374 87.873 167.689 87.873 168.021ZM97.9668 172.137C97.4518 172.137 96.9847 172.05 96.5654 171.877C96.1507 171.699 95.793 171.451 95.4922 171.132C95.196 170.813 94.9681 170.435 94.8086 169.997C94.6491 169.56 94.5693 169.081 94.5693 168.562V168.274C94.5693 167.673 94.6582 167.137 94.8359 166.668C95.0137 166.194 95.2552 165.793 95.5605 165.465C95.8659 165.137 96.2122 164.888 96.5996 164.72C96.987 164.551 97.388 164.467 97.8027 164.467C98.3314 164.467 98.7871 164.558 99.1699 164.74C99.5573 164.923 99.874 165.178 100.12 165.506C100.366 165.829 100.549 166.212 100.667 166.654C100.785 167.092 100.845 167.57 100.845 168.09V168.657H95.3213V167.625H99.5801V167.529C99.5618 167.201 99.4935 166.882 99.375 166.572C99.2611 166.262 99.0788 166.007 98.8281 165.807C98.5775 165.606 98.2357 165.506 97.8027 165.506C97.5156 165.506 97.2513 165.567 97.0098 165.69C96.7682 165.809 96.5609 165.987 96.3877 166.224C96.2145 166.461 96.0801 166.75 95.9844 167.092C95.8887 167.434 95.8408 167.828 95.8408 168.274V168.562C95.8408 168.912 95.8887 169.243 95.9844 169.553C96.0846 169.858 96.2282 170.127 96.415 170.359C96.6064 170.592 96.8366 170.774 97.1055 170.906C97.3789 171.038 97.6888 171.104 98.0352 171.104C98.4818 171.104 98.86 171.013 99.1699 170.831C99.4798 170.649 99.751 170.405 99.9834 170.1L100.749 170.708C100.59 170.95 100.387 171.18 100.141 171.398C99.8945 171.617 99.5915 171.795 99.2314 171.932C98.876 172.068 98.4544 172.137 97.9668 172.137ZM103.843 161.5V172H102.571V161.5H103.843ZM108.361 164.604L105.135 168.056L103.33 169.929L103.228 168.582L104.52 167.037L106.816 164.604H108.361ZM107.206 172L104.567 168.473L105.224 167.345L108.696 172H107.206ZM114.224 170.038C114.224 169.856 114.183 169.687 114.101 169.532C114.023 169.373 113.861 169.229 113.615 169.102C113.374 168.969 113.009 168.855 112.521 168.76C112.111 168.673 111.74 168.571 111.407 168.452C111.079 168.334 110.799 168.19 110.566 168.021C110.339 167.853 110.163 167.655 110.04 167.427C109.917 167.199 109.855 166.932 109.855 166.627C109.855 166.335 109.919 166.06 110.047 165.8C110.179 165.54 110.364 165.31 110.601 165.109C110.842 164.909 111.132 164.752 111.469 164.638C111.806 164.524 112.182 164.467 112.597 164.467C113.189 164.467 113.695 164.572 114.114 164.781C114.534 164.991 114.855 165.271 115.078 165.622C115.301 165.968 115.413 166.354 115.413 166.777H114.148C114.148 166.572 114.087 166.374 113.964 166.183C113.845 165.987 113.67 165.825 113.438 165.697C113.21 165.57 112.929 165.506 112.597 165.506C112.246 165.506 111.961 165.561 111.742 165.67C111.528 165.775 111.371 165.909 111.271 166.073C111.175 166.237 111.127 166.41 111.127 166.593C111.127 166.729 111.15 166.853 111.195 166.962C111.245 167.067 111.332 167.165 111.455 167.256C111.578 167.342 111.751 167.424 111.975 167.502C112.198 167.579 112.483 167.657 112.829 167.734C113.435 167.871 113.934 168.035 114.326 168.227C114.718 168.418 115.01 168.653 115.201 168.931C115.393 169.209 115.488 169.546 115.488 169.942C115.488 170.266 115.42 170.562 115.283 170.831C115.151 171.1 114.957 171.332 114.702 171.528C114.451 171.72 114.151 171.87 113.8 171.979C113.453 172.084 113.064 172.137 112.631 172.137C111.979 172.137 111.428 172.021 110.977 171.788C110.525 171.556 110.184 171.255 109.951 170.886C109.719 170.517 109.603 170.127 109.603 169.717H110.874C110.892 170.063 110.993 170.339 111.175 170.544C111.357 170.744 111.58 170.888 111.845 170.975C112.109 171.057 112.371 171.098 112.631 171.098C112.977 171.098 113.267 171.052 113.499 170.961C113.736 170.87 113.916 170.744 114.039 170.585C114.162 170.425 114.224 170.243 114.224 170.038ZM118.773 164.604V172H117.502V164.604H118.773ZM117.406 162.642C117.406 162.437 117.468 162.263 117.591 162.122C117.718 161.981 117.905 161.91 118.151 161.91C118.393 161.91 118.577 161.981 118.705 162.122C118.837 162.263 118.903 162.437 118.903 162.642C118.903 162.838 118.837 163.006 118.705 163.147C118.577 163.284 118.393 163.353 118.151 163.353C117.905 163.353 117.718 163.284 117.591 163.147C117.468 163.006 117.406 162.838 117.406 162.642ZM126.383 162.047V172H125.063V162.047H126.383ZM130.105 166.183V172H128.841V164.604H130.037L130.105 166.183ZM129.805 168.021L129.278 168.001C129.283 167.495 129.358 167.028 129.504 166.6C129.65 166.167 129.855 165.791 130.119 165.472C130.383 165.153 130.698 164.907 131.062 164.733C131.432 164.556 131.84 164.467 132.286 164.467C132.651 164.467 132.979 164.517 133.271 164.617C133.562 164.713 133.811 164.868 134.016 165.082C134.225 165.296 134.385 165.574 134.494 165.916C134.604 166.253 134.658 166.666 134.658 167.153V172H133.387V167.14C133.387 166.752 133.33 166.442 133.216 166.21C133.102 165.973 132.936 165.802 132.717 165.697C132.498 165.588 132.229 165.533 131.91 165.533C131.596 165.533 131.309 165.599 131.049 165.731C130.794 165.864 130.573 166.046 130.386 166.278C130.203 166.511 130.06 166.777 129.955 167.078C129.855 167.374 129.805 167.689 129.805 168.021ZM139.926 164.604V165.574H135.927V164.604H139.926ZM137.28 162.806H138.545V170.168C138.545 170.419 138.584 170.608 138.661 170.735C138.739 170.863 138.839 170.947 138.962 170.988C139.085 171.029 139.217 171.05 139.358 171.05C139.463 171.05 139.573 171.041 139.687 171.022C139.805 171 139.894 170.981 139.953 170.968L139.96 172C139.86 172.032 139.728 172.062 139.563 172.089C139.404 172.121 139.21 172.137 138.982 172.137C138.673 172.137 138.388 172.075 138.128 171.952C137.868 171.829 137.661 171.624 137.506 171.337C137.355 171.045 137.28 170.653 137.28 170.161V162.806ZM144.729 172.137C144.214 172.137 143.746 172.05 143.327 171.877C142.912 171.699 142.555 171.451 142.254 171.132C141.958 170.813 141.73 170.435 141.57 169.997C141.411 169.56 141.331 169.081 141.331 168.562V168.274C141.331 167.673 141.42 167.137 141.598 166.668C141.775 166.194 142.017 165.793 142.322 165.465C142.628 165.137 142.974 164.888 143.361 164.72C143.749 164.551 144.15 164.467 144.564 164.467C145.093 164.467 145.549 164.558 145.932 164.74C146.319 164.923 146.636 165.178 146.882 165.506C147.128 165.829 147.31 166.212 147.429 166.654C147.547 167.092 147.606 167.57 147.606 168.09V168.657H142.083V167.625H146.342V167.529C146.324 167.201 146.255 166.882 146.137 166.572C146.023 166.262 145.84 166.007 145.59 165.807C145.339 165.606 144.997 165.506 144.564 165.506C144.277 165.506 144.013 165.567 143.771 165.69C143.53 165.809 143.323 165.987 143.149 166.224C142.976 166.461 142.842 166.75 142.746 167.092C142.65 167.434 142.603 167.828 142.603 168.274V168.562C142.603 168.912 142.65 169.243 142.746 169.553C142.846 169.858 142.99 170.127 143.177 170.359C143.368 170.592 143.598 170.774 143.867 170.906C144.141 171.038 144.451 171.104 144.797 171.104C145.243 171.104 145.622 171.013 145.932 170.831C146.242 170.649 146.513 170.405 146.745 170.1L147.511 170.708C147.351 170.95 147.148 171.18 146.902 171.398C146.656 171.617 146.353 171.795 145.993 171.932C145.638 172.068 145.216 172.137 144.729 172.137ZM150.598 165.766V172H149.333V164.604H150.563L150.598 165.766ZM152.908 164.562L152.901 165.738C152.797 165.715 152.696 165.702 152.601 165.697C152.509 165.688 152.405 165.684 152.286 165.684C151.994 165.684 151.737 165.729 151.514 165.82C151.29 165.911 151.101 166.039 150.946 166.203C150.791 166.367 150.668 166.563 150.577 166.791C150.491 167.014 150.434 167.26 150.406 167.529L150.051 167.734C150.051 167.288 150.094 166.868 150.181 166.477C150.272 166.085 150.411 165.738 150.598 165.438C150.785 165.132 151.021 164.895 151.309 164.727C151.6 164.553 151.947 164.467 152.348 164.467C152.439 164.467 152.544 164.478 152.662 164.501C152.781 164.519 152.863 164.54 152.908 164.562ZM155.592 166.183V172H154.327V164.604H155.523L155.592 166.183ZM155.291 168.021L154.765 168.001C154.769 167.495 154.844 167.028 154.99 166.6C155.136 166.167 155.341 165.791 155.605 165.472C155.87 165.153 156.184 164.907 156.549 164.733C156.918 164.556 157.326 164.467 157.772 164.467C158.137 164.467 158.465 164.517 158.757 164.617C159.049 164.713 159.297 164.868 159.502 165.082C159.712 165.296 159.871 165.574 159.98 165.916C160.09 166.253 160.145 166.666 160.145 167.153V172H158.873V167.14C158.873 166.752 158.816 166.442 158.702 166.21C158.588 165.973 158.422 165.802 158.203 165.697C157.984 165.588 157.715 165.533 157.396 165.533C157.082 165.533 156.795 165.599 156.535 165.731C156.28 165.864 156.059 166.046 155.872 166.278C155.69 166.511 155.546 166.777 155.441 167.078C155.341 167.374 155.291 167.689 155.291 168.021ZM165.385 172.137C164.87 172.137 164.403 172.05 163.983 171.877C163.569 171.699 163.211 171.451 162.91 171.132C162.614 170.813 162.386 170.435 162.227 169.997C162.067 169.56 161.987 169.081 161.987 168.562V168.274C161.987 167.673 162.076 167.137 162.254 166.668C162.432 166.194 162.673 165.793 162.979 165.465C163.284 165.137 163.63 164.888 164.018 164.72C164.405 164.551 164.806 164.467 165.221 164.467C165.749 164.467 166.205 164.558 166.588 164.74C166.975 164.923 167.292 165.178 167.538 165.506C167.784 165.829 167.966 166.212 168.085 166.654C168.203 167.092 168.263 167.57 168.263 168.09V168.657H162.739V167.625H166.998V167.529C166.98 167.201 166.911 166.882 166.793 166.572C166.679 166.262 166.497 166.007 166.246 165.807C165.995 165.606 165.654 165.506 165.221 165.506C164.934 165.506 164.669 165.567 164.428 165.69C164.186 165.809 163.979 165.987 163.806 166.224C163.632 166.461 163.498 166.75 163.402 167.092C163.307 167.434 163.259 167.828 163.259 168.274V168.562C163.259 168.912 163.307 169.243 163.402 169.553C163.503 169.858 163.646 170.127 163.833 170.359C164.024 170.592 164.255 170.774 164.523 170.906C164.797 171.038 165.107 171.104 165.453 171.104C165.9 171.104 166.278 171.013 166.588 170.831C166.898 170.649 167.169 170.405 167.401 170.1L168.167 170.708C168.007 170.95 167.805 171.18 167.559 171.398C167.312 171.617 167.009 171.795 166.649 171.932C166.294 172.068 165.872 172.137 165.385 172.137ZM173.086 164.604V165.574H169.087V164.604H173.086ZM170.44 162.806H171.705V170.168C171.705 170.419 171.744 170.608 171.821 170.735C171.899 170.863 171.999 170.947 172.122 170.988C172.245 171.029 172.377 171.05 172.519 171.05C172.623 171.05 172.733 171.041 172.847 171.022C172.965 171 173.054 170.981 173.113 170.968L173.12 172C173.02 172.032 172.888 172.062 172.724 172.089C172.564 172.121 172.37 172.137 172.143 172.137C171.833 172.137 171.548 172.075 171.288 171.952C171.028 171.829 170.821 171.624 170.666 171.337C170.516 171.045 170.44 170.653 170.44 170.161V162.806Z" fill="#8E8E8E"/>
<defs>
<clipPath id="clip0_842_13252">
<rect width="125" height="141" fill="white" transform="translate(24.5)"/>
</clipPath>
<clipPath id="clip1_842_13252">
<rect width="32" height="32" fill="white" transform="translate(95.5 8)"/>
</clipPath>
</defs>
</svg>
