<svg width="203" height="156" viewBox="0 0 203 156" fill="none" xmlns="http://www.w3.org/2000/svg">
<g clip-path="url(#clip0_756_12238)">
<circle cx="102.5" cy="60" r="49.25" fill="#DCDCDC" stroke="#AEAEAE" stroke-width="1.5"/>
<path d="M51.5 36C51.5 30.3995 51.5 27.5992 52.5899 25.4601C53.5487 23.5785 55.0785 22.0487 56.9601 21.0899C59.0992 20 61.8995 20 67.5 20H69.5C80.701 20 86.3016 20 90.5798 22.1799C94.3431 24.0973 97.4027 27.1569 99.3201 30.9202C101.5 35.1984 101.5 40.799 101.5 52V100H67.5C61.8995 100 59.0992 100 56.9601 98.9101C55.0785 97.9513 53.5487 96.4215 52.5899 94.5399C51.5 92.4008 51.5 89.6005 51.5 84V36Z" fill="#FAFAFA"/>
<path d="M151.5 36C151.5 30.3995 151.5 27.5992 150.41 25.4601C149.451 23.5785 147.922 22.0487 146.04 21.0899C143.901 20 141.101 20 135.5 20H133.5C122.299 20 116.698 20 112.42 22.1799C108.657 24.0973 105.597 27.1569 103.68 30.9202C101.5 35.1984 101.5 40.799 101.5 52V100H135.5C141.101 100 143.901 100 146.04 98.9101C147.922 97.9513 149.451 96.4215 150.41 94.5399C151.5 92.4008 151.5 89.6005 151.5 84V36Z" fill="#FAFAFA"/>
<path d="M101.5 100H67.5C61.8995 100 59.0992 100 56.9601 98.9101C55.0785 97.9513 53.5487 96.4215 52.5899 94.5399C51.5 92.4008 51.5 89.6005 51.5 84V36C51.5 30.3995 51.5 27.5992 52.5899 25.4601C53.5487 23.5785 55.0785 22.0487 56.9601 21.0899C59.0992 20 61.8995 20 67.5 20H69.5C80.701 20 86.3016 20 90.5798 22.1799C94.3431 24.0973 97.4027 27.1569 99.3201 30.9202C101.5 35.1984 101.5 40.799 101.5 52M101.5 100V52M101.5 100H135.5C141.101 100 143.901 100 146.04 98.9101C147.922 97.9513 149.451 96.4215 150.41 94.5399C151.5 92.4008 151.5 89.6005 151.5 84V36C151.5 30.3995 151.5 27.5992 150.41 25.4601C149.451 23.5785 147.922 22.0487 146.04 21.0899C143.901 20 141.101 20 135.5 20H133.5C122.299 20 116.698 20 112.42 22.1799C108.657 24.0973 105.597 27.1569 103.68 30.9202C101.5 35.1984 101.5 40.799 101.5 52" stroke="#AEAEAE" stroke-width="3" stroke-linecap="round" stroke-linejoin="round"/>
<circle cx="93" cy="53" r="3" fill="#AEAEAE"/>
<circle cx="109" cy="53" r="3" fill="#AEAEAE"/>
<path d="M92.5 67C100.055 70.2931 104.065 70.1639 110.5 67" stroke="#AEAEAE" stroke-width="2" stroke-linecap="round"/>
</g>
<path d="M4.9375 146.345H2.41504L2.40137 145.285H4.69141C5.06966 145.285 5.40007 145.221 5.68262 145.094C5.96517 144.966 6.18392 144.784 6.33887 144.547C6.49837 144.305 6.57812 144.018 6.57812 143.686C6.57812 143.321 6.50749 143.025 6.36621 142.797C6.22949 142.564 6.01758 142.396 5.73047 142.291C5.44792 142.182 5.08789 142.127 4.65039 142.127H2.70898V151H1.38965V141.047H4.65039C5.16081 141.047 5.61654 141.099 6.01758 141.204C6.41862 141.304 6.75814 141.464 7.03613 141.683C7.31868 141.897 7.53288 142.17 7.67871 142.503C7.82454 142.836 7.89746 143.234 7.89746 143.699C7.89746 144.109 7.79264 144.481 7.58301 144.813C7.37337 145.142 7.08171 145.41 6.70801 145.62C6.33887 145.83 5.90592 145.964 5.40918 146.023L4.9375 146.345ZM4.87598 151H1.89551L2.64062 149.927H4.87598C5.29525 149.927 5.65072 149.854 5.94238 149.708C6.23861 149.562 6.46419 149.357 6.61914 149.093C6.77409 148.824 6.85156 148.507 6.85156 148.143C6.85156 147.773 6.78548 147.454 6.65332 147.186C6.52116 146.917 6.3138 146.709 6.03125 146.563C5.7487 146.418 5.38411 146.345 4.9375 146.345H3.05762L3.07129 145.285H5.6416L5.92188 145.668C6.40039 145.709 6.80599 145.846 7.13867 146.078C7.47135 146.306 7.72428 146.598 7.89746 146.953C8.0752 147.309 8.16406 147.701 8.16406 148.129C8.16406 148.749 8.02734 149.273 7.75391 149.701C7.48503 150.125 7.10449 150.449 6.6123 150.672C6.12012 150.891 5.54134 151 4.87598 151ZM13.2402 151.137C12.7253 151.137 12.2581 151.05 11.8389 150.877C11.4242 150.699 11.0664 150.451 10.7656 150.132C10.4694 149.813 10.2415 149.435 10.082 148.997C9.92253 148.56 9.84277 148.081 9.84277 147.562V147.274C9.84277 146.673 9.93164 146.137 10.1094 145.668C10.2871 145.194 10.5286 144.793 10.834 144.465C11.1393 144.137 11.4857 143.888 11.873 143.72C12.2604 143.551 12.6615 143.467 13.0762 143.467C13.6048 143.467 14.0605 143.558 14.4434 143.74C14.8307 143.923 15.1475 144.178 15.3936 144.506C15.6396 144.829 15.8219 145.212 15.9404 145.654C16.0589 146.092 16.1182 146.57 16.1182 147.09V147.657H10.5947V146.625H14.8535V146.529C14.8353 146.201 14.7669 145.882 14.6484 145.572C14.5345 145.262 14.3522 145.007 14.1016 144.807C13.8509 144.606 13.5091 144.506 13.0762 144.506C12.7891 144.506 12.5247 144.567 12.2832 144.69C12.0417 144.809 11.8343 144.987 11.6611 145.224C11.488 145.461 11.3535 145.75 11.2578 146.092C11.1621 146.434 11.1143 146.828 11.1143 147.274V147.562C11.1143 147.912 11.1621 148.243 11.2578 148.553C11.3581 148.858 11.5016 149.127 11.6885 149.359C11.8799 149.592 12.11 149.774 12.3789 149.906C12.6523 150.038 12.9622 150.104 13.3086 150.104C13.7552 150.104 14.1335 150.013 14.4434 149.831C14.7533 149.649 15.0244 149.405 15.2568 149.1L16.0225 149.708C15.863 149.95 15.6602 150.18 15.4141 150.398C15.168 150.617 14.8649 150.795 14.5049 150.932C14.1494 151.068 13.7279 151.137 13.2402 151.137ZM19.2188 140.5V151H17.9473V140.5H19.2188ZM26.0244 149.291V143.604H27.2959V151H26.0859L26.0244 149.291ZM26.2637 147.732L26.79 147.719C26.79 148.211 26.7376 148.667 26.6328 149.086C26.5326 149.501 26.3685 149.861 26.1406 150.166C25.9128 150.471 25.6143 150.711 25.2451 150.884C24.876 151.052 24.4271 151.137 23.8984 151.137C23.5384 151.137 23.208 151.084 22.9072 150.979C22.611 150.875 22.3558 150.713 22.1416 150.494C21.9274 150.275 21.7611 149.991 21.6426 149.64C21.5286 149.289 21.4717 148.867 21.4717 148.375V143.604H22.7363V148.389C22.7363 148.721 22.7728 148.997 22.8457 149.216C22.9232 149.43 23.0257 149.601 23.1533 149.729C23.2855 149.852 23.4313 149.938 23.5908 149.988C23.7549 150.038 23.9235 150.063 24.0967 150.063C24.6344 150.063 25.0605 149.961 25.375 149.756C25.6895 149.546 25.915 149.266 26.0518 148.915C26.193 148.56 26.2637 148.165 26.2637 147.732ZM30.7314 145.073V151H29.46V143.604H30.6631L30.7314 145.073ZM30.4717 147.021L29.8838 147.001C29.8883 146.495 29.9544 146.028 30.082 145.6C30.2096 145.167 30.3988 144.791 30.6494 144.472C30.9001 144.153 31.2122 143.907 31.5859 143.733C31.9596 143.556 32.3926 143.467 32.8848 143.467C33.2311 143.467 33.5501 143.517 33.8418 143.617C34.1335 143.713 34.3864 143.866 34.6006 144.075C34.8148 144.285 34.9811 144.554 35.0996 144.882C35.2181 145.21 35.2773 145.606 35.2773 146.071V151H34.0127V146.133C34.0127 145.745 33.9466 145.436 33.8145 145.203C33.6868 144.971 33.5046 144.802 33.2676 144.697C33.0306 144.588 32.7526 144.533 32.4336 144.533C32.0599 144.533 31.7477 144.599 31.4971 144.731C31.2464 144.864 31.0459 145.046 30.8955 145.278C30.7451 145.511 30.6357 145.777 30.5674 146.078C30.5036 146.374 30.4717 146.689 30.4717 147.021ZM35.2637 146.324L34.416 146.584C34.4206 146.178 34.4867 145.789 34.6143 145.415C34.7464 145.041 34.9355 144.709 35.1816 144.417C35.4323 144.125 35.7399 143.895 36.1045 143.727C36.4691 143.553 36.8861 143.467 37.3555 143.467C37.752 143.467 38.1029 143.519 38.4082 143.624C38.7181 143.729 38.9779 143.891 39.1875 144.109C39.4017 144.324 39.5635 144.599 39.6729 144.937C39.7822 145.274 39.8369 145.675 39.8369 146.14V151H38.5654V146.126C38.5654 145.711 38.4993 145.39 38.3672 145.162C38.2396 144.93 38.0573 144.768 37.8203 144.677C37.5879 144.581 37.3099 144.533 36.9863 144.533C36.7083 144.533 36.4622 144.581 36.248 144.677C36.0339 144.772 35.8538 144.905 35.708 145.073C35.5622 145.237 35.4505 145.426 35.373 145.641C35.3001 145.855 35.2637 146.083 35.2637 146.324ZM49.5996 141.929L46.3047 151H44.958L48.752 141.047H49.6201L49.5996 141.929ZM52.3613 151L49.0596 141.929L49.0391 141.047H49.9072L53.7148 151H52.3613ZM52.1904 147.315V148.396H46.5986V147.315H52.1904ZM59.7686 149.564V140.5H61.04V151H59.8779L59.7686 149.564ZM54.792 147.384V147.24C54.792 146.675 54.8604 146.162 54.9971 145.702C55.1383 145.237 55.3366 144.839 55.5918 144.506C55.8516 144.173 56.1592 143.918 56.5146 143.74C56.8747 143.558 57.2757 143.467 57.7178 143.467C58.1826 143.467 58.5882 143.549 58.9346 143.713C59.2855 143.872 59.5817 144.107 59.8232 144.417C60.0693 144.722 60.263 145.091 60.4043 145.524C60.5456 145.957 60.6436 146.447 60.6982 146.994V147.623C60.6481 148.165 60.5501 148.653 60.4043 149.086C60.263 149.519 60.0693 149.888 59.8232 150.193C59.5817 150.499 59.2855 150.733 58.9346 150.897C58.5837 151.057 58.1735 151.137 57.7041 151.137C57.2712 151.137 56.8747 151.043 56.5146 150.856C56.1592 150.67 55.8516 150.408 55.5918 150.07C55.3366 149.733 55.1383 149.337 54.9971 148.881C54.8604 148.421 54.792 147.922 54.792 147.384ZM56.0635 147.24V147.384C56.0635 147.753 56.0999 148.099 56.1729 148.423C56.2503 148.746 56.3688 149.031 56.5283 149.277C56.6878 149.523 56.8906 149.717 57.1367 149.858C57.3828 149.995 57.6768 150.063 58.0186 150.063C58.4378 150.063 58.7819 149.975 59.0508 149.797C59.3242 149.619 59.543 149.384 59.707 149.093C59.8711 148.801 59.9987 148.484 60.0898 148.143V146.495C60.0352 146.244 59.9554 146.003 59.8506 145.771C59.7503 145.534 59.6182 145.324 59.4541 145.142C59.2946 144.955 59.0964 144.807 58.8594 144.697C58.627 144.588 58.3512 144.533 58.0322 144.533C57.6859 144.533 57.3874 144.606 57.1367 144.752C56.8906 144.893 56.6878 145.089 56.5283 145.34C56.3688 145.586 56.2503 145.873 56.1729 146.201C56.0999 146.525 56.0635 146.871 56.0635 147.24ZM67.6201 149.735V145.928C67.6201 145.636 67.5609 145.383 67.4424 145.169C67.3285 144.95 67.1553 144.782 66.9229 144.663C66.6904 144.545 66.4033 144.485 66.0615 144.485C65.7425 144.485 65.4622 144.54 65.2207 144.649C64.9837 144.759 64.7969 144.902 64.6602 145.08C64.528 145.258 64.4619 145.449 64.4619 145.654H63.1973C63.1973 145.39 63.2656 145.128 63.4023 144.868C63.5391 144.608 63.735 144.374 63.9902 144.164C64.25 143.95 64.5599 143.781 64.9199 143.658C65.2845 143.531 65.6901 143.467 66.1367 143.467C66.6745 143.467 67.1484 143.558 67.5586 143.74C67.9733 143.923 68.2969 144.198 68.5293 144.567C68.7663 144.932 68.8848 145.39 68.8848 145.941V149.387C68.8848 149.633 68.9053 149.895 68.9463 150.173C68.9919 150.451 69.0579 150.69 69.1445 150.891V151H67.8252C67.7614 150.854 67.7113 150.66 67.6748 150.419C67.6383 150.173 67.6201 149.945 67.6201 149.735ZM67.8389 146.516L67.8525 147.404H66.5742C66.2142 147.404 65.8929 147.434 65.6104 147.493C65.3278 147.548 65.0908 147.632 64.8994 147.746C64.708 147.86 64.5622 148.004 64.4619 148.177C64.3617 148.345 64.3115 148.544 64.3115 148.771C64.3115 149.004 64.3639 149.216 64.4688 149.407C64.5736 149.599 64.7308 149.751 64.9404 149.865C65.1546 149.975 65.4167 150.029 65.7266 150.029C66.1139 150.029 66.4557 149.947 66.752 149.783C67.0482 149.619 67.2829 149.419 67.4561 149.182C67.6338 148.945 67.7295 148.715 67.7432 148.491L68.2832 149.1C68.2513 149.291 68.1647 149.503 68.0234 149.735C67.8822 149.968 67.693 150.191 67.4561 150.405C67.2236 150.615 66.9456 150.79 66.6221 150.932C66.3031 151.068 65.943 151.137 65.542 151.137C65.0407 151.137 64.6009 151.039 64.2227 150.843C63.849 150.647 63.5573 150.385 63.3477 150.057C63.1426 149.724 63.04 149.353 63.04 148.942C63.04 148.546 63.1175 148.197 63.2725 147.896C63.4274 147.591 63.6507 147.338 63.9424 147.138C64.234 146.933 64.585 146.778 64.9951 146.673C65.4053 146.568 65.8633 146.516 66.3691 146.516H67.8389ZM78.251 149.489L81.1836 141.047H82.6123L78.9277 151H77.9092L78.251 149.489ZM75.5098 141.047L78.415 149.489L78.7773 151H77.7588L74.0811 141.047H75.5098ZM85.3848 143.604V151H84.1133V143.604H85.3848ZM84.0176 141.642C84.0176 141.437 84.0791 141.263 84.2021 141.122C84.3298 140.981 84.5166 140.91 84.7627 140.91C85.0042 140.91 85.1888 140.981 85.3164 141.122C85.4486 141.263 85.5146 141.437 85.5146 141.642C85.5146 141.838 85.4486 142.006 85.3164 142.147C85.1888 142.284 85.0042 142.353 84.7627 142.353C84.5166 142.353 84.3298 142.284 84.2021 142.147C84.0791 142.006 84.0176 141.838 84.0176 141.642ZM92.3271 149.564V140.5H93.5986V151H92.4365L92.3271 149.564ZM87.3506 147.384V147.24C87.3506 146.675 87.4189 146.162 87.5557 145.702C87.6969 145.237 87.8952 144.839 88.1504 144.506C88.4102 144.173 88.7178 143.918 89.0732 143.74C89.4333 143.558 89.8343 143.467 90.2764 143.467C90.7412 143.467 91.1468 143.549 91.4932 143.713C91.8441 143.872 92.1403 144.107 92.3818 144.417C92.6279 144.722 92.8216 145.091 92.9629 145.524C93.1042 145.957 93.2021 146.447 93.2568 146.994V147.623C93.2067 148.165 93.1087 148.653 92.9629 149.086C92.8216 149.519 92.6279 149.888 92.3818 150.193C92.1403 150.499 91.8441 150.733 91.4932 150.897C91.1423 151.057 90.7321 151.137 90.2627 151.137C89.8298 151.137 89.4333 151.043 89.0732 150.856C88.7178 150.67 88.4102 150.408 88.1504 150.07C87.8952 149.733 87.6969 149.337 87.5557 148.881C87.4189 148.421 87.3506 147.922 87.3506 147.384ZM88.6221 147.24V147.384C88.6221 147.753 88.6585 148.099 88.7314 148.423C88.8089 148.746 88.9274 149.031 89.0869 149.277C89.2464 149.523 89.4492 149.717 89.6953 149.858C89.9414 149.995 90.2354 150.063 90.5771 150.063C90.9964 150.063 91.3405 149.975 91.6094 149.797C91.8828 149.619 92.1016 149.384 92.2656 149.093C92.4297 148.801 92.5573 148.484 92.6484 148.143V146.495C92.5938 146.244 92.514 146.003 92.4092 145.771C92.3089 145.534 92.1768 145.324 92.0127 145.142C91.8532 144.955 91.6549 144.807 91.418 144.697C91.1855 144.588 90.9098 144.533 90.5908 144.533C90.2445 144.533 89.946 144.606 89.6953 144.752C89.4492 144.893 89.2464 145.089 89.0869 145.34C88.9274 145.586 88.8089 145.873 88.7314 146.201C88.6585 146.525 88.6221 146.871 88.6221 147.24ZM98.8867 151.137C98.3717 151.137 97.9046 151.05 97.4854 150.877C97.0706 150.699 96.7129 150.451 96.4121 150.132C96.1159 149.813 95.888 149.435 95.7285 148.997C95.569 148.56 95.4893 148.081 95.4893 147.562V147.274C95.4893 146.673 95.5781 146.137 95.7559 145.668C95.9336 145.194 96.1751 144.793 96.4805 144.465C96.7858 144.137 97.1322 143.888 97.5195 143.72C97.9069 143.551 98.3079 143.467 98.7227 143.467C99.2513 143.467 99.707 143.558 100.09 143.74C100.477 143.923 100.794 144.178 101.04 144.506C101.286 144.829 101.468 145.212 101.587 145.654C101.705 146.092 101.765 146.57 101.765 147.09V147.657H96.2412V146.625H100.5V146.529C100.482 146.201 100.413 145.882 100.295 145.572C100.181 145.262 99.9987 145.007 99.748 144.807C99.4974 144.606 99.1556 144.506 98.7227 144.506C98.4355 144.506 98.1712 144.567 97.9297 144.69C97.6882 144.809 97.4808 144.987 97.3076 145.224C97.1344 145.461 97 145.75 96.9043 146.092C96.8086 146.434 96.7607 146.828 96.7607 147.274V147.562C96.7607 147.912 96.8086 148.243 96.9043 148.553C97.0046 148.858 97.1481 149.127 97.335 149.359C97.5264 149.592 97.7565 149.774 98.0254 149.906C98.2988 150.038 98.6087 150.104 98.9551 150.104C99.4017 150.104 99.7799 150.013 100.09 149.831C100.4 149.649 100.671 149.405 100.903 149.1L101.669 149.708C101.509 149.95 101.307 150.18 101.061 150.398C100.814 150.617 100.511 150.795 100.151 150.932C99.7959 151.068 99.3743 151.137 98.8867 151.137ZM103.156 147.384V147.227C103.156 146.693 103.234 146.199 103.389 145.743C103.544 145.283 103.767 144.884 104.059 144.547C104.35 144.205 104.703 143.941 105.118 143.754C105.533 143.562 105.998 143.467 106.513 143.467C107.032 143.467 107.499 143.562 107.914 143.754C108.333 143.941 108.689 144.205 108.98 144.547C109.277 144.884 109.502 145.283 109.657 145.743C109.812 146.199 109.89 146.693 109.89 147.227V147.384C109.89 147.917 109.812 148.411 109.657 148.867C109.502 149.323 109.277 149.722 108.98 150.063C108.689 150.401 108.336 150.665 107.921 150.856C107.511 151.043 107.046 151.137 106.526 151.137C106.007 151.137 105.54 151.043 105.125 150.856C104.71 150.665 104.355 150.401 104.059 150.063C103.767 149.722 103.544 149.323 103.389 148.867C103.234 148.411 103.156 147.917 103.156 147.384ZM104.421 147.227V147.384C104.421 147.753 104.464 148.102 104.551 148.43C104.637 148.753 104.767 149.04 104.94 149.291C105.118 149.542 105.339 149.74 105.604 149.886C105.868 150.027 106.175 150.098 106.526 150.098C106.873 150.098 107.176 150.027 107.436 149.886C107.7 149.74 107.919 149.542 108.092 149.291C108.265 149.04 108.395 148.753 108.481 148.43C108.573 148.102 108.618 147.753 108.618 147.384V147.227C108.618 146.862 108.573 146.518 108.481 146.194C108.395 145.866 108.263 145.577 108.085 145.326C107.912 145.071 107.693 144.87 107.429 144.725C107.169 144.579 106.864 144.506 106.513 144.506C106.166 144.506 105.861 144.579 105.597 144.725C105.337 144.87 105.118 145.071 104.94 145.326C104.767 145.577 104.637 145.866 104.551 146.194C104.464 146.518 104.421 146.862 104.421 147.227ZM119.311 147.097H116.651V146.023H119.311C119.826 146.023 120.243 145.941 120.562 145.777C120.881 145.613 121.113 145.385 121.259 145.094C121.409 144.802 121.484 144.469 121.484 144.096C121.484 143.754 121.409 143.433 121.259 143.132C121.113 142.831 120.881 142.59 120.562 142.407C120.243 142.22 119.826 142.127 119.311 142.127H116.959V151H115.64V141.047H119.311C120.062 141.047 120.698 141.177 121.218 141.437C121.737 141.696 122.132 142.056 122.4 142.517C122.669 142.972 122.804 143.494 122.804 144.082C122.804 144.72 122.669 145.265 122.4 145.716C122.132 146.167 121.737 146.511 121.218 146.748C120.698 146.98 120.062 147.097 119.311 147.097ZM127.504 151.137C126.989 151.137 126.522 151.05 126.103 150.877C125.688 150.699 125.33 150.451 125.029 150.132C124.733 149.813 124.505 149.435 124.346 148.997C124.186 148.56 124.106 148.081 124.106 147.562V147.274C124.106 146.673 124.195 146.137 124.373 145.668C124.551 145.194 124.792 144.793 125.098 144.465C125.403 144.137 125.749 143.888 126.137 143.72C126.524 143.551 126.925 143.467 127.34 143.467C127.868 143.467 128.324 143.558 128.707 143.74C129.094 143.923 129.411 144.178 129.657 144.506C129.903 144.829 130.086 145.212 130.204 145.654C130.323 146.092 130.382 146.57 130.382 147.09V147.657H124.858V146.625H129.117V146.529C129.099 146.201 129.031 145.882 128.912 145.572C128.798 145.262 128.616 145.007 128.365 144.807C128.115 144.606 127.773 144.506 127.34 144.506C127.053 144.506 126.788 144.567 126.547 144.69C126.305 144.809 126.098 144.987 125.925 145.224C125.752 145.461 125.617 145.75 125.521 146.092C125.426 146.434 125.378 146.828 125.378 147.274V147.562C125.378 147.912 125.426 148.243 125.521 148.553C125.622 148.858 125.765 149.127 125.952 149.359C126.144 149.592 126.374 149.774 126.643 149.906C126.916 150.038 127.226 150.104 127.572 150.104C128.019 150.104 128.397 150.013 128.707 149.831C129.017 149.649 129.288 149.405 129.521 149.1L130.286 149.708C130.127 149.95 129.924 150.18 129.678 150.398C129.432 150.617 129.129 150.795 128.769 150.932C128.413 151.068 127.992 151.137 127.504 151.137ZM133.366 145.073V151H132.095V143.604H133.298L133.366 145.073ZM133.106 147.021L132.519 147.001C132.523 146.495 132.589 146.028 132.717 145.6C132.844 145.167 133.034 144.791 133.284 144.472C133.535 144.153 133.847 143.907 134.221 143.733C134.594 143.556 135.027 143.467 135.52 143.467C135.866 143.467 136.185 143.517 136.477 143.617C136.768 143.713 137.021 143.866 137.235 144.075C137.45 144.285 137.616 144.554 137.734 144.882C137.853 145.21 137.912 145.606 137.912 146.071V151H136.647V146.133C136.647 145.745 136.581 145.436 136.449 145.203C136.322 144.971 136.139 144.802 135.902 144.697C135.665 144.588 135.387 144.533 135.068 144.533C134.695 144.533 134.382 144.599 134.132 144.731C133.881 144.864 133.681 145.046 133.53 145.278C133.38 145.511 133.271 145.777 133.202 146.078C133.138 146.374 133.106 146.689 133.106 147.021ZM137.898 146.324L137.051 146.584C137.055 146.178 137.121 145.789 137.249 145.415C137.381 145.041 137.57 144.709 137.816 144.417C138.067 144.125 138.375 143.895 138.739 143.727C139.104 143.553 139.521 143.467 139.99 143.467C140.387 143.467 140.738 143.519 141.043 143.624C141.353 143.729 141.613 143.891 141.822 144.109C142.036 144.324 142.198 144.599 142.308 144.937C142.417 145.274 142.472 145.675 142.472 146.14V151H141.2V146.126C141.2 145.711 141.134 145.39 141.002 145.162C140.874 144.93 140.692 144.768 140.455 144.677C140.223 144.581 139.945 144.533 139.621 144.533C139.343 144.533 139.097 144.581 138.883 144.677C138.669 144.772 138.489 144.905 138.343 145.073C138.197 145.237 138.085 145.426 138.008 145.641C137.935 145.855 137.898 146.083 137.898 146.324ZM144.629 140.5H145.9V149.564L145.791 151H144.629V140.5ZM150.897 147.24V147.384C150.897 147.922 150.834 148.421 150.706 148.881C150.578 149.337 150.392 149.733 150.146 150.07C149.899 150.408 149.599 150.67 149.243 150.856C148.888 151.043 148.48 151.137 148.02 151.137C147.55 151.137 147.138 151.057 146.782 150.897C146.431 150.733 146.135 150.499 145.894 150.193C145.652 149.888 145.458 149.519 145.312 149.086C145.171 148.653 145.073 148.165 145.019 147.623V146.994C145.073 146.447 145.171 145.957 145.312 145.524C145.458 145.091 145.652 144.722 145.894 144.417C146.135 144.107 146.431 143.872 146.782 143.713C147.133 143.549 147.541 143.467 148.006 143.467C148.471 143.467 148.883 143.558 149.243 143.74C149.603 143.918 149.904 144.173 150.146 144.506C150.392 144.839 150.578 145.237 150.706 145.702C150.834 146.162 150.897 146.675 150.897 147.24ZM149.626 147.384V147.24C149.626 146.871 149.592 146.525 149.523 146.201C149.455 145.873 149.346 145.586 149.195 145.34C149.045 145.089 148.847 144.893 148.601 144.752C148.354 144.606 148.051 144.533 147.691 144.533C147.372 144.533 147.094 144.588 146.857 144.697C146.625 144.807 146.427 144.955 146.263 145.142C146.099 145.324 145.964 145.534 145.859 145.771C145.759 146.003 145.684 146.244 145.634 146.495V148.143C145.707 148.462 145.825 148.769 145.989 149.065C146.158 149.357 146.381 149.596 146.659 149.783C146.942 149.97 147.29 150.063 147.705 150.063C148.047 150.063 148.339 149.995 148.58 149.858C148.826 149.717 149.024 149.523 149.175 149.277C149.33 149.031 149.444 148.746 149.517 148.423C149.59 148.099 149.626 147.753 149.626 147.384ZM155.816 151.137C155.301 151.137 154.834 151.05 154.415 150.877C154 150.699 153.643 150.451 153.342 150.132C153.046 149.813 152.818 149.435 152.658 148.997C152.499 148.56 152.419 148.081 152.419 147.562V147.274C152.419 146.673 152.508 146.137 152.686 145.668C152.863 145.194 153.105 144.793 153.41 144.465C153.715 144.137 154.062 143.888 154.449 143.72C154.837 143.551 155.238 143.467 155.652 143.467C156.181 143.467 156.637 143.558 157.02 143.74C157.407 143.923 157.724 144.178 157.97 144.506C158.216 144.829 158.398 145.212 158.517 145.654C158.635 146.092 158.694 146.57 158.694 147.09V147.657H153.171V146.625H157.43V146.529C157.411 146.201 157.343 145.882 157.225 145.572C157.111 145.262 156.928 145.007 156.678 144.807C156.427 144.606 156.085 144.506 155.652 144.506C155.365 144.506 155.101 144.567 154.859 144.69C154.618 144.809 154.41 144.987 154.237 145.224C154.064 145.461 153.93 145.75 153.834 146.092C153.738 146.434 153.69 146.828 153.69 147.274V147.562C153.69 147.912 153.738 148.243 153.834 148.553C153.934 148.858 154.078 149.127 154.265 149.359C154.456 149.592 154.686 149.774 154.955 149.906C155.229 150.038 155.538 150.104 155.885 150.104C156.331 150.104 156.71 150.013 157.02 149.831C157.329 149.649 157.601 149.405 157.833 149.1L158.599 149.708C158.439 149.95 158.236 150.18 157.99 150.398C157.744 150.617 157.441 150.795 157.081 150.932C156.726 151.068 156.304 151.137 155.816 151.137ZM161.795 140.5V151H160.523V140.5H161.795ZM168.437 149.735V145.928C168.437 145.636 168.377 145.383 168.259 145.169C168.145 144.95 167.972 144.782 167.739 144.663C167.507 144.545 167.22 144.485 166.878 144.485C166.559 144.485 166.279 144.54 166.037 144.649C165.8 144.759 165.613 144.902 165.477 145.08C165.344 145.258 165.278 145.449 165.278 145.654H164.014C164.014 145.39 164.082 145.128 164.219 144.868C164.355 144.608 164.551 144.374 164.807 144.164C165.066 143.95 165.376 143.781 165.736 143.658C166.101 143.531 166.507 143.467 166.953 143.467C167.491 143.467 167.965 143.558 168.375 143.74C168.79 143.923 169.113 144.198 169.346 144.567C169.583 144.932 169.701 145.39 169.701 145.941V149.387C169.701 149.633 169.722 149.895 169.763 150.173C169.808 150.451 169.874 150.69 169.961 150.891V151H168.642C168.578 150.854 168.528 150.66 168.491 150.419C168.455 150.173 168.437 149.945 168.437 149.735ZM168.655 146.516L168.669 147.404H167.391C167.031 147.404 166.709 147.434 166.427 147.493C166.144 147.548 165.907 147.632 165.716 147.746C165.524 147.86 165.379 148.004 165.278 148.177C165.178 148.345 165.128 148.544 165.128 148.771C165.128 149.004 165.18 149.216 165.285 149.407C165.39 149.599 165.547 149.751 165.757 149.865C165.971 149.975 166.233 150.029 166.543 150.029C166.93 150.029 167.272 149.947 167.568 149.783C167.865 149.619 168.099 149.419 168.272 149.182C168.45 148.945 168.546 148.715 168.56 148.491L169.1 149.1C169.068 149.291 168.981 149.503 168.84 149.735C168.699 149.968 168.509 150.191 168.272 150.405C168.04 150.615 167.762 150.79 167.438 150.932C167.119 151.068 166.759 151.137 166.358 151.137C165.857 151.137 165.417 151.039 165.039 150.843C164.665 150.647 164.374 150.385 164.164 150.057C163.959 149.724 163.856 149.353 163.856 148.942C163.856 148.546 163.934 148.197 164.089 147.896C164.244 147.591 164.467 147.338 164.759 147.138C165.05 146.933 165.401 146.778 165.812 146.673C166.222 146.568 166.68 146.516 167.186 146.516H168.655ZM171.975 143.604H173.246V151.882C173.246 152.333 173.173 152.716 173.027 153.03C172.886 153.345 172.672 153.582 172.385 153.741C172.102 153.905 171.744 153.987 171.312 153.987C171.198 153.987 171.065 153.976 170.915 153.953C170.76 153.93 170.63 153.903 170.525 153.871L170.532 152.853C170.619 152.871 170.717 152.884 170.826 152.894C170.936 152.907 171.031 152.914 171.113 152.914C171.3 152.914 171.457 152.88 171.585 152.812C171.713 152.743 171.808 152.634 171.872 152.483C171.94 152.333 171.975 152.132 171.975 151.882V143.604ZM171.845 141.642C171.845 141.437 171.909 141.263 172.036 141.122C172.164 140.981 172.348 140.91 172.59 140.91C172.836 140.91 173.023 140.981 173.15 141.122C173.278 141.263 173.342 141.437 173.342 141.642C173.342 141.838 173.278 142.006 173.15 142.147C173.023 142.284 172.836 142.353 172.59 142.353C172.348 142.353 172.164 142.284 172.036 142.147C171.909 142.006 171.845 141.838 171.845 141.642ZM179.901 149.735V145.928C179.901 145.636 179.842 145.383 179.724 145.169C179.61 144.95 179.437 144.782 179.204 144.663C178.972 144.545 178.685 144.485 178.343 144.485C178.024 144.485 177.743 144.54 177.502 144.649C177.265 144.759 177.078 144.902 176.941 145.08C176.809 145.258 176.743 145.449 176.743 145.654H175.479C175.479 145.39 175.547 145.128 175.684 144.868C175.82 144.608 176.016 144.374 176.271 144.164C176.531 143.95 176.841 143.781 177.201 143.658C177.566 143.531 177.971 143.467 178.418 143.467C178.956 143.467 179.43 143.558 179.84 143.74C180.255 143.923 180.578 144.198 180.811 144.567C181.048 144.932 181.166 145.39 181.166 145.941V149.387C181.166 149.633 181.187 149.895 181.228 150.173C181.273 150.451 181.339 150.69 181.426 150.891V151H180.106C180.043 150.854 179.993 150.66 179.956 150.419C179.92 150.173 179.901 149.945 179.901 149.735ZM180.12 146.516L180.134 147.404H178.855C178.495 147.404 178.174 147.434 177.892 147.493C177.609 147.548 177.372 147.632 177.181 147.746C176.989 147.86 176.843 148.004 176.743 148.177C176.643 148.345 176.593 148.544 176.593 148.771C176.593 149.004 176.645 149.216 176.75 149.407C176.855 149.599 177.012 149.751 177.222 149.865C177.436 149.975 177.698 150.029 178.008 150.029C178.395 150.029 178.737 149.947 179.033 149.783C179.329 149.619 179.564 149.419 179.737 149.182C179.915 148.945 180.011 148.715 180.024 148.491L180.564 149.1C180.533 149.291 180.446 149.503 180.305 149.735C180.163 149.968 179.974 150.191 179.737 150.405C179.505 150.615 179.227 150.79 178.903 150.932C178.584 151.068 178.224 151.137 177.823 151.137C177.322 151.137 176.882 151.039 176.504 150.843C176.13 150.647 175.839 150.385 175.629 150.057C175.424 149.724 175.321 149.353 175.321 148.942C175.321 148.546 175.399 148.197 175.554 147.896C175.709 147.591 175.932 147.338 176.224 147.138C176.515 146.933 176.866 146.778 177.276 146.673C177.687 146.568 178.145 146.516 178.65 146.516H180.12ZM184.67 144.766V151H183.405V143.604H184.636L184.67 144.766ZM186.98 143.562L186.974 144.738C186.869 144.715 186.769 144.702 186.673 144.697C186.582 144.688 186.477 144.684 186.358 144.684C186.067 144.684 185.809 144.729 185.586 144.82C185.363 144.911 185.174 145.039 185.019 145.203C184.864 145.367 184.741 145.563 184.649 145.791C184.563 146.014 184.506 146.26 184.479 146.529L184.123 146.734C184.123 146.288 184.166 145.868 184.253 145.477C184.344 145.085 184.483 144.738 184.67 144.438C184.857 144.132 185.094 143.895 185.381 143.727C185.673 143.553 186.019 143.467 186.42 143.467C186.511 143.467 186.616 143.478 186.734 143.501C186.853 143.519 186.935 143.54 186.98 143.562ZM192.487 149.735V145.928C192.487 145.636 192.428 145.383 192.31 145.169C192.196 144.95 192.022 144.782 191.79 144.663C191.558 144.545 191.271 144.485 190.929 144.485C190.61 144.485 190.329 144.54 190.088 144.649C189.851 144.759 189.664 144.902 189.527 145.08C189.395 145.258 189.329 145.449 189.329 145.654H188.064C188.064 145.39 188.133 145.128 188.27 144.868C188.406 144.608 188.602 144.374 188.857 144.164C189.117 143.95 189.427 143.781 189.787 143.658C190.152 143.531 190.557 143.467 191.004 143.467C191.542 143.467 192.016 143.558 192.426 143.74C192.84 143.923 193.164 144.198 193.396 144.567C193.633 144.932 193.752 145.39 193.752 145.941V149.387C193.752 149.633 193.772 149.895 193.813 150.173C193.859 150.451 193.925 150.69 194.012 150.891V151H192.692C192.629 150.854 192.578 150.66 192.542 150.419C192.506 150.173 192.487 149.945 192.487 149.735ZM192.706 146.516L192.72 147.404H191.441C191.081 147.404 190.76 147.434 190.478 147.493C190.195 147.548 189.958 147.632 189.767 147.746C189.575 147.86 189.429 148.004 189.329 148.177C189.229 148.345 189.179 148.544 189.179 148.771C189.179 149.004 189.231 149.216 189.336 149.407C189.441 149.599 189.598 149.751 189.808 149.865C190.022 149.975 190.284 150.029 190.594 150.029C190.981 150.029 191.323 149.947 191.619 149.783C191.915 149.619 192.15 149.419 192.323 149.182C192.501 148.945 192.597 148.715 192.61 148.491L193.15 149.1C193.118 149.291 193.032 149.503 192.891 149.735C192.749 149.968 192.56 150.191 192.323 150.405C192.091 150.615 191.813 150.79 191.489 150.932C191.17 151.068 190.81 151.137 190.409 151.137C189.908 151.137 189.468 151.039 189.09 150.843C188.716 150.647 188.424 150.385 188.215 150.057C188.01 149.724 187.907 149.353 187.907 148.942C187.907 148.546 187.985 148.197 188.14 147.896C188.295 147.591 188.518 147.338 188.81 147.138C189.101 146.933 189.452 146.778 189.862 146.673C190.272 146.568 190.73 146.516 191.236 146.516H192.706ZM197.256 145.183V151H195.991V143.604H197.188L197.256 145.183ZM196.955 147.021L196.429 147.001C196.433 146.495 196.508 146.028 196.654 145.6C196.8 145.167 197.005 144.791 197.27 144.472C197.534 144.153 197.848 143.907 198.213 143.733C198.582 143.556 198.99 143.467 199.437 143.467C199.801 143.467 200.129 143.517 200.421 143.617C200.713 143.713 200.961 143.868 201.166 144.082C201.376 144.296 201.535 144.574 201.645 144.916C201.754 145.253 201.809 145.666 201.809 146.153V151H200.537V146.14C200.537 145.752 200.48 145.442 200.366 145.21C200.252 144.973 200.086 144.802 199.867 144.697C199.648 144.588 199.38 144.533 199.061 144.533C198.746 144.533 198.459 144.599 198.199 144.731C197.944 144.864 197.723 145.046 197.536 145.278C197.354 145.511 197.21 145.777 197.105 146.078C197.005 146.374 196.955 146.689 196.955 147.021Z" fill="#8E8E8E"/>
<defs>
<clipPath id="clip0_756_12238">
<rect width="120" height="120" fill="white" transform="translate(41.5)"/>
</clipPath>
</defs>
</svg>
