<svg width="241" height="156" viewBox="0 0 241 156" fill="none" xmlns="http://www.w3.org/2000/svg">
<g clip-path="url(#clip0_756_11123)">
<circle cx="121.5" cy="60" r="49.25" fill="#DCDCDC" stroke="#AEAEAE" stroke-width="1.5"/>
<path d="M70.5 36C70.5 30.3995 70.5 27.5992 71.5899 25.4601C72.5487 23.5785 74.0785 22.0487 75.9601 21.0899C78.0992 20 80.8995 20 86.5 20H88.5C99.701 20 105.302 20 109.58 22.1799C113.343 24.0973 116.403 27.1569 118.32 30.9202C120.5 35.1984 120.5 40.799 120.5 52V100H86.5C80.8995 100 78.0992 100 75.9601 98.9101C74.0785 97.9513 72.5487 96.4215 71.5899 94.5399C70.5 92.4008 70.5 89.6005 70.5 84V36Z" fill="#FAFAFA"/>
<path d="M170.5 36C170.5 30.3995 170.5 27.5992 169.41 25.4601C168.451 23.5785 166.922 22.0487 165.04 21.0899C162.901 20 160.101 20 154.5 20H152.5C141.299 20 135.698 20 131.42 22.1799C127.657 24.0973 124.597 27.1569 122.68 30.9202C120.5 35.1984 120.5 40.799 120.5 52V100H154.5C160.101 100 162.901 100 165.04 98.9101C166.922 97.9513 168.451 96.4215 169.41 94.5399C170.5 92.4008 170.5 89.6005 170.5 84V36Z" fill="#FAFAFA"/>
<path d="M120.5 100H86.5C80.8995 100 78.0992 100 75.9601 98.9101C74.0785 97.9513 72.5487 96.4215 71.5899 94.5399C70.5 92.4008 70.5 89.6005 70.5 84V36C70.5 30.3995 70.5 27.5992 71.5899 25.4601C72.5487 23.5785 74.0785 22.0487 75.9601 21.0899C78.0992 20 80.8995 20 86.5 20H88.5C99.701 20 105.302 20 109.58 22.1799C113.343 24.0973 116.403 27.1569 118.32 30.9202C120.5 35.1984 120.5 40.799 120.5 52M120.5 100V52M120.5 100H154.5C160.101 100 162.901 100 165.04 98.9101C166.922 97.9513 168.451 96.4215 169.41 94.5399C170.5 92.4008 170.5 89.6005 170.5 84V36C170.5 30.3995 170.5 27.5992 169.41 25.4601C168.451 23.5785 166.922 22.0487 165.04 21.0899C162.901 20 160.101 20 154.5 20H152.5C141.299 20 135.698 20 131.42 22.1799C127.657 24.0973 124.597 27.1569 122.68 30.9202C120.5 35.1984 120.5 40.799 120.5 52" stroke="#AEAEAE" stroke-width="3" stroke-linecap="round" stroke-linejoin="round"/>
<path d="M141.5 97C154.755 97 165.5 86.2548 165.5 73C165.5 59.7452 154.755 49 141.5 49C128.245 49 117.5 59.7452 117.5 73C117.5 86.2548 128.245 97 141.5 97Z" fill="#FAFAFA"/>
<path d="M171.5 103L158.45 89.95M165.5 73C165.5 86.2548 154.755 97 141.5 97C128.245 97 117.5 86.2548 117.5 73C117.5 59.7452 128.245 49 141.5 49C154.755 49 165.5 59.7452 165.5 73Z" stroke="#AEAEAE" stroke-width="4" stroke-linecap="round" stroke-linejoin="round"/>
<circle cx="134.5" cy="69" r="3" fill="#AEAEAE"/>
<circle cx="148.5" cy="69" r="3" fill="#AEAEAE"/>
<ellipse cx="141.5" cy="80.5" rx="4" ry="2.5" fill="#AEAEAE"/>
<line x1="128.188" y1="66.6096" x2="133.188" y2="62.6096" stroke="#AEAEAE"/>
<line x1="148.812" y1="62.6096" x2="153.812" y2="66.6096" stroke="#AEAEAE"/>
</g>
<path d="M4.38184 149.489L7.31445 141.047H8.74316L5.05859 151H4.04004L4.38184 149.489ZM1.64062 141.047L4.5459 149.489L4.9082 151H3.88965L0.211914 141.047H1.64062ZM11.5156 143.604V151H10.2441V143.604H11.5156ZM10.1484 141.642C10.1484 141.437 10.21 141.263 10.333 141.122C10.4606 140.981 10.6475 140.91 10.8936 140.91C11.1351 140.91 11.3197 140.981 11.4473 141.122C11.5794 141.263 11.6455 141.437 11.6455 141.642C11.6455 141.838 11.5794 142.006 11.4473 142.147C11.3197 142.284 11.1351 142.353 10.8936 142.353C10.6475 142.353 10.4606 142.284 10.333 142.147C10.21 142.006 10.1484 141.838 10.1484 141.642ZM18.458 149.564V140.5H19.7295V151H18.5674L18.458 149.564ZM13.4814 147.384V147.24C13.4814 146.675 13.5498 146.162 13.6865 145.702C13.8278 145.237 14.026 144.839 14.2812 144.506C14.541 144.173 14.8486 143.918 15.2041 143.74C15.5641 143.558 15.9652 143.467 16.4072 143.467C16.8721 143.467 17.2777 143.549 17.624 143.713C17.9749 143.872 18.2712 144.107 18.5127 144.417C18.7588 144.722 18.9525 145.091 19.0938 145.524C19.235 145.957 19.333 146.447 19.3877 146.994V147.623C19.3376 148.165 19.2396 148.653 19.0938 149.086C18.9525 149.519 18.7588 149.888 18.5127 150.193C18.2712 150.499 17.9749 150.733 17.624 150.897C17.2731 151.057 16.863 151.137 16.3936 151.137C15.9606 151.137 15.5641 151.043 15.2041 150.856C14.8486 150.67 14.541 150.408 14.2812 150.07C14.026 149.733 13.8278 149.337 13.6865 148.881C13.5498 148.421 13.4814 147.922 13.4814 147.384ZM14.7529 147.24V147.384C14.7529 147.753 14.7894 148.099 14.8623 148.423C14.9398 148.746 15.0583 149.031 15.2178 149.277C15.3773 149.523 15.5801 149.717 15.8262 149.858C16.0723 149.995 16.3662 150.063 16.708 150.063C17.1273 150.063 17.4714 149.975 17.7402 149.797C18.0137 149.619 18.2324 149.384 18.3965 149.093C18.5605 148.801 18.6882 148.484 18.7793 148.143V146.495C18.7246 146.244 18.6449 146.003 18.54 145.771C18.4398 145.534 18.3076 145.324 18.1436 145.142C17.984 144.955 17.7858 144.807 17.5488 144.697C17.3164 144.588 17.0407 144.533 16.7217 144.533C16.3753 144.533 16.0768 144.606 15.8262 144.752C15.5801 144.893 15.3773 145.089 15.2178 145.34C15.0583 145.586 14.9398 145.873 14.8623 146.201C14.7894 146.525 14.7529 146.871 14.7529 147.24ZM25.0176 151.137C24.5026 151.137 24.0355 151.05 23.6162 150.877C23.2015 150.699 22.8438 150.451 22.543 150.132C22.2467 149.813 22.0189 149.435 21.8594 148.997C21.6999 148.56 21.6201 148.081 21.6201 147.562V147.274C21.6201 146.673 21.709 146.137 21.8867 145.668C22.0645 145.194 22.306 144.793 22.6113 144.465C22.9167 144.137 23.263 143.888 23.6504 143.72C24.0378 143.551 24.4388 143.467 24.8535 143.467C25.3822 143.467 25.8379 143.558 26.2207 143.74C26.6081 143.923 26.9248 144.178 27.1709 144.506C27.417 144.829 27.5993 145.212 27.7178 145.654C27.8363 146.092 27.8955 146.57 27.8955 147.09V147.657H22.3721V146.625H26.6309V146.529C26.6126 146.201 26.5443 145.882 26.4258 145.572C26.3118 145.262 26.1296 145.007 25.8789 144.807C25.6283 144.606 25.2865 144.506 24.8535 144.506C24.5664 144.506 24.3021 144.567 24.0605 144.69C23.819 144.809 23.6117 144.987 23.4385 145.224C23.2653 145.461 23.1309 145.75 23.0352 146.092C22.9395 146.434 22.8916 146.828 22.8916 147.274V147.562C22.8916 147.912 22.9395 148.243 23.0352 148.553C23.1354 148.858 23.279 149.127 23.4658 149.359C23.6572 149.592 23.8874 149.774 24.1562 149.906C24.4297 150.038 24.7396 150.104 25.0859 150.104C25.5326 150.104 25.9108 150.013 26.2207 149.831C26.5306 149.649 26.8018 149.405 27.0342 149.1L27.7998 149.708C27.6403 149.95 27.4375 150.18 27.1914 150.398C26.9453 150.617 26.6423 150.795 26.2822 150.932C25.9268 151.068 25.5052 151.137 25.0176 151.137ZM29.2871 147.384V147.227C29.2871 146.693 29.3646 146.199 29.5195 145.743C29.6745 145.283 29.8978 144.884 30.1895 144.547C30.4811 144.205 30.8343 143.941 31.249 143.754C31.6637 143.562 32.1286 143.467 32.6436 143.467C33.1631 143.467 33.6302 143.562 34.0449 143.754C34.4642 143.941 34.8197 144.205 35.1113 144.547C35.4076 144.884 35.6331 145.283 35.7881 145.743C35.943 146.199 36.0205 146.693 36.0205 147.227V147.384C36.0205 147.917 35.943 148.411 35.7881 148.867C35.6331 149.323 35.4076 149.722 35.1113 150.063C34.8197 150.401 34.4665 150.665 34.0518 150.856C33.6416 151.043 33.1768 151.137 32.6572 151.137C32.1377 151.137 31.6706 151.043 31.2559 150.856C30.8411 150.665 30.4857 150.401 30.1895 150.063C29.8978 149.722 29.6745 149.323 29.5195 148.867C29.3646 148.411 29.2871 147.917 29.2871 147.384ZM30.5518 147.227V147.384C30.5518 147.753 30.5951 148.102 30.6816 148.43C30.7682 148.753 30.8981 149.04 31.0713 149.291C31.249 149.542 31.4701 149.74 31.7344 149.886C31.9987 150.027 32.3063 150.098 32.6572 150.098C33.0036 150.098 33.3066 150.027 33.5664 149.886C33.8307 149.74 34.0495 149.542 34.2227 149.291C34.3958 149.04 34.5257 148.753 34.6123 148.43C34.7035 148.102 34.749 147.753 34.749 147.384V147.227C34.749 146.862 34.7035 146.518 34.6123 146.194C34.5257 145.866 34.3936 145.577 34.2158 145.326C34.0426 145.071 33.8239 144.87 33.5596 144.725C33.2998 144.579 32.9945 144.506 32.6436 144.506C32.2972 144.506 31.9919 144.579 31.7275 144.725C31.4678 144.87 31.249 145.071 31.0713 145.326C30.8981 145.577 30.7682 145.866 30.6816 146.194C30.5951 146.518 30.5518 146.862 30.5518 147.227ZM45.4414 147.097H42.7822V146.023H45.4414C45.9564 146.023 46.3734 145.941 46.6924 145.777C47.0114 145.613 47.2438 145.385 47.3896 145.094C47.54 144.802 47.6152 144.469 47.6152 144.096C47.6152 143.754 47.54 143.433 47.3896 143.132C47.2438 142.831 47.0114 142.59 46.6924 142.407C46.3734 142.22 45.9564 142.127 45.4414 142.127H43.0898V151H41.7705V141.047H45.4414C46.1934 141.047 46.8291 141.177 47.3486 141.437C47.8682 141.696 48.2624 142.056 48.5312 142.517C48.8001 142.972 48.9346 143.494 48.9346 144.082C48.9346 144.72 48.8001 145.265 48.5312 145.716C48.2624 146.167 47.8682 146.511 47.3486 146.748C46.8291 146.98 46.1934 147.097 45.4414 147.097ZM53.6348 151.137C53.1198 151.137 52.6527 151.05 52.2334 150.877C51.8187 150.699 51.4609 150.451 51.1602 150.132C50.8639 149.813 50.6361 149.435 50.4766 148.997C50.3171 148.56 50.2373 148.081 50.2373 147.562V147.274C50.2373 146.673 50.3262 146.137 50.5039 145.668C50.6816 145.194 50.9232 144.793 51.2285 144.465C51.5339 144.137 51.8802 143.888 52.2676 143.72C52.6549 143.551 53.056 143.467 53.4707 143.467C53.9993 143.467 54.4551 143.558 54.8379 143.74C55.2253 143.923 55.542 144.178 55.7881 144.506C56.0342 144.829 56.2165 145.212 56.335 145.654C56.4535 146.092 56.5127 146.57 56.5127 147.09V147.657H50.9893V146.625H55.248V146.529C55.2298 146.201 55.1615 145.882 55.043 145.572C54.929 145.262 54.7467 145.007 54.4961 144.807C54.2454 144.606 53.9036 144.506 53.4707 144.506C53.1836 144.506 52.9193 144.567 52.6777 144.69C52.4362 144.809 52.2288 144.987 52.0557 145.224C51.8825 145.461 51.748 145.75 51.6523 146.092C51.5566 146.434 51.5088 146.828 51.5088 147.274V147.562C51.5088 147.912 51.5566 148.243 51.6523 148.553C51.7526 148.858 51.8962 149.127 52.083 149.359C52.2744 149.592 52.5046 149.774 52.7734 149.906C53.0469 150.038 53.3568 150.104 53.7031 150.104C54.1497 150.104 54.528 150.013 54.8379 149.831C55.1478 149.649 55.4189 149.405 55.6514 149.1L56.417 149.708C56.2575 149.95 56.0547 150.18 55.8086 150.398C55.5625 150.617 55.2594 150.795 54.8994 150.932C54.5439 151.068 54.1224 151.137 53.6348 151.137ZM59.4971 145.073V151H58.2256V143.604H59.4287L59.4971 145.073ZM59.2373 147.021L58.6494 147.001C58.654 146.495 58.7201 146.028 58.8477 145.6C58.9753 145.167 59.1644 144.791 59.415 144.472C59.6657 144.153 59.9779 143.907 60.3516 143.733C60.7253 143.556 61.1582 143.467 61.6504 143.467C61.9967 143.467 62.3158 143.517 62.6074 143.617C62.8991 143.713 63.152 143.866 63.3662 144.075C63.5804 144.285 63.7467 144.554 63.8652 144.882C63.9837 145.21 64.043 145.606 64.043 146.071V151H62.7783V146.133C62.7783 145.745 62.7122 145.436 62.5801 145.203C62.4525 144.971 62.2702 144.802 62.0332 144.697C61.7962 144.588 61.5182 144.533 61.1992 144.533C60.8255 144.533 60.5133 144.599 60.2627 144.731C60.012 144.864 59.8115 145.046 59.6611 145.278C59.5107 145.511 59.4014 145.777 59.333 146.078C59.2692 146.374 59.2373 146.689 59.2373 147.021ZM64.0293 146.324L63.1816 146.584C63.1862 146.178 63.2523 145.789 63.3799 145.415C63.512 145.041 63.7012 144.709 63.9473 144.417C64.1979 144.125 64.5055 143.895 64.8701 143.727C65.2347 143.553 65.6517 143.467 66.1211 143.467C66.5176 143.467 66.8685 143.519 67.1738 143.624C67.4837 143.729 67.7435 143.891 67.9531 144.109C68.1673 144.324 68.3291 144.599 68.4385 144.937C68.5479 145.274 68.6025 145.675 68.6025 146.14V151H67.3311V146.126C67.3311 145.711 67.265 145.39 67.1328 145.162C67.0052 144.93 66.8229 144.768 66.5859 144.677C66.3535 144.581 66.0755 144.533 65.752 144.533C65.474 144.533 65.2279 144.581 65.0137 144.677C64.7995 144.772 64.6195 144.905 64.4736 145.073C64.3278 145.237 64.2161 145.426 64.1387 145.641C64.0658 145.855 64.0293 146.083 64.0293 146.324ZM70.7598 140.5H72.0312V149.564L71.9219 151H70.7598V140.5ZM77.0283 147.24V147.384C77.0283 147.922 76.9645 148.421 76.8369 148.881C76.7093 149.337 76.5225 149.733 76.2764 150.07C76.0303 150.408 75.7295 150.67 75.374 150.856C75.0186 151.043 74.6107 151.137 74.1504 151.137C73.681 151.137 73.2686 151.057 72.9131 150.897C72.5622 150.733 72.266 150.499 72.0244 150.193C71.7829 149.888 71.5892 149.519 71.4434 149.086C71.3021 148.653 71.2041 148.165 71.1494 147.623V146.994C71.2041 146.447 71.3021 145.957 71.4434 145.524C71.5892 145.091 71.7829 144.722 72.0244 144.417C72.266 144.107 72.5622 143.872 72.9131 143.713C73.264 143.549 73.6719 143.467 74.1367 143.467C74.6016 143.467 75.014 143.558 75.374 143.74C75.734 143.918 76.0348 144.173 76.2764 144.506C76.5225 144.839 76.7093 145.237 76.8369 145.702C76.9645 146.162 77.0283 146.675 77.0283 147.24ZM75.7568 147.384V147.24C75.7568 146.871 75.7227 146.525 75.6543 146.201C75.5859 145.873 75.4766 145.586 75.3262 145.34C75.1758 145.089 74.9775 144.893 74.7314 144.752C74.4854 144.606 74.1823 144.533 73.8223 144.533C73.5033 144.533 73.2253 144.588 72.9883 144.697C72.7559 144.807 72.5576 144.955 72.3936 145.142C72.2295 145.324 72.0951 145.534 71.9902 145.771C71.89 146.003 71.8148 146.244 71.7646 146.495V148.143C71.8376 148.462 71.9561 148.769 72.1201 149.065C72.2887 149.357 72.512 149.596 72.79 149.783C73.0726 149.97 73.4212 150.063 73.8359 150.063C74.1777 150.063 74.4694 149.995 74.7109 149.858C74.957 149.717 75.1553 149.523 75.3057 149.277C75.4606 149.031 75.5745 148.746 75.6475 148.423C75.7204 148.099 75.7568 147.753 75.7568 147.384ZM81.9473 151.137C81.4323 151.137 80.9652 151.05 80.5459 150.877C80.1312 150.699 79.7734 150.451 79.4727 150.132C79.1764 149.813 78.9486 149.435 78.7891 148.997C78.6296 148.56 78.5498 148.081 78.5498 147.562V147.274C78.5498 146.673 78.6387 146.137 78.8164 145.668C78.9941 145.194 79.2357 144.793 79.541 144.465C79.8464 144.137 80.1927 143.888 80.5801 143.72C80.9674 143.551 81.3685 143.467 81.7832 143.467C82.3118 143.467 82.7676 143.558 83.1504 143.74C83.5378 143.923 83.8545 144.178 84.1006 144.506C84.3467 144.829 84.529 145.212 84.6475 145.654C84.766 146.092 84.8252 146.57 84.8252 147.09V147.657H79.3018V146.625H83.5605V146.529C83.5423 146.201 83.474 145.882 83.3555 145.572C83.2415 145.262 83.0592 145.007 82.8086 144.807C82.5579 144.606 82.2161 144.506 81.7832 144.506C81.4961 144.506 81.2318 144.567 80.9902 144.69C80.7487 144.809 80.5413 144.987 80.3682 145.224C80.195 145.461 80.0605 145.75 79.9648 146.092C79.8691 146.434 79.8213 146.828 79.8213 147.274V147.562C79.8213 147.912 79.8691 148.243 79.9648 148.553C80.0651 148.858 80.2087 149.127 80.3955 149.359C80.5869 149.592 80.8171 149.774 81.0859 149.906C81.3594 150.038 81.6693 150.104 82.0156 150.104C82.4622 150.104 82.8405 150.013 83.1504 149.831C83.4603 149.649 83.7314 149.405 83.9639 149.1L84.7295 149.708C84.57 149.95 84.3672 150.18 84.1211 150.398C83.875 150.617 83.5719 150.795 83.2119 150.932C82.8564 151.068 82.4349 151.137 81.9473 151.137ZM87.9258 140.5V151H86.6543V140.5H87.9258ZM94.5674 149.735V145.928C94.5674 145.636 94.5081 145.383 94.3896 145.169C94.2757 144.95 94.1025 144.782 93.8701 144.663C93.6377 144.545 93.3506 144.485 93.0088 144.485C92.6898 144.485 92.4095 144.54 92.168 144.649C91.931 144.759 91.7441 144.902 91.6074 145.08C91.4753 145.258 91.4092 145.449 91.4092 145.654H90.1445C90.1445 145.39 90.2129 145.128 90.3496 144.868C90.4863 144.608 90.6823 144.374 90.9375 144.164C91.1973 143.95 91.5072 143.781 91.8672 143.658C92.2318 143.531 92.6374 143.467 93.084 143.467C93.6217 143.467 94.0957 143.558 94.5059 143.74C94.9206 143.923 95.2441 144.198 95.4766 144.567C95.7135 144.932 95.832 145.39 95.832 145.941V149.387C95.832 149.633 95.8525 149.895 95.8936 150.173C95.9391 150.451 96.0052 150.69 96.0918 150.891V151H94.7725C94.7087 150.854 94.6585 150.66 94.6221 150.419C94.5856 150.173 94.5674 149.945 94.5674 149.735ZM94.7861 146.516L94.7998 147.404H93.5215C93.1615 147.404 92.8402 147.434 92.5576 147.493C92.2751 147.548 92.0381 147.632 91.8467 147.746C91.6553 147.86 91.5094 148.004 91.4092 148.177C91.3089 148.345 91.2588 148.544 91.2588 148.771C91.2588 149.004 91.3112 149.216 91.416 149.407C91.5208 149.599 91.6781 149.751 91.8877 149.865C92.1019 149.975 92.3639 150.029 92.6738 150.029C93.0612 150.029 93.403 149.947 93.6992 149.783C93.9954 149.619 94.2301 149.419 94.4033 149.182C94.5811 148.945 94.6768 148.715 94.6904 148.491L95.2305 149.1C95.1986 149.291 95.112 149.503 94.9707 149.735C94.8294 149.968 94.6403 150.191 94.4033 150.405C94.1709 150.615 93.8929 150.79 93.5693 150.932C93.2503 151.068 92.8903 151.137 92.4893 151.137C91.988 151.137 91.5482 151.039 91.1699 150.843C90.7962 150.647 90.5046 150.385 90.2949 150.057C90.0898 149.724 89.9873 149.353 89.9873 148.942C89.9873 148.546 90.0648 148.197 90.2197 147.896C90.3747 147.591 90.598 147.338 90.8896 147.138C91.1813 146.933 91.5322 146.778 91.9424 146.673C92.3525 146.568 92.8105 146.516 93.3164 146.516H94.7861ZM98.1055 143.604H99.377V151.882C99.377 152.333 99.304 152.716 99.1582 153.03C99.0169 153.345 98.8027 153.582 98.5156 153.741C98.2331 153.905 97.8753 153.987 97.4424 153.987C97.3285 153.987 97.1963 153.976 97.0459 153.953C96.891 153.93 96.7611 153.903 96.6562 153.871L96.6631 152.853C96.7497 152.871 96.8477 152.884 96.957 152.894C97.0664 152.907 97.1621 152.914 97.2441 152.914C97.431 152.914 97.5882 152.88 97.7158 152.812C97.8434 152.743 97.9391 152.634 98.0029 152.483C98.0713 152.333 98.1055 152.132 98.1055 151.882V143.604ZM97.9756 141.642C97.9756 141.437 98.0394 141.263 98.167 141.122C98.2946 140.981 98.4792 140.91 98.7207 140.91C98.9668 140.91 99.1536 140.981 99.2812 141.122C99.4089 141.263 99.4727 141.437 99.4727 141.642C99.4727 141.838 99.4089 142.006 99.2812 142.147C99.1536 142.284 98.9668 142.353 98.7207 142.353C98.4792 142.353 98.2946 142.284 98.167 142.147C98.0394 142.006 97.9756 141.838 97.9756 141.642ZM106.032 149.735V145.928C106.032 145.636 105.973 145.383 105.854 145.169C105.741 144.95 105.567 144.782 105.335 144.663C105.103 144.545 104.815 144.485 104.474 144.485C104.155 144.485 103.874 144.54 103.633 144.649C103.396 144.759 103.209 144.902 103.072 145.08C102.94 145.258 102.874 145.449 102.874 145.654H101.609C101.609 145.39 101.678 145.128 101.814 144.868C101.951 144.608 102.147 144.374 102.402 144.164C102.662 143.95 102.972 143.781 103.332 143.658C103.697 143.531 104.102 143.467 104.549 143.467C105.087 143.467 105.561 143.558 105.971 143.74C106.385 143.923 106.709 144.198 106.941 144.567C107.178 144.932 107.297 145.39 107.297 145.941V149.387C107.297 149.633 107.317 149.895 107.358 150.173C107.404 150.451 107.47 150.69 107.557 150.891V151H106.237C106.174 150.854 106.123 150.66 106.087 150.419C106.05 150.173 106.032 149.945 106.032 149.735ZM106.251 146.516L106.265 147.404H104.986C104.626 147.404 104.305 147.434 104.022 147.493C103.74 147.548 103.503 147.632 103.312 147.746C103.12 147.86 102.974 148.004 102.874 148.177C102.774 148.345 102.724 148.544 102.724 148.771C102.724 149.004 102.776 149.216 102.881 149.407C102.986 149.599 103.143 149.751 103.353 149.865C103.567 149.975 103.829 150.029 104.139 150.029C104.526 150.029 104.868 149.947 105.164 149.783C105.46 149.619 105.695 149.419 105.868 149.182C106.046 148.945 106.142 148.715 106.155 148.491L106.695 149.1C106.663 149.291 106.577 149.503 106.436 149.735C106.294 149.968 106.105 150.191 105.868 150.405C105.636 150.615 105.358 150.79 105.034 150.932C104.715 151.068 104.355 151.137 103.954 151.137C103.453 151.137 103.013 151.039 102.635 150.843C102.261 150.647 101.969 150.385 101.76 150.057C101.555 149.724 101.452 149.353 101.452 148.942C101.452 148.546 101.53 148.197 101.685 147.896C101.84 147.591 102.063 147.338 102.354 147.138C102.646 146.933 102.997 146.778 103.407 146.673C103.817 146.568 104.275 146.516 104.781 146.516H106.251ZM110.801 144.766V151H109.536V143.604H110.767L110.801 144.766ZM113.111 143.562L113.104 144.738C113 144.715 112.899 144.702 112.804 144.697C112.713 144.688 112.608 144.684 112.489 144.684C112.198 144.684 111.94 144.729 111.717 144.82C111.493 144.911 111.304 145.039 111.149 145.203C110.994 145.367 110.871 145.563 110.78 145.791C110.694 146.014 110.637 146.26 110.609 146.529L110.254 146.734C110.254 146.288 110.297 145.868 110.384 145.477C110.475 145.085 110.614 144.738 110.801 144.438C110.988 144.132 111.225 143.895 111.512 143.727C111.803 143.553 112.15 143.467 112.551 143.467C112.642 143.467 112.747 143.478 112.865 143.501C112.984 143.519 113.066 143.54 113.111 143.562ZM118.618 149.735V145.928C118.618 145.636 118.559 145.383 118.44 145.169C118.326 144.95 118.153 144.782 117.921 144.663C117.688 144.545 117.401 144.485 117.06 144.485C116.741 144.485 116.46 144.54 116.219 144.649C115.982 144.759 115.795 144.902 115.658 145.08C115.526 145.258 115.46 145.449 115.46 145.654H114.195C114.195 145.39 114.264 145.128 114.4 144.868C114.537 144.608 114.733 144.374 114.988 144.164C115.248 143.95 115.558 143.781 115.918 143.658C116.283 143.531 116.688 143.467 117.135 143.467C117.673 143.467 118.146 143.558 118.557 143.74C118.971 143.923 119.295 144.198 119.527 144.567C119.764 144.932 119.883 145.39 119.883 145.941V149.387C119.883 149.633 119.903 149.895 119.944 150.173C119.99 150.451 120.056 150.69 120.143 150.891V151H118.823C118.759 150.854 118.709 150.66 118.673 150.419C118.636 150.173 118.618 149.945 118.618 149.735ZM118.837 146.516L118.851 147.404H117.572C117.212 147.404 116.891 147.434 116.608 147.493C116.326 147.548 116.089 147.632 115.897 147.746C115.706 147.86 115.56 148.004 115.46 148.177C115.36 148.345 115.31 148.544 115.31 148.771C115.31 149.004 115.362 149.216 115.467 149.407C115.572 149.599 115.729 149.751 115.938 149.865C116.153 149.975 116.415 150.029 116.725 150.029C117.112 150.029 117.454 149.947 117.75 149.783C118.046 149.619 118.281 149.419 118.454 149.182C118.632 148.945 118.728 148.715 118.741 148.491L119.281 149.1C119.249 149.291 119.163 149.503 119.021 149.735C118.88 149.968 118.691 150.191 118.454 150.405C118.222 150.615 117.944 150.79 117.62 150.932C117.301 151.068 116.941 151.137 116.54 151.137C116.039 151.137 115.599 151.039 115.221 150.843C114.847 150.647 114.555 150.385 114.346 150.057C114.141 149.724 114.038 149.353 114.038 148.942C114.038 148.546 114.116 148.197 114.271 147.896C114.425 147.591 114.649 147.338 114.94 147.138C115.232 146.933 115.583 146.778 115.993 146.673C116.403 146.568 116.861 146.516 117.367 146.516H118.837ZM123.387 145.183V151H122.122V143.604H123.318L123.387 145.183ZM123.086 147.021L122.56 147.001C122.564 146.495 122.639 146.028 122.785 145.6C122.931 145.167 123.136 144.791 123.4 144.472C123.665 144.153 123.979 143.907 124.344 143.733C124.713 143.556 125.121 143.467 125.567 143.467C125.932 143.467 126.26 143.517 126.552 143.617C126.843 143.713 127.092 143.868 127.297 144.082C127.507 144.296 127.666 144.574 127.775 144.916C127.885 145.253 127.939 145.666 127.939 146.153V151H126.668V146.14C126.668 145.752 126.611 145.442 126.497 145.21C126.383 144.973 126.217 144.802 125.998 144.697C125.779 144.588 125.51 144.533 125.191 144.533C124.877 144.533 124.59 144.599 124.33 144.731C124.075 144.864 123.854 145.046 123.667 145.278C123.485 145.511 123.341 145.777 123.236 146.078C123.136 146.374 123.086 146.689 123.086 147.021ZM137.429 141.047V151H136.13V141.047H137.429ZM140.628 141.047V142.127H132.938V141.047H140.628ZM143.537 143.604V151H142.266V143.604H143.537ZM142.17 141.642C142.17 141.437 142.231 141.263 142.354 141.122C142.482 140.981 142.669 140.91 142.915 140.91C143.157 140.91 143.341 140.981 143.469 141.122C143.601 141.263 143.667 141.437 143.667 141.642C143.667 141.838 143.601 142.006 143.469 142.147C143.341 142.284 143.157 142.353 142.915 142.353C142.669 142.353 142.482 142.284 142.354 142.147C142.231 142.006 142.17 141.838 142.17 141.642ZM150.479 149.564V140.5H151.751V151H150.589L150.479 149.564ZM145.503 147.384V147.24C145.503 146.675 145.571 146.162 145.708 145.702C145.849 145.237 146.048 144.839 146.303 144.506C146.562 144.173 146.87 143.918 147.226 143.74C147.586 143.558 147.987 143.467 148.429 143.467C148.894 143.467 149.299 143.549 149.646 143.713C149.996 143.872 150.293 144.107 150.534 144.417C150.78 144.722 150.974 145.091 151.115 145.524C151.257 145.957 151.354 146.447 151.409 146.994V147.623C151.359 148.165 151.261 148.653 151.115 149.086C150.974 149.519 150.78 149.888 150.534 150.193C150.293 150.499 149.996 150.733 149.646 150.897C149.295 151.057 148.884 151.137 148.415 151.137C147.982 151.137 147.586 151.043 147.226 150.856C146.87 150.67 146.562 150.408 146.303 150.07C146.048 149.733 145.849 149.337 145.708 148.881C145.571 148.421 145.503 147.922 145.503 147.384ZM146.774 147.24V147.384C146.774 147.753 146.811 148.099 146.884 148.423C146.961 148.746 147.08 149.031 147.239 149.277C147.399 149.523 147.602 149.717 147.848 149.858C148.094 149.995 148.388 150.063 148.729 150.063C149.149 150.063 149.493 149.975 149.762 149.797C150.035 149.619 150.254 149.384 150.418 149.093C150.582 148.801 150.71 148.484 150.801 148.143V146.495C150.746 146.244 150.666 146.003 150.562 145.771C150.461 145.534 150.329 145.324 150.165 145.142C150.006 144.955 149.807 144.807 149.57 144.697C149.338 144.588 149.062 144.533 148.743 144.533C148.397 144.533 148.098 144.606 147.848 144.752C147.602 144.893 147.399 145.089 147.239 145.34C147.08 145.586 146.961 145.873 146.884 146.201C146.811 146.525 146.774 146.871 146.774 147.24ZM158.331 149.735V145.928C158.331 145.636 158.272 145.383 158.153 145.169C158.039 144.95 157.866 144.782 157.634 144.663C157.401 144.545 157.114 144.485 156.772 144.485C156.453 144.485 156.173 144.54 155.932 144.649C155.695 144.759 155.508 144.902 155.371 145.08C155.239 145.258 155.173 145.449 155.173 145.654H153.908C153.908 145.39 153.977 145.128 154.113 144.868C154.25 144.608 154.446 144.374 154.701 144.164C154.961 143.95 155.271 143.781 155.631 143.658C155.995 143.531 156.401 143.467 156.848 143.467C157.385 143.467 157.859 143.558 158.27 143.74C158.684 143.923 159.008 144.198 159.24 144.567C159.477 144.932 159.596 145.39 159.596 145.941V149.387C159.596 149.633 159.616 149.895 159.657 150.173C159.703 150.451 159.769 150.69 159.855 150.891V151H158.536C158.472 150.854 158.422 150.66 158.386 150.419C158.349 150.173 158.331 149.945 158.331 149.735ZM158.55 146.516L158.563 147.404H157.285C156.925 147.404 156.604 147.434 156.321 147.493C156.039 147.548 155.802 147.632 155.61 147.746C155.419 147.86 155.273 148.004 155.173 148.177C155.073 148.345 155.022 148.544 155.022 148.771C155.022 149.004 155.075 149.216 155.18 149.407C155.285 149.599 155.442 149.751 155.651 149.865C155.866 149.975 156.128 150.029 156.438 150.029C156.825 150.029 157.167 149.947 157.463 149.783C157.759 149.619 157.994 149.419 158.167 149.182C158.345 148.945 158.44 148.715 158.454 148.491L158.994 149.1C158.962 149.291 158.876 149.503 158.734 149.735C158.593 149.968 158.404 150.191 158.167 150.405C157.935 150.615 157.657 150.79 157.333 150.932C157.014 151.068 156.654 151.137 156.253 151.137C155.752 151.137 155.312 151.039 154.934 150.843C154.56 150.647 154.268 150.385 154.059 150.057C153.854 149.724 153.751 149.353 153.751 148.942C153.751 148.546 153.828 148.197 153.983 147.896C154.138 147.591 154.362 147.338 154.653 147.138C154.945 146.933 155.296 146.778 155.706 146.673C156.116 146.568 156.574 146.516 157.08 146.516H158.55ZM163.106 140.5V151H161.835V140.5H163.106ZM167.625 143.604L164.398 147.056L162.594 148.929L162.491 147.582L163.783 146.037L166.08 143.604H167.625ZM166.47 151L163.831 147.473L164.487 146.345L167.96 151H166.47ZM175.788 151H173.71L173.724 149.927H175.788C176.499 149.927 177.091 149.779 177.565 149.482C178.039 149.182 178.395 148.762 178.632 148.225C178.873 147.682 178.994 147.049 178.994 146.324V145.716C178.994 145.146 178.926 144.64 178.789 144.198C178.652 143.752 178.452 143.376 178.188 143.07C177.923 142.76 177.6 142.526 177.217 142.366C176.839 142.207 176.403 142.127 175.911 142.127H173.669V141.047H175.911C176.563 141.047 177.158 141.156 177.695 141.375C178.233 141.589 178.696 141.901 179.083 142.312C179.475 142.717 179.776 143.209 179.985 143.788C180.195 144.362 180.3 145.009 180.3 145.729V146.324C180.3 147.044 180.195 147.694 179.985 148.272C179.776 148.847 179.473 149.337 179.076 149.742C178.684 150.148 178.21 150.46 177.654 150.679C177.103 150.893 176.481 151 175.788 151ZM174.414 141.047V151H173.095V141.047H174.414ZM183.715 143.604V151H182.443V143.604H183.715ZM182.348 141.642C182.348 141.437 182.409 141.263 182.532 141.122C182.66 140.981 182.847 140.91 183.093 140.91C183.334 140.91 183.519 140.981 183.646 141.122C183.779 141.263 183.845 141.437 183.845 141.642C183.845 141.838 183.779 142.006 183.646 142.147C183.519 142.284 183.334 142.353 183.093 142.353C182.847 142.353 182.66 142.284 182.532 142.147C182.409 142.006 182.348 141.838 182.348 141.642ZM189.092 143.604V144.574H185.093V143.604H189.092ZM186.446 141.806H187.711V149.168C187.711 149.419 187.75 149.608 187.827 149.735C187.905 149.863 188.005 149.947 188.128 149.988C188.251 150.029 188.383 150.05 188.524 150.05C188.629 150.05 188.739 150.041 188.853 150.022C188.971 150 189.06 149.981 189.119 149.968L189.126 151C189.026 151.032 188.894 151.062 188.729 151.089C188.57 151.121 188.376 151.137 188.148 151.137C187.839 151.137 187.554 151.075 187.294 150.952C187.034 150.829 186.827 150.624 186.672 150.337C186.521 150.045 186.446 149.653 186.446 149.161V141.806ZM193.895 151.137C193.38 151.137 192.912 151.05 192.493 150.877C192.078 150.699 191.721 150.451 191.42 150.132C191.124 149.813 190.896 149.435 190.736 148.997C190.577 148.56 190.497 148.081 190.497 147.562V147.274C190.497 146.673 190.586 146.137 190.764 145.668C190.941 145.194 191.183 144.793 191.488 144.465C191.794 144.137 192.14 143.888 192.527 143.72C192.915 143.551 193.316 143.467 193.73 143.467C194.259 143.467 194.715 143.558 195.098 143.74C195.485 143.923 195.802 144.178 196.048 144.506C196.294 144.829 196.476 145.212 196.595 145.654C196.713 146.092 196.772 146.57 196.772 147.09V147.657H191.249V146.625H195.508V146.529C195.49 146.201 195.421 145.882 195.303 145.572C195.189 145.262 195.007 145.007 194.756 144.807C194.505 144.606 194.163 144.506 193.73 144.506C193.443 144.506 193.179 144.567 192.938 144.69C192.696 144.809 192.489 144.987 192.315 145.224C192.142 145.461 192.008 145.75 191.912 146.092C191.816 146.434 191.769 146.828 191.769 147.274V147.562C191.769 147.912 191.816 148.243 191.912 148.553C192.012 148.858 192.156 149.127 192.343 149.359C192.534 149.592 192.764 149.774 193.033 149.906C193.307 150.038 193.617 150.104 193.963 150.104C194.41 150.104 194.788 150.013 195.098 149.831C195.408 149.649 195.679 149.405 195.911 149.1L196.677 149.708C196.517 149.95 196.314 150.18 196.068 150.398C195.822 150.617 195.519 150.795 195.159 150.932C194.804 151.068 194.382 151.137 193.895 151.137ZM199.757 145.073V151H198.485V143.604H199.688L199.757 145.073ZM199.497 147.021L198.909 147.001C198.914 146.495 198.98 146.028 199.107 145.6C199.235 145.167 199.424 144.791 199.675 144.472C199.925 144.153 200.238 143.907 200.611 143.733C200.985 143.556 201.418 143.467 201.91 143.467C202.257 143.467 202.576 143.517 202.867 143.617C203.159 143.713 203.412 143.866 203.626 144.075C203.84 144.285 204.007 144.554 204.125 144.882C204.243 145.21 204.303 145.606 204.303 146.071V151H203.038V146.133C203.038 145.745 202.972 145.436 202.84 145.203C202.712 144.971 202.53 144.802 202.293 144.697C202.056 144.588 201.778 144.533 201.459 144.533C201.085 144.533 200.773 144.599 200.522 144.731C200.272 144.864 200.071 145.046 199.921 145.278C199.771 145.511 199.661 145.777 199.593 146.078C199.529 146.374 199.497 146.689 199.497 147.021ZM204.289 146.324L203.441 146.584C203.446 146.178 203.512 145.789 203.64 145.415C203.772 145.041 203.961 144.709 204.207 144.417C204.458 144.125 204.765 143.895 205.13 143.727C205.494 143.553 205.911 143.467 206.381 143.467C206.777 143.467 207.128 143.519 207.434 143.624C207.743 143.729 208.003 143.891 208.213 144.109C208.427 144.324 208.589 144.599 208.698 144.937C208.808 145.274 208.862 145.675 208.862 146.14V151H207.591V146.126C207.591 145.711 207.525 145.39 207.393 145.162C207.265 144.93 207.083 144.768 206.846 144.677C206.613 144.581 206.335 144.533 206.012 144.533C205.734 144.533 205.488 144.581 205.273 144.677C205.059 144.772 204.879 144.905 204.733 145.073C204.588 145.237 204.476 145.426 204.398 145.641C204.326 145.855 204.289 146.083 204.289 146.324ZM215.552 149.291V143.604H216.823V151H215.613L215.552 149.291ZM215.791 147.732L216.317 147.719C216.317 148.211 216.265 148.667 216.16 149.086C216.06 149.501 215.896 149.861 215.668 150.166C215.44 150.471 215.142 150.711 214.772 150.884C214.403 151.052 213.954 151.137 213.426 151.137C213.066 151.137 212.735 151.084 212.435 150.979C212.138 150.875 211.883 150.713 211.669 150.494C211.455 150.275 211.288 149.991 211.17 149.64C211.056 149.289 210.999 148.867 210.999 148.375V143.604H212.264V148.389C212.264 148.721 212.3 148.997 212.373 149.216C212.451 149.43 212.553 149.601 212.681 149.729C212.813 149.852 212.959 149.938 213.118 149.988C213.282 150.038 213.451 150.063 213.624 150.063C214.162 150.063 214.588 149.961 214.902 149.756C215.217 149.546 215.442 149.266 215.579 148.915C215.72 148.56 215.791 148.165 215.791 147.732ZM220.272 140.5V151H219.001V140.5H220.272ZM224.791 143.604L221.564 147.056L219.76 148.929L219.657 147.582L220.949 146.037L223.246 143.604H224.791ZM223.636 151L220.997 147.473L221.653 146.345L225.126 151H223.636ZM230.708 149.735V145.928C230.708 145.636 230.649 145.383 230.53 145.169C230.416 144.95 230.243 144.782 230.011 144.663C229.778 144.545 229.491 144.485 229.149 144.485C228.83 144.485 228.55 144.54 228.309 144.649C228.072 144.759 227.885 144.902 227.748 145.08C227.616 145.258 227.55 145.449 227.55 145.654H226.285C226.285 145.39 226.354 145.128 226.49 144.868C226.627 144.608 226.823 144.374 227.078 144.164C227.338 143.95 227.648 143.781 228.008 143.658C228.372 143.531 228.778 143.467 229.225 143.467C229.762 143.467 230.236 143.558 230.646 143.74C231.061 143.923 231.385 144.198 231.617 144.567C231.854 144.932 231.973 145.39 231.973 145.941V149.387C231.973 149.633 231.993 149.895 232.034 150.173C232.08 150.451 232.146 150.69 232.232 150.891V151H230.913C230.849 150.854 230.799 150.66 230.763 150.419C230.726 150.173 230.708 149.945 230.708 149.735ZM230.927 146.516L230.94 147.404H229.662C229.302 147.404 228.981 147.434 228.698 147.493C228.416 147.548 228.179 147.632 227.987 147.746C227.796 147.86 227.65 148.004 227.55 148.177C227.45 148.345 227.399 148.544 227.399 148.771C227.399 149.004 227.452 149.216 227.557 149.407C227.661 149.599 227.819 149.751 228.028 149.865C228.243 149.975 228.505 150.029 228.814 150.029C229.202 150.029 229.544 149.947 229.84 149.783C230.136 149.619 230.371 149.419 230.544 149.182C230.722 148.945 230.817 148.715 230.831 148.491L231.371 149.1C231.339 149.291 231.253 149.503 231.111 149.735C230.97 149.968 230.781 150.191 230.544 150.405C230.312 150.615 230.034 150.79 229.71 150.932C229.391 151.068 229.031 151.137 228.63 151.137C228.129 151.137 227.689 151.039 227.311 150.843C226.937 150.647 226.645 150.385 226.436 150.057C226.23 149.724 226.128 149.353 226.128 148.942C226.128 148.546 226.205 148.197 226.36 147.896C226.515 147.591 226.739 147.338 227.03 147.138C227.322 146.933 227.673 146.778 228.083 146.673C228.493 146.568 228.951 146.516 229.457 146.516H230.927ZM235.477 145.183V151H234.212V143.604H235.408L235.477 145.183ZM235.176 147.021L234.649 147.001C234.654 146.495 234.729 146.028 234.875 145.6C235.021 145.167 235.226 144.791 235.49 144.472C235.755 144.153 236.069 143.907 236.434 143.733C236.803 143.556 237.211 143.467 237.657 143.467C238.022 143.467 238.35 143.517 238.642 143.617C238.933 143.713 239.182 143.868 239.387 144.082C239.596 144.296 239.756 144.574 239.865 144.916C239.975 145.253 240.029 145.666 240.029 146.153V151H238.758V146.14C238.758 145.752 238.701 145.442 238.587 145.21C238.473 144.973 238.307 144.802 238.088 144.697C237.869 144.588 237.6 144.533 237.281 144.533C236.967 144.533 236.68 144.599 236.42 144.731C236.165 144.864 235.944 145.046 235.757 145.278C235.575 145.511 235.431 145.777 235.326 146.078C235.226 146.374 235.176 146.689 235.176 147.021Z" fill="#8E8E8E"/>
<defs>
<clipPath id="clip0_756_11123">
<rect width="120" height="120" fill="white" transform="translate(60.5)"/>
</clipPath>
</defs>
</svg>
