<svg width="286" height="156" viewBox="0 0 286 156" fill="none" xmlns="http://www.w3.org/2000/svg">
<g clip-path="url(#clip0_758_11822)">
<circle cx="144" cy="60" r="49.25" fill="#DCDCDC" stroke="#AEAEAE" stroke-width="1.5"/>
<path d="M93 36C93 30.3995 93 27.5992 94.0899 25.4601C95.0487 23.5785 96.5785 22.0487 98.4601 21.0899C100.599 20 103.399 20 109 20H111C122.201 20 127.802 20 132.08 22.1799C135.843 24.0973 138.903 27.1569 140.82 30.9202C143 35.1984 143 40.799 143 52V100H109C103.399 100 100.599 100 98.4601 98.9101C96.5785 97.9513 95.0487 96.4215 94.0899 94.5399C93 92.4008 93 89.6005 93 84V36Z" fill="#FAFAFA"/>
<path d="M193 36C193 30.3995 193 27.5992 191.91 25.4601C190.951 23.5785 189.422 22.0487 187.54 21.0899C185.401 20 182.601 20 177 20H175C163.799 20 158.198 20 153.92 22.1799C150.157 24.0973 147.097 27.1569 145.18 30.9202C143 35.1984 143 40.799 143 52V100H177C182.601 100 185.401 100 187.54 98.9101C189.422 97.9513 190.951 96.4215 191.91 94.5399C193 92.4008 193 89.6005 193 84V36Z" fill="#FAFAFA"/>
<path d="M143 100H109C103.399 100 100.599 100 98.4601 98.9101C96.5785 97.9513 95.0487 96.4215 94.0899 94.5399C93 92.4008 93 89.6005 93 84V36C93 30.3995 93 27.5992 94.0899 25.4601C95.0487 23.5785 96.5785 22.0487 98.4601 21.0899C100.599 20 103.399 20 109 20H111C122.201 20 127.802 20 132.08 22.1799C135.843 24.0973 138.903 27.1569 140.82 30.9202C143 35.1984 143 40.799 143 52M143 100V52M143 100H177C182.601 100 185.401 100 187.54 98.9101C189.422 97.9513 190.951 96.4215 191.91 94.5399C193 92.4008 193 89.6005 193 84V36C193 30.3995 193 27.5992 191.91 25.4601C190.951 23.5785 189.422 22.0487 187.54 21.0899C185.401 20 182.601 20 177 20H175C163.799 20 158.198 20 153.92 22.1799C150.157 24.0973 147.097 27.1569 145.18 30.9202C143 35.1984 143 40.799 143 52" stroke="#AEAEAE" stroke-width="3" stroke-linecap="round" stroke-linejoin="round"/>
<path d="M147 76.4C147 71.3595 147 68.8393 147.981 66.9141C148.844 65.2206 150.221 63.8438 151.914 62.9809C153.839 62 156.36 62 161.4 62H174.6C179.64 62 182.161 62 184.086 62.9809C185.779 63.8438 187.156 65.2206 188.019 66.9141C189 68.8393 189 71.3595 189 76.4V116L168 104L147 116V76.4Z" fill="#FAFAFA" stroke="#AEAEAE" stroke-width="4" stroke-linecap="round" stroke-linejoin="round"/>
<circle cx="161" cy="78" r="3" fill="#AEAEAE"/>
<circle cx="175" cy="78" r="3" fill="#AEAEAE"/>
<ellipse cx="168" cy="89.5" rx="4" ry="2.5" fill="#AEAEAE"/>
<line x1="154.688" y1="75.6096" x2="159.688" y2="71.6096" stroke="#AEAEAE"/>
<line x1="175.312" y1="71.6096" x2="180.312" y2="75.6096" stroke="#AEAEAE"/>
</g>
<path d="M4.81055 146.345H2.28809L2.27441 145.285H4.56445C4.94271 145.285 5.27311 145.221 5.55566 145.094C5.83822 144.966 6.05697 144.784 6.21191 144.547C6.37142 144.305 6.45117 144.018 6.45117 143.686C6.45117 143.321 6.38053 143.025 6.23926 142.797C6.10254 142.564 5.89062 142.396 5.60352 142.291C5.32096 142.182 4.96094 142.127 4.52344 142.127H2.58203V151H1.2627V141.047H4.52344C5.03385 141.047 5.48958 141.099 5.89062 141.204C6.29167 141.304 6.63118 141.464 6.90918 141.683C7.19173 141.897 7.40592 142.17 7.55176 142.503C7.69759 142.836 7.77051 143.234 7.77051 143.699C7.77051 144.109 7.66569 144.481 7.45605 144.813C7.24642 145.142 6.95475 145.41 6.58105 145.62C6.21191 145.83 5.77897 145.964 5.28223 146.023L4.81055 146.345ZM4.74902 151H1.76855L2.51367 149.927H4.74902C5.16829 149.927 5.52376 149.854 5.81543 149.708C6.11165 149.562 6.33724 149.357 6.49219 149.093C6.64714 148.824 6.72461 148.507 6.72461 148.143C6.72461 147.773 6.65853 147.454 6.52637 147.186C6.39421 146.917 6.18685 146.709 5.9043 146.563C5.62174 146.418 5.25716 146.345 4.81055 146.345H2.93066L2.94434 145.285H5.51465L5.79492 145.668C6.27344 145.709 6.67904 145.846 7.01172 146.078C7.3444 146.306 7.59733 146.598 7.77051 146.953C7.94824 147.309 8.03711 147.701 8.03711 148.129C8.03711 148.749 7.90039 149.273 7.62695 149.701C7.35807 150.125 6.97754 150.449 6.48535 150.672C5.99316 150.891 5.41439 151 4.74902 151ZM13.1133 151.137C12.5983 151.137 12.1312 151.05 11.7119 150.877C11.2972 150.699 10.9395 150.451 10.6387 150.132C10.3424 149.813 10.1146 149.435 9.95508 148.997C9.79557 148.56 9.71582 148.081 9.71582 147.562V147.274C9.71582 146.673 9.80469 146.137 9.98242 145.668C10.1602 145.194 10.4017 144.793 10.707 144.465C11.0124 144.137 11.3587 143.888 11.7461 143.72C12.1335 143.551 12.5345 143.467 12.9492 143.467C13.4779 143.467 13.9336 143.558 14.3164 143.74C14.7038 143.923 15.0205 144.178 15.2666 144.506C15.5127 144.829 15.695 145.212 15.8135 145.654C15.932 146.092 15.9912 146.57 15.9912 147.09V147.657H10.4678V146.625H14.7266V146.529C14.7083 146.201 14.64 145.882 14.5215 145.572C14.4076 145.262 14.2253 145.007 13.9746 144.807C13.724 144.606 13.3822 144.506 12.9492 144.506C12.6621 144.506 12.3978 144.567 12.1562 144.69C11.9147 144.809 11.7074 144.987 11.5342 145.224C11.361 145.461 11.2266 145.75 11.1309 146.092C11.0352 146.434 10.9873 146.828 10.9873 147.274V147.562C10.9873 147.912 11.0352 148.243 11.1309 148.553C11.2311 148.858 11.3747 149.127 11.5615 149.359C11.7529 149.592 11.9831 149.774 12.252 149.906C12.5254 150.038 12.8353 150.104 13.1816 150.104C13.6283 150.104 14.0065 150.013 14.3164 149.831C14.6263 149.649 14.8975 149.405 15.1299 149.1L15.8955 149.708C15.736 149.95 15.5332 150.18 15.2871 150.398C15.041 150.617 14.738 150.795 14.3779 150.932C14.0225 151.068 13.6009 151.137 13.1133 151.137ZM19.0918 140.5V151H17.8203V140.5H19.0918ZM25.8975 149.291V143.604H27.1689V151H25.959L25.8975 149.291ZM26.1367 147.732L26.6631 147.719C26.6631 148.211 26.6107 148.667 26.5059 149.086C26.4056 149.501 26.2415 149.861 26.0137 150.166C25.7858 150.471 25.4873 150.711 25.1182 150.884C24.749 151.052 24.3001 151.137 23.7715 151.137C23.4115 151.137 23.0811 151.084 22.7803 150.979C22.484 150.875 22.2288 150.713 22.0146 150.494C21.8005 150.275 21.6341 149.991 21.5156 149.64C21.4017 149.289 21.3447 148.867 21.3447 148.375V143.604H22.6094V148.389C22.6094 148.721 22.6458 148.997 22.7188 149.216C22.7962 149.43 22.8988 149.601 23.0264 149.729C23.1585 149.852 23.3044 149.938 23.4639 149.988C23.6279 150.038 23.7965 150.063 23.9697 150.063C24.5075 150.063 24.9336 149.961 25.248 149.756C25.5625 149.546 25.7881 149.266 25.9248 148.915C26.0661 148.56 26.1367 148.165 26.1367 147.732ZM30.6045 145.073V151H29.333V143.604H30.5361L30.6045 145.073ZM30.3447 147.021L29.7568 147.001C29.7614 146.495 29.8275 146.028 29.9551 145.6C30.0827 145.167 30.2718 144.791 30.5225 144.472C30.7731 144.153 31.0853 143.907 31.459 143.733C31.8327 143.556 32.2656 143.467 32.7578 143.467C33.1042 143.467 33.4232 143.517 33.7148 143.617C34.0065 143.713 34.2594 143.866 34.4736 144.075C34.6878 144.285 34.8542 144.554 34.9727 144.882C35.0911 145.21 35.1504 145.606 35.1504 146.071V151H33.8857V146.133C33.8857 145.745 33.8197 145.436 33.6875 145.203C33.5599 144.971 33.3776 144.802 33.1406 144.697C32.9036 144.588 32.6257 144.533 32.3066 144.533C31.9329 144.533 31.6208 144.599 31.3701 144.731C31.1195 144.864 30.9189 145.046 30.7686 145.278C30.6182 145.511 30.5088 145.777 30.4404 146.078C30.3766 146.374 30.3447 146.689 30.3447 147.021ZM35.1367 146.324L34.2891 146.584C34.2936 146.178 34.3597 145.789 34.4873 145.415C34.6195 145.041 34.8086 144.709 35.0547 144.417C35.3053 144.125 35.613 143.895 35.9775 143.727C36.3421 143.553 36.7591 143.467 37.2285 143.467C37.625 143.467 37.9759 143.519 38.2812 143.624C38.5911 143.729 38.8509 143.891 39.0605 144.109C39.2747 144.324 39.4365 144.599 39.5459 144.937C39.6553 145.274 39.71 145.675 39.71 146.14V151H38.4385V146.126C38.4385 145.711 38.3724 145.39 38.2402 145.162C38.1126 144.93 37.9303 144.768 37.6934 144.677C37.4609 144.581 37.1829 144.533 36.8594 144.533C36.5814 144.533 36.3353 144.581 36.1211 144.677C35.9069 144.772 35.7269 144.905 35.5811 145.073C35.4352 145.237 35.3236 145.426 35.2461 145.641C35.1732 145.855 35.1367 146.083 35.1367 146.324ZM49.958 149.735V145.928C49.958 145.636 49.8988 145.383 49.7803 145.169C49.6663 144.95 49.4932 144.782 49.2607 144.663C49.0283 144.545 48.7412 144.485 48.3994 144.485C48.0804 144.485 47.8001 144.54 47.5586 144.649C47.3216 144.759 47.1348 144.902 46.998 145.08C46.8659 145.258 46.7998 145.449 46.7998 145.654H45.5352C45.5352 145.39 45.6035 145.128 45.7402 144.868C45.877 144.608 46.0729 144.374 46.3281 144.164C46.5879 143.95 46.8978 143.781 47.2578 143.658C47.6224 143.531 48.028 143.467 48.4746 143.467C49.0124 143.467 49.4863 143.558 49.8965 143.74C50.3112 143.923 50.6348 144.198 50.8672 144.567C51.1042 144.932 51.2227 145.39 51.2227 145.941V149.387C51.2227 149.633 51.2432 149.895 51.2842 150.173C51.3298 150.451 51.3958 150.69 51.4824 150.891V151H50.1631C50.0993 150.854 50.0492 150.66 50.0127 150.419C49.9762 150.173 49.958 149.945 49.958 149.735ZM50.1768 146.516L50.1904 147.404H48.9121C48.5521 147.404 48.2308 147.434 47.9482 147.493C47.6657 147.548 47.4287 147.632 47.2373 147.746C47.0459 147.86 46.9001 148.004 46.7998 148.177C46.6995 148.345 46.6494 148.544 46.6494 148.771C46.6494 149.004 46.7018 149.216 46.8066 149.407C46.9115 149.599 47.0687 149.751 47.2783 149.865C47.4925 149.975 47.7546 150.029 48.0645 150.029C48.4518 150.029 48.7936 149.947 49.0898 149.783C49.3861 149.619 49.6208 149.419 49.7939 149.182C49.9717 148.945 50.0674 148.715 50.0811 148.491L50.6211 149.1C50.5892 149.291 50.5026 149.503 50.3613 149.735C50.2201 149.968 50.0309 150.191 49.7939 150.405C49.5615 150.615 49.2835 150.79 48.96 150.932C48.641 151.068 48.2809 151.137 47.8799 151.137C47.3786 151.137 46.9388 151.039 46.5605 150.843C46.1868 150.647 45.8952 150.385 45.6855 150.057C45.4805 149.724 45.3779 149.353 45.3779 148.942C45.3779 148.546 45.4554 148.197 45.6104 147.896C45.7653 147.591 45.9886 147.338 46.2803 147.138C46.5719 146.933 46.9229 146.778 47.333 146.673C47.7432 146.568 48.2012 146.516 48.707 146.516H50.1768ZM58.124 149.564V140.5H59.3955V151H58.2334L58.124 149.564ZM53.1475 147.384V147.24C53.1475 146.675 53.2158 146.162 53.3525 145.702C53.4938 145.237 53.6921 144.839 53.9473 144.506C54.207 144.173 54.5146 143.918 54.8701 143.74C55.2301 143.558 55.6312 143.467 56.0732 143.467C56.5381 143.467 56.9437 143.549 57.29 143.713C57.641 143.872 57.9372 144.107 58.1787 144.417C58.4248 144.722 58.6185 145.091 58.7598 145.524C58.901 145.957 58.999 146.447 59.0537 146.994V147.623C59.0036 148.165 58.9056 148.653 58.7598 149.086C58.6185 149.519 58.4248 149.888 58.1787 150.193C57.9372 150.499 57.641 150.733 57.29 150.897C56.9391 151.057 56.529 151.137 56.0596 151.137C55.6266 151.137 55.2301 151.043 54.8701 150.856C54.5146 150.67 54.207 150.408 53.9473 150.07C53.6921 149.733 53.4938 149.337 53.3525 148.881C53.2158 148.421 53.1475 147.922 53.1475 147.384ZM54.4189 147.24V147.384C54.4189 147.753 54.4554 148.099 54.5283 148.423C54.6058 148.746 54.7243 149.031 54.8838 149.277C55.0433 149.523 55.2461 149.717 55.4922 149.858C55.7383 149.995 56.0322 150.063 56.374 150.063C56.7933 150.063 57.1374 149.975 57.4062 149.797C57.6797 149.619 57.8984 149.384 58.0625 149.093C58.2266 148.801 58.3542 148.484 58.4453 148.143V146.495C58.3906 146.244 58.3109 146.003 58.2061 145.771C58.1058 145.534 57.9736 145.324 57.8096 145.142C57.6501 144.955 57.4518 144.807 57.2148 144.697C56.9824 144.588 56.7067 144.533 56.3877 144.533C56.0413 144.533 55.7428 144.606 55.4922 144.752C55.2461 144.893 55.0433 145.089 54.8838 145.34C54.7243 145.586 54.6058 145.873 54.5283 146.201C54.4554 146.525 54.4189 146.871 54.4189 147.24ZM65.9756 149.735V145.928C65.9756 145.636 65.9163 145.383 65.7979 145.169C65.6839 144.95 65.5107 144.782 65.2783 144.663C65.0459 144.545 64.7588 144.485 64.417 144.485C64.098 144.485 63.8177 144.54 63.5762 144.649C63.3392 144.759 63.1523 144.902 63.0156 145.08C62.8835 145.258 62.8174 145.449 62.8174 145.654H61.5527C61.5527 145.39 61.6211 145.128 61.7578 144.868C61.8945 144.608 62.0905 144.374 62.3457 144.164C62.6055 143.95 62.9154 143.781 63.2754 143.658C63.64 143.531 64.0456 143.467 64.4922 143.467C65.0299 143.467 65.5039 143.558 65.9141 143.74C66.3288 143.923 66.6523 144.198 66.8848 144.567C67.1217 144.932 67.2402 145.39 67.2402 145.941V149.387C67.2402 149.633 67.2607 149.895 67.3018 150.173C67.3473 150.451 67.4134 150.69 67.5 150.891V151H66.1807C66.1169 150.854 66.0667 150.66 66.0303 150.419C65.9938 150.173 65.9756 149.945 65.9756 149.735ZM66.1943 146.516L66.208 147.404H64.9297C64.5697 147.404 64.2484 147.434 63.9658 147.493C63.6833 147.548 63.4463 147.632 63.2549 147.746C63.0635 147.86 62.9176 148.004 62.8174 148.177C62.7171 148.345 62.667 148.544 62.667 148.771C62.667 149.004 62.7194 149.216 62.8242 149.407C62.929 149.599 63.0863 149.751 63.2959 149.865C63.5101 149.975 63.7721 150.029 64.082 150.029C64.4694 150.029 64.8112 149.947 65.1074 149.783C65.4036 149.619 65.6383 149.419 65.8115 149.182C65.9893 148.945 66.085 148.715 66.0986 148.491L66.6387 149.1C66.6068 149.291 66.5202 149.503 66.3789 149.735C66.2376 149.968 66.0485 150.191 65.8115 150.405C65.5791 150.615 65.3011 150.79 64.9775 150.932C64.6585 151.068 64.2985 151.137 63.8975 151.137C63.3962 151.137 62.9564 151.039 62.5781 150.843C62.2044 150.647 61.9128 150.385 61.7031 150.057C61.498 149.724 61.3955 149.353 61.3955 148.942C61.3955 148.546 61.473 148.197 61.6279 147.896C61.7829 147.591 62.0062 147.338 62.2979 147.138C62.5895 146.933 62.9404 146.778 63.3506 146.673C63.7607 146.568 64.2188 146.516 64.7246 146.516H66.1943ZM76.6064 149.489L79.5391 141.047H80.9678L77.2832 151H76.2646L76.6064 149.489ZM73.8652 141.047L76.7705 149.489L77.1328 151H76.1143L72.4365 141.047H73.8652ZM83.7402 143.604V151H82.4688V143.604H83.7402ZM82.373 141.642C82.373 141.437 82.4346 141.263 82.5576 141.122C82.6852 140.981 82.8721 140.91 83.1182 140.91C83.3597 140.91 83.5443 140.981 83.6719 141.122C83.804 141.263 83.8701 141.437 83.8701 141.642C83.8701 141.838 83.804 142.006 83.6719 142.147C83.5443 142.284 83.3597 142.353 83.1182 142.353C82.8721 142.353 82.6852 142.284 82.5576 142.147C82.4346 142.006 82.373 141.838 82.373 141.642ZM90.6826 149.564V140.5H91.9541V151H90.792L90.6826 149.564ZM85.7061 147.384V147.24C85.7061 146.675 85.7744 146.162 85.9111 145.702C86.0524 145.237 86.2507 144.839 86.5059 144.506C86.7656 144.173 87.0732 143.918 87.4287 143.74C87.7887 143.558 88.1898 143.467 88.6318 143.467C89.0967 143.467 89.5023 143.549 89.8486 143.713C90.1995 143.872 90.4958 144.107 90.7373 144.417C90.9834 144.722 91.1771 145.091 91.3184 145.524C91.4596 145.957 91.5576 146.447 91.6123 146.994V147.623C91.5622 148.165 91.4642 148.653 91.3184 149.086C91.1771 149.519 90.9834 149.888 90.7373 150.193C90.4958 150.499 90.1995 150.733 89.8486 150.897C89.4977 151.057 89.0876 151.137 88.6182 151.137C88.1852 151.137 87.7887 151.043 87.4287 150.856C87.0732 150.67 86.7656 150.408 86.5059 150.07C86.2507 149.733 86.0524 149.337 85.9111 148.881C85.7744 148.421 85.7061 147.922 85.7061 147.384ZM86.9775 147.24V147.384C86.9775 147.753 87.014 148.099 87.0869 148.423C87.1644 148.746 87.2829 149.031 87.4424 149.277C87.6019 149.523 87.8047 149.717 88.0508 149.858C88.2969 149.995 88.5908 150.063 88.9326 150.063C89.3519 150.063 89.696 149.975 89.9648 149.797C90.2383 149.619 90.457 149.384 90.6211 149.093C90.7852 148.801 90.9128 148.484 91.0039 148.143V146.495C90.9492 146.244 90.8695 146.003 90.7646 145.771C90.6644 145.534 90.5322 145.324 90.3682 145.142C90.2087 144.955 90.0104 144.807 89.7734 144.697C89.541 144.588 89.2653 144.533 88.9463 144.533C88.5999 144.533 88.3014 144.606 88.0508 144.752C87.8047 144.893 87.6019 145.089 87.4424 145.34C87.2829 145.586 87.1644 145.873 87.0869 146.201C87.014 146.525 86.9775 146.871 86.9775 147.24ZM97.2422 151.137C96.7272 151.137 96.2601 151.05 95.8408 150.877C95.4261 150.699 95.0684 150.451 94.7676 150.132C94.4714 149.813 94.2435 149.435 94.084 148.997C93.9245 148.56 93.8447 148.081 93.8447 147.562V147.274C93.8447 146.673 93.9336 146.137 94.1113 145.668C94.2891 145.194 94.5306 144.793 94.8359 144.465C95.1413 144.137 95.4876 143.888 95.875 143.72C96.2624 143.551 96.6634 143.467 97.0781 143.467C97.6068 143.467 98.0625 143.558 98.4453 143.74C98.8327 143.923 99.1494 144.178 99.3955 144.506C99.6416 144.829 99.8239 145.212 99.9424 145.654C100.061 146.092 100.12 146.57 100.12 147.09V147.657H94.5967V146.625H98.8555V146.529C98.8372 146.201 98.7689 145.882 98.6504 145.572C98.5365 145.262 98.3542 145.007 98.1035 144.807C97.8529 144.606 97.5111 144.506 97.0781 144.506C96.791 144.506 96.5267 144.567 96.2852 144.69C96.0436 144.809 95.8363 144.987 95.6631 145.224C95.4899 145.461 95.3555 145.75 95.2598 146.092C95.1641 146.434 95.1162 146.828 95.1162 147.274V147.562C95.1162 147.912 95.1641 148.243 95.2598 148.553C95.36 148.858 95.5036 149.127 95.6904 149.359C95.8818 149.592 96.112 149.774 96.3809 149.906C96.6543 150.038 96.9642 150.104 97.3105 150.104C97.7572 150.104 98.1354 150.013 98.4453 149.831C98.7552 149.649 99.0264 149.405 99.2588 149.1L100.024 149.708C99.8649 149.95 99.6621 150.18 99.416 150.398C99.1699 150.617 98.8669 150.795 98.5068 150.932C98.1514 151.068 97.7298 151.137 97.2422 151.137ZM101.512 147.384V147.227C101.512 146.693 101.589 146.199 101.744 145.743C101.899 145.283 102.122 144.884 102.414 144.547C102.706 144.205 103.059 143.941 103.474 143.754C103.888 143.562 104.353 143.467 104.868 143.467C105.388 143.467 105.855 143.562 106.27 143.754C106.689 143.941 107.044 144.205 107.336 144.547C107.632 144.884 107.858 145.283 108.013 145.743C108.168 146.199 108.245 146.693 108.245 147.227V147.384C108.245 147.917 108.168 148.411 108.013 148.867C107.858 149.323 107.632 149.722 107.336 150.063C107.044 150.401 106.691 150.665 106.276 150.856C105.866 151.043 105.401 151.137 104.882 151.137C104.362 151.137 103.895 151.043 103.48 150.856C103.066 150.665 102.71 150.401 102.414 150.063C102.122 149.722 101.899 149.323 101.744 148.867C101.589 148.411 101.512 147.917 101.512 147.384ZM102.776 147.227V147.384C102.776 147.753 102.82 148.102 102.906 148.43C102.993 148.753 103.123 149.04 103.296 149.291C103.474 149.542 103.695 149.74 103.959 149.886C104.223 150.027 104.531 150.098 104.882 150.098C105.228 150.098 105.531 150.027 105.791 149.886C106.055 149.74 106.274 149.542 106.447 149.291C106.62 149.04 106.75 148.753 106.837 148.43C106.928 148.102 106.974 147.753 106.974 147.384V147.227C106.974 146.862 106.928 146.518 106.837 146.194C106.75 145.866 106.618 145.577 106.44 145.326C106.267 145.071 106.049 144.87 105.784 144.725C105.524 144.579 105.219 144.506 104.868 144.506C104.522 144.506 104.216 144.579 103.952 144.725C103.692 144.87 103.474 145.071 103.296 145.326C103.123 145.577 102.993 145.866 102.906 146.194C102.82 146.518 102.776 146.862 102.776 147.227ZM117.666 147.097H115.007V146.023H117.666C118.181 146.023 118.598 145.941 118.917 145.777C119.236 145.613 119.468 145.385 119.614 145.094C119.765 144.802 119.84 144.469 119.84 144.096C119.84 143.754 119.765 143.433 119.614 143.132C119.468 142.831 119.236 142.59 118.917 142.407C118.598 142.22 118.181 142.127 117.666 142.127H115.314V151H113.995V141.047H117.666C118.418 141.047 119.054 141.177 119.573 141.437C120.093 141.696 120.487 142.056 120.756 142.517C121.025 142.972 121.159 143.494 121.159 144.082C121.159 144.72 121.025 145.265 120.756 145.716C120.487 146.167 120.093 146.511 119.573 146.748C119.054 146.98 118.418 147.097 117.666 147.097ZM125.859 151.137C125.344 151.137 124.877 151.05 124.458 150.877C124.043 150.699 123.686 150.451 123.385 150.132C123.089 149.813 122.861 149.435 122.701 148.997C122.542 148.56 122.462 148.081 122.462 147.562V147.274C122.462 146.673 122.551 146.137 122.729 145.668C122.906 145.194 123.148 144.793 123.453 144.465C123.758 144.137 124.105 143.888 124.492 143.72C124.88 143.551 125.281 143.467 125.695 143.467C126.224 143.467 126.68 143.558 127.062 143.74C127.45 143.923 127.767 144.178 128.013 144.506C128.259 144.829 128.441 145.212 128.56 145.654C128.678 146.092 128.737 146.57 128.737 147.09V147.657H123.214V146.625H127.473V146.529C127.454 146.201 127.386 145.882 127.268 145.572C127.154 145.262 126.971 145.007 126.721 144.807C126.47 144.606 126.128 144.506 125.695 144.506C125.408 144.506 125.144 144.567 124.902 144.69C124.661 144.809 124.453 144.987 124.28 145.224C124.107 145.461 123.973 145.75 123.877 146.092C123.781 146.434 123.733 146.828 123.733 147.274V147.562C123.733 147.912 123.781 148.243 123.877 148.553C123.977 148.858 124.121 149.127 124.308 149.359C124.499 149.592 124.729 149.774 124.998 149.906C125.271 150.038 125.581 150.104 125.928 150.104C126.374 150.104 126.753 150.013 127.062 149.831C127.372 149.649 127.644 149.405 127.876 149.1L128.642 149.708C128.482 149.95 128.279 150.18 128.033 150.398C127.787 150.617 127.484 150.795 127.124 150.932C126.769 151.068 126.347 151.137 125.859 151.137ZM131.722 145.073V151H130.45V143.604H131.653L131.722 145.073ZM131.462 147.021L130.874 147.001C130.879 146.495 130.945 146.028 131.072 145.6C131.2 145.167 131.389 144.791 131.64 144.472C131.89 144.153 132.202 143.907 132.576 143.733C132.95 143.556 133.383 143.467 133.875 143.467C134.221 143.467 134.54 143.517 134.832 143.617C135.124 143.713 135.377 143.866 135.591 144.075C135.805 144.285 135.971 144.554 136.09 144.882C136.208 145.21 136.268 145.606 136.268 146.071V151H135.003V146.133C135.003 145.745 134.937 145.436 134.805 145.203C134.677 144.971 134.495 144.802 134.258 144.697C134.021 144.588 133.743 144.533 133.424 144.533C133.05 144.533 132.738 144.599 132.487 144.731C132.237 144.864 132.036 145.046 131.886 145.278C131.735 145.511 131.626 145.777 131.558 146.078C131.494 146.374 131.462 146.689 131.462 147.021ZM136.254 146.324L135.406 146.584C135.411 146.178 135.477 145.789 135.604 145.415C135.737 145.041 135.926 144.709 136.172 144.417C136.423 144.125 136.73 143.895 137.095 143.727C137.459 143.553 137.876 143.467 138.346 143.467C138.742 143.467 139.093 143.519 139.398 143.624C139.708 143.729 139.968 143.891 140.178 144.109C140.392 144.324 140.554 144.599 140.663 144.937C140.772 145.274 140.827 145.675 140.827 146.14V151H139.556V146.126C139.556 145.711 139.49 145.39 139.357 145.162C139.23 144.93 139.048 144.768 138.811 144.677C138.578 144.581 138.3 144.533 137.977 144.533C137.699 144.533 137.452 144.581 137.238 144.677C137.024 144.772 136.844 144.905 136.698 145.073C136.552 145.237 136.441 145.426 136.363 145.641C136.29 145.855 136.254 146.083 136.254 146.324ZM142.984 140.5H144.256V149.564L144.146 151H142.984V140.5ZM149.253 147.24V147.384C149.253 147.922 149.189 148.421 149.062 148.881C148.934 149.337 148.747 149.733 148.501 150.07C148.255 150.408 147.954 150.67 147.599 150.856C147.243 151.043 146.835 151.137 146.375 151.137C145.906 151.137 145.493 151.057 145.138 150.897C144.787 150.733 144.491 150.499 144.249 150.193C144.007 149.888 143.814 149.519 143.668 149.086C143.527 148.653 143.429 148.165 143.374 147.623V146.994C143.429 146.447 143.527 145.957 143.668 145.524C143.814 145.091 144.007 144.722 144.249 144.417C144.491 144.107 144.787 143.872 145.138 143.713C145.489 143.549 145.896 143.467 146.361 143.467C146.826 143.467 147.239 143.558 147.599 143.74C147.959 143.918 148.259 144.173 148.501 144.506C148.747 144.839 148.934 145.237 149.062 145.702C149.189 146.162 149.253 146.675 149.253 147.24ZM147.981 147.384V147.24C147.981 146.871 147.947 146.525 147.879 146.201C147.811 145.873 147.701 145.586 147.551 145.34C147.4 145.089 147.202 144.893 146.956 144.752C146.71 144.606 146.407 144.533 146.047 144.533C145.728 144.533 145.45 144.588 145.213 144.697C144.98 144.807 144.782 144.955 144.618 145.142C144.454 145.324 144.32 145.534 144.215 145.771C144.115 146.003 144.039 146.244 143.989 146.495V148.143C144.062 148.462 144.181 148.769 144.345 149.065C144.513 149.357 144.737 149.596 145.015 149.783C145.297 149.97 145.646 150.063 146.061 150.063C146.402 150.063 146.694 149.995 146.936 149.858C147.182 149.717 147.38 149.523 147.53 149.277C147.685 149.031 147.799 148.746 147.872 148.423C147.945 148.099 147.981 147.753 147.981 147.384ZM154.172 151.137C153.657 151.137 153.19 151.05 152.771 150.877C152.356 150.699 151.998 150.451 151.697 150.132C151.401 149.813 151.173 149.435 151.014 148.997C150.854 148.56 150.774 148.081 150.774 147.562V147.274C150.774 146.673 150.863 146.137 151.041 145.668C151.219 145.194 151.46 144.793 151.766 144.465C152.071 144.137 152.417 143.888 152.805 143.72C153.192 143.551 153.593 143.467 154.008 143.467C154.536 143.467 154.992 143.558 155.375 143.74C155.762 143.923 156.079 144.178 156.325 144.506C156.571 144.829 156.754 145.212 156.872 145.654C156.991 146.092 157.05 146.57 157.05 147.09V147.657H151.526V146.625H155.785V146.529C155.767 146.201 155.699 145.882 155.58 145.572C155.466 145.262 155.284 145.007 155.033 144.807C154.783 144.606 154.441 144.506 154.008 144.506C153.721 144.506 153.456 144.567 153.215 144.69C152.973 144.809 152.766 144.987 152.593 145.224C152.42 145.461 152.285 145.75 152.189 146.092C152.094 146.434 152.046 146.828 152.046 147.274V147.562C152.046 147.912 152.094 148.243 152.189 148.553C152.29 148.858 152.433 149.127 152.62 149.359C152.812 149.592 153.042 149.774 153.311 149.906C153.584 150.038 153.894 150.104 154.24 150.104C154.687 150.104 155.065 150.013 155.375 149.831C155.685 149.649 155.956 149.405 156.188 149.1L156.954 149.708C156.795 149.95 156.592 150.18 156.346 150.398C156.1 150.617 155.797 150.795 155.437 150.932C155.081 151.068 154.66 151.137 154.172 151.137ZM160.15 140.5V151H158.879V140.5H160.15ZM166.792 149.735V145.928C166.792 145.636 166.733 145.383 166.614 145.169C166.5 144.95 166.327 144.782 166.095 144.663C165.862 144.545 165.575 144.485 165.233 144.485C164.914 144.485 164.634 144.54 164.393 144.649C164.156 144.759 163.969 144.902 163.832 145.08C163.7 145.258 163.634 145.449 163.634 145.654H162.369C162.369 145.39 162.438 145.128 162.574 144.868C162.711 144.608 162.907 144.374 163.162 144.164C163.422 143.95 163.732 143.781 164.092 143.658C164.456 143.531 164.862 143.467 165.309 143.467C165.846 143.467 166.32 143.558 166.73 143.74C167.145 143.923 167.469 144.198 167.701 144.567C167.938 144.932 168.057 145.39 168.057 145.941V149.387C168.057 149.633 168.077 149.895 168.118 150.173C168.164 150.451 168.23 150.69 168.316 150.891V151H166.997C166.933 150.854 166.883 150.66 166.847 150.419C166.81 150.173 166.792 149.945 166.792 149.735ZM167.011 146.516L167.024 147.404H165.746C165.386 147.404 165.065 147.434 164.782 147.493C164.5 147.548 164.263 147.632 164.071 147.746C163.88 147.86 163.734 148.004 163.634 148.177C163.534 148.345 163.483 148.544 163.483 148.771C163.483 149.004 163.536 149.216 163.641 149.407C163.745 149.599 163.903 149.751 164.112 149.865C164.326 149.975 164.589 150.029 164.898 150.029C165.286 150.029 165.628 149.947 165.924 149.783C166.22 149.619 166.455 149.419 166.628 149.182C166.806 148.945 166.901 148.715 166.915 148.491L167.455 149.1C167.423 149.291 167.337 149.503 167.195 149.735C167.054 149.968 166.865 150.191 166.628 150.405C166.396 150.615 166.118 150.79 165.794 150.932C165.475 151.068 165.115 151.137 164.714 151.137C164.213 151.137 163.773 151.039 163.395 150.843C163.021 150.647 162.729 150.385 162.52 150.057C162.314 149.724 162.212 149.353 162.212 148.942C162.212 148.546 162.289 148.197 162.444 147.896C162.599 147.591 162.823 147.338 163.114 147.138C163.406 146.933 163.757 146.778 164.167 146.673C164.577 146.568 165.035 146.516 165.541 146.516H167.011ZM170.33 143.604H171.602V151.882C171.602 152.333 171.529 152.716 171.383 153.03C171.242 153.345 171.027 153.582 170.74 153.741C170.458 153.905 170.1 153.987 169.667 153.987C169.553 153.987 169.421 153.976 169.271 153.953C169.116 153.93 168.986 153.903 168.881 153.871L168.888 152.853C168.974 152.871 169.072 152.884 169.182 152.894C169.291 152.907 169.387 152.914 169.469 152.914C169.656 152.914 169.813 152.88 169.94 152.812C170.068 152.743 170.164 152.634 170.228 152.483C170.296 152.333 170.33 152.132 170.33 151.882V143.604ZM170.2 141.642C170.2 141.437 170.264 141.263 170.392 141.122C170.519 140.981 170.704 140.91 170.945 140.91C171.191 140.91 171.378 140.981 171.506 141.122C171.633 141.263 171.697 141.437 171.697 141.642C171.697 141.838 171.633 142.006 171.506 142.147C171.378 142.284 171.191 142.353 170.945 142.353C170.704 142.353 170.519 142.284 170.392 142.147C170.264 142.006 170.2 141.838 170.2 141.642ZM178.257 149.735V145.928C178.257 145.636 178.198 145.383 178.079 145.169C177.965 144.95 177.792 144.782 177.56 144.663C177.327 144.545 177.04 144.485 176.698 144.485C176.379 144.485 176.099 144.54 175.857 144.649C175.62 144.759 175.434 144.902 175.297 145.08C175.165 145.258 175.099 145.449 175.099 145.654H173.834C173.834 145.39 173.902 145.128 174.039 144.868C174.176 144.608 174.372 144.374 174.627 144.164C174.887 143.95 175.197 143.781 175.557 143.658C175.921 143.531 176.327 143.467 176.773 143.467C177.311 143.467 177.785 143.558 178.195 143.74C178.61 143.923 178.934 144.198 179.166 144.567C179.403 144.932 179.521 145.39 179.521 145.941V149.387C179.521 149.633 179.542 149.895 179.583 150.173C179.629 150.451 179.695 150.69 179.781 150.891V151H178.462C178.398 150.854 178.348 150.66 178.312 150.419C178.275 150.173 178.257 149.945 178.257 149.735ZM178.476 146.516L178.489 147.404H177.211C176.851 147.404 176.53 147.434 176.247 147.493C175.965 147.548 175.728 147.632 175.536 147.746C175.345 147.86 175.199 148.004 175.099 148.177C174.998 148.345 174.948 148.544 174.948 148.771C174.948 149.004 175.001 149.216 175.105 149.407C175.21 149.599 175.368 149.751 175.577 149.865C175.791 149.975 176.053 150.029 176.363 150.029C176.751 150.029 177.092 149.947 177.389 149.783C177.685 149.619 177.92 149.419 178.093 149.182C178.271 148.945 178.366 148.715 178.38 148.491L178.92 149.1C178.888 149.291 178.801 149.503 178.66 149.735C178.519 149.968 178.33 150.191 178.093 150.405C177.86 150.615 177.582 150.79 177.259 150.932C176.94 151.068 176.58 151.137 176.179 151.137C175.677 151.137 175.238 151.039 174.859 150.843C174.486 150.647 174.194 150.385 173.984 150.057C173.779 149.724 173.677 149.353 173.677 148.942C173.677 148.546 173.754 148.197 173.909 147.896C174.064 147.591 174.287 147.338 174.579 147.138C174.871 146.933 175.222 146.778 175.632 146.673C176.042 146.568 176.5 146.516 177.006 146.516H178.476ZM183.025 144.766V151H181.761V143.604H182.991L183.025 144.766ZM185.336 143.562L185.329 144.738C185.224 144.715 185.124 144.702 185.028 144.697C184.937 144.688 184.832 144.684 184.714 144.684C184.422 144.684 184.165 144.729 183.941 144.82C183.718 144.911 183.529 145.039 183.374 145.203C183.219 145.367 183.096 145.563 183.005 145.791C182.918 146.014 182.861 146.26 182.834 146.529L182.479 146.734C182.479 146.288 182.522 145.868 182.608 145.477C182.7 145.085 182.839 144.738 183.025 144.438C183.212 144.132 183.449 143.895 183.736 143.727C184.028 143.553 184.374 143.467 184.775 143.467C184.867 143.467 184.971 143.478 185.09 143.501C185.208 143.519 185.29 143.54 185.336 143.562ZM190.843 149.735V145.928C190.843 145.636 190.784 145.383 190.665 145.169C190.551 144.95 190.378 144.782 190.146 144.663C189.913 144.545 189.626 144.485 189.284 144.485C188.965 144.485 188.685 144.54 188.443 144.649C188.206 144.759 188.02 144.902 187.883 145.08C187.751 145.258 187.685 145.449 187.685 145.654H186.42C186.42 145.39 186.488 145.128 186.625 144.868C186.762 144.608 186.958 144.374 187.213 144.164C187.473 143.95 187.783 143.781 188.143 143.658C188.507 143.531 188.913 143.467 189.359 143.467C189.897 143.467 190.371 143.558 190.781 143.74C191.196 143.923 191.52 144.198 191.752 144.567C191.989 144.932 192.107 145.39 192.107 145.941V149.387C192.107 149.633 192.128 149.895 192.169 150.173C192.215 150.451 192.281 150.69 192.367 150.891V151H191.048C190.984 150.854 190.934 150.66 190.897 150.419C190.861 150.173 190.843 149.945 190.843 149.735ZM191.062 146.516L191.075 147.404H189.797C189.437 147.404 189.116 147.434 188.833 147.493C188.55 147.548 188.313 147.632 188.122 147.746C187.931 147.86 187.785 148.004 187.685 148.177C187.584 148.345 187.534 148.544 187.534 148.771C187.534 149.004 187.587 149.216 187.691 149.407C187.796 149.599 187.953 149.751 188.163 149.865C188.377 149.975 188.639 150.029 188.949 150.029C189.337 150.029 189.678 149.947 189.975 149.783C190.271 149.619 190.506 149.419 190.679 149.182C190.856 148.945 190.952 148.715 190.966 148.491L191.506 149.1C191.474 149.291 191.387 149.503 191.246 149.735C191.105 149.968 190.916 150.191 190.679 150.405C190.446 150.615 190.168 150.79 189.845 150.932C189.526 151.068 189.166 151.137 188.765 151.137C188.263 151.137 187.824 151.039 187.445 150.843C187.072 150.647 186.78 150.385 186.57 150.057C186.365 149.724 186.263 149.353 186.263 148.942C186.263 148.546 186.34 148.197 186.495 147.896C186.65 147.591 186.873 147.338 187.165 147.138C187.457 146.933 187.808 146.778 188.218 146.673C188.628 146.568 189.086 146.516 189.592 146.516H191.062ZM195.611 145.183V151H194.347V143.604H195.543L195.611 145.183ZM195.311 147.021L194.784 147.001C194.789 146.495 194.864 146.028 195.01 145.6C195.156 145.167 195.361 144.791 195.625 144.472C195.889 144.153 196.204 143.907 196.568 143.733C196.938 143.556 197.345 143.467 197.792 143.467C198.157 143.467 198.485 143.517 198.776 143.617C199.068 143.713 199.316 143.868 199.521 144.082C199.731 144.296 199.891 144.574 200 144.916C200.109 145.253 200.164 145.666 200.164 146.153V151H198.893V146.14C198.893 145.752 198.836 145.442 198.722 145.21C198.608 144.973 198.441 144.802 198.223 144.697C198.004 144.588 197.735 144.533 197.416 144.533C197.102 144.533 196.814 144.599 196.555 144.731C196.299 144.864 196.078 145.046 195.892 145.278C195.709 145.511 195.566 145.777 195.461 146.078C195.361 146.374 195.311 146.689 195.311 147.021ZM210.72 149.564V140.5H211.991V151H210.829L210.72 149.564ZM205.743 147.384V147.24C205.743 146.675 205.812 146.162 205.948 145.702C206.09 145.237 206.288 144.839 206.543 144.506C206.803 144.173 207.11 143.918 207.466 143.74C207.826 143.558 208.227 143.467 208.669 143.467C209.134 143.467 209.539 143.549 209.886 143.713C210.237 143.872 210.533 144.107 210.774 144.417C211.021 144.722 211.214 145.091 211.355 145.524C211.497 145.957 211.595 146.447 211.649 146.994V147.623C211.599 148.165 211.501 148.653 211.355 149.086C211.214 149.519 211.021 149.888 210.774 150.193C210.533 150.499 210.237 150.733 209.886 150.897C209.535 151.057 209.125 151.137 208.655 151.137C208.222 151.137 207.826 151.043 207.466 150.856C207.11 150.67 206.803 150.408 206.543 150.07C206.288 149.733 206.09 149.337 205.948 148.881C205.812 148.421 205.743 147.922 205.743 147.384ZM207.015 147.24V147.384C207.015 147.753 207.051 148.099 207.124 148.423C207.201 148.746 207.32 149.031 207.479 149.277C207.639 149.523 207.842 149.717 208.088 149.858C208.334 149.995 208.628 150.063 208.97 150.063C209.389 150.063 209.733 149.975 210.002 149.797C210.275 149.619 210.494 149.384 210.658 149.093C210.822 148.801 210.95 148.484 211.041 148.143V146.495C210.986 146.244 210.907 146.003 210.802 145.771C210.701 145.534 210.569 145.324 210.405 145.142C210.246 144.955 210.048 144.807 209.811 144.697C209.578 144.588 209.302 144.533 208.983 144.533C208.637 144.533 208.339 144.606 208.088 144.752C207.842 144.893 207.639 145.089 207.479 145.34C207.32 145.586 207.201 145.873 207.124 146.201C207.051 146.525 207.015 146.871 207.015 147.24ZM215.584 143.604V151H214.312V143.604H215.584ZM214.217 141.642C214.217 141.437 214.278 141.263 214.401 141.122C214.529 140.981 214.716 140.91 214.962 140.91C215.203 140.91 215.388 140.981 215.516 141.122C215.648 141.263 215.714 141.437 215.714 141.642C215.714 141.838 215.648 142.006 215.516 142.147C215.388 142.284 215.203 142.353 214.962 142.353C214.716 142.353 214.529 142.284 214.401 142.147C214.278 142.006 214.217 141.838 214.217 141.642ZM225.326 146.345H222.804L222.79 145.285H225.08C225.458 145.285 225.789 145.221 226.071 145.094C226.354 144.966 226.573 144.784 226.728 144.547C226.887 144.305 226.967 144.018 226.967 143.686C226.967 143.321 226.896 143.025 226.755 142.797C226.618 142.564 226.406 142.396 226.119 142.291C225.837 142.182 225.477 142.127 225.039 142.127H223.098V151H221.778V141.047H225.039C225.549 141.047 226.005 141.099 226.406 141.204C226.807 141.304 227.147 141.464 227.425 141.683C227.707 141.897 227.922 142.17 228.067 142.503C228.213 142.836 228.286 143.234 228.286 143.699C228.286 144.109 228.181 144.481 227.972 144.813C227.762 145.142 227.47 145.41 227.097 145.62C226.728 145.83 226.295 145.964 225.798 146.023L225.326 146.345ZM225.265 151H222.284L223.029 149.927H225.265C225.684 149.927 226.039 149.854 226.331 149.708C226.627 149.562 226.853 149.357 227.008 149.093C227.163 148.824 227.24 148.507 227.24 148.143C227.24 147.773 227.174 147.454 227.042 147.186C226.91 146.917 226.702 146.709 226.42 146.563C226.137 146.418 225.773 146.345 225.326 146.345H223.446L223.46 145.285H226.03L226.311 145.668C226.789 145.709 227.195 145.846 227.527 146.078C227.86 146.306 228.113 146.598 228.286 146.953C228.464 147.309 228.553 147.701 228.553 148.129C228.553 148.749 228.416 149.273 228.143 149.701C227.874 150.125 227.493 150.449 227.001 150.672C226.509 150.891 225.93 151 225.265 151ZM230.225 147.384V147.227C230.225 146.693 230.302 146.199 230.457 145.743C230.612 145.283 230.835 144.884 231.127 144.547C231.419 144.205 231.772 143.941 232.187 143.754C232.601 143.562 233.066 143.467 233.581 143.467C234.101 143.467 234.568 143.562 234.982 143.754C235.402 143.941 235.757 144.205 236.049 144.547C236.345 144.884 236.571 145.283 236.726 145.743C236.881 146.199 236.958 146.693 236.958 147.227V147.384C236.958 147.917 236.881 148.411 236.726 148.867C236.571 149.323 236.345 149.722 236.049 150.063C235.757 150.401 235.404 150.665 234.989 150.856C234.579 151.043 234.114 151.137 233.595 151.137C233.075 151.137 232.608 151.043 232.193 150.856C231.779 150.665 231.423 150.401 231.127 150.063C230.835 149.722 230.612 149.323 230.457 148.867C230.302 148.411 230.225 147.917 230.225 147.384ZM231.489 147.227V147.384C231.489 147.753 231.533 148.102 231.619 148.43C231.706 148.753 231.836 149.04 232.009 149.291C232.187 149.542 232.408 149.74 232.672 149.886C232.936 150.027 233.244 150.098 233.595 150.098C233.941 150.098 234.244 150.027 234.504 149.886C234.768 149.74 234.987 149.542 235.16 149.291C235.333 149.04 235.463 148.753 235.55 148.43C235.641 148.102 235.687 147.753 235.687 147.384V147.227C235.687 146.862 235.641 146.518 235.55 146.194C235.463 145.866 235.331 145.577 235.153 145.326C234.98 145.071 234.761 144.87 234.497 144.725C234.237 144.579 233.932 144.506 233.581 144.506C233.235 144.506 232.929 144.579 232.665 144.725C232.405 144.87 232.187 145.071 232.009 145.326C231.836 145.577 231.706 145.866 231.619 146.194C231.533 146.518 231.489 146.862 231.489 147.227ZM238.459 147.384V147.227C238.459 146.693 238.536 146.199 238.691 145.743C238.846 145.283 239.07 144.884 239.361 144.547C239.653 144.205 240.006 143.941 240.421 143.754C240.836 143.562 241.3 143.467 241.815 143.467C242.335 143.467 242.802 143.562 243.217 143.754C243.636 143.941 243.992 144.205 244.283 144.547C244.579 144.884 244.805 145.283 244.96 145.743C245.115 146.199 245.192 146.693 245.192 147.227V147.384C245.192 147.917 245.115 148.411 244.96 148.867C244.805 149.323 244.579 149.722 244.283 150.063C243.992 150.401 243.638 150.665 243.224 150.856C242.813 151.043 242.349 151.137 241.829 151.137C241.31 151.137 240.842 151.043 240.428 150.856C240.013 150.665 239.658 150.401 239.361 150.063C239.07 149.722 238.846 149.323 238.691 148.867C238.536 148.411 238.459 147.917 238.459 147.384ZM239.724 147.227V147.384C239.724 147.753 239.767 148.102 239.854 148.43C239.94 148.753 240.07 149.04 240.243 149.291C240.421 149.542 240.642 149.74 240.906 149.886C241.171 150.027 241.478 150.098 241.829 150.098C242.175 150.098 242.479 150.027 242.738 149.886C243.003 149.74 243.221 149.542 243.395 149.291C243.568 149.04 243.698 148.753 243.784 148.43C243.875 148.102 243.921 147.753 243.921 147.384V147.227C243.921 146.862 243.875 146.518 243.784 146.194C243.698 145.866 243.565 145.577 243.388 145.326C243.215 145.071 242.996 144.87 242.731 144.725C242.472 144.579 242.166 144.506 241.815 144.506C241.469 144.506 241.164 144.579 240.899 144.725C240.64 144.87 240.421 145.071 240.243 145.326C240.07 145.577 239.94 145.866 239.854 146.194C239.767 146.518 239.724 146.862 239.724 147.227ZM248.3 140.5V151H247.028V140.5H248.3ZM252.818 143.604L249.592 147.056L247.787 148.929L247.685 147.582L248.977 146.037L251.273 143.604H252.818ZM251.663 151L249.024 147.473L249.681 146.345L253.153 151H251.663ZM255.632 145.073V151H254.36V143.604H255.563L255.632 145.073ZM255.372 147.021L254.784 147.001C254.789 146.495 254.855 146.028 254.982 145.6C255.11 145.167 255.299 144.791 255.55 144.472C255.8 144.153 256.113 143.907 256.486 143.733C256.86 143.556 257.293 143.467 257.785 143.467C258.132 143.467 258.451 143.517 258.742 143.617C259.034 143.713 259.287 143.866 259.501 144.075C259.715 144.285 259.882 144.554 260 144.882C260.118 145.21 260.178 145.606 260.178 146.071V151H258.913V146.133C258.913 145.745 258.847 145.436 258.715 145.203C258.587 144.971 258.405 144.802 258.168 144.697C257.931 144.588 257.653 144.533 257.334 144.533C256.96 144.533 256.648 144.599 256.397 144.731C256.147 144.864 255.946 145.046 255.796 145.278C255.646 145.511 255.536 145.777 255.468 146.078C255.404 146.374 255.372 146.689 255.372 147.021ZM260.164 146.324L259.316 146.584C259.321 146.178 259.387 145.789 259.515 145.415C259.647 145.041 259.836 144.709 260.082 144.417C260.333 144.125 260.64 143.895 261.005 143.727C261.369 143.553 261.786 143.467 262.256 143.467C262.652 143.467 263.003 143.519 263.309 143.624C263.618 143.729 263.878 143.891 264.088 144.109C264.302 144.324 264.464 144.599 264.573 144.937C264.683 145.274 264.737 145.675 264.737 146.14V151H263.466V146.126C263.466 145.711 263.4 145.39 263.268 145.162C263.14 144.93 262.958 144.768 262.721 144.677C262.488 144.581 262.21 144.533 261.887 144.533C261.609 144.533 261.363 144.581 261.148 144.677C260.934 144.772 260.754 144.905 260.608 145.073C260.463 145.237 260.351 145.426 260.273 145.641C260.201 145.855 260.164 146.083 260.164 146.324ZM271.263 149.735V145.928C271.263 145.636 271.203 145.383 271.085 145.169C270.971 144.95 270.798 144.782 270.565 144.663C270.333 144.545 270.046 144.485 269.704 144.485C269.385 144.485 269.105 144.54 268.863 144.649C268.626 144.759 268.439 144.902 268.303 145.08C268.171 145.258 268.104 145.449 268.104 145.654H266.84C266.84 145.39 266.908 145.128 267.045 144.868C267.182 144.608 267.378 144.374 267.633 144.164C267.893 143.95 268.202 143.781 268.562 143.658C268.927 143.531 269.333 143.467 269.779 143.467C270.317 143.467 270.791 143.558 271.201 143.74C271.616 143.923 271.939 144.198 272.172 144.567C272.409 144.932 272.527 145.39 272.527 145.941V149.387C272.527 149.633 272.548 149.895 272.589 150.173C272.634 150.451 272.701 150.69 272.787 150.891V151H271.468C271.404 150.854 271.354 150.66 271.317 150.419C271.281 150.173 271.263 149.945 271.263 149.735ZM271.481 146.516L271.495 147.404H270.217C269.857 147.404 269.535 147.434 269.253 147.493C268.97 147.548 268.733 147.632 268.542 147.746C268.351 147.86 268.205 148.004 268.104 148.177C268.004 148.345 267.954 148.544 267.954 148.771C267.954 149.004 268.007 149.216 268.111 149.407C268.216 149.599 268.373 149.751 268.583 149.865C268.797 149.975 269.059 150.029 269.369 150.029C269.757 150.029 270.098 149.947 270.395 149.783C270.691 149.619 270.925 149.419 271.099 149.182C271.276 148.945 271.372 148.715 271.386 148.491L271.926 149.1C271.894 149.291 271.807 149.503 271.666 149.735C271.525 149.968 271.336 150.191 271.099 150.405C270.866 150.615 270.588 150.79 270.265 150.932C269.946 151.068 269.586 151.137 269.185 151.137C268.683 151.137 268.243 151.039 267.865 150.843C267.492 150.647 267.2 150.385 266.99 150.057C266.785 149.724 266.683 149.353 266.683 148.942C266.683 148.546 266.76 148.197 266.915 147.896C267.07 147.591 267.293 147.338 267.585 147.138C267.877 146.933 268.228 146.778 268.638 146.673C269.048 146.568 269.506 146.516 270.012 146.516H271.481ZM276.031 144.766V151H274.767V143.604H275.997L276.031 144.766ZM278.342 143.562L278.335 144.738C278.23 144.715 278.13 144.702 278.034 144.697C277.943 144.688 277.838 144.684 277.72 144.684C277.428 144.684 277.171 144.729 276.947 144.82C276.724 144.911 276.535 145.039 276.38 145.203C276.225 145.367 276.102 145.563 276.011 145.791C275.924 146.014 275.867 146.26 275.84 146.529L275.484 146.734C275.484 146.288 275.528 145.868 275.614 145.477C275.705 145.085 275.844 144.738 276.031 144.438C276.218 144.132 276.455 143.895 276.742 143.727C277.034 143.553 277.38 143.467 277.781 143.467C277.872 143.467 277.977 143.478 278.096 143.501C278.214 143.519 278.296 143.54 278.342 143.562ZM281.032 140.5V151H279.761V140.5H281.032ZM285.551 143.604L282.324 147.056L280.52 148.929L280.417 147.582L281.709 146.037L284.006 143.604H285.551ZM284.396 151L281.757 147.473L282.413 146.345L285.886 151H284.396Z" fill="#8E8E8E"/>
<defs>
<clipPath id="clip0_758_11822">
<rect width="120" height="120" fill="white" transform="translate(83)"/>
</clipPath>
</defs>
</svg>
