<svg width="159" height="156" viewBox="0 0 159 156" fill="none" xmlns="http://www.w3.org/2000/svg">
<g clip-path="url(#clip0_756_11121)">
<circle cx="80.5" cy="60" r="49.25" fill="#DCDCDC" stroke="#AEAEAE" stroke-width="1.5"/>
<path d="M29.5 36C29.5 30.3995 29.5 27.5992 30.5899 25.4601C31.5487 23.5785 33.0785 22.0487 34.9601 21.0899C37.0992 20 39.8995 20 45.5 20H47.5C58.701 20 64.3016 20 68.5798 22.1799C72.3431 24.0973 75.4027 27.1569 77.3201 30.9202C79.5 35.1984 79.5 40.799 79.5 52V100H45.5C39.8995 100 37.0992 100 34.9601 98.9101C33.0785 97.9513 31.5487 96.4215 30.5899 94.5399C29.5 92.4008 29.5 89.6005 29.5 84V36Z" fill="#FAFAFA"/>
<path d="M129.5 36C129.5 30.3995 129.5 27.5992 128.41 25.4601C127.451 23.5785 125.922 22.0487 124.04 21.0899C121.901 20 119.101 20 113.5 20H111.5C100.299 20 94.6984 20 90.4202 22.1799C86.6569 24.0973 83.5973 27.1569 81.6799 30.9202C79.5 35.1984 79.5 40.799 79.5 52V100H113.5C119.101 100 121.901 100 124.04 98.9101C125.922 97.9513 127.451 96.4215 128.41 94.5399C129.5 92.4008 129.5 89.6005 129.5 84V36Z" fill="#FAFAFA"/>
<path d="M79.5 100H45.5C39.8995 100 37.0992 100 34.9601 98.9101C33.0785 97.9513 31.5487 96.4215 30.5899 94.5399C29.5 92.4008 29.5 89.6005 29.5 84V36C29.5 30.3995 29.5 27.5992 30.5899 25.4601C31.5487 23.5785 33.0785 22.0487 34.9601 21.0899C37.0992 20 39.8995 20 45.5 20H47.5C58.701 20 64.3016 20 68.5798 22.1799C72.3431 24.0973 75.4027 27.1569 77.3201 30.9202C79.5 35.1984 79.5 40.799 79.5 52M79.5 100V52M79.5 100H113.5C119.101 100 121.901 100 124.04 98.9101C125.922 97.9513 127.451 96.4215 128.41 94.5399C129.5 92.4008 129.5 89.6005 129.5 84V36C129.5 30.3995 129.5 27.5992 128.41 25.4601C127.451 23.5785 125.922 22.0487 124.04 21.0899C121.901 20 119.101 20 113.5 20H111.5C100.299 20 94.6984 20 90.4202 22.1799C86.6569 24.0973 83.5973 27.1569 81.6799 30.9202C79.5 35.1984 79.5 40.799 79.5 52" stroke="#AEAEAE" stroke-width="3" stroke-linecap="round" stroke-linejoin="round"/>
<path d="M100.5 97C113.755 97 124.5 86.2548 124.5 73C124.5 59.7452 113.755 49 100.5 49C87.2452 49 76.5 59.7452 76.5 73C76.5 86.2548 87.2452 97 100.5 97Z" fill="#FAFAFA"/>
<path d="M130.5 103L117.45 89.95M124.5 73C124.5 86.2548 113.755 97 100.5 97C87.2452 97 76.5 86.2548 76.5 73C76.5 59.7452 87.2452 49 100.5 49C113.755 49 124.5 59.7452 124.5 73Z" stroke="#AEAEAE" stroke-width="4" stroke-linecap="round" stroke-linejoin="round"/>
<circle cx="92.5" cy="67" r="3" fill="#AEAEAE"/>
<circle cx="108.5" cy="67" r="3" fill="#AEAEAE"/>
<path d="M92 81C99.5554 84.2931 103.565 84.1639 110 81" stroke="#AEAEAE" stroke-width="2" stroke-linecap="round"/>
</g>
<path d="M7.41992 147.835H8.73242C8.66406 148.464 8.48405 149.027 8.19238 149.523C7.90072 150.02 7.48828 150.414 6.95508 150.706C6.42188 150.993 5.75651 151.137 4.95898 151.137C4.37565 151.137 3.84473 151.027 3.36621 150.809C2.89225 150.59 2.48438 150.28 2.14258 149.879C1.80078 149.473 1.53646 148.988 1.34961 148.423C1.16732 147.853 1.07617 147.22 1.07617 146.522V145.531C1.07617 144.834 1.16732 144.203 1.34961 143.638C1.53646 143.068 1.80306 142.58 2.14941 142.175C2.50033 141.769 2.92188 141.457 3.41406 141.238C3.90625 141.02 4.45996 140.91 5.0752 140.91C5.82715 140.91 6.46289 141.051 6.98242 141.334C7.50195 141.617 7.90527 142.008 8.19238 142.51C8.48405 143.007 8.66406 143.583 8.73242 144.239H7.41992C7.35612 143.774 7.23763 143.376 7.06445 143.043C6.89128 142.706 6.64518 142.446 6.32617 142.264C6.00716 142.081 5.59017 141.99 5.0752 141.99C4.63314 141.99 4.24349 142.075 3.90625 142.243C3.57357 142.412 3.29329 142.651 3.06543 142.961C2.84212 143.271 2.6735 143.642 2.55957 144.075C2.44564 144.508 2.38867 144.989 2.38867 145.518V146.522C2.38867 147.01 2.4388 147.468 2.53906 147.896C2.64388 148.325 2.80111 148.701 3.01074 149.024C3.22038 149.348 3.48698 149.603 3.81055 149.79C4.13411 149.972 4.51693 150.063 4.95898 150.063C5.51953 150.063 5.96615 149.975 6.29883 149.797C6.63151 149.619 6.88216 149.364 7.05078 149.031C7.22396 148.699 7.34701 148.3 7.41992 147.835ZM14.9502 149.735V145.928C14.9502 145.636 14.891 145.383 14.7725 145.169C14.6585 144.95 14.4854 144.782 14.2529 144.663C14.0205 144.545 13.7334 144.485 13.3916 144.485C13.0726 144.485 12.7923 144.54 12.5508 144.649C12.3138 144.759 12.127 144.902 11.9902 145.08C11.8581 145.258 11.792 145.449 11.792 145.654H10.5273C10.5273 145.39 10.5957 145.128 10.7324 144.868C10.8691 144.608 11.0651 144.374 11.3203 144.164C11.5801 143.95 11.89 143.781 12.25 143.658C12.6146 143.531 13.0202 143.467 13.4668 143.467C14.0046 143.467 14.4785 143.558 14.8887 143.74C15.3034 143.923 15.627 144.198 15.8594 144.567C16.0964 144.932 16.2148 145.39 16.2148 145.941V149.387C16.2148 149.633 16.2354 149.895 16.2764 150.173C16.3219 150.451 16.388 150.69 16.4746 150.891V151H15.1553C15.0915 150.854 15.0413 150.66 15.0049 150.419C14.9684 150.173 14.9502 149.945 14.9502 149.735ZM15.1689 146.516L15.1826 147.404H13.9043C13.5443 147.404 13.223 147.434 12.9404 147.493C12.6579 147.548 12.4209 147.632 12.2295 147.746C12.0381 147.86 11.8923 148.004 11.792 148.177C11.6917 148.345 11.6416 148.544 11.6416 148.771C11.6416 149.004 11.694 149.216 11.7988 149.407C11.9036 149.599 12.0609 149.751 12.2705 149.865C12.4847 149.975 12.7467 150.029 13.0566 150.029C13.444 150.029 13.7858 149.947 14.082 149.783C14.3783 149.619 14.613 149.419 14.7861 149.182C14.9639 148.945 15.0596 148.715 15.0732 148.491L15.6133 149.1C15.5814 149.291 15.4948 149.503 15.3535 149.735C15.2122 149.968 15.0231 150.191 14.7861 150.405C14.5537 150.615 14.2757 150.79 13.9521 150.932C13.6331 151.068 13.2731 151.137 12.8721 151.137C12.3708 151.137 11.931 151.039 11.5527 150.843C11.179 150.647 10.8874 150.385 10.6777 150.057C10.4727 149.724 10.3701 149.353 10.3701 148.942C10.3701 148.546 10.4476 148.197 10.6025 147.896C10.7575 147.591 10.9808 147.338 11.2725 147.138C11.5641 146.933 11.915 146.778 12.3252 146.673C12.7354 146.568 13.1934 146.516 13.6992 146.516H15.1689ZM19.7188 144.766V151H18.4541V143.604H19.6846L19.7188 144.766ZM22.0293 143.562L22.0225 144.738C21.9176 144.715 21.8174 144.702 21.7217 144.697C21.6305 144.688 21.5257 144.684 21.4072 144.684C21.1156 144.684 20.8581 144.729 20.6348 144.82C20.4115 144.911 20.2223 145.039 20.0674 145.203C19.9124 145.367 19.7894 145.563 19.6982 145.791C19.6117 146.014 19.5547 146.26 19.5273 146.529L19.1719 146.734C19.1719 146.288 19.2152 145.868 19.3018 145.477C19.3929 145.085 19.5319 144.738 19.7188 144.438C19.9056 144.132 20.1426 143.895 20.4297 143.727C20.7214 143.553 21.0677 143.467 21.4688 143.467C21.5599 143.467 21.6647 143.478 21.7832 143.501C21.9017 143.519 21.9837 143.54 22.0293 143.562ZM24.8223 143.604V151H23.5508V143.604H24.8223ZM23.4551 141.642C23.4551 141.437 23.5166 141.263 23.6396 141.122C23.7673 140.981 23.9541 140.91 24.2002 140.91C24.4417 140.91 24.6263 140.981 24.7539 141.122C24.8861 141.263 24.9521 141.437 24.9521 141.642C24.9521 141.838 24.8861 142.006 24.7539 142.147C24.6263 142.284 24.4417 142.353 24.2002 142.353C23.9541 142.353 23.7673 142.284 23.6396 142.147C23.5166 142.006 23.4551 141.838 23.4551 141.642ZM34.2295 149.489L37.1621 141.047H38.5908L34.9062 151H33.8877L34.2295 149.489ZM31.4883 141.047L34.3936 149.489L34.7559 151H33.7373L30.0596 141.047H31.4883ZM41.3633 143.604V151H40.0918V143.604H41.3633ZM39.9961 141.642C39.9961 141.437 40.0576 141.263 40.1807 141.122C40.3083 140.981 40.4951 140.91 40.7412 140.91C40.9827 140.91 41.1673 140.981 41.2949 141.122C41.4271 141.263 41.4932 141.437 41.4932 141.642C41.4932 141.838 41.4271 142.006 41.2949 142.147C41.1673 142.284 40.9827 142.353 40.7412 142.353C40.4951 142.353 40.3083 142.284 40.1807 142.147C40.0576 142.006 39.9961 141.838 39.9961 141.642ZM48.3057 149.564V140.5H49.5771V151H48.415L48.3057 149.564ZM43.3291 147.384V147.24C43.3291 146.675 43.3975 146.162 43.5342 145.702C43.6755 145.237 43.8737 144.839 44.1289 144.506C44.3887 144.173 44.6963 143.918 45.0518 143.74C45.4118 143.558 45.8128 143.467 46.2549 143.467C46.7197 143.467 47.1253 143.549 47.4717 143.713C47.8226 143.872 48.1188 144.107 48.3604 144.417C48.6064 144.722 48.8001 145.091 48.9414 145.524C49.0827 145.957 49.1807 146.447 49.2354 146.994V147.623C49.1852 148.165 49.0872 148.653 48.9414 149.086C48.8001 149.519 48.6064 149.888 48.3604 150.193C48.1188 150.499 47.8226 150.733 47.4717 150.897C47.1208 151.057 46.7106 151.137 46.2412 151.137C45.8083 151.137 45.4118 151.043 45.0518 150.856C44.6963 150.67 44.3887 150.408 44.1289 150.07C43.8737 149.733 43.6755 149.337 43.5342 148.881C43.3975 148.421 43.3291 147.922 43.3291 147.384ZM44.6006 147.24V147.384C44.6006 147.753 44.637 148.099 44.71 148.423C44.7874 148.746 44.9059 149.031 45.0654 149.277C45.2249 149.523 45.4277 149.717 45.6738 149.858C45.9199 149.995 46.2139 150.063 46.5557 150.063C46.9749 150.063 47.319 149.975 47.5879 149.797C47.8613 149.619 48.0801 149.384 48.2441 149.093C48.4082 148.801 48.5358 148.484 48.627 148.143V146.495C48.5723 146.244 48.4925 146.003 48.3877 145.771C48.2874 145.534 48.1553 145.324 47.9912 145.142C47.8317 144.955 47.6335 144.807 47.3965 144.697C47.1641 144.588 46.8883 144.533 46.5693 144.533C46.223 144.533 45.9245 144.606 45.6738 144.752C45.4277 144.893 45.2249 145.089 45.0654 145.34C44.9059 145.586 44.7874 145.873 44.71 146.201C44.637 146.525 44.6006 146.871 44.6006 147.24ZM54.8652 151.137C54.3503 151.137 53.8831 151.05 53.4639 150.877C53.0492 150.699 52.6914 150.451 52.3906 150.132C52.0944 149.813 51.8665 149.435 51.707 148.997C51.5475 148.56 51.4678 148.081 51.4678 147.562V147.274C51.4678 146.673 51.5566 146.137 51.7344 145.668C51.9121 145.194 52.1536 144.793 52.459 144.465C52.7643 144.137 53.1107 143.888 53.498 143.72C53.8854 143.551 54.2865 143.467 54.7012 143.467C55.2298 143.467 55.6855 143.558 56.0684 143.74C56.4557 143.923 56.7725 144.178 57.0186 144.506C57.2646 144.829 57.4469 145.212 57.5654 145.654C57.6839 146.092 57.7432 146.57 57.7432 147.09V147.657H52.2197V146.625H56.4785V146.529C56.4603 146.201 56.3919 145.882 56.2734 145.572C56.1595 145.262 55.9772 145.007 55.7266 144.807C55.4759 144.606 55.1341 144.506 54.7012 144.506C54.4141 144.506 54.1497 144.567 53.9082 144.69C53.6667 144.809 53.4593 144.987 53.2861 145.224C53.113 145.461 52.9785 145.75 52.8828 146.092C52.7871 146.434 52.7393 146.828 52.7393 147.274V147.562C52.7393 147.912 52.7871 148.243 52.8828 148.553C52.9831 148.858 53.1266 149.127 53.3135 149.359C53.5049 149.592 53.735 149.774 54.0039 149.906C54.2773 150.038 54.5872 150.104 54.9336 150.104C55.3802 150.104 55.7585 150.013 56.0684 149.831C56.3783 149.649 56.6494 149.405 56.8818 149.1L57.6475 149.708C57.488 149.95 57.2852 150.18 57.0391 150.398C56.793 150.617 56.4899 150.795 56.1299 150.932C55.7744 151.068 55.3529 151.137 54.8652 151.137ZM59.1348 147.384V147.227C59.1348 146.693 59.2122 146.199 59.3672 145.743C59.5221 145.283 59.7454 144.884 60.0371 144.547C60.3288 144.205 60.682 143.941 61.0967 143.754C61.5114 143.562 61.9762 143.467 62.4912 143.467C63.0107 143.467 63.4779 143.562 63.8926 143.754C64.3118 143.941 64.6673 144.205 64.959 144.547C65.2552 144.884 65.4808 145.283 65.6357 145.743C65.7907 146.199 65.8682 146.693 65.8682 147.227V147.384C65.8682 147.917 65.7907 148.411 65.6357 148.867C65.4808 149.323 65.2552 149.722 64.959 150.063C64.6673 150.401 64.3141 150.665 63.8994 150.856C63.4893 151.043 63.0244 151.137 62.5049 151.137C61.9854 151.137 61.5182 151.043 61.1035 150.856C60.6888 150.665 60.3333 150.401 60.0371 150.063C59.7454 149.722 59.5221 149.323 59.3672 148.867C59.2122 148.411 59.1348 147.917 59.1348 147.384ZM60.3994 147.227V147.384C60.3994 147.753 60.4427 148.102 60.5293 148.43C60.6159 148.753 60.7458 149.04 60.9189 149.291C61.0967 149.542 61.3177 149.74 61.582 149.886C61.8464 150.027 62.154 150.098 62.5049 150.098C62.8512 150.098 63.1543 150.027 63.4141 149.886C63.6784 149.74 63.8971 149.542 64.0703 149.291C64.2435 149.04 64.3734 148.753 64.46 148.43C64.5511 148.102 64.5967 147.753 64.5967 147.384V147.227C64.5967 146.862 64.5511 146.518 64.46 146.194C64.3734 145.866 64.2412 145.577 64.0635 145.326C63.8903 145.071 63.6715 144.87 63.4072 144.725C63.1475 144.579 62.8421 144.506 62.4912 144.506C62.1449 144.506 61.8395 144.579 61.5752 144.725C61.3154 144.87 61.0967 145.071 60.9189 145.326C60.7458 145.577 60.6159 145.866 60.5293 146.194C60.4427 146.518 60.3994 146.862 60.3994 147.227ZM75.2891 147.097H72.6299V146.023H75.2891C75.804 146.023 76.221 145.941 76.54 145.777C76.859 145.613 77.0915 145.385 77.2373 145.094C77.3877 144.802 77.4629 144.469 77.4629 144.096C77.4629 143.754 77.3877 143.433 77.2373 143.132C77.0915 142.831 76.859 142.59 76.54 142.407C76.221 142.22 75.804 142.127 75.2891 142.127H72.9375V151H71.6182V141.047H75.2891C76.041 141.047 76.6768 141.177 77.1963 141.437C77.7158 141.696 78.11 142.056 78.3789 142.517C78.6478 142.972 78.7822 143.494 78.7822 144.082C78.7822 144.72 78.6478 145.265 78.3789 145.716C78.11 146.167 77.7158 146.511 77.1963 146.748C76.6768 146.98 76.041 147.097 75.2891 147.097ZM83.4824 151.137C82.9674 151.137 82.5003 151.05 82.0811 150.877C81.6663 150.699 81.3086 150.451 81.0078 150.132C80.7116 149.813 80.4837 149.435 80.3242 148.997C80.1647 148.56 80.085 148.081 80.085 147.562V147.274C80.085 146.673 80.1738 146.137 80.3516 145.668C80.5293 145.194 80.7708 144.793 81.0762 144.465C81.3815 144.137 81.7279 143.888 82.1152 143.72C82.5026 143.551 82.9036 143.467 83.3184 143.467C83.847 143.467 84.3027 143.558 84.6855 143.74C85.0729 143.923 85.3896 144.178 85.6357 144.506C85.8818 144.829 86.0641 145.212 86.1826 145.654C86.3011 146.092 86.3604 146.57 86.3604 147.09V147.657H80.8369V146.625H85.0957V146.529C85.0775 146.201 85.0091 145.882 84.8906 145.572C84.7767 145.262 84.5944 145.007 84.3438 144.807C84.0931 144.606 83.7513 144.506 83.3184 144.506C83.0312 144.506 82.7669 144.567 82.5254 144.69C82.2839 144.809 82.0765 144.987 81.9033 145.224C81.7301 145.461 81.5957 145.75 81.5 146.092C81.4043 146.434 81.3564 146.828 81.3564 147.274V147.562C81.3564 147.912 81.4043 148.243 81.5 148.553C81.6003 148.858 81.7438 149.127 81.9307 149.359C82.1221 149.592 82.3522 149.774 82.6211 149.906C82.8945 150.038 83.2044 150.104 83.5508 150.104C83.9974 150.104 84.3757 150.013 84.6855 149.831C84.9954 149.649 85.2666 149.405 85.499 149.1L86.2646 149.708C86.1051 149.95 85.9023 150.18 85.6562 150.398C85.4102 150.617 85.1071 150.795 84.7471 150.932C84.3916 151.068 83.9701 151.137 83.4824 151.137ZM89.3447 145.073V151H88.0732V143.604H89.2764L89.3447 145.073ZM89.085 147.021L88.4971 147.001C88.5016 146.495 88.5677 146.028 88.6953 145.6C88.8229 145.167 89.012 144.791 89.2627 144.472C89.5133 144.153 89.8255 143.907 90.1992 143.733C90.5729 143.556 91.0059 143.467 91.498 143.467C91.8444 143.467 92.1634 143.517 92.4551 143.617C92.7467 143.713 92.9997 143.866 93.2139 144.075C93.4281 144.285 93.5944 144.554 93.7129 144.882C93.8314 145.21 93.8906 145.606 93.8906 146.071V151H92.626V146.133C92.626 145.745 92.5599 145.436 92.4277 145.203C92.3001 144.971 92.1178 144.802 91.8809 144.697C91.6439 144.588 91.3659 144.533 91.0469 144.533C90.6732 144.533 90.361 144.599 90.1104 144.731C89.8597 144.864 89.6592 145.046 89.5088 145.278C89.3584 145.511 89.249 145.777 89.1807 146.078C89.1169 146.374 89.085 146.689 89.085 147.021ZM93.877 146.324L93.0293 146.584C93.0339 146.178 93.0999 145.789 93.2275 145.415C93.3597 145.041 93.5488 144.709 93.7949 144.417C94.0456 144.125 94.3532 143.895 94.7178 143.727C95.0824 143.553 95.4993 143.467 95.9688 143.467C96.3652 143.467 96.7161 143.519 97.0215 143.624C97.3314 143.729 97.5911 143.891 97.8008 144.109C98.015 144.324 98.1768 144.599 98.2861 144.937C98.3955 145.274 98.4502 145.675 98.4502 146.14V151H97.1787V146.126C97.1787 145.711 97.1126 145.39 96.9805 145.162C96.8529 144.93 96.6706 144.768 96.4336 144.677C96.2012 144.581 95.9232 144.533 95.5996 144.533C95.3216 144.533 95.0755 144.581 94.8613 144.677C94.6471 144.772 94.4671 144.905 94.3213 145.073C94.1755 145.237 94.0638 145.426 93.9863 145.641C93.9134 145.855 93.877 146.083 93.877 146.324ZM100.607 140.5H101.879V149.564L101.77 151H100.607V140.5ZM106.876 147.24V147.384C106.876 147.922 106.812 148.421 106.685 148.881C106.557 149.337 106.37 149.733 106.124 150.07C105.878 150.408 105.577 150.67 105.222 150.856C104.866 151.043 104.458 151.137 103.998 151.137C103.529 151.137 103.116 151.057 102.761 150.897C102.41 150.733 102.114 150.499 101.872 150.193C101.631 149.888 101.437 149.519 101.291 149.086C101.15 148.653 101.052 148.165 100.997 147.623V146.994C101.052 146.447 101.15 145.957 101.291 145.524C101.437 145.091 101.631 144.722 101.872 144.417C102.114 144.107 102.41 143.872 102.761 143.713C103.112 143.549 103.52 143.467 103.984 143.467C104.449 143.467 104.862 143.558 105.222 143.74C105.582 143.918 105.882 144.173 106.124 144.506C106.37 144.839 106.557 145.237 106.685 145.702C106.812 146.162 106.876 146.675 106.876 147.24ZM105.604 147.384V147.24C105.604 146.871 105.57 146.525 105.502 146.201C105.434 145.873 105.324 145.586 105.174 145.34C105.023 145.089 104.825 144.893 104.579 144.752C104.333 144.606 104.03 144.533 103.67 144.533C103.351 144.533 103.073 144.588 102.836 144.697C102.604 144.807 102.405 144.955 102.241 145.142C102.077 145.324 101.943 145.534 101.838 145.771C101.738 146.003 101.662 146.244 101.612 146.495V148.143C101.685 148.462 101.804 148.769 101.968 149.065C102.136 149.357 102.36 149.596 102.638 149.783C102.92 149.97 103.269 150.063 103.684 150.063C104.025 150.063 104.317 149.995 104.559 149.858C104.805 149.717 105.003 149.523 105.153 149.277C105.308 149.031 105.422 148.746 105.495 148.423C105.568 148.099 105.604 147.753 105.604 147.384ZM111.795 151.137C111.28 151.137 110.813 151.05 110.394 150.877C109.979 150.699 109.621 150.451 109.32 150.132C109.024 149.813 108.796 149.435 108.637 148.997C108.477 148.56 108.397 148.081 108.397 147.562V147.274C108.397 146.673 108.486 146.137 108.664 145.668C108.842 145.194 109.083 144.793 109.389 144.465C109.694 144.137 110.04 143.888 110.428 143.72C110.815 143.551 111.216 143.467 111.631 143.467C112.16 143.467 112.615 143.558 112.998 143.74C113.385 143.923 113.702 144.178 113.948 144.506C114.194 144.829 114.377 145.212 114.495 145.654C114.614 146.092 114.673 146.57 114.673 147.09V147.657H109.149V146.625H113.408V146.529C113.39 146.201 113.322 145.882 113.203 145.572C113.089 145.262 112.907 145.007 112.656 144.807C112.406 144.606 112.064 144.506 111.631 144.506C111.344 144.506 111.079 144.567 110.838 144.69C110.596 144.809 110.389 144.987 110.216 145.224C110.043 145.461 109.908 145.75 109.812 146.092C109.717 146.434 109.669 146.828 109.669 147.274V147.562C109.669 147.912 109.717 148.243 109.812 148.553C109.913 148.858 110.056 149.127 110.243 149.359C110.435 149.592 110.665 149.774 110.934 149.906C111.207 150.038 111.517 150.104 111.863 150.104C112.31 150.104 112.688 150.013 112.998 149.831C113.308 149.649 113.579 149.405 113.812 149.1L114.577 149.708C114.418 149.95 114.215 150.18 113.969 150.398C113.723 150.617 113.42 150.795 113.06 150.932C112.704 151.068 112.283 151.137 111.795 151.137ZM117.773 140.5V151H116.502V140.5H117.773ZM124.415 149.735V145.928C124.415 145.636 124.356 145.383 124.237 145.169C124.123 144.95 123.95 144.782 123.718 144.663C123.485 144.545 123.198 144.485 122.856 144.485C122.537 144.485 122.257 144.54 122.016 144.649C121.779 144.759 121.592 144.902 121.455 145.08C121.323 145.258 121.257 145.449 121.257 145.654H119.992C119.992 145.39 120.061 145.128 120.197 144.868C120.334 144.608 120.53 144.374 120.785 144.164C121.045 143.95 121.355 143.781 121.715 143.658C122.079 143.531 122.485 143.467 122.932 143.467C123.469 143.467 123.943 143.558 124.354 143.74C124.768 143.923 125.092 144.198 125.324 144.567C125.561 144.932 125.68 145.39 125.68 145.941V149.387C125.68 149.633 125.7 149.895 125.741 150.173C125.787 150.451 125.853 150.69 125.939 150.891V151H124.62C124.556 150.854 124.506 150.66 124.47 150.419C124.433 150.173 124.415 149.945 124.415 149.735ZM124.634 146.516L124.647 147.404H123.369C123.009 147.404 122.688 147.434 122.405 147.493C122.123 147.548 121.886 147.632 121.694 147.746C121.503 147.86 121.357 148.004 121.257 148.177C121.157 148.345 121.106 148.544 121.106 148.771C121.106 149.004 121.159 149.216 121.264 149.407C121.368 149.599 121.526 149.751 121.735 149.865C121.95 149.975 122.212 150.029 122.521 150.029C122.909 150.029 123.251 149.947 123.547 149.783C123.843 149.619 124.078 149.419 124.251 149.182C124.429 148.945 124.524 148.715 124.538 148.491L125.078 149.1C125.046 149.291 124.96 149.503 124.818 149.735C124.677 149.968 124.488 150.191 124.251 150.405C124.019 150.615 123.741 150.79 123.417 150.932C123.098 151.068 122.738 151.137 122.337 151.137C121.836 151.137 121.396 151.039 121.018 150.843C120.644 150.647 120.352 150.385 120.143 150.057C119.938 149.724 119.835 149.353 119.835 148.942C119.835 148.546 119.912 148.197 120.067 147.896C120.222 147.591 120.446 147.338 120.737 147.138C121.029 146.933 121.38 146.778 121.79 146.673C122.2 146.568 122.658 146.516 123.164 146.516H124.634ZM127.953 143.604H129.225V151.882C129.225 152.333 129.152 152.716 129.006 153.03C128.865 153.345 128.65 153.582 128.363 153.741C128.081 153.905 127.723 153.987 127.29 153.987C127.176 153.987 127.044 153.976 126.894 153.953C126.739 153.93 126.609 153.903 126.504 153.871L126.511 152.853C126.597 152.871 126.695 152.884 126.805 152.894C126.914 152.907 127.01 152.914 127.092 152.914C127.279 152.914 127.436 152.88 127.563 152.812C127.691 152.743 127.787 152.634 127.851 152.483C127.919 152.333 127.953 152.132 127.953 151.882V143.604ZM127.823 141.642C127.823 141.437 127.887 141.263 128.015 141.122C128.142 140.981 128.327 140.91 128.568 140.91C128.814 140.91 129.001 140.981 129.129 141.122C129.257 141.263 129.32 141.437 129.32 141.642C129.32 141.838 129.257 142.006 129.129 142.147C129.001 142.284 128.814 142.353 128.568 142.353C128.327 142.353 128.142 142.284 128.015 142.147C127.887 142.006 127.823 141.838 127.823 141.642ZM135.88 149.735V145.928C135.88 145.636 135.821 145.383 135.702 145.169C135.588 144.95 135.415 144.782 135.183 144.663C134.95 144.545 134.663 144.485 134.321 144.485C134.002 144.485 133.722 144.54 133.48 144.649C133.243 144.759 133.057 144.902 132.92 145.08C132.788 145.258 132.722 145.449 132.722 145.654H131.457C131.457 145.39 131.525 145.128 131.662 144.868C131.799 144.608 131.995 144.374 132.25 144.164C132.51 143.95 132.82 143.781 133.18 143.658C133.544 143.531 133.95 143.467 134.396 143.467C134.934 143.467 135.408 143.558 135.818 143.74C136.233 143.923 136.557 144.198 136.789 144.567C137.026 144.932 137.145 145.39 137.145 145.941V149.387C137.145 149.633 137.165 149.895 137.206 150.173C137.252 150.451 137.318 150.69 137.404 150.891V151H136.085C136.021 150.854 135.971 150.66 135.935 150.419C135.898 150.173 135.88 149.945 135.88 149.735ZM136.099 146.516L136.112 147.404H134.834C134.474 147.404 134.153 147.434 133.87 147.493C133.588 147.548 133.351 147.632 133.159 147.746C132.968 147.86 132.822 148.004 132.722 148.177C132.621 148.345 132.571 148.544 132.571 148.771C132.571 149.004 132.624 149.216 132.729 149.407C132.833 149.599 132.991 149.751 133.2 149.865C133.414 149.975 133.676 150.029 133.986 150.029C134.374 150.029 134.715 149.947 135.012 149.783C135.308 149.619 135.543 149.419 135.716 149.182C135.894 148.945 135.989 148.715 136.003 148.491L136.543 149.1C136.511 149.291 136.424 149.503 136.283 149.735C136.142 149.968 135.953 150.191 135.716 150.405C135.483 150.615 135.205 150.79 134.882 150.932C134.563 151.068 134.203 151.137 133.802 151.137C133.3 151.137 132.861 151.039 132.482 150.843C132.109 150.647 131.817 150.385 131.607 150.057C131.402 149.724 131.3 149.353 131.3 148.942C131.3 148.546 131.377 148.197 131.532 147.896C131.687 147.591 131.91 147.338 132.202 147.138C132.494 146.933 132.845 146.778 133.255 146.673C133.665 146.568 134.123 146.516 134.629 146.516H136.099ZM140.648 144.766V151H139.384V143.604H140.614L140.648 144.766ZM142.959 143.562L142.952 144.738C142.847 144.715 142.747 144.702 142.651 144.697C142.56 144.688 142.455 144.684 142.337 144.684C142.045 144.684 141.788 144.729 141.564 144.82C141.341 144.911 141.152 145.039 140.997 145.203C140.842 145.367 140.719 145.563 140.628 145.791C140.541 146.014 140.484 146.26 140.457 146.529L140.102 146.734C140.102 146.288 140.145 145.868 140.231 145.477C140.323 145.085 140.462 144.738 140.648 144.438C140.835 144.132 141.072 143.895 141.359 143.727C141.651 143.553 141.997 143.467 142.398 143.467C142.49 143.467 142.594 143.478 142.713 143.501C142.831 143.519 142.913 143.54 142.959 143.562ZM148.466 149.735V145.928C148.466 145.636 148.407 145.383 148.288 145.169C148.174 144.95 148.001 144.782 147.769 144.663C147.536 144.545 147.249 144.485 146.907 144.485C146.588 144.485 146.308 144.54 146.066 144.649C145.829 144.759 145.643 144.902 145.506 145.08C145.374 145.258 145.308 145.449 145.308 145.654H144.043C144.043 145.39 144.111 145.128 144.248 144.868C144.385 144.608 144.581 144.374 144.836 144.164C145.096 143.95 145.406 143.781 145.766 143.658C146.13 143.531 146.536 143.467 146.982 143.467C147.52 143.467 147.994 143.558 148.404 143.74C148.819 143.923 149.143 144.198 149.375 144.567C149.612 144.932 149.73 145.39 149.73 145.941V149.387C149.73 149.633 149.751 149.895 149.792 150.173C149.838 150.451 149.904 150.69 149.99 150.891V151H148.671C148.607 150.854 148.557 150.66 148.521 150.419C148.484 150.173 148.466 149.945 148.466 149.735ZM148.685 146.516L148.698 147.404H147.42C147.06 147.404 146.739 147.434 146.456 147.493C146.174 147.548 145.937 147.632 145.745 147.746C145.554 147.86 145.408 148.004 145.308 148.177C145.207 148.345 145.157 148.544 145.157 148.771C145.157 149.004 145.21 149.216 145.314 149.407C145.419 149.599 145.576 149.751 145.786 149.865C146 149.975 146.262 150.029 146.572 150.029C146.96 150.029 147.301 149.947 147.598 149.783C147.894 149.619 148.129 149.419 148.302 149.182C148.479 148.945 148.575 148.715 148.589 148.491L149.129 149.1C149.097 149.291 149.01 149.503 148.869 149.735C148.728 149.968 148.539 150.191 148.302 150.405C148.069 150.615 147.791 150.79 147.468 150.932C147.149 151.068 146.789 151.137 146.388 151.137C145.886 151.137 145.447 151.039 145.068 150.843C144.695 150.647 144.403 150.385 144.193 150.057C143.988 149.724 143.886 149.353 143.886 148.942C143.886 148.546 143.963 148.197 144.118 147.896C144.273 147.591 144.496 147.338 144.788 147.138C145.08 146.933 145.431 146.778 145.841 146.673C146.251 146.568 146.709 146.516 147.215 146.516H148.685ZM153.234 145.183V151H151.97V143.604H153.166L153.234 145.183ZM152.934 147.021L152.407 147.001C152.412 146.495 152.487 146.028 152.633 145.6C152.779 145.167 152.984 144.791 153.248 144.472C153.512 144.153 153.827 143.907 154.191 143.733C154.561 143.556 154.968 143.467 155.415 143.467C155.78 143.467 156.108 143.517 156.399 143.617C156.691 143.713 156.939 143.868 157.145 144.082C157.354 144.296 157.514 144.574 157.623 144.916C157.732 145.253 157.787 145.666 157.787 146.153V151H156.516V146.14C156.516 145.752 156.459 145.442 156.345 145.21C156.231 144.973 156.064 144.802 155.846 144.697C155.627 144.588 155.358 144.533 155.039 144.533C154.725 144.533 154.438 144.599 154.178 144.731C153.923 144.864 153.701 145.046 153.515 145.278C153.332 145.511 153.189 145.777 153.084 146.078C152.984 146.374 152.934 146.689 152.934 147.021Z" fill="#8E8E8E"/>
<defs>
<clipPath id="clip0_756_11121">
<rect width="120" height="120" fill="white" transform="translate(19.5)"/>
</clipPath>
</defs>
</svg>
