<svg width="120" height="156" viewBox="0 0 120 156" fill="none" xmlns="http://www.w3.org/2000/svg">
<circle cx="60" cy="60" r="49.25" fill="#DCDCDC" stroke="#AEAEAE" stroke-width="1.5"/>
<path d="M94 20H26C20.3995 20 17.5992 20 15.4601 21.0899C13.5785 22.0487 12.0487 23.5785 11.0899 25.4601C10 27.5992 10 30.3995 10 36V42.5C19.665 42.5 27.5 50.335 27.5 60C27.5 69.665 19.665 77.5 10 77.5V84C10 89.6005 10 92.4008 11.0899 94.5399C12.0487 96.4215 13.5785 97.9513 15.4601 98.9101C17.5992 100 20.3995 100 26 100H94C99.6005 100 102.401 100 104.54 98.9101C106.422 97.9513 107.951 96.4215 108.91 94.5399C110 92.4008 110 89.6005 110 84V77.5C100.335 77.5 92.5 69.665 92.5 60C92.5 50.335 100.335 42.5 110 42.5V36C110 30.3995 110 27.5992 108.91 25.4601C107.951 23.5785 106.422 22.0487 104.54 21.0899C102.401 20 99.6005 20 94 20Z" fill="#FAFAFA"/>
<path d="M50 40V35M50 62.5V57.5M50 85V80M26 20H94C99.6005 20 102.401 20 104.54 21.0899C106.422 22.0487 107.951 23.5785 108.91 25.4601C110 27.5992 110 30.3995 110 36V42.5C100.335 42.5 92.5 50.335 92.5 60C92.5 69.665 100.335 77.5 110 77.5V84C110 89.6005 110 92.4008 108.91 94.5399C107.951 96.4215 106.422 97.9513 104.54 98.9101C102.401 100 99.6005 100 94 100H26C20.3995 100 17.5992 100 15.4601 98.9101C13.5785 97.9513 12.0487 96.4215 11.0899 94.5399C10 92.4008 10 89.6005 10 84V77.5C19.665 77.5 27.5 69.665 27.5 60C27.5 50.335 19.665 42.5 10 42.5V36C10 30.3995 10 27.5992 11.0899 25.4601C12.0487 23.5785 13.5785 22.0487 15.4601 21.0899C17.5992 20 20.3995 20 26 20Z" stroke="#AEAEAE" stroke-width="1.5" stroke-linecap="round" stroke-linejoin="round"/>
<path d="M81 97C94.2548 97 105 86.2548 105 73C105 59.7452 94.2548 49 81 49C67.7452 49 57 59.7452 57 73C57 86.2548 67.7452 97 81 97Z" fill="#FAFAFA"/>
<path d="M111 103L97.95 89.95M105 73C105 86.2548 94.2548 97 81 97C67.7452 97 57 86.2548 57 73C57 59.7452 67.7452 49 81 49C94.2548 49 105 59.7452 105 73Z" stroke="#AEAEAE" stroke-width="4" stroke-linecap="round" stroke-linejoin="round"/>
<circle cx="73" cy="67" r="3" fill="#AEAEAE"/>
<circle cx="89" cy="67" r="3" fill="#AEAEAE"/>
<path d="M72.5 81C80.0554 84.2931 84.0646 84.1639 90.5 81" stroke="#AEAEAE" stroke-width="2" stroke-linecap="round"/>
<path d="M25.9883 147.835H27.3008C27.2324 148.464 27.0524 149.027 26.7607 149.523C26.4691 150.02 26.0566 150.414 25.5234 150.706C24.9902 150.993 24.3249 151.137 23.5273 151.137C22.944 151.137 22.4131 151.027 21.9346 150.809C21.4606 150.59 21.0527 150.28 20.7109 149.879C20.3691 149.473 20.1048 148.988 19.918 148.423C19.7357 147.853 19.6445 147.22 19.6445 146.522V145.531C19.6445 144.834 19.7357 144.203 19.918 143.638C20.1048 143.068 20.3714 142.58 20.7178 142.175C21.0687 141.769 21.4902 141.457 21.9824 141.238C22.4746 141.02 23.0283 140.91 23.6436 140.91C24.3955 140.91 25.0312 141.051 25.5508 141.334C26.0703 141.617 26.4736 142.008 26.7607 142.51C27.0524 143.007 27.2324 143.583 27.3008 144.239H25.9883C25.9245 143.774 25.806 143.376 25.6328 143.043C25.4596 142.706 25.2135 142.446 24.8945 142.264C24.5755 142.081 24.1585 141.99 23.6436 141.99C23.2015 141.99 22.8118 142.075 22.4746 142.243C22.1419 142.412 21.8617 142.651 21.6338 142.961C21.4105 143.271 21.2419 143.642 21.1279 144.075C21.014 144.508 20.957 144.989 20.957 145.518V146.522C20.957 147.01 21.0072 147.468 21.1074 147.896C21.2122 148.325 21.3695 148.701 21.5791 149.024C21.7887 149.348 22.0553 149.603 22.3789 149.79C22.7025 149.972 23.0853 150.063 23.5273 150.063C24.0879 150.063 24.5345 149.975 24.8672 149.797C25.1999 149.619 25.4505 149.364 25.6191 149.031C25.7923 148.699 25.9154 148.3 25.9883 147.835ZM33.5186 149.735V145.928C33.5186 145.636 33.4593 145.383 33.3408 145.169C33.2269 144.95 33.0537 144.782 32.8213 144.663C32.5889 144.545 32.3018 144.485 31.96 144.485C31.641 144.485 31.3607 144.54 31.1191 144.649C30.8822 144.759 30.6953 144.902 30.5586 145.08C30.4264 145.258 30.3604 145.449 30.3604 145.654H29.0957C29.0957 145.39 29.1641 145.128 29.3008 144.868C29.4375 144.608 29.6335 144.374 29.8887 144.164C30.1484 143.95 30.4583 143.781 30.8184 143.658C31.1829 143.531 31.5885 143.467 32.0352 143.467C32.5729 143.467 33.0469 143.558 33.457 143.74C33.8717 143.923 34.1953 144.198 34.4277 144.567C34.6647 144.932 34.7832 145.39 34.7832 145.941V149.387C34.7832 149.633 34.8037 149.895 34.8447 150.173C34.8903 150.451 34.9564 150.69 35.043 150.891V151H33.7236C33.6598 150.854 33.6097 150.66 33.5732 150.419C33.5368 150.173 33.5186 149.945 33.5186 149.735ZM33.7373 146.516L33.751 147.404H32.4727C32.1126 147.404 31.7913 147.434 31.5088 147.493C31.2262 147.548 30.9893 147.632 30.7979 147.746C30.6064 147.86 30.4606 148.004 30.3604 148.177C30.2601 148.345 30.21 148.544 30.21 148.771C30.21 149.004 30.2624 149.216 30.3672 149.407C30.472 149.599 30.6292 149.751 30.8389 149.865C31.0531 149.975 31.3151 150.029 31.625 150.029C32.0124 150.029 32.3542 149.947 32.6504 149.783C32.9466 149.619 33.1813 149.419 33.3545 149.182C33.5322 148.945 33.6279 148.715 33.6416 148.491L34.1816 149.1C34.1497 149.291 34.0632 149.503 33.9219 149.735C33.7806 149.968 33.5915 150.191 33.3545 150.405C33.1221 150.615 32.8441 150.79 32.5205 150.932C32.2015 151.068 31.8415 151.137 31.4404 151.137C30.9391 151.137 30.4993 151.039 30.1211 150.843C29.7474 150.647 29.4557 150.385 29.2461 150.057C29.041 149.724 28.9385 149.353 28.9385 148.942C28.9385 148.546 29.016 148.197 29.1709 147.896C29.3258 147.591 29.5492 147.338 29.8408 147.138C30.1325 146.933 30.4834 146.778 30.8936 146.673C31.3037 146.568 31.7617 146.516 32.2676 146.516H33.7373ZM38.2871 144.766V151H37.0225V143.604H38.2529L38.2871 144.766ZM40.5977 143.562L40.5908 144.738C40.486 144.715 40.3857 144.702 40.29 144.697C40.1989 144.688 40.0941 144.684 39.9756 144.684C39.6839 144.684 39.4264 144.729 39.2031 144.82C38.9798 144.911 38.7907 145.039 38.6357 145.203C38.4808 145.367 38.3577 145.563 38.2666 145.791C38.18 146.014 38.123 146.26 38.0957 146.529L37.7402 146.734C37.7402 146.288 37.7835 145.868 37.8701 145.477C37.9613 145.085 38.1003 144.738 38.2871 144.438C38.474 144.132 38.7109 143.895 38.998 143.727C39.2897 143.553 39.6361 143.467 40.0371 143.467C40.1283 143.467 40.2331 143.478 40.3516 143.501C40.4701 143.519 40.5521 143.54 40.5977 143.562ZM43.3906 143.604V151H42.1191V143.604H43.3906ZM42.0234 141.642C42.0234 141.437 42.085 141.263 42.208 141.122C42.3356 140.981 42.5225 140.91 42.7686 140.91C43.0101 140.91 43.1947 140.981 43.3223 141.122C43.4544 141.263 43.5205 141.437 43.5205 141.642C43.5205 141.838 43.4544 142.006 43.3223 142.147C43.1947 142.284 43.0101 142.353 42.7686 142.353C42.5225 142.353 42.3356 142.284 42.208 142.147C42.085 142.006 42.0234 141.838 42.0234 141.642ZM52.2031 147.992L54.1787 141.047H55.1357L54.582 143.747L52.4561 151H51.5059L52.2031 147.992ZM50.1592 141.047L51.7314 147.855L52.2031 151H51.2598L48.8467 141.047H50.1592ZM57.6924 147.849L59.2305 141.047H60.5498L58.1436 151H57.2002L57.6924 147.849ZM55.2793 141.047L57.2002 147.992L57.8975 151H56.9473L54.8965 143.747L54.3359 141.047H55.2793ZM64.9219 151.137C64.4069 151.137 63.9398 151.05 63.5205 150.877C63.1058 150.699 62.748 150.451 62.4473 150.132C62.151 149.813 61.9232 149.435 61.7637 148.997C61.6042 148.56 61.5244 148.081 61.5244 147.562V147.274C61.5244 146.673 61.6133 146.137 61.791 145.668C61.9688 145.194 62.2103 144.793 62.5156 144.465C62.821 144.137 63.1673 143.888 63.5547 143.72C63.9421 143.551 64.3431 143.467 64.7578 143.467C65.2865 143.467 65.7422 143.558 66.125 143.74C66.5124 143.923 66.8291 144.178 67.0752 144.506C67.3213 144.829 67.5036 145.212 67.6221 145.654C67.7406 146.092 67.7998 146.57 67.7998 147.09V147.657H62.2764V146.625H66.5352V146.529C66.5169 146.201 66.4486 145.882 66.3301 145.572C66.2161 145.262 66.0339 145.007 65.7832 144.807C65.5326 144.606 65.1908 144.506 64.7578 144.506C64.4707 144.506 64.2064 144.567 63.9648 144.69C63.7233 144.809 63.516 144.987 63.3428 145.224C63.1696 145.461 63.0352 145.75 62.9395 146.092C62.8438 146.434 62.7959 146.828 62.7959 147.274V147.562C62.7959 147.912 62.8438 148.243 62.9395 148.553C63.0397 148.858 63.1833 149.127 63.3701 149.359C63.5615 149.592 63.7917 149.774 64.0605 149.906C64.334 150.038 64.6439 150.104 64.9902 150.104C65.4368 150.104 65.8151 150.013 66.125 149.831C66.4349 149.649 66.7061 149.405 66.9385 149.1L67.7041 149.708C67.5446 149.95 67.3418 150.18 67.0957 150.398C66.8496 150.617 66.5465 150.795 66.1865 150.932C65.8311 151.068 65.4095 151.137 64.9219 151.137ZM69.5195 140.5H70.791V149.564L70.6816 151H69.5195V140.5ZM75.7881 147.24V147.384C75.7881 147.922 75.7243 148.421 75.5967 148.881C75.4691 149.337 75.2822 149.733 75.0361 150.07C74.79 150.408 74.4893 150.67 74.1338 150.856C73.7783 151.043 73.3704 151.137 72.9102 151.137C72.4408 151.137 72.0283 151.057 71.6729 150.897C71.3219 150.733 71.0257 150.499 70.7842 150.193C70.5426 149.888 70.349 149.519 70.2031 149.086C70.0618 148.653 69.9639 148.165 69.9092 147.623V146.994C69.9639 146.447 70.0618 145.957 70.2031 145.524C70.349 145.091 70.5426 144.722 70.7842 144.417C71.0257 144.107 71.3219 143.872 71.6729 143.713C72.0238 143.549 72.4316 143.467 72.8965 143.467C73.3613 143.467 73.7738 143.558 74.1338 143.74C74.4938 143.918 74.7946 144.173 75.0361 144.506C75.2822 144.839 75.4691 145.237 75.5967 145.702C75.7243 146.162 75.7881 146.675 75.7881 147.24ZM74.5166 147.384V147.24C74.5166 146.871 74.4824 146.525 74.4141 146.201C74.3457 145.873 74.2363 145.586 74.0859 145.34C73.9355 145.089 73.7373 144.893 73.4912 144.752C73.2451 144.606 72.9421 144.533 72.582 144.533C72.263 144.533 71.985 144.588 71.748 144.697C71.5156 144.807 71.3174 144.955 71.1533 145.142C70.9893 145.324 70.8548 145.534 70.75 145.771C70.6497 146.003 70.5745 146.244 70.5244 146.495V148.143C70.5973 148.462 70.7158 148.769 70.8799 149.065C71.0485 149.357 71.2718 149.596 71.5498 149.783C71.8324 149.97 72.181 150.063 72.5957 150.063C72.9375 150.063 73.2292 149.995 73.4707 149.858C73.7168 149.717 73.915 149.523 74.0654 149.277C74.2204 149.031 74.3343 148.746 74.4072 148.423C74.4801 148.099 74.5166 147.753 74.5166 147.384ZM79.0117 143.604V151H77.7402V143.604H79.0117ZM77.6445 141.642C77.6445 141.437 77.7061 141.263 77.8291 141.122C77.9567 140.981 78.1436 140.91 78.3896 140.91C78.6312 140.91 78.8158 140.981 78.9434 141.122C79.0755 141.263 79.1416 141.437 79.1416 141.642C79.1416 141.838 79.0755 142.006 78.9434 142.147C78.8158 142.284 78.6312 142.353 78.3896 142.353C78.1436 142.353 77.9567 142.284 77.8291 142.147C77.7061 142.006 77.6445 141.838 77.6445 141.642ZM82.5566 145.183V151H81.292V143.604H82.4883L82.5566 145.183ZM82.2559 147.021L81.7295 147.001C81.734 146.495 81.8092 146.028 81.9551 145.6C82.1009 145.167 82.306 144.791 82.5703 144.472C82.8346 144.153 83.1491 143.907 83.5137 143.733C83.8828 143.556 84.2907 143.467 84.7373 143.467C85.1019 143.467 85.43 143.517 85.7217 143.617C86.0133 143.713 86.2617 143.868 86.4668 144.082C86.6764 144.296 86.8359 144.574 86.9453 144.916C87.0547 145.253 87.1094 145.666 87.1094 146.153V151H85.8379V146.14C85.8379 145.752 85.7809 145.442 85.667 145.21C85.5531 144.973 85.3867 144.802 85.168 144.697C84.9492 144.588 84.6803 144.533 84.3613 144.533C84.0469 144.533 83.7598 144.599 83.5 144.731C83.2448 144.864 83.0238 145.046 82.8369 145.278C82.6546 145.511 82.5111 145.777 82.4062 146.078C82.306 146.374 82.2559 146.689 82.2559 147.021ZM93.6416 149.735V145.928C93.6416 145.636 93.5824 145.383 93.4639 145.169C93.3499 144.95 93.1768 144.782 92.9443 144.663C92.7119 144.545 92.4248 144.485 92.083 144.485C91.764 144.485 91.4837 144.54 91.2422 144.649C91.0052 144.759 90.8184 144.902 90.6816 145.08C90.5495 145.258 90.4834 145.449 90.4834 145.654H89.2188C89.2188 145.39 89.2871 145.128 89.4238 144.868C89.5605 144.608 89.7565 144.374 90.0117 144.164C90.2715 143.95 90.5814 143.781 90.9414 143.658C91.306 143.531 91.7116 143.467 92.1582 143.467C92.696 143.467 93.1699 143.558 93.5801 143.74C93.9948 143.923 94.3184 144.198 94.5508 144.567C94.7878 144.932 94.9062 145.39 94.9062 145.941V149.387C94.9062 149.633 94.9268 149.895 94.9678 150.173C95.0133 150.451 95.0794 150.69 95.166 150.891V151H93.8467C93.7829 150.854 93.7327 150.66 93.6963 150.419C93.6598 150.173 93.6416 149.945 93.6416 149.735ZM93.8604 146.516L93.874 147.404H92.5957C92.2357 147.404 91.9144 147.434 91.6318 147.493C91.3493 147.548 91.1123 147.632 90.9209 147.746C90.7295 147.86 90.5837 148.004 90.4834 148.177C90.3831 148.345 90.333 148.544 90.333 148.771C90.333 149.004 90.3854 149.216 90.4902 149.407C90.5951 149.599 90.7523 149.751 90.9619 149.865C91.1761 149.975 91.4382 150.029 91.748 150.029C92.1354 150.029 92.4772 149.947 92.7734 149.783C93.0697 149.619 93.3044 149.419 93.4775 149.182C93.6553 148.945 93.751 148.715 93.7646 148.491L94.3047 149.1C94.2728 149.291 94.1862 149.503 94.0449 149.735C93.9036 149.968 93.7145 150.191 93.4775 150.405C93.2451 150.615 92.9671 150.79 92.6436 150.932C92.3245 151.068 91.9645 151.137 91.5635 151.137C91.0622 151.137 90.6224 151.039 90.2441 150.843C89.8704 150.647 89.5788 150.385 89.3691 150.057C89.1641 149.724 89.0615 149.353 89.0615 148.942C89.0615 148.546 89.139 148.197 89.2939 147.896C89.4489 147.591 89.6722 147.338 89.9639 147.138C90.2555 146.933 90.6064 146.778 91.0166 146.673C91.4268 146.568 91.8848 146.516 92.3906 146.516H93.8604ZM98.4102 144.766V151H97.1455V143.604H98.376L98.4102 144.766ZM100.721 143.562L100.714 144.738C100.609 144.715 100.509 144.702 100.413 144.697C100.322 144.688 100.217 144.684 100.099 144.684C99.807 144.684 99.5495 144.729 99.3262 144.82C99.1029 144.911 98.9137 145.039 98.7588 145.203C98.6038 145.367 98.4808 145.563 98.3896 145.791C98.3031 146.014 98.2461 146.26 98.2188 146.529L97.8633 146.734C97.8633 146.288 97.9066 145.868 97.9932 145.477C98.0843 145.085 98.2233 144.738 98.4102 144.438C98.597 144.132 98.834 143.895 99.1211 143.727C99.4128 143.553 99.7591 143.467 100.16 143.467C100.251 143.467 100.356 143.478 100.475 143.501C100.593 143.519 100.675 143.54 100.721 143.562Z" fill="#8E8E8E"/>
</svg>
