<svg width="165" height="156" viewBox="0 0 165 156" fill="none" xmlns="http://www.w3.org/2000/svg">
<g clip-path="url(#clip0_756_11122)">
<circle cx="82.5" cy="60" r="49.25" fill="#DCDCDC" stroke="#AEAEAE" stroke-width="1.5"/>
<path d="M116.5 20H48.5C42.8995 20 40.0992 20 37.9601 21.0899C36.0785 22.0487 34.5487 23.5785 33.5899 25.4601C32.5 27.5992 32.5 30.3995 32.5 36V42.5C42.165 42.5 50 50.335 50 60C50 69.665 42.165 77.5 32.5 77.5V84C32.5 89.6005 32.5 92.4008 33.5899 94.5399C34.5487 96.4215 36.0785 97.9513 37.9601 98.9101C40.0992 100 42.8995 100 48.5 100H116.5C122.101 100 124.901 100 127.04 98.9101C128.922 97.9513 130.451 96.4215 131.41 94.5399C132.5 92.4008 132.5 89.6005 132.5 84V77.5C122.835 77.5 115 69.665 115 60C115 50.335 122.835 42.5 132.5 42.5V36C132.5 30.3995 132.5 27.5992 131.41 25.4601C130.451 23.5785 128.922 22.0487 127.04 21.0899C124.901 20 122.101 20 116.5 20Z" fill="#FAFAFA"/>
<path d="M72.5 40V35M72.5 62.5V57.5M72.5 85V80M48.5 20H116.5C122.101 20 124.901 20 127.04 21.0899C128.922 22.0487 130.451 23.5785 131.41 25.4601C132.5 27.5992 132.5 30.3995 132.5 36V42.5C122.835 42.5 115 50.335 115 60C115 69.665 122.835 77.5 132.5 77.5V84C132.5 89.6005 132.5 92.4008 131.41 94.5399C130.451 96.4215 128.922 97.9513 127.04 98.9101C124.901 100 122.101 100 116.5 100H48.5C42.8995 100 40.0992 100 37.9601 98.9101C36.0785 97.9513 34.5487 96.4215 33.5899 94.5399C32.5 92.4008 32.5 89.6005 32.5 84V77.5C42.165 77.5 50 69.665 50 60C50 50.335 42.165 42.5 32.5 42.5V36C32.5 30.3995 32.5 27.5992 33.5899 25.4601C34.5487 23.5785 36.0785 22.0487 37.9601 21.0899C40.0992 20 42.8995 20 48.5 20Z" stroke="#AEAEAE" stroke-width="1.5" stroke-linecap="round" stroke-linejoin="round"/>
<path d="M103.5 97C116.755 97 127.5 86.2548 127.5 73C127.5 59.7452 116.755 49 103.5 49C90.2452 49 79.5 59.7452 79.5 73C79.5 86.2548 90.2452 97 103.5 97Z" fill="#FAFAFA"/>
<path d="M133.5 103L120.45 89.95M127.5 73C127.5 86.2548 116.755 97 103.5 97C90.2452 97 79.5 86.2548 79.5 73C79.5 59.7452 90.2452 49 103.5 49C116.755 49 127.5 59.7452 127.5 73Z" stroke="#AEAEAE" stroke-width="4" stroke-linecap="round" stroke-linejoin="round"/>
<circle cx="96.5" cy="69" r="3" fill="#AEAEAE"/>
<circle cx="110.5" cy="69" r="3" fill="#AEAEAE"/>
<ellipse cx="103.5" cy="80.5" rx="4" ry="2.5" fill="#AEAEAE"/>
<line x1="90.1877" y1="66.6096" x2="95.1877" y2="62.6096" stroke="#AEAEAE"/>
<line x1="110.812" y1="62.6096" x2="115.812" y2="66.6096" stroke="#AEAEAE"/>
</g>
<path d="M3.98047 147.992L5.95605 141.047H6.91309L6.35938 143.747L4.2334 151H3.2832L3.98047 147.992ZM1.93652 141.047L3.50879 147.855L3.98047 151H3.03711L0.624023 141.047H1.93652ZM9.46973 147.849L11.0078 141.047H12.3271L9.9209 151H8.97754L9.46973 147.849ZM7.05664 141.047L8.97754 147.992L9.6748 151H8.72461L6.67383 143.747L6.11328 141.047H7.05664ZM16.6992 151.137C16.1842 151.137 15.7171 151.05 15.2979 150.877C14.8831 150.699 14.5254 150.451 14.2246 150.132C13.9284 149.813 13.7005 149.435 13.541 148.997C13.3815 148.56 13.3018 148.081 13.3018 147.562V147.274C13.3018 146.673 13.3906 146.137 13.5684 145.668C13.7461 145.194 13.9876 144.793 14.293 144.465C14.5983 144.137 14.9447 143.888 15.332 143.72C15.7194 143.551 16.1204 143.467 16.5352 143.467C17.0638 143.467 17.5195 143.558 17.9023 143.74C18.2897 143.923 18.6064 144.178 18.8525 144.506C19.0986 144.829 19.2809 145.212 19.3994 145.654C19.5179 146.092 19.5771 146.57 19.5771 147.09V147.657H14.0537V146.625H18.3125V146.529C18.2943 146.201 18.2259 145.882 18.1074 145.572C17.9935 145.262 17.8112 145.007 17.5605 144.807C17.3099 144.606 16.9681 144.506 16.5352 144.506C16.248 144.506 15.9837 144.567 15.7422 144.69C15.5007 144.809 15.2933 144.987 15.1201 145.224C14.9469 145.461 14.8125 145.75 14.7168 146.092C14.6211 146.434 14.5732 146.828 14.5732 147.274V147.562C14.5732 147.912 14.6211 148.243 14.7168 148.553C14.8171 148.858 14.9606 149.127 15.1475 149.359C15.3389 149.592 15.569 149.774 15.8379 149.906C16.1113 150.038 16.4212 150.104 16.7676 150.104C17.2142 150.104 17.5924 150.013 17.9023 149.831C18.2122 149.649 18.4834 149.405 18.7158 149.1L19.4814 149.708C19.3219 149.95 19.1191 150.18 18.873 150.398C18.627 150.617 18.3239 150.795 17.9639 150.932C17.6084 151.068 17.1868 151.137 16.6992 151.137ZM21.2969 140.5H22.5684V149.564L22.459 151H21.2969V140.5ZM27.5654 147.24V147.384C27.5654 147.922 27.5016 148.421 27.374 148.881C27.2464 149.337 27.0596 149.733 26.8135 150.07C26.5674 150.408 26.2666 150.67 25.9111 150.856C25.5557 151.043 25.1478 151.137 24.6875 151.137C24.2181 151.137 23.8057 151.057 23.4502 150.897C23.0993 150.733 22.8031 150.499 22.5615 150.193C22.32 149.888 22.1263 149.519 21.9805 149.086C21.8392 148.653 21.7412 148.165 21.6865 147.623V146.994C21.7412 146.447 21.8392 145.957 21.9805 145.524C22.1263 145.091 22.32 144.722 22.5615 144.417C22.8031 144.107 23.0993 143.872 23.4502 143.713C23.8011 143.549 24.209 143.467 24.6738 143.467C25.1387 143.467 25.5511 143.558 25.9111 143.74C26.2712 143.918 26.5719 144.173 26.8135 144.506C27.0596 144.839 27.2464 145.237 27.374 145.702C27.5016 146.162 27.5654 146.675 27.5654 147.24ZM26.2939 147.384V147.24C26.2939 146.871 26.2598 146.525 26.1914 146.201C26.123 145.873 26.0137 145.586 25.8633 145.34C25.7129 145.089 25.5146 144.893 25.2686 144.752C25.0225 144.606 24.7194 144.533 24.3594 144.533C24.0404 144.533 23.7624 144.588 23.5254 144.697C23.293 144.807 23.0947 144.955 22.9307 145.142C22.7666 145.324 22.6322 145.534 22.5273 145.771C22.4271 146.003 22.3519 146.244 22.3018 146.495V148.143C22.3747 148.462 22.4932 148.769 22.6572 149.065C22.8258 149.357 23.0492 149.596 23.3271 149.783C23.6097 149.97 23.9583 150.063 24.373 150.063C24.7148 150.063 25.0065 149.995 25.248 149.858C25.4941 149.717 25.6924 149.523 25.8428 149.277C25.9977 149.031 26.1117 148.746 26.1846 148.423C26.2575 148.099 26.2939 147.753 26.2939 147.384ZM30.7891 143.604V151H29.5176V143.604H30.7891ZM29.4219 141.642C29.4219 141.437 29.4834 141.263 29.6064 141.122C29.734 140.981 29.9209 140.91 30.167 140.91C30.4085 140.91 30.5931 140.981 30.7207 141.122C30.8529 141.263 30.9189 141.437 30.9189 141.642C30.9189 141.838 30.8529 142.006 30.7207 142.147C30.5931 142.284 30.4085 142.353 30.167 142.353C29.9209 142.353 29.734 142.284 29.6064 142.147C29.4834 142.006 29.4219 141.838 29.4219 141.642ZM34.334 145.183V151H33.0693V143.604H34.2656L34.334 145.183ZM34.0332 147.021L33.5068 147.001C33.5114 146.495 33.5866 146.028 33.7324 145.6C33.8783 145.167 34.0833 144.791 34.3477 144.472C34.612 144.153 34.9264 143.907 35.291 143.733C35.6602 143.556 36.068 143.467 36.5146 143.467C36.8792 143.467 37.2074 143.517 37.499 143.617C37.7907 143.713 38.0391 143.868 38.2441 144.082C38.4538 144.296 38.6133 144.574 38.7227 144.916C38.832 145.253 38.8867 145.666 38.8867 146.153V151H37.6152V146.14C37.6152 145.752 37.5583 145.442 37.4443 145.21C37.3304 144.973 37.1641 144.802 36.9453 144.697C36.7266 144.588 36.4577 144.533 36.1387 144.533C35.8242 144.533 35.5371 144.599 35.2773 144.731C35.0221 144.864 34.8011 145.046 34.6143 145.278C34.432 145.511 34.2884 145.777 34.1836 146.078C34.0833 146.374 34.0332 146.689 34.0332 147.021ZM45.4189 149.735V145.928C45.4189 145.636 45.3597 145.383 45.2412 145.169C45.1273 144.95 44.9541 144.782 44.7217 144.663C44.4893 144.545 44.2021 144.485 43.8604 144.485C43.5413 144.485 43.2611 144.54 43.0195 144.649C42.7826 144.759 42.5957 144.902 42.459 145.08C42.3268 145.258 42.2607 145.449 42.2607 145.654H40.9961C40.9961 145.39 41.0645 145.128 41.2012 144.868C41.3379 144.608 41.5339 144.374 41.7891 144.164C42.0488 143.95 42.3587 143.781 42.7188 143.658C43.0833 143.531 43.4889 143.467 43.9355 143.467C44.4733 143.467 44.9473 143.558 45.3574 143.74C45.7721 143.923 46.0957 144.198 46.3281 144.567C46.5651 144.932 46.6836 145.39 46.6836 145.941V149.387C46.6836 149.633 46.7041 149.895 46.7451 150.173C46.7907 150.451 46.8568 150.69 46.9434 150.891V151H45.624C45.5602 150.854 45.5101 150.66 45.4736 150.419C45.4372 150.173 45.4189 149.945 45.4189 149.735ZM45.6377 146.516L45.6514 147.404H44.373C44.013 147.404 43.6917 147.434 43.4092 147.493C43.1266 147.548 42.8896 147.632 42.6982 147.746C42.5068 147.86 42.361 148.004 42.2607 148.177C42.1605 148.345 42.1104 148.544 42.1104 148.771C42.1104 149.004 42.1628 149.216 42.2676 149.407C42.3724 149.599 42.5296 149.751 42.7393 149.865C42.9535 149.975 43.2155 150.029 43.5254 150.029C43.9128 150.029 44.2546 149.947 44.5508 149.783C44.847 149.619 45.0817 149.419 45.2549 149.182C45.4326 148.945 45.5283 148.715 45.542 148.491L46.082 149.1C46.0501 149.291 45.9635 149.503 45.8223 149.735C45.681 149.968 45.4919 150.191 45.2549 150.405C45.0225 150.615 44.7445 150.79 44.4209 150.932C44.1019 151.068 43.7419 151.137 43.3408 151.137C42.8395 151.137 42.3997 151.039 42.0215 150.843C41.6478 150.647 41.3561 150.385 41.1465 150.057C40.9414 149.724 40.8389 149.353 40.8389 148.942C40.8389 148.546 40.9163 148.197 41.0713 147.896C41.2262 147.591 41.4495 147.338 41.7412 147.138C42.0329 146.933 42.3838 146.778 42.7939 146.673C43.2041 146.568 43.6621 146.516 44.168 146.516H45.6377ZM50.1875 144.766V151H48.9229V143.604H50.1533L50.1875 144.766ZM52.498 143.562L52.4912 144.738C52.3864 144.715 52.2861 144.702 52.1904 144.697C52.0993 144.688 51.9945 144.684 51.876 144.684C51.5843 144.684 51.3268 144.729 51.1035 144.82C50.8802 144.911 50.6911 145.039 50.5361 145.203C50.3812 145.367 50.2581 145.563 50.167 145.791C50.0804 146.014 50.0234 146.26 49.9961 146.529L49.6406 146.734C49.6406 146.288 49.6839 145.868 49.7705 145.477C49.8617 145.085 50.0007 144.738 50.1875 144.438C50.3743 144.132 50.6113 143.895 50.8984 143.727C51.1901 143.553 51.5365 143.467 51.9375 143.467C52.0286 143.467 52.1335 143.478 52.252 143.501C52.3704 143.519 52.4525 143.54 52.498 143.562ZM61.2354 141.047V151H59.9365V141.047H61.2354ZM64.4346 141.047V142.127H56.7441V141.047H64.4346ZM67.3438 143.604V151H66.0723V143.604H67.3438ZM65.9766 141.642C65.9766 141.437 66.0381 141.263 66.1611 141.122C66.2887 140.981 66.4756 140.91 66.7217 140.91C66.9632 140.91 67.1478 140.981 67.2754 141.122C67.4076 141.263 67.4736 141.437 67.4736 141.642C67.4736 141.838 67.4076 142.006 67.2754 142.147C67.1478 142.284 66.9632 142.353 66.7217 142.353C66.4756 142.353 66.2887 142.284 66.1611 142.147C66.0381 142.006 65.9766 141.838 65.9766 141.642ZM74.2861 149.564V140.5H75.5576V151H74.3955L74.2861 149.564ZM69.3096 147.384V147.24C69.3096 146.675 69.3779 146.162 69.5146 145.702C69.6559 145.237 69.8542 144.839 70.1094 144.506C70.3691 144.173 70.6768 143.918 71.0322 143.74C71.3923 143.558 71.7933 143.467 72.2354 143.467C72.7002 143.467 73.1058 143.549 73.4521 143.713C73.8031 143.872 74.0993 144.107 74.3408 144.417C74.5869 144.722 74.7806 145.091 74.9219 145.524C75.0632 145.957 75.1611 146.447 75.2158 146.994V147.623C75.1657 148.165 75.0677 148.653 74.9219 149.086C74.7806 149.519 74.5869 149.888 74.3408 150.193C74.0993 150.499 73.8031 150.733 73.4521 150.897C73.1012 151.057 72.6911 151.137 72.2217 151.137C71.7887 151.137 71.3923 151.043 71.0322 150.856C70.6768 150.67 70.3691 150.408 70.1094 150.07C69.8542 149.733 69.6559 149.337 69.5146 148.881C69.3779 148.421 69.3096 147.922 69.3096 147.384ZM70.5811 147.24V147.384C70.5811 147.753 70.6175 148.099 70.6904 148.423C70.7679 148.746 70.8864 149.031 71.0459 149.277C71.2054 149.523 71.4082 149.717 71.6543 149.858C71.9004 149.995 72.1943 150.063 72.5361 150.063C72.9554 150.063 73.2995 149.975 73.5684 149.797C73.8418 149.619 74.0605 149.384 74.2246 149.093C74.3887 148.801 74.5163 148.484 74.6074 148.143V146.495C74.5527 146.244 74.473 146.003 74.3682 145.771C74.2679 145.534 74.1357 145.324 73.9717 145.142C73.8122 144.955 73.6139 144.807 73.377 144.697C73.1445 144.588 72.8688 144.533 72.5498 144.533C72.2035 144.533 71.9049 144.606 71.6543 144.752C71.4082 144.893 71.2054 145.089 71.0459 145.34C70.8864 145.586 70.7679 145.873 70.6904 146.201C70.6175 146.525 70.5811 146.871 70.5811 147.24ZM82.1377 149.735V145.928C82.1377 145.636 82.0785 145.383 81.96 145.169C81.846 144.95 81.6729 144.782 81.4404 144.663C81.208 144.545 80.9209 144.485 80.5791 144.485C80.2601 144.485 79.9798 144.54 79.7383 144.649C79.5013 144.759 79.3145 144.902 79.1777 145.08C79.0456 145.258 78.9795 145.449 78.9795 145.654H77.7148C77.7148 145.39 77.7832 145.128 77.9199 144.868C78.0566 144.608 78.2526 144.374 78.5078 144.164C78.7676 143.95 79.0775 143.781 79.4375 143.658C79.8021 143.531 80.2077 143.467 80.6543 143.467C81.1921 143.467 81.666 143.558 82.0762 143.74C82.4909 143.923 82.8145 144.198 83.0469 144.567C83.2839 144.932 83.4023 145.39 83.4023 145.941V149.387C83.4023 149.633 83.4229 149.895 83.4639 150.173C83.5094 150.451 83.5755 150.69 83.6621 150.891V151H82.3428C82.279 150.854 82.2288 150.66 82.1924 150.419C82.1559 150.173 82.1377 149.945 82.1377 149.735ZM82.3564 146.516L82.3701 147.404H81.0918C80.7318 147.404 80.4105 147.434 80.1279 147.493C79.8454 147.548 79.6084 147.632 79.417 147.746C79.2256 147.86 79.0798 148.004 78.9795 148.177C78.8792 148.345 78.8291 148.544 78.8291 148.771C78.8291 149.004 78.8815 149.216 78.9863 149.407C79.0911 149.599 79.2484 149.751 79.458 149.865C79.6722 149.975 79.9342 150.029 80.2441 150.029C80.6315 150.029 80.9733 149.947 81.2695 149.783C81.5658 149.619 81.8005 149.419 81.9736 149.182C82.1514 148.945 82.2471 148.715 82.2607 148.491L82.8008 149.1C82.7689 149.291 82.6823 149.503 82.541 149.735C82.3997 149.968 82.2106 150.191 81.9736 150.405C81.7412 150.615 81.4632 150.79 81.1396 150.932C80.8206 151.068 80.4606 151.137 80.0596 151.137C79.5583 151.137 79.1185 151.039 78.7402 150.843C78.3665 150.647 78.0749 150.385 77.8652 150.057C77.6602 149.724 77.5576 149.353 77.5576 148.942C77.5576 148.546 77.6351 148.197 77.79 147.896C77.945 147.591 78.1683 147.338 78.46 147.138C78.7516 146.933 79.1025 146.778 79.5127 146.673C79.9229 146.568 80.3809 146.516 80.8867 146.516H82.3564ZM86.9131 140.5V151H85.6416V140.5H86.9131ZM91.4316 143.604L88.2051 147.056L86.4004 148.929L86.2979 147.582L87.5898 146.037L89.8867 143.604H91.4316ZM90.2764 151L87.6377 147.473L88.2939 146.345L91.7666 151H90.2764ZM99.5947 151H97.5166L97.5303 149.927H99.5947C100.306 149.927 100.898 149.779 101.372 149.482C101.846 149.182 102.201 148.762 102.438 148.225C102.68 147.682 102.801 147.049 102.801 146.324V145.716C102.801 145.146 102.732 144.64 102.596 144.198C102.459 143.752 102.258 143.376 101.994 143.07C101.73 142.76 101.406 142.526 101.023 142.366C100.645 142.207 100.21 142.127 99.7178 142.127H97.4756V141.047H99.7178C100.369 141.047 100.964 141.156 101.502 141.375C102.04 141.589 102.502 141.901 102.89 142.312C103.282 142.717 103.582 143.209 103.792 143.788C104.002 144.362 104.106 145.009 104.106 145.729V146.324C104.106 147.044 104.002 147.694 103.792 148.272C103.582 148.847 103.279 149.337 102.883 149.742C102.491 150.148 102.017 150.46 101.461 150.679C100.91 150.893 100.287 151 99.5947 151ZM98.2207 141.047V151H96.9014V141.047H98.2207ZM107.521 143.604V151H106.25V143.604H107.521ZM106.154 141.642C106.154 141.437 106.216 141.263 106.339 141.122C106.466 140.981 106.653 140.91 106.899 140.91C107.141 140.91 107.326 140.981 107.453 141.122C107.585 141.263 107.651 141.437 107.651 141.642C107.651 141.838 107.585 142.006 107.453 142.147C107.326 142.284 107.141 142.353 106.899 142.353C106.653 142.353 106.466 142.284 106.339 142.147C106.216 142.006 106.154 141.838 106.154 141.642ZM112.898 143.604V144.574H108.899V143.604H112.898ZM110.253 141.806H111.518V149.168C111.518 149.419 111.556 149.608 111.634 149.735C111.711 149.863 111.812 149.947 111.935 149.988C112.058 150.029 112.19 150.05 112.331 150.05C112.436 150.05 112.545 150.041 112.659 150.022C112.778 150 112.867 149.981 112.926 149.968L112.933 151C112.832 151.032 112.7 151.062 112.536 151.089C112.377 151.121 112.183 151.137 111.955 151.137C111.645 151.137 111.36 151.075 111.101 150.952C110.841 150.829 110.633 150.624 110.479 150.337C110.328 150.045 110.253 149.653 110.253 149.161V141.806ZM117.701 151.137C117.186 151.137 116.719 151.05 116.3 150.877C115.885 150.699 115.527 150.451 115.227 150.132C114.93 149.813 114.702 149.435 114.543 148.997C114.383 148.56 114.304 148.081 114.304 147.562V147.274C114.304 146.673 114.393 146.137 114.57 145.668C114.748 145.194 114.99 144.793 115.295 144.465C115.6 144.137 115.947 143.888 116.334 143.72C116.721 143.551 117.122 143.467 117.537 143.467C118.066 143.467 118.521 143.558 118.904 143.74C119.292 143.923 119.608 144.178 119.854 144.506C120.101 144.829 120.283 145.212 120.401 145.654C120.52 146.092 120.579 146.57 120.579 147.09V147.657H115.056V146.625H119.314V146.529C119.296 146.201 119.228 145.882 119.109 145.572C118.995 145.262 118.813 145.007 118.562 144.807C118.312 144.606 117.97 144.506 117.537 144.506C117.25 144.506 116.986 144.567 116.744 144.69C116.503 144.809 116.295 144.987 116.122 145.224C115.949 145.461 115.814 145.75 115.719 146.092C115.623 146.434 115.575 146.828 115.575 147.274V147.562C115.575 147.912 115.623 148.243 115.719 148.553C115.819 148.858 115.963 149.127 116.149 149.359C116.341 149.592 116.571 149.774 116.84 149.906C117.113 150.038 117.423 150.104 117.77 150.104C118.216 150.104 118.594 150.013 118.904 149.831C119.214 149.649 119.485 149.405 119.718 149.1L120.483 149.708C120.324 149.95 120.121 150.18 119.875 150.398C119.629 150.617 119.326 150.795 118.966 150.932C118.61 151.068 118.189 151.137 117.701 151.137ZM123.563 145.073V151H122.292V143.604H123.495L123.563 145.073ZM123.304 147.021L122.716 147.001C122.72 146.495 122.786 146.028 122.914 145.6C123.042 145.167 123.231 144.791 123.481 144.472C123.732 144.153 124.044 143.907 124.418 143.733C124.792 143.556 125.225 143.467 125.717 143.467C126.063 143.467 126.382 143.517 126.674 143.617C126.965 143.713 127.218 143.866 127.433 144.075C127.647 144.285 127.813 144.554 127.932 144.882C128.05 145.21 128.109 145.606 128.109 146.071V151H126.845V146.133C126.845 145.745 126.779 145.436 126.646 145.203C126.519 144.971 126.337 144.802 126.1 144.697C125.863 144.588 125.585 144.533 125.266 144.533C124.892 144.533 124.58 144.599 124.329 144.731C124.078 144.864 123.878 145.046 123.728 145.278C123.577 145.511 123.468 145.777 123.399 146.078C123.336 146.374 123.304 146.689 123.304 147.021ZM128.096 146.324L127.248 146.584C127.253 146.178 127.319 145.789 127.446 145.415C127.578 145.041 127.768 144.709 128.014 144.417C128.264 144.125 128.572 143.895 128.937 143.727C129.301 143.553 129.718 143.467 130.188 143.467C130.584 143.467 130.935 143.519 131.24 143.624C131.55 143.729 131.81 143.891 132.02 144.109C132.234 144.324 132.396 144.599 132.505 144.937C132.614 145.274 132.669 145.675 132.669 146.14V151H131.397V146.126C131.397 145.711 131.331 145.39 131.199 145.162C131.072 144.93 130.889 144.768 130.652 144.677C130.42 144.581 130.142 144.533 129.818 144.533C129.54 144.533 129.294 144.581 129.08 144.677C128.866 144.772 128.686 144.905 128.54 145.073C128.394 145.237 128.283 145.426 128.205 145.641C128.132 145.855 128.096 146.083 128.096 146.324ZM139.358 149.291V143.604H140.63V151H139.42L139.358 149.291ZM139.598 147.732L140.124 147.719C140.124 148.211 140.072 148.667 139.967 149.086C139.867 149.501 139.702 149.861 139.475 150.166C139.247 150.471 138.948 150.711 138.579 150.884C138.21 151.052 137.761 151.137 137.232 151.137C136.872 151.137 136.542 151.084 136.241 150.979C135.945 150.875 135.69 150.713 135.476 150.494C135.261 150.275 135.095 149.991 134.977 149.64C134.863 149.289 134.806 148.867 134.806 148.375V143.604H136.07V148.389C136.07 148.721 136.107 148.997 136.18 149.216C136.257 149.43 136.36 149.601 136.487 149.729C136.619 149.852 136.765 149.938 136.925 149.988C137.089 150.038 137.257 150.063 137.431 150.063C137.968 150.063 138.395 149.961 138.709 149.756C139.023 149.546 139.249 149.266 139.386 148.915C139.527 148.56 139.598 148.165 139.598 147.732ZM144.079 140.5V151H142.808V140.5H144.079ZM148.598 143.604L145.371 147.056L143.566 148.929L143.464 147.582L144.756 146.037L147.053 143.604H148.598ZM147.442 151L144.804 147.473L145.46 146.345L148.933 151H147.442ZM154.515 149.735V145.928C154.515 145.636 154.455 145.383 154.337 145.169C154.223 144.95 154.05 144.782 153.817 144.663C153.585 144.545 153.298 144.485 152.956 144.485C152.637 144.485 152.357 144.54 152.115 144.649C151.878 144.759 151.691 144.902 151.555 145.08C151.423 145.258 151.356 145.449 151.356 145.654H150.092C150.092 145.39 150.16 145.128 150.297 144.868C150.434 144.608 150.63 144.374 150.885 144.164C151.145 143.95 151.454 143.781 151.814 143.658C152.179 143.531 152.585 143.467 153.031 143.467C153.569 143.467 154.043 143.558 154.453 143.74C154.868 143.923 155.191 144.198 155.424 144.567C155.661 144.932 155.779 145.39 155.779 145.941V149.387C155.779 149.633 155.8 149.895 155.841 150.173C155.886 150.451 155.952 150.69 156.039 150.891V151H154.72C154.656 150.854 154.606 150.66 154.569 150.419C154.533 150.173 154.515 149.945 154.515 149.735ZM154.733 146.516L154.747 147.404H153.469C153.109 147.404 152.787 147.434 152.505 147.493C152.222 147.548 151.985 147.632 151.794 147.746C151.603 147.86 151.457 148.004 151.356 148.177C151.256 148.345 151.206 148.544 151.206 148.771C151.206 149.004 151.258 149.216 151.363 149.407C151.468 149.599 151.625 149.751 151.835 149.865C152.049 149.975 152.311 150.029 152.621 150.029C153.008 150.029 153.35 149.947 153.646 149.783C153.943 149.619 154.177 149.419 154.351 149.182C154.528 148.945 154.624 148.715 154.638 148.491L155.178 149.1C155.146 149.291 155.059 149.503 154.918 149.735C154.777 149.968 154.588 150.191 154.351 150.405C154.118 150.615 153.84 150.79 153.517 150.932C153.198 151.068 152.838 151.137 152.437 151.137C151.935 151.137 151.495 151.039 151.117 150.843C150.743 150.647 150.452 150.385 150.242 150.057C150.037 149.724 149.935 149.353 149.935 148.942C149.935 148.546 150.012 148.197 150.167 147.896C150.322 147.591 150.545 147.338 150.837 147.138C151.129 146.933 151.479 146.778 151.89 146.673C152.3 146.568 152.758 146.516 153.264 146.516H154.733ZM159.283 145.183V151H158.019V143.604H159.215L159.283 145.183ZM158.982 147.021L158.456 147.001C158.461 146.495 158.536 146.028 158.682 145.6C158.827 145.167 159.033 144.791 159.297 144.472C159.561 144.153 159.876 143.907 160.24 143.733C160.609 143.556 161.017 143.467 161.464 143.467C161.828 143.467 162.157 143.517 162.448 143.617C162.74 143.713 162.988 143.868 163.193 144.082C163.403 144.296 163.562 144.574 163.672 144.916C163.781 145.253 163.836 145.666 163.836 146.153V151H162.564V146.14C162.564 145.752 162.507 145.442 162.394 145.21C162.28 144.973 162.113 144.802 161.895 144.697C161.676 144.588 161.407 144.533 161.088 144.533C160.773 144.533 160.486 144.599 160.227 144.731C159.971 144.864 159.75 145.046 159.563 145.278C159.381 145.511 159.238 145.777 159.133 146.078C159.033 146.374 158.982 146.689 158.982 147.021Z" fill="#8E8E8E"/>
<defs>
<clipPath id="clip0_756_11122">
<rect width="120" height="120" fill="white" transform="translate(22.5)"/>
</clipPath>
</defs>
</svg>
