<svg width="127" height="156" viewBox="0 0 127 156" fill="none" xmlns="http://www.w3.org/2000/svg">
<g clip-path="url(#clip0_756_12256)">
<circle cx="63.5" cy="60" r="49.25" fill="#DCDCDC" stroke="#AEAEAE" stroke-width="1.5"/>
<path d="M97.5 20H29.5C23.8995 20 21.0992 20 18.9601 21.0899C17.0785 22.0487 15.5487 23.5785 14.5899 25.4601C13.5 27.5992 13.5 30.3995 13.5 36V42.5C23.165 42.5 31 50.335 31 60C31 69.665 23.165 77.5 13.5 77.5V84C13.5 89.6005 13.5 92.4008 14.5899 94.5399C15.5487 96.4215 17.0785 97.9513 18.9601 98.9101C21.0992 100 23.8995 100 29.5 100H97.5C103.101 100 105.901 100 108.04 98.9101C109.922 97.9513 111.451 96.4215 112.41 94.5399C113.5 92.4008 113.5 89.6005 113.5 84V77.5C103.835 77.5 96 69.665 96 60C96 50.335 103.835 42.5 113.5 42.5V36C113.5 30.3995 113.5 27.5992 112.41 25.4601C111.451 23.5785 109.922 22.0487 108.04 21.0899C105.901 20 103.101 20 97.5 20Z" fill="#FAFAFA"/>
<path d="M53.5 40V35M53.5 62.5V57.5M53.5 85V80M29.5 20H97.5C103.101 20 105.901 20 108.04 21.0899C109.922 22.0487 111.451 23.5785 112.41 25.4601C113.5 27.5992 113.5 30.3995 113.5 36V42.5C103.835 42.5 96 50.335 96 60C96 69.665 103.835 77.5 113.5 77.5V84C113.5 89.6005 113.5 92.4008 112.41 94.5399C111.451 96.4215 109.922 97.9513 108.04 98.9101C105.901 100 103.101 100 97.5 100H29.5C23.8995 100 21.0992 100 18.9601 98.9101C17.0785 97.9513 15.5487 96.4215 14.5899 94.5399C13.5 92.4008 13.5 89.6005 13.5 84V77.5C23.165 77.5 31 69.665 31 60C31 50.335 23.165 42.5 13.5 42.5V36C13.5 30.3995 13.5 27.5992 14.5899 25.4601C15.5487 23.5785 17.0785 22.0487 18.9601 21.0899C21.0992 20 23.8995 20 29.5 20Z" stroke="#AEAEAE" stroke-width="1.5" stroke-linecap="round" stroke-linejoin="round"/>
<rect width="54" height="51.4216" transform="translate(37 34)" fill="#FAFAFA"/>
<circle cx="56" cy="53" r="3" fill="#AEAEAE"/>
<circle cx="72" cy="53" r="3" fill="#AEAEAE"/>
<path d="M55.5 67C63.0554 70.2931 67.0646 70.1639 73.5 67" stroke="#AEAEAE" stroke-width="2" stroke-linecap="round"/>
</g>
<path d="M5.13086 146.345H2.6084L2.59473 145.285H4.88477C5.26302 145.285 5.59342 145.221 5.87598 145.094C6.15853 144.966 6.37728 144.784 6.53223 144.547C6.69173 144.305 6.77148 144.018 6.77148 143.686C6.77148 143.321 6.70085 143.025 6.55957 142.797C6.42285 142.564 6.21094 142.396 5.92383 142.291C5.64128 142.182 5.28125 142.127 4.84375 142.127H2.90234V151H1.58301V141.047H4.84375C5.35417 141.047 5.8099 141.099 6.21094 141.204C6.61198 141.304 6.9515 141.464 7.22949 141.683C7.51204 141.897 7.72624 142.17 7.87207 142.503C8.0179 142.836 8.09082 143.234 8.09082 143.699C8.09082 144.109 7.986 144.481 7.77637 144.813C7.56673 145.142 7.27507 145.41 6.90137 145.62C6.53223 145.83 6.09928 145.964 5.60254 146.023L5.13086 146.345ZM5.06934 151H2.08887L2.83398 149.927H5.06934C5.48861 149.927 5.84408 149.854 6.13574 149.708C6.43197 149.562 6.65755 149.357 6.8125 149.093C6.96745 148.824 7.04492 148.507 7.04492 148.143C7.04492 147.773 6.97884 147.454 6.84668 147.186C6.71452 146.917 6.50716 146.709 6.22461 146.563C5.94206 146.418 5.57747 146.345 5.13086 146.345H3.25098L3.26465 145.285H5.83496L6.11523 145.668C6.59375 145.709 6.99935 145.846 7.33203 146.078C7.66471 146.306 7.91764 146.598 8.09082 146.953C8.26855 147.309 8.35742 147.701 8.35742 148.129C8.35742 148.749 8.2207 149.273 7.94727 149.701C7.67839 150.125 7.29785 150.449 6.80566 150.672C6.31348 150.891 5.7347 151 5.06934 151ZM13.4336 151.137C12.9186 151.137 12.4515 151.05 12.0322 150.877C11.6175 150.699 11.2598 150.451 10.959 150.132C10.6628 149.813 10.4349 149.435 10.2754 148.997C10.1159 148.56 10.0361 148.081 10.0361 147.562V147.274C10.0361 146.673 10.125 146.137 10.3027 145.668C10.4805 145.194 10.722 144.793 11.0273 144.465C11.3327 144.137 11.679 143.888 12.0664 143.72C12.4538 143.551 12.8548 143.467 13.2695 143.467C13.7982 143.467 14.2539 143.558 14.6367 143.74C15.0241 143.923 15.3408 144.178 15.5869 144.506C15.833 144.829 16.0153 145.212 16.1338 145.654C16.2523 146.092 16.3115 146.57 16.3115 147.09V147.657H10.7881V146.625H15.0469V146.529C15.0286 146.201 14.9603 145.882 14.8418 145.572C14.7279 145.262 14.5456 145.007 14.2949 144.807C14.0443 144.606 13.7025 144.506 13.2695 144.506C12.9824 144.506 12.7181 144.567 12.4766 144.69C12.235 144.809 12.0277 144.987 11.8545 145.224C11.6813 145.461 11.5469 145.75 11.4512 146.092C11.3555 146.434 11.3076 146.828 11.3076 147.274V147.562C11.3076 147.912 11.3555 148.243 11.4512 148.553C11.5514 148.858 11.695 149.127 11.8818 149.359C12.0732 149.592 12.3034 149.774 12.5723 149.906C12.8457 150.038 13.1556 150.104 13.502 150.104C13.9486 150.104 14.3268 150.013 14.6367 149.831C14.9466 149.649 15.2178 149.405 15.4502 149.1L16.2158 149.708C16.0563 149.95 15.8535 150.18 15.6074 150.398C15.3613 150.617 15.0583 150.795 14.6982 150.932C14.3428 151.068 13.9212 151.137 13.4336 151.137ZM19.4121 140.5V151H18.1406V140.5H19.4121ZM26.2178 149.291V143.604H27.4893V151H26.2793L26.2178 149.291ZM26.457 147.732L26.9834 147.719C26.9834 148.211 26.931 148.667 26.8262 149.086C26.7259 149.501 26.5618 149.861 26.334 150.166C26.1061 150.471 25.8076 150.711 25.4385 150.884C25.0693 151.052 24.6204 151.137 24.0918 151.137C23.7318 151.137 23.4014 151.084 23.1006 150.979C22.8044 150.875 22.5492 150.713 22.335 150.494C22.1208 150.275 21.9544 149.991 21.8359 149.64C21.722 149.289 21.665 148.867 21.665 148.375V143.604H22.9297V148.389C22.9297 148.721 22.9661 148.997 23.0391 149.216C23.1165 149.43 23.2191 149.601 23.3467 149.729C23.4788 149.852 23.6247 149.938 23.7842 149.988C23.9482 150.038 24.1169 150.063 24.29 150.063C24.8278 150.063 25.2539 149.961 25.5684 149.756C25.8828 149.546 26.1084 149.266 26.2451 148.915C26.3864 148.56 26.457 148.165 26.457 147.732ZM30.9248 145.073V151H29.6533V143.604H30.8564L30.9248 145.073ZM30.665 147.021L30.0771 147.001C30.0817 146.495 30.1478 146.028 30.2754 145.6C30.403 145.167 30.5921 144.791 30.8428 144.472C31.0934 144.153 31.4056 143.907 31.7793 143.733C32.153 143.556 32.5859 143.467 33.0781 143.467C33.4245 143.467 33.7435 143.517 34.0352 143.617C34.3268 143.713 34.5798 143.866 34.7939 144.075C35.0081 144.285 35.1745 144.554 35.293 144.882C35.4115 145.21 35.4707 145.606 35.4707 146.071V151H34.2061V146.133C34.2061 145.745 34.14 145.436 34.0078 145.203C33.8802 144.971 33.6979 144.802 33.4609 144.697C33.224 144.588 32.946 144.533 32.627 144.533C32.2533 144.533 31.9411 144.599 31.6904 144.731C31.4398 144.864 31.2393 145.046 31.0889 145.278C30.9385 145.511 30.8291 145.777 30.7607 146.078C30.6969 146.374 30.665 146.689 30.665 147.021ZM35.457 146.324L34.6094 146.584C34.6139 146.178 34.68 145.789 34.8076 145.415C34.9398 145.041 35.1289 144.709 35.375 144.417C35.6257 144.125 35.9333 143.895 36.2979 143.727C36.6624 143.553 37.0794 143.467 37.5488 143.467C37.9453 143.467 38.2962 143.519 38.6016 143.624C38.9115 143.729 39.1712 143.891 39.3809 144.109C39.5951 144.324 39.7568 144.599 39.8662 144.937C39.9756 145.274 40.0303 145.675 40.0303 146.14V151H38.7588V146.126C38.7588 145.711 38.6927 145.39 38.5605 145.162C38.4329 144.93 38.2507 144.768 38.0137 144.677C37.7812 144.581 37.5033 144.533 37.1797 144.533C36.9017 144.533 36.6556 144.581 36.4414 144.677C36.2272 144.772 36.0472 144.905 35.9014 145.073C35.7555 145.237 35.6439 145.426 35.5664 145.641C35.4935 145.855 35.457 146.083 35.457 146.324ZM49.793 141.929L46.498 151H45.1514L48.9453 141.047H49.8135L49.793 141.929ZM52.5547 151L49.2529 141.929L49.2324 141.047H50.1006L53.9082 151H52.5547ZM52.3838 147.315V148.396H46.792V147.315H52.3838ZM59.9619 149.564V140.5H61.2334V151H60.0713L59.9619 149.564ZM54.9854 147.384V147.24C54.9854 146.675 55.0537 146.162 55.1904 145.702C55.3317 145.237 55.5299 144.839 55.7852 144.506C56.0449 144.173 56.3525 143.918 56.708 143.74C57.068 143.558 57.4691 143.467 57.9111 143.467C58.376 143.467 58.7816 143.549 59.1279 143.713C59.4788 143.872 59.7751 144.107 60.0166 144.417C60.2627 144.722 60.4564 145.091 60.5977 145.524C60.7389 145.957 60.8369 146.447 60.8916 146.994V147.623C60.8415 148.165 60.7435 148.653 60.5977 149.086C60.4564 149.519 60.2627 149.888 60.0166 150.193C59.7751 150.499 59.4788 150.733 59.1279 150.897C58.777 151.057 58.3669 151.137 57.8975 151.137C57.4645 151.137 57.068 151.043 56.708 150.856C56.3525 150.67 56.0449 150.408 55.7852 150.07C55.5299 149.733 55.3317 149.337 55.1904 148.881C55.0537 148.421 54.9854 147.922 54.9854 147.384ZM56.2568 147.24V147.384C56.2568 147.753 56.2933 148.099 56.3662 148.423C56.4437 148.746 56.5622 149.031 56.7217 149.277C56.8812 149.523 57.084 149.717 57.3301 149.858C57.5762 149.995 57.8701 150.063 58.2119 150.063C58.6312 150.063 58.9753 149.975 59.2441 149.797C59.5176 149.619 59.7363 149.384 59.9004 149.093C60.0645 148.801 60.1921 148.484 60.2832 148.143V146.495C60.2285 146.244 60.1488 146.003 60.0439 145.771C59.9437 145.534 59.8115 145.324 59.6475 145.142C59.488 144.955 59.2897 144.807 59.0527 144.697C58.8203 144.588 58.5446 144.533 58.2256 144.533C57.8792 144.533 57.5807 144.606 57.3301 144.752C57.084 144.893 56.8812 145.089 56.7217 145.34C56.5622 145.586 56.4437 145.873 56.3662 146.201C56.2933 146.525 56.2568 146.871 56.2568 147.24ZM67.8135 149.735V145.928C67.8135 145.636 67.7542 145.383 67.6357 145.169C67.5218 144.95 67.3486 144.782 67.1162 144.663C66.8838 144.545 66.5967 144.485 66.2549 144.485C65.9359 144.485 65.6556 144.54 65.4141 144.649C65.1771 144.759 64.9902 144.902 64.8535 145.08C64.7214 145.258 64.6553 145.449 64.6553 145.654H63.3906C63.3906 145.39 63.459 145.128 63.5957 144.868C63.7324 144.608 63.9284 144.374 64.1836 144.164C64.4434 143.95 64.7533 143.781 65.1133 143.658C65.4779 143.531 65.8835 143.467 66.3301 143.467C66.8678 143.467 67.3418 143.558 67.752 143.74C68.1667 143.923 68.4902 144.198 68.7227 144.567C68.9596 144.932 69.0781 145.39 69.0781 145.941V149.387C69.0781 149.633 69.0986 149.895 69.1396 150.173C69.1852 150.451 69.2513 150.69 69.3379 150.891V151H68.0186C67.9548 150.854 67.9046 150.66 67.8682 150.419C67.8317 150.173 67.8135 149.945 67.8135 149.735ZM68.0322 146.516L68.0459 147.404H66.7676C66.4076 147.404 66.0863 147.434 65.8037 147.493C65.5212 147.548 65.2842 147.632 65.0928 147.746C64.9014 147.86 64.7555 148.004 64.6553 148.177C64.555 148.345 64.5049 148.544 64.5049 148.771C64.5049 149.004 64.5573 149.216 64.6621 149.407C64.7669 149.599 64.9242 149.751 65.1338 149.865C65.348 149.975 65.61 150.029 65.9199 150.029C66.3073 150.029 66.6491 149.947 66.9453 149.783C67.2415 149.619 67.4762 149.419 67.6494 149.182C67.8271 148.945 67.9229 148.715 67.9365 148.491L68.4766 149.1C68.4447 149.291 68.3581 149.503 68.2168 149.735C68.0755 149.968 67.8864 150.191 67.6494 150.405C67.417 150.615 67.139 150.79 66.8154 150.932C66.4964 151.068 66.1364 151.137 65.7354 151.137C65.234 151.137 64.7943 151.039 64.416 150.843C64.0423 150.647 63.7507 150.385 63.541 150.057C63.3359 149.724 63.2334 149.353 63.2334 148.942C63.2334 148.546 63.3109 148.197 63.4658 147.896C63.6208 147.591 63.8441 147.338 64.1357 147.138C64.4274 146.933 64.7783 146.778 65.1885 146.673C65.5986 146.568 66.0566 146.516 66.5625 146.516H68.0322ZM77.8496 147.992L79.8252 141.047H80.7822L80.2285 143.747L78.1025 151H77.1523L77.8496 147.992ZM75.8057 141.047L77.3779 147.855L77.8496 151H76.9062L74.4932 141.047H75.8057ZM83.3389 147.849L84.877 141.047H86.1963L83.79 151H82.8467L83.3389 147.849ZM80.9258 141.047L82.8467 147.992L83.5439 151H82.5938L80.543 143.747L79.9824 141.047H80.9258ZM90.5684 151.137C90.0534 151.137 89.5863 151.05 89.167 150.877C88.7523 150.699 88.3945 150.451 88.0938 150.132C87.7975 149.813 87.5697 149.435 87.4102 148.997C87.2507 148.56 87.1709 148.081 87.1709 147.562V147.274C87.1709 146.673 87.2598 146.137 87.4375 145.668C87.6152 145.194 87.8568 144.793 88.1621 144.465C88.4674 144.137 88.8138 143.888 89.2012 143.72C89.5885 143.551 89.9896 143.467 90.4043 143.467C90.9329 143.467 91.3887 143.558 91.7715 143.74C92.1589 143.923 92.4756 144.178 92.7217 144.506C92.9678 144.829 93.1501 145.212 93.2686 145.654C93.387 146.092 93.4463 146.57 93.4463 147.09V147.657H87.9229V146.625H92.1816V146.529C92.1634 146.201 92.0951 145.882 91.9766 145.572C91.8626 145.262 91.6803 145.007 91.4297 144.807C91.179 144.606 90.8372 144.506 90.4043 144.506C90.1172 144.506 89.8529 144.567 89.6113 144.69C89.3698 144.809 89.1624 144.987 88.9893 145.224C88.8161 145.461 88.6816 145.75 88.5859 146.092C88.4902 146.434 88.4424 146.828 88.4424 147.274V147.562C88.4424 147.912 88.4902 148.243 88.5859 148.553C88.6862 148.858 88.8298 149.127 89.0166 149.359C89.208 149.592 89.4382 149.774 89.707 149.906C89.9805 150.038 90.2904 150.104 90.6367 150.104C91.0833 150.104 91.4616 150.013 91.7715 149.831C92.0814 149.649 92.3525 149.405 92.585 149.1L93.3506 149.708C93.1911 149.95 92.9883 150.18 92.7422 150.398C92.4961 150.617 92.193 150.795 91.833 150.932C91.4775 151.068 91.056 151.137 90.5684 151.137ZM95.166 140.5H96.4375V149.564L96.3281 151H95.166V140.5ZM101.435 147.24V147.384C101.435 147.922 101.371 148.421 101.243 148.881C101.116 149.337 100.929 149.733 100.683 150.07C100.437 150.408 100.136 150.67 99.7803 150.856C99.4248 151.043 99.0169 151.137 98.5566 151.137C98.0872 151.137 97.6748 151.057 97.3193 150.897C96.9684 150.733 96.6722 150.499 96.4307 150.193C96.1891 149.888 95.9954 149.519 95.8496 149.086C95.7083 148.653 95.6104 148.165 95.5557 147.623V146.994C95.6104 146.447 95.7083 145.957 95.8496 145.524C95.9954 145.091 96.1891 144.722 96.4307 144.417C96.6722 144.107 96.9684 143.872 97.3193 143.713C97.6702 143.549 98.0781 143.467 98.543 143.467C99.0078 143.467 99.4202 143.558 99.7803 143.74C100.14 143.918 100.441 144.173 100.683 144.506C100.929 144.839 101.116 145.237 101.243 145.702C101.371 146.162 101.435 146.675 101.435 147.24ZM100.163 147.384V147.24C100.163 146.871 100.129 146.525 100.061 146.201C99.9922 145.873 99.8828 145.586 99.7324 145.34C99.582 145.089 99.3838 144.893 99.1377 144.752C98.8916 144.606 98.5885 144.533 98.2285 144.533C97.9095 144.533 97.6315 144.588 97.3945 144.697C97.1621 144.807 96.9639 144.955 96.7998 145.142C96.6357 145.324 96.5013 145.534 96.3965 145.771C96.2962 146.003 96.221 146.244 96.1709 146.495V148.143C96.2438 148.462 96.3623 148.769 96.5264 149.065C96.695 149.357 96.9183 149.596 97.1963 149.783C97.4788 149.97 97.8275 150.063 98.2422 150.063C98.584 150.063 98.8757 149.995 99.1172 149.858C99.3633 149.717 99.5615 149.523 99.7119 149.277C99.8669 149.031 99.9808 148.746 100.054 148.423C100.127 148.099 100.163 147.753 100.163 147.384ZM104.658 143.604V151H103.387V143.604H104.658ZM103.291 141.642C103.291 141.437 103.353 141.263 103.476 141.122C103.603 140.981 103.79 140.91 104.036 140.91C104.278 140.91 104.462 140.981 104.59 141.122C104.722 141.263 104.788 141.437 104.788 141.642C104.788 141.838 104.722 142.006 104.59 142.147C104.462 142.284 104.278 142.353 104.036 142.353C103.79 142.353 103.603 142.284 103.476 142.147C103.353 142.006 103.291 141.838 103.291 141.642ZM108.203 145.183V151H106.938V143.604H108.135L108.203 145.183ZM107.902 147.021L107.376 147.001C107.381 146.495 107.456 146.028 107.602 145.6C107.747 145.167 107.952 144.791 108.217 144.472C108.481 144.153 108.796 143.907 109.16 143.733C109.529 143.556 109.937 143.467 110.384 143.467C110.748 143.467 111.076 143.517 111.368 143.617C111.66 143.713 111.908 143.868 112.113 144.082C112.323 144.296 112.482 144.574 112.592 144.916C112.701 145.253 112.756 145.666 112.756 146.153V151H111.484V146.14C111.484 145.752 111.427 145.442 111.313 145.21C111.2 144.973 111.033 144.802 110.814 144.697C110.596 144.588 110.327 144.533 110.008 144.533C109.693 144.533 109.406 144.599 109.146 144.731C108.891 144.864 108.67 145.046 108.483 145.278C108.301 145.511 108.158 145.777 108.053 146.078C107.952 146.374 107.902 146.689 107.902 147.021ZM119.288 149.735V145.928C119.288 145.636 119.229 145.383 119.11 145.169C118.996 144.95 118.823 144.782 118.591 144.663C118.358 144.545 118.071 144.485 117.729 144.485C117.41 144.485 117.13 144.54 116.889 144.649C116.652 144.759 116.465 144.902 116.328 145.08C116.196 145.258 116.13 145.449 116.13 145.654H114.865C114.865 145.39 114.934 145.128 115.07 144.868C115.207 144.608 115.403 144.374 115.658 144.164C115.918 143.95 116.228 143.781 116.588 143.658C116.952 143.531 117.358 143.467 117.805 143.467C118.342 143.467 118.816 143.558 119.227 143.74C119.641 143.923 119.965 144.198 120.197 144.567C120.434 144.932 120.553 145.39 120.553 145.941V149.387C120.553 149.633 120.573 149.895 120.614 150.173C120.66 150.451 120.726 150.69 120.812 150.891V151H119.493C119.429 150.854 119.379 150.66 119.343 150.419C119.306 150.173 119.288 149.945 119.288 149.735ZM119.507 146.516L119.521 147.404H118.242C117.882 147.404 117.561 147.434 117.278 147.493C116.996 147.548 116.759 147.632 116.567 147.746C116.376 147.86 116.23 148.004 116.13 148.177C116.03 148.345 115.979 148.544 115.979 148.771C115.979 149.004 116.032 149.216 116.137 149.407C116.242 149.599 116.399 149.751 116.608 149.865C116.823 149.975 117.085 150.029 117.395 150.029C117.782 150.029 118.124 149.947 118.42 149.783C118.716 149.619 118.951 149.419 119.124 149.182C119.302 148.945 119.397 148.715 119.411 148.491L119.951 149.1C119.919 149.291 119.833 149.503 119.691 149.735C119.55 149.968 119.361 150.191 119.124 150.405C118.892 150.615 118.614 150.79 118.29 150.932C117.971 151.068 117.611 151.137 117.21 151.137C116.709 151.137 116.269 151.039 115.891 150.843C115.517 150.647 115.225 150.385 115.016 150.057C114.811 149.724 114.708 149.353 114.708 148.942C114.708 148.546 114.785 148.197 114.94 147.896C115.095 147.591 115.319 147.338 115.61 147.138C115.902 146.933 116.253 146.778 116.663 146.673C117.073 146.568 117.531 146.516 118.037 146.516H119.507ZM124.057 144.766V151H122.792V143.604H124.022L124.057 144.766ZM126.367 143.562L126.36 144.738C126.256 144.715 126.155 144.702 126.06 144.697C125.968 144.688 125.864 144.684 125.745 144.684C125.453 144.684 125.196 144.729 124.973 144.82C124.749 144.911 124.56 145.039 124.405 145.203C124.25 145.367 124.127 145.563 124.036 145.791C123.95 146.014 123.893 146.26 123.865 146.529L123.51 146.734C123.51 146.288 123.553 145.868 123.64 145.477C123.731 145.085 123.87 144.738 124.057 144.438C124.243 144.132 124.48 143.895 124.768 143.727C125.059 143.553 125.406 143.467 125.807 143.467C125.898 143.467 126.003 143.478 126.121 143.501C126.24 143.519 126.322 143.54 126.367 143.562Z" fill="#8E8E8E"/>
<defs>
<clipPath id="clip0_756_12256">
<rect width="120" height="120" fill="white" transform="translate(3.5)"/>
</clipPath>
</defs>
</svg>
