<svg width="210" height="156" viewBox="0 0 210 156" fill="none" xmlns="http://www.w3.org/2000/svg">
<g clip-path="url(#clip0_758_11821)">
<circle cx="105" cy="60" r="49.25" fill="#DCDCDC" stroke="#AEAEAE" stroke-width="1.5"/>
<path d="M139 20H71C65.3995 20 62.5992 20 60.4601 21.0899C58.5785 22.0487 57.0487 23.5785 56.0899 25.4601C55 27.5992 55 30.3995 55 36V42.5C64.665 42.5 72.5 50.335 72.5 60C72.5 69.665 64.665 77.5 55 77.5V84C55 89.6005 55 92.4008 56.0899 94.5399C57.0487 96.4215 58.5785 97.9513 60.4601 98.9101C62.5992 100 65.3995 100 71 100H139C144.601 100 147.401 100 149.54 98.9101C151.422 97.9513 152.951 96.4215 153.91 94.5399C155 92.4008 155 89.6005 155 84V77.5C145.335 77.5 137.5 69.665 137.5 60C137.5 50.335 145.335 42.5 155 42.5V36C155 30.3995 155 27.5992 153.91 25.4601C152.951 23.5785 151.422 22.0487 149.54 21.0899C147.401 20 144.601 20 139 20Z" fill="#FAFAFA"/>
<path d="M95 40V35M95 62.5V57.5M95 85V80M71 20H139C144.601 20 147.401 20 149.54 21.0899C151.422 22.0487 152.951 23.5785 153.91 25.4601C155 27.5992 155 30.3995 155 36V42.5C145.335 42.5 137.5 50.335 137.5 60C137.5 69.665 145.335 77.5 155 77.5V84C155 89.6005 155 92.4008 153.91 94.5399C152.951 96.4215 151.422 97.9513 149.54 98.9101C147.401 100 144.601 100 139 100H71C65.3995 100 62.5992 100 60.4601 98.9101C58.5785 97.9513 57.0487 96.4215 56.0899 94.5399C55 92.4008 55 89.6005 55 84V77.5C64.665 77.5 72.5 69.665 72.5 60C72.5 50.335 64.665 42.5 55 42.5V36C55 30.3995 55 27.5992 56.0899 25.4601C57.0487 23.5785 58.5785 22.0487 60.4601 21.0899C62.5992 20 65.3995 20 71 20Z" stroke="#AEAEAE" stroke-width="1.5" stroke-linecap="round" stroke-linejoin="round"/>
<path d="M109 76.4C109 71.3595 109 68.8393 109.981 66.9141C110.844 65.2206 112.221 63.8438 113.914 62.9809C115.839 62 118.36 62 123.4 62H136.6C141.64 62 144.161 62 146.086 62.9809C147.779 63.8438 149.156 65.2206 150.019 66.9141C151 68.8393 151 71.3595 151 76.4V116L130 104L109 116V76.4Z" fill="#FAFAFA" stroke="#AEAEAE" stroke-width="4" stroke-linecap="round" stroke-linejoin="round"/>
<circle cx="123" cy="78" r="3" fill="#AEAEAE"/>
<circle cx="137" cy="78" r="3" fill="#AEAEAE"/>
<ellipse cx="130" cy="89.5" rx="4" ry="2.5" fill="#AEAEAE"/>
<line x1="116.688" y1="75.6096" x2="121.688" y2="71.6096" stroke="#AEAEAE"/>
<line x1="137.312" y1="71.6096" x2="142.312" y2="75.6096" stroke="#AEAEAE"/>
</g>
<path d="M5.00391 146.345H2.48145L2.46777 145.285H4.75781C5.13607 145.285 5.46647 145.221 5.74902 145.094C6.03158 144.966 6.25033 144.784 6.40527 144.547C6.56478 144.305 6.64453 144.018 6.64453 143.686C6.64453 143.321 6.57389 143.025 6.43262 142.797C6.2959 142.564 6.08398 142.396 5.79688 142.291C5.51432 142.182 5.1543 142.127 4.7168 142.127H2.77539V151H1.45605V141.047H4.7168C5.22721 141.047 5.68294 141.099 6.08398 141.204C6.48503 141.304 6.82454 141.464 7.10254 141.683C7.38509 141.897 7.59928 142.17 7.74512 142.503C7.89095 142.836 7.96387 143.234 7.96387 143.699C7.96387 144.109 7.85905 144.481 7.64941 144.813C7.43978 145.142 7.14811 145.41 6.77441 145.62C6.40527 145.83 5.97233 145.964 5.47559 146.023L5.00391 146.345ZM4.94238 151H1.96191L2.70703 149.927H4.94238C5.36165 149.927 5.71712 149.854 6.00879 149.708C6.30501 149.562 6.5306 149.357 6.68555 149.093C6.84049 148.824 6.91797 148.507 6.91797 148.143C6.91797 147.773 6.85189 147.454 6.71973 147.186C6.58757 146.917 6.38021 146.709 6.09766 146.563C5.8151 146.418 5.45052 146.345 5.00391 146.345H3.12402L3.1377 145.285H5.70801L5.98828 145.668C6.4668 145.709 6.8724 145.846 7.20508 146.078C7.53776 146.306 7.79069 146.598 7.96387 146.953C8.1416 147.309 8.23047 147.701 8.23047 148.129C8.23047 148.749 8.09375 149.273 7.82031 149.701C7.55143 150.125 7.1709 150.449 6.67871 150.672C6.18652 150.891 5.60775 151 4.94238 151ZM13.3066 151.137C12.7917 151.137 12.3245 151.05 11.9053 150.877C11.4906 150.699 11.1328 150.451 10.832 150.132C10.5358 149.813 10.3079 149.435 10.1484 148.997C9.98893 148.56 9.90918 148.081 9.90918 147.562V147.274C9.90918 146.673 9.99805 146.137 10.1758 145.668C10.3535 145.194 10.5951 144.793 10.9004 144.465C11.2057 144.137 11.5521 143.888 11.9395 143.72C12.3268 143.551 12.7279 143.467 13.1426 143.467C13.6712 143.467 14.127 143.558 14.5098 143.74C14.8971 143.923 15.2139 144.178 15.46 144.506C15.7061 144.829 15.8883 145.212 16.0068 145.654C16.1253 146.092 16.1846 146.57 16.1846 147.09V147.657H10.6611V146.625H14.9199V146.529C14.9017 146.201 14.8333 145.882 14.7148 145.572C14.6009 145.262 14.4186 145.007 14.168 144.807C13.9173 144.606 13.5755 144.506 13.1426 144.506C12.8555 144.506 12.5911 144.567 12.3496 144.69C12.1081 144.809 11.9007 144.987 11.7275 145.224C11.5544 145.461 11.4199 145.75 11.3242 146.092C11.2285 146.434 11.1807 146.828 11.1807 147.274V147.562C11.1807 147.912 11.2285 148.243 11.3242 148.553C11.4245 148.858 11.568 149.127 11.7549 149.359C11.9463 149.592 12.1764 149.774 12.4453 149.906C12.7188 150.038 13.0286 150.104 13.375 150.104C13.8216 150.104 14.1999 150.013 14.5098 149.831C14.8197 149.649 15.0908 149.405 15.3232 149.1L16.0889 149.708C15.9294 149.95 15.7266 150.18 15.4805 150.398C15.2344 150.617 14.9313 150.795 14.5713 150.932C14.2158 151.068 13.7943 151.137 13.3066 151.137ZM19.2852 140.5V151H18.0137V140.5H19.2852ZM26.0908 149.291V143.604H27.3623V151H26.1523L26.0908 149.291ZM26.3301 147.732L26.8564 147.719C26.8564 148.211 26.804 148.667 26.6992 149.086C26.599 149.501 26.4349 149.861 26.207 150.166C25.9792 150.471 25.6807 150.711 25.3115 150.884C24.9424 151.052 24.4935 151.137 23.9648 151.137C23.6048 151.137 23.2744 151.084 22.9736 150.979C22.6774 150.875 22.4222 150.713 22.208 150.494C21.9938 150.275 21.8275 149.991 21.709 149.64C21.5951 149.289 21.5381 148.867 21.5381 148.375V143.604H22.8027V148.389C22.8027 148.721 22.8392 148.997 22.9121 149.216C22.9896 149.43 23.0921 149.601 23.2197 149.729C23.3519 149.852 23.4977 149.938 23.6572 149.988C23.8213 150.038 23.9899 150.063 24.1631 150.063C24.7008 150.063 25.127 149.961 25.4414 149.756C25.7559 149.546 25.9814 149.266 26.1182 148.915C26.2594 148.56 26.3301 148.165 26.3301 147.732ZM30.7979 145.073V151H29.5264V143.604H30.7295L30.7979 145.073ZM30.5381 147.021L29.9502 147.001C29.9548 146.495 30.0208 146.028 30.1484 145.6C30.276 145.167 30.4652 144.791 30.7158 144.472C30.9665 144.153 31.2786 143.907 31.6523 143.733C32.026 143.556 32.459 143.467 32.9512 143.467C33.2975 143.467 33.6165 143.517 33.9082 143.617C34.1999 143.713 34.4528 143.866 34.667 144.075C34.8812 144.285 35.0475 144.554 35.166 144.882C35.2845 145.21 35.3438 145.606 35.3438 146.071V151H34.0791V146.133C34.0791 145.745 34.013 145.436 33.8809 145.203C33.7533 144.971 33.571 144.802 33.334 144.697C33.097 144.588 32.819 144.533 32.5 144.533C32.1263 144.533 31.8141 144.599 31.5635 144.731C31.3128 144.864 31.1123 145.046 30.9619 145.278C30.8115 145.511 30.7021 145.777 30.6338 146.078C30.57 146.374 30.5381 146.689 30.5381 147.021ZM35.3301 146.324L34.4824 146.584C34.487 146.178 34.5531 145.789 34.6807 145.415C34.8128 145.041 35.002 144.709 35.248 144.417C35.4987 144.125 35.8063 143.895 36.1709 143.727C36.5355 143.553 36.9525 143.467 37.4219 143.467C37.8184 143.467 38.1693 143.519 38.4746 143.624C38.7845 143.729 39.0443 143.891 39.2539 144.109C39.4681 144.324 39.6299 144.599 39.7393 144.937C39.8486 145.274 39.9033 145.675 39.9033 146.14V151H38.6318V146.126C38.6318 145.711 38.5658 145.39 38.4336 145.162C38.306 144.93 38.1237 144.768 37.8867 144.677C37.6543 144.581 37.3763 144.533 37.0527 144.533C36.7747 144.533 36.5286 144.581 36.3145 144.677C36.1003 144.772 35.9202 144.905 35.7744 145.073C35.6286 145.237 35.5169 145.426 35.4395 145.641C35.3665 145.855 35.3301 146.083 35.3301 146.324ZM50.1514 149.735V145.928C50.1514 145.636 50.0921 145.383 49.9736 145.169C49.8597 144.95 49.6865 144.782 49.4541 144.663C49.2217 144.545 48.9346 144.485 48.5928 144.485C48.2738 144.485 47.9935 144.54 47.752 144.649C47.515 144.759 47.3281 144.902 47.1914 145.08C47.0592 145.258 46.9932 145.449 46.9932 145.654H45.7285C45.7285 145.39 45.7969 145.128 45.9336 144.868C46.0703 144.608 46.2663 144.374 46.5215 144.164C46.7812 143.95 47.0911 143.781 47.4512 143.658C47.8158 143.531 48.2214 143.467 48.668 143.467C49.2057 143.467 49.6797 143.558 50.0898 143.74C50.5046 143.923 50.8281 144.198 51.0605 144.567C51.2975 144.932 51.416 145.39 51.416 145.941V149.387C51.416 149.633 51.4365 149.895 51.4775 150.173C51.5231 150.451 51.5892 150.69 51.6758 150.891V151H50.3564C50.2926 150.854 50.2425 150.66 50.2061 150.419C50.1696 150.173 50.1514 149.945 50.1514 149.735ZM50.3701 146.516L50.3838 147.404H49.1055C48.7454 147.404 48.4242 147.434 48.1416 147.493C47.859 147.548 47.6221 147.632 47.4307 147.746C47.2393 147.86 47.0934 148.004 46.9932 148.177C46.8929 148.345 46.8428 148.544 46.8428 148.771C46.8428 149.004 46.8952 149.216 47 149.407C47.1048 149.599 47.262 149.751 47.4717 149.865C47.6859 149.975 47.9479 150.029 48.2578 150.029C48.6452 150.029 48.987 149.947 49.2832 149.783C49.5794 149.619 49.8141 149.419 49.9873 149.182C50.165 148.945 50.2607 148.715 50.2744 148.491L50.8145 149.1C50.7826 149.291 50.696 149.503 50.5547 149.735C50.4134 149.968 50.2243 150.191 49.9873 150.405C49.7549 150.615 49.4769 150.79 49.1533 150.932C48.8343 151.068 48.4743 151.137 48.0732 151.137C47.5719 151.137 47.1322 151.039 46.7539 150.843C46.3802 150.647 46.0885 150.385 45.8789 150.057C45.6738 149.724 45.5713 149.353 45.5713 148.942C45.5713 148.546 45.6488 148.197 45.8037 147.896C45.9587 147.591 46.182 147.338 46.4736 147.138C46.7653 146.933 47.1162 146.778 47.5264 146.673C47.9365 146.568 48.3945 146.516 48.9004 146.516H50.3701ZM58.3174 149.564V140.5H59.5889V151H58.4268L58.3174 149.564ZM53.3408 147.384V147.24C53.3408 146.675 53.4092 146.162 53.5459 145.702C53.6872 145.237 53.8854 144.839 54.1406 144.506C54.4004 144.173 54.708 143.918 55.0635 143.74C55.4235 143.558 55.8245 143.467 56.2666 143.467C56.7314 143.467 57.137 143.549 57.4834 143.713C57.8343 143.872 58.1305 144.107 58.3721 144.417C58.6182 144.722 58.8118 145.091 58.9531 145.524C59.0944 145.957 59.1924 146.447 59.2471 146.994V147.623C59.1969 148.165 59.099 148.653 58.9531 149.086C58.8118 149.519 58.6182 149.888 58.3721 150.193C58.1305 150.499 57.8343 150.733 57.4834 150.897C57.1325 151.057 56.7223 151.137 56.2529 151.137C55.82 151.137 55.4235 151.043 55.0635 150.856C54.708 150.67 54.4004 150.408 54.1406 150.07C53.8854 149.733 53.6872 149.337 53.5459 148.881C53.4092 148.421 53.3408 147.922 53.3408 147.384ZM54.6123 147.24V147.384C54.6123 147.753 54.6488 148.099 54.7217 148.423C54.7992 148.746 54.9176 149.031 55.0771 149.277C55.2367 149.523 55.4395 149.717 55.6855 149.858C55.9316 149.995 56.2256 150.063 56.5674 150.063C56.9867 150.063 57.3307 149.975 57.5996 149.797C57.873 149.619 58.0918 149.384 58.2559 149.093C58.4199 148.801 58.5475 148.484 58.6387 148.143V146.495C58.584 146.244 58.5042 146.003 58.3994 145.771C58.2992 145.534 58.167 145.324 58.0029 145.142C57.8434 144.955 57.6452 144.807 57.4082 144.697C57.1758 144.588 56.9001 144.533 56.5811 144.533C56.2347 144.533 55.9362 144.606 55.6855 144.752C55.4395 144.893 55.2367 145.089 55.0771 145.34C54.9176 145.586 54.7992 145.873 54.7217 146.201C54.6488 146.525 54.6123 146.871 54.6123 147.24ZM66.1689 149.735V145.928C66.1689 145.636 66.1097 145.383 65.9912 145.169C65.8773 144.95 65.7041 144.782 65.4717 144.663C65.2393 144.545 64.9521 144.485 64.6104 144.485C64.2913 144.485 64.0111 144.54 63.7695 144.649C63.5326 144.759 63.3457 144.902 63.209 145.08C63.0768 145.258 63.0107 145.449 63.0107 145.654H61.7461C61.7461 145.39 61.8145 145.128 61.9512 144.868C62.0879 144.608 62.2839 144.374 62.5391 144.164C62.7988 143.95 63.1087 143.781 63.4688 143.658C63.8333 143.531 64.2389 143.467 64.6855 143.467C65.2233 143.467 65.6973 143.558 66.1074 143.74C66.5221 143.923 66.8457 144.198 67.0781 144.567C67.3151 144.932 67.4336 145.39 67.4336 145.941V149.387C67.4336 149.633 67.4541 149.895 67.4951 150.173C67.5407 150.451 67.6068 150.69 67.6934 150.891V151H66.374C66.3102 150.854 66.2601 150.66 66.2236 150.419C66.1872 150.173 66.1689 149.945 66.1689 149.735ZM66.3877 146.516L66.4014 147.404H65.123C64.763 147.404 64.4417 147.434 64.1592 147.493C63.8766 147.548 63.6396 147.632 63.4482 147.746C63.2568 147.86 63.111 148.004 63.0107 148.177C62.9105 148.345 62.8604 148.544 62.8604 148.771C62.8604 149.004 62.9128 149.216 63.0176 149.407C63.1224 149.599 63.2796 149.751 63.4893 149.865C63.7035 149.975 63.9655 150.029 64.2754 150.029C64.6628 150.029 65.0046 149.947 65.3008 149.783C65.597 149.619 65.8317 149.419 66.0049 149.182C66.1826 148.945 66.2783 148.715 66.292 148.491L66.832 149.1C66.8001 149.291 66.7135 149.503 66.5723 149.735C66.431 149.968 66.2419 150.191 66.0049 150.405C65.7725 150.615 65.4945 150.79 65.1709 150.932C64.8519 151.068 64.4919 151.137 64.0908 151.137C63.5895 151.137 63.1497 151.039 62.7715 150.843C62.3978 150.647 62.1061 150.385 61.8965 150.057C61.6914 149.724 61.5889 149.353 61.5889 148.942C61.5889 148.546 61.6663 148.197 61.8213 147.896C61.9762 147.591 62.1995 147.338 62.4912 147.138C62.7829 146.933 63.1338 146.778 63.5439 146.673C63.9541 146.568 64.4121 146.516 64.918 146.516H66.3877ZM76.2051 147.992L78.1807 141.047H79.1377L78.584 143.747L76.458 151H75.5078L76.2051 147.992ZM74.1611 141.047L75.7334 147.855L76.2051 151H75.2617L72.8486 141.047H74.1611ZM81.6943 147.849L83.2324 141.047H84.5518L82.1455 151H81.2021L81.6943 147.849ZM79.2812 141.047L81.2021 147.992L81.8994 151H80.9492L78.8984 143.747L78.3379 141.047H79.2812ZM88.9238 151.137C88.4089 151.137 87.9417 151.05 87.5225 150.877C87.1077 150.699 86.75 150.451 86.4492 150.132C86.153 149.813 85.9251 149.435 85.7656 148.997C85.6061 148.56 85.5264 148.081 85.5264 147.562V147.274C85.5264 146.673 85.6152 146.137 85.793 145.668C85.9707 145.194 86.2122 144.793 86.5176 144.465C86.8229 144.137 87.1693 143.888 87.5566 143.72C87.944 143.551 88.3451 143.467 88.7598 143.467C89.2884 143.467 89.7441 143.558 90.127 143.74C90.5143 143.923 90.8311 144.178 91.0771 144.506C91.3232 144.829 91.5055 145.212 91.624 145.654C91.7425 146.092 91.8018 146.57 91.8018 147.09V147.657H86.2783V146.625H90.5371V146.529C90.5189 146.201 90.4505 145.882 90.332 145.572C90.2181 145.262 90.0358 145.007 89.7852 144.807C89.5345 144.606 89.1927 144.506 88.7598 144.506C88.4727 144.506 88.2083 144.567 87.9668 144.69C87.7253 144.809 87.5179 144.987 87.3447 145.224C87.1715 145.461 87.0371 145.75 86.9414 146.092C86.8457 146.434 86.7979 146.828 86.7979 147.274V147.562C86.7979 147.912 86.8457 148.243 86.9414 148.553C87.0417 148.858 87.1852 149.127 87.3721 149.359C87.5635 149.592 87.7936 149.774 88.0625 149.906C88.3359 150.038 88.6458 150.104 88.9922 150.104C89.4388 150.104 89.8171 150.013 90.127 149.831C90.4368 149.649 90.708 149.405 90.9404 149.1L91.7061 149.708C91.5465 149.95 91.3438 150.18 91.0977 150.398C90.8516 150.617 90.5485 150.795 90.1885 150.932C89.833 151.068 89.4115 151.137 88.9238 151.137ZM93.5215 140.5H94.793V149.564L94.6836 151H93.5215V140.5ZM99.79 147.24V147.384C99.79 147.922 99.7262 148.421 99.5986 148.881C99.471 149.337 99.2842 149.733 99.0381 150.07C98.792 150.408 98.4912 150.67 98.1357 150.856C97.7803 151.043 97.3724 151.137 96.9121 151.137C96.4427 151.137 96.0303 151.057 95.6748 150.897C95.3239 150.733 95.0277 150.499 94.7861 150.193C94.5446 149.888 94.3509 149.519 94.2051 149.086C94.0638 148.653 93.9658 148.165 93.9111 147.623V146.994C93.9658 146.447 94.0638 145.957 94.2051 145.524C94.3509 145.091 94.5446 144.722 94.7861 144.417C95.0277 144.107 95.3239 143.872 95.6748 143.713C96.0257 143.549 96.4336 143.467 96.8984 143.467C97.3633 143.467 97.7757 143.558 98.1357 143.74C98.4958 143.918 98.7965 144.173 99.0381 144.506C99.2842 144.839 99.471 145.237 99.5986 145.702C99.7262 146.162 99.79 146.675 99.79 147.24ZM98.5186 147.384V147.24C98.5186 146.871 98.4844 146.525 98.416 146.201C98.3477 145.873 98.2383 145.586 98.0879 145.34C97.9375 145.089 97.7393 144.893 97.4932 144.752C97.2471 144.606 96.944 144.533 96.584 144.533C96.265 144.533 95.987 144.588 95.75 144.697C95.5176 144.807 95.3193 144.955 95.1553 145.142C94.9912 145.324 94.8568 145.534 94.752 145.771C94.6517 146.003 94.5765 146.244 94.5264 146.495V148.143C94.5993 148.462 94.7178 148.769 94.8818 149.065C95.0505 149.357 95.2738 149.596 95.5518 149.783C95.8343 149.97 96.1829 150.063 96.5977 150.063C96.9395 150.063 97.2311 149.995 97.4727 149.858C97.7188 149.717 97.917 149.523 98.0674 149.277C98.2223 149.031 98.3363 148.746 98.4092 148.423C98.4821 148.099 98.5186 147.753 98.5186 147.384ZM103.014 143.604V151H101.742V143.604H103.014ZM101.646 141.642C101.646 141.437 101.708 141.263 101.831 141.122C101.959 140.981 102.146 140.91 102.392 140.91C102.633 140.91 102.818 140.981 102.945 141.122C103.077 141.263 103.144 141.437 103.144 141.642C103.144 141.838 103.077 142.006 102.945 142.147C102.818 142.284 102.633 142.353 102.392 142.353C102.146 142.353 101.959 142.284 101.831 142.147C101.708 142.006 101.646 141.838 101.646 141.642ZM106.559 145.183V151H105.294V143.604H106.49L106.559 145.183ZM106.258 147.021L105.731 147.001C105.736 146.495 105.811 146.028 105.957 145.6C106.103 145.167 106.308 144.791 106.572 144.472C106.837 144.153 107.151 143.907 107.516 143.733C107.885 143.556 108.293 143.467 108.739 143.467C109.104 143.467 109.432 143.517 109.724 143.617C110.015 143.713 110.264 143.868 110.469 144.082C110.678 144.296 110.838 144.574 110.947 144.916C111.057 145.253 111.111 145.666 111.111 146.153V151H109.84V146.14C109.84 145.752 109.783 145.442 109.669 145.21C109.555 144.973 109.389 144.802 109.17 144.697C108.951 144.588 108.682 144.533 108.363 144.533C108.049 144.533 107.762 144.599 107.502 144.731C107.247 144.864 107.026 145.046 106.839 145.278C106.657 145.511 106.513 145.777 106.408 146.078C106.308 146.374 106.258 146.689 106.258 147.021ZM117.644 149.735V145.928C117.644 145.636 117.584 145.383 117.466 145.169C117.352 144.95 117.179 144.782 116.946 144.663C116.714 144.545 116.427 144.485 116.085 144.485C115.766 144.485 115.486 144.54 115.244 144.649C115.007 144.759 114.82 144.902 114.684 145.08C114.551 145.258 114.485 145.449 114.485 145.654H113.221C113.221 145.39 113.289 145.128 113.426 144.868C113.562 144.608 113.758 144.374 114.014 144.164C114.273 143.95 114.583 143.781 114.943 143.658C115.308 143.531 115.714 143.467 116.16 143.467C116.698 143.467 117.172 143.558 117.582 143.74C117.997 143.923 118.32 144.198 118.553 144.567C118.79 144.932 118.908 145.39 118.908 145.941V149.387C118.908 149.633 118.929 149.895 118.97 150.173C119.015 150.451 119.081 150.69 119.168 150.891V151H117.849C117.785 150.854 117.735 150.66 117.698 150.419C117.662 150.173 117.644 149.945 117.644 149.735ZM117.862 146.516L117.876 147.404H116.598C116.238 147.404 115.916 147.434 115.634 147.493C115.351 147.548 115.114 147.632 114.923 147.746C114.731 147.86 114.586 148.004 114.485 148.177C114.385 148.345 114.335 148.544 114.335 148.771C114.335 149.004 114.387 149.216 114.492 149.407C114.597 149.599 114.754 149.751 114.964 149.865C115.178 149.975 115.44 150.029 115.75 150.029C116.137 150.029 116.479 149.947 116.775 149.783C117.072 149.619 117.306 149.419 117.479 149.182C117.657 148.945 117.753 148.715 117.767 148.491L118.307 149.1C118.275 149.291 118.188 149.503 118.047 149.735C117.906 149.968 117.716 150.191 117.479 150.405C117.247 150.615 116.969 150.79 116.646 150.932C116.326 151.068 115.966 151.137 115.565 151.137C115.064 151.137 114.624 151.039 114.246 150.843C113.872 150.647 113.581 150.385 113.371 150.057C113.166 149.724 113.063 149.353 113.063 148.942C113.063 148.546 113.141 148.197 113.296 147.896C113.451 147.591 113.674 147.338 113.966 147.138C114.257 146.933 114.608 146.778 115.019 146.673C115.429 146.568 115.887 146.516 116.393 146.516H117.862ZM122.412 144.766V151H121.147V143.604H122.378L122.412 144.766ZM124.723 143.562L124.716 144.738C124.611 144.715 124.511 144.702 124.415 144.697C124.324 144.688 124.219 144.684 124.101 144.684C123.809 144.684 123.551 144.729 123.328 144.82C123.105 144.911 122.916 145.039 122.761 145.203C122.606 145.367 122.483 145.563 122.392 145.791C122.305 146.014 122.248 146.26 122.221 146.529L121.865 146.734C121.865 146.288 121.909 145.868 121.995 145.477C122.086 145.085 122.225 144.738 122.412 144.438C122.599 144.132 122.836 143.895 123.123 143.727C123.415 143.553 123.761 143.467 124.162 143.467C124.253 143.467 124.358 143.478 124.477 143.501C124.595 143.519 124.677 143.54 124.723 143.562ZM134.526 149.564V140.5H135.798V151H134.636L134.526 149.564ZM129.55 147.384V147.24C129.55 146.675 129.618 146.162 129.755 145.702C129.896 145.237 130.094 144.839 130.35 144.506C130.609 144.173 130.917 143.918 131.272 143.74C131.632 143.558 132.034 143.467 132.476 143.467C132.94 143.467 133.346 143.549 133.692 143.713C134.043 143.872 134.34 144.107 134.581 144.417C134.827 144.722 135.021 145.091 135.162 145.524C135.303 145.957 135.401 146.447 135.456 146.994V147.623C135.406 148.165 135.308 148.653 135.162 149.086C135.021 149.519 134.827 149.888 134.581 150.193C134.34 150.499 134.043 150.733 133.692 150.897C133.341 151.057 132.931 151.137 132.462 151.137C132.029 151.137 131.632 151.043 131.272 150.856C130.917 150.67 130.609 150.408 130.35 150.07C130.094 149.733 129.896 149.337 129.755 148.881C129.618 148.421 129.55 147.922 129.55 147.384ZM130.821 147.24V147.384C130.821 147.753 130.858 148.099 130.931 148.423C131.008 148.746 131.127 149.031 131.286 149.277C131.446 149.523 131.648 149.717 131.895 149.858C132.141 149.995 132.435 150.063 132.776 150.063C133.196 150.063 133.54 149.975 133.809 149.797C134.082 149.619 134.301 149.384 134.465 149.093C134.629 148.801 134.757 148.484 134.848 148.143V146.495C134.793 146.244 134.713 146.003 134.608 145.771C134.508 145.534 134.376 145.324 134.212 145.142C134.052 144.955 133.854 144.807 133.617 144.697C133.385 144.588 133.109 144.533 132.79 144.533C132.444 144.533 132.145 144.606 131.895 144.752C131.648 144.893 131.446 145.089 131.286 145.34C131.127 145.586 131.008 145.873 130.931 146.201C130.858 146.525 130.821 146.871 130.821 147.24ZM139.391 143.604V151H138.119V143.604H139.391ZM138.023 141.642C138.023 141.437 138.085 141.263 138.208 141.122C138.336 140.981 138.522 140.91 138.769 140.91C139.01 140.91 139.195 140.981 139.322 141.122C139.454 141.263 139.521 141.437 139.521 141.642C139.521 141.838 139.454 142.006 139.322 142.147C139.195 142.284 139.01 142.353 138.769 142.353C138.522 142.353 138.336 142.284 138.208 142.147C138.085 142.006 138.023 141.838 138.023 141.642ZM149.133 146.345H146.61L146.597 145.285H148.887C149.265 145.285 149.595 145.221 149.878 145.094C150.16 144.966 150.379 144.784 150.534 144.547C150.694 144.305 150.773 144.018 150.773 143.686C150.773 143.321 150.703 143.025 150.562 142.797C150.425 142.564 150.213 142.396 149.926 142.291C149.643 142.182 149.283 142.127 148.846 142.127H146.904V151H145.585V141.047H148.846C149.356 141.047 149.812 141.099 150.213 141.204C150.614 141.304 150.953 141.464 151.231 141.683C151.514 141.897 151.728 142.17 151.874 142.503C152.02 142.836 152.093 143.234 152.093 143.699C152.093 144.109 151.988 144.481 151.778 144.813C151.569 145.142 151.277 145.41 150.903 145.62C150.534 145.83 150.101 145.964 149.604 146.023L149.133 146.345ZM149.071 151H146.091L146.836 149.927H149.071C149.491 149.927 149.846 149.854 150.138 149.708C150.434 149.562 150.66 149.357 150.814 149.093C150.969 148.824 151.047 148.507 151.047 148.143C151.047 147.773 150.981 147.454 150.849 147.186C150.716 146.917 150.509 146.709 150.227 146.563C149.944 146.418 149.579 146.345 149.133 146.345H147.253L147.267 145.285H149.837L150.117 145.668C150.596 145.709 151.001 145.846 151.334 146.078C151.667 146.306 151.92 146.598 152.093 146.953C152.271 147.309 152.359 147.701 152.359 148.129C152.359 148.749 152.223 149.273 151.949 149.701C151.68 150.125 151.3 150.449 150.808 150.672C150.315 150.891 149.737 151 149.071 151ZM154.031 147.384V147.227C154.031 146.693 154.109 146.199 154.264 145.743C154.419 145.283 154.642 144.884 154.934 144.547C155.225 144.205 155.578 143.941 155.993 143.754C156.408 143.562 156.873 143.467 157.388 143.467C157.907 143.467 158.374 143.562 158.789 143.754C159.208 143.941 159.564 144.205 159.855 144.547C160.152 144.884 160.377 145.283 160.532 145.743C160.687 146.199 160.765 146.693 160.765 147.227V147.384C160.765 147.917 160.687 148.411 160.532 148.867C160.377 149.323 160.152 149.722 159.855 150.063C159.564 150.401 159.211 150.665 158.796 150.856C158.386 151.043 157.921 151.137 157.401 151.137C156.882 151.137 156.415 151.043 156 150.856C155.585 150.665 155.23 150.401 154.934 150.063C154.642 149.722 154.419 149.323 154.264 148.867C154.109 148.411 154.031 147.917 154.031 147.384ZM155.296 147.227V147.384C155.296 147.753 155.339 148.102 155.426 148.43C155.512 148.753 155.642 149.04 155.815 149.291C155.993 149.542 156.214 149.74 156.479 149.886C156.743 150.027 157.05 150.098 157.401 150.098C157.748 150.098 158.051 150.027 158.311 149.886C158.575 149.74 158.794 149.542 158.967 149.291C159.14 149.04 159.27 148.753 159.356 148.43C159.448 148.102 159.493 147.753 159.493 147.384V147.227C159.493 146.862 159.448 146.518 159.356 146.194C159.27 145.866 159.138 145.577 158.96 145.326C158.787 145.071 158.568 144.87 158.304 144.725C158.044 144.579 157.739 144.506 157.388 144.506C157.041 144.506 156.736 144.579 156.472 144.725C156.212 144.87 155.993 145.071 155.815 145.326C155.642 145.577 155.512 145.866 155.426 146.194C155.339 146.518 155.296 146.862 155.296 147.227ZM162.266 147.384V147.227C162.266 146.693 162.343 146.199 162.498 145.743C162.653 145.283 162.876 144.884 163.168 144.547C163.46 144.205 163.813 143.941 164.228 143.754C164.642 143.562 165.107 143.467 165.622 143.467C166.142 143.467 166.609 143.562 167.023 143.754C167.443 143.941 167.798 144.205 168.09 144.547C168.386 144.884 168.612 145.283 168.767 145.743C168.922 146.199 168.999 146.693 168.999 147.227V147.384C168.999 147.917 168.922 148.411 168.767 148.867C168.612 149.323 168.386 149.722 168.09 150.063C167.798 150.401 167.445 150.665 167.03 150.856C166.62 151.043 166.155 151.137 165.636 151.137C165.116 151.137 164.649 151.043 164.234 150.856C163.82 150.665 163.464 150.401 163.168 150.063C162.876 149.722 162.653 149.323 162.498 148.867C162.343 148.411 162.266 147.917 162.266 147.384ZM163.53 147.227V147.384C163.53 147.753 163.574 148.102 163.66 148.43C163.747 148.753 163.877 149.04 164.05 149.291C164.228 149.542 164.449 149.74 164.713 149.886C164.977 150.027 165.285 150.098 165.636 150.098C165.982 150.098 166.285 150.027 166.545 149.886C166.809 149.74 167.028 149.542 167.201 149.291C167.374 149.04 167.504 148.753 167.591 148.43C167.682 148.102 167.728 147.753 167.728 147.384V147.227C167.728 146.862 167.682 146.518 167.591 146.194C167.504 145.866 167.372 145.577 167.194 145.326C167.021 145.071 166.802 144.87 166.538 144.725C166.278 144.579 165.973 144.506 165.622 144.506C165.276 144.506 164.97 144.579 164.706 144.725C164.446 144.87 164.228 145.071 164.05 145.326C163.877 145.577 163.747 145.866 163.66 146.194C163.574 146.518 163.53 146.862 163.53 147.227ZM172.106 140.5V151H170.835V140.5H172.106ZM176.625 143.604L173.398 147.056L171.594 148.929L171.491 147.582L172.783 146.037L175.08 143.604H176.625ZM175.47 151L172.831 147.473L173.487 146.345L176.96 151H175.47ZM179.438 145.073V151H178.167V143.604H179.37L179.438 145.073ZM179.179 147.021L178.591 147.001C178.595 146.495 178.661 146.028 178.789 145.6C178.917 145.167 179.106 144.791 179.356 144.472C179.607 144.153 179.919 143.907 180.293 143.733C180.667 143.556 181.1 143.467 181.592 143.467C181.938 143.467 182.257 143.517 182.549 143.617C182.84 143.713 183.093 143.866 183.308 144.075C183.522 144.285 183.688 144.554 183.807 144.882C183.925 145.21 183.984 145.606 183.984 146.071V151H182.72V146.133C182.72 145.745 182.654 145.436 182.521 145.203C182.394 144.971 182.212 144.802 181.975 144.697C181.738 144.588 181.46 144.533 181.141 144.533C180.767 144.533 180.455 144.599 180.204 144.731C179.953 144.864 179.753 145.046 179.603 145.278C179.452 145.511 179.343 145.777 179.274 146.078C179.211 146.374 179.179 146.689 179.179 147.021ZM183.971 146.324L183.123 146.584C183.128 146.178 183.194 145.789 183.321 145.415C183.453 145.041 183.643 144.709 183.889 144.417C184.139 144.125 184.447 143.895 184.812 143.727C185.176 143.553 185.593 143.467 186.062 143.467C186.459 143.467 186.81 143.519 187.115 143.624C187.425 143.729 187.685 143.891 187.895 144.109C188.109 144.324 188.271 144.599 188.38 144.937C188.489 145.274 188.544 145.675 188.544 146.14V151H187.272V146.126C187.272 145.711 187.206 145.39 187.074 145.162C186.947 144.93 186.764 144.768 186.527 144.677C186.295 144.581 186.017 144.533 185.693 144.533C185.415 144.533 185.169 144.581 184.955 144.677C184.741 144.772 184.561 144.905 184.415 145.073C184.269 145.237 184.158 145.426 184.08 145.641C184.007 145.855 183.971 146.083 183.971 146.324ZM195.069 149.735V145.928C195.069 145.636 195.01 145.383 194.892 145.169C194.778 144.95 194.604 144.782 194.372 144.663C194.14 144.545 193.853 144.485 193.511 144.485C193.192 144.485 192.911 144.54 192.67 144.649C192.433 144.759 192.246 144.902 192.109 145.08C191.977 145.258 191.911 145.449 191.911 145.654H190.646C190.646 145.39 190.715 145.128 190.852 144.868C190.988 144.608 191.184 144.374 191.439 144.164C191.699 143.95 192.009 143.781 192.369 143.658C192.734 143.531 193.139 143.467 193.586 143.467C194.124 143.467 194.598 143.558 195.008 143.74C195.423 143.923 195.746 144.198 195.979 144.567C196.215 144.932 196.334 145.39 196.334 145.941V149.387C196.334 149.633 196.354 149.895 196.396 150.173C196.441 150.451 196.507 150.69 196.594 150.891V151H195.274C195.211 150.854 195.16 150.66 195.124 150.419C195.088 150.173 195.069 149.945 195.069 149.735ZM195.288 146.516L195.302 147.404H194.023C193.663 147.404 193.342 147.434 193.06 147.493C192.777 147.548 192.54 147.632 192.349 147.746C192.157 147.86 192.011 148.004 191.911 148.177C191.811 148.345 191.761 148.544 191.761 148.771C191.761 149.004 191.813 149.216 191.918 149.407C192.023 149.599 192.18 149.751 192.39 149.865C192.604 149.975 192.866 150.029 193.176 150.029C193.563 150.029 193.905 149.947 194.201 149.783C194.497 149.619 194.732 149.419 194.905 149.182C195.083 148.945 195.179 148.715 195.192 148.491L195.732 149.1C195.701 149.291 195.614 149.503 195.473 149.735C195.331 149.968 195.142 150.191 194.905 150.405C194.673 150.615 194.395 150.79 194.071 150.932C193.752 151.068 193.392 151.137 192.991 151.137C192.49 151.137 192.05 151.039 191.672 150.843C191.298 150.647 191.007 150.385 190.797 150.057C190.592 149.724 190.489 149.353 190.489 148.942C190.489 148.546 190.567 148.197 190.722 147.896C190.877 147.591 191.1 147.338 191.392 147.138C191.683 146.933 192.034 146.778 192.444 146.673C192.854 146.568 193.312 146.516 193.818 146.516H195.288ZM199.838 144.766V151H198.573V143.604H199.804L199.838 144.766ZM202.148 143.562L202.142 144.738C202.037 144.715 201.937 144.702 201.841 144.697C201.75 144.688 201.645 144.684 201.526 144.684C201.235 144.684 200.977 144.729 200.754 144.82C200.531 144.911 200.341 145.039 200.187 145.203C200.032 145.367 199.909 145.563 199.817 145.791C199.731 146.014 199.674 146.26 199.646 146.529L199.291 146.734C199.291 146.288 199.334 145.868 199.421 145.477C199.512 145.085 199.651 144.738 199.838 144.438C200.025 144.132 200.262 143.895 200.549 143.727C200.84 143.553 201.187 143.467 201.588 143.467C201.679 143.467 201.784 143.478 201.902 143.501C202.021 143.519 202.103 143.54 202.148 143.562ZM204.839 140.5V151H203.567V140.5H204.839ZM209.357 143.604L206.131 147.056L204.326 148.929L204.224 147.582L205.516 146.037L207.812 143.604H209.357ZM208.202 151L205.563 147.473L206.22 146.345L209.692 151H208.202Z" fill="#8E8E8E"/>
<defs>
<clipPath id="clip0_758_11821">
<rect width="120" height="120" fill="white" transform="translate(45)"/>
</clipPath>
</defs>
</svg>
