<svg width="18" height="18" viewBox="0 0 18 18" fill="none" xmlns="http://www.w3.org/2000/svg">
<path d="M11.3024 1.50012C13.3349 1.50012 14.9774 2.30262 14.9999 4.34262V15.7276C14.9999 15.8551 14.9699 15.9826 14.9099 16.0951C14.8124 16.2751 14.6474 16.4101 14.4449 16.4701C14.2499 16.5301 14.0324 16.5001 13.8524 16.3951L8.99238 13.9651L4.12488 16.3951C4.01313 16.4544 3.88488 16.4926 3.75738 16.4926C3.33738 16.4926 2.99988 16.1476 2.99988 15.7276V4.34262C2.99988 2.30262 4.64988 1.50012 6.67488 1.50012H11.3024ZM11.8124 6.03012H6.16488C5.84238 6.03012 5.57988 6.29262 5.57988 6.62262C5.57988 6.95187 5.84238 7.21512 6.16488 7.21512H11.8124C12.1349 7.21512 12.3974 6.95187 12.3974 6.62262C12.3974 6.29262 12.1349 6.03012 11.8124 6.03012Z" fill="#FAFAFA"/>
</svg>
