<svg width="32" height="32" viewBox="0 0 32 32" fill="none" xmlns="http://www.w3.org/2000/svg">
<path d="M20.0932 2.66678C23.7065 2.66678 26.6265 4.09345 26.6665 7.72011V27.9601C26.6665 28.1868 26.6132 28.4134 26.5065 28.6134C26.3332 28.9334 26.0399 29.1734 25.6799 29.2801C25.3332 29.3868 24.9465 29.3334 24.6265 29.1468L15.9865 24.8268L7.33319 29.1468C7.13452 29.2521 6.90652 29.3201 6.67986 29.3201C5.93319 29.3201 5.33319 28.7068 5.33319 27.9601V7.72011C5.33319 4.09345 8.26652 2.66678 11.8665 2.66678H20.0932ZM20.9999 10.7201H10.9599C10.3865 10.7201 9.91986 11.1868 9.91986 11.7734C9.91986 12.3588 10.3865 12.8268 10.9599 12.8268H20.9999C21.5732 12.8268 22.0399 12.3588 22.0399 11.7734C22.0399 11.1868 21.5732 10.7201 20.9999 10.7201Z" fill="black"/>
</svg>
