<svg width="32" height="32" viewBox="0 0 32 32" fill="none" xmlns="http://www.w3.org/2000/svg">
<path d="M6.66663 10.4C6.66663 8.15979 6.66663 7.03969 7.1026 6.18404C7.48609 5.43139 8.09802 4.81947 8.85066 4.43597C9.70631 4 10.8264 4 13.0666 4H18.9333C21.1735 4 22.2936 4 23.1493 4.43597C23.9019 4.81947 24.5138 5.43139 24.8973 6.18404C25.3333 7.03969 25.3333 8.15979 25.3333 10.4V28L16 22.6667L6.66663 28V10.4Z" fill="#018893"/>
<path d="M12 14L14.6666 16.6667L20.6666 10.6667M25.3333 28V10.4C25.3333 8.15979 25.3333 7.03969 24.8973 6.18404C24.5138 5.43139 23.9019 4.81947 23.1493 4.43597C22.2936 4 21.1735 4 18.9333 4H13.0666C10.8264 4 9.70631 4 8.85066 4.43597C8.09802 4.81947 7.48609 5.43139 7.1026 6.18404C6.66663 7.03969 6.66663 8.15979 6.66663 10.4V28L16 22.6667L25.3333 28Z" stroke="#018893" stroke-width="2" stroke-linecap="round" stroke-linejoin="round"/>
<path d="M12 14L14.6667 16.6666L20.6667 10.6666" stroke="#FAFAFA" stroke-width="2" stroke-linecap="round" stroke-linejoin="round"/>
</svg>
