<svg width="32" height="32" viewBox="0 0 32 32" fill="none" xmlns="http://www.w3.org/2000/svg">
<path fill-rule="evenodd" clip-rule="evenodd" d="M19.6012 2.66667C24.1238 2.66667 26.7185 4.90534 26.7185 8.80534V28.1867C26.7185 29 26.2998 29.732 25.5958 30.1413C24.8945 30.552 24.0492 30.56 23.3398 30.16L15.3932 25.6707L7.37315 30.1693C7.02648 30.364 6.64648 30.4627 6.26515 30.4627C5.87182 30.4627 5.47848 30.3573 5.12115 30.1467C4.41848 29.7373 3.99982 29.0053 3.99982 28.1933V8.56134C3.99982 4.81467 6.59582 2.66667 11.1225 2.66667H19.6012ZM19.6012 4.66667H11.1225C7.72382 4.66667 5.99982 5.976 5.99982 8.56134V28.1933C5.99982 28.3187 6.07182 28.3867 6.13182 28.4213C6.19182 28.4587 6.28648 28.4853 6.39582 28.424L14.9052 23.6507C15.2092 23.4813 15.5812 23.48 15.8865 23.652L24.3225 28.4173C24.4332 28.4813 24.5278 28.452 24.5878 28.416C24.6478 28.38 24.7185 28.312 24.7185 28.1867L24.718 8.6534C24.7079 7.50584 24.4859 4.66667 19.6012 4.66667ZM20.1862 11.638C20.7382 11.638 21.1862 12.086 21.1862 12.638C21.1862 13.19 20.7382 13.638 20.1862 13.638H10.4289C9.87688 13.638 9.42888 13.19 9.42888 12.638C9.42888 12.086 9.87688 11.638 10.4289 11.638H20.1862Z" fill="#1B1B1B"/>
</svg>
