<svg width="32" height="32" viewBox="0 0 32 32" fill="none" xmlns="http://www.w3.org/2000/svg">
<path d="M20.8662 2.66667C21.4323 2.66535 21.8799 3.10512 21.8812 3.6915L21.8825 4.691C25.5554 4.97885 27.9816 7.4816 27.9855 11.3197L28 22.5541C28.0053 26.7386 25.3763 29.3133 21.1624 29.32L10.8692 29.3333C6.6816 29.3387 4.01976 26.7026 4.0145 22.5061L4.00001 11.4036C3.99475 7.54024 6.33538 5.04415 10.0082 4.70699L10.0069 3.70749C10.0056 3.12112 10.44 2.68 11.0193 2.68C11.5985 2.67867 12.0329 3.11845 12.0342 3.70482L12.0356 4.63769L19.8552 4.62703L19.8539 3.69416C19.8526 3.10779 20.287 2.66801 20.8662 2.66667ZM21.4033 21.5892H21.3902C20.7846 21.6039 20.2988 22.1116 20.312 22.7246C20.3133 23.3377 20.8017 23.8427 21.4073 23.8561C22.0247 23.8547 22.5249 23.347 22.5236 22.7206C22.5236 22.0943 22.022 21.5892 21.4033 21.5892ZM10.5559 21.5905C9.95031 21.6172 9.4764 22.1249 9.47771 22.738C9.50536 23.351 10.0056 23.8307 10.6112 23.8028C11.2049 23.7761 11.6775 23.2684 11.6498 22.6553C11.6367 22.0556 11.1483 21.5892 10.5559 21.5905ZM15.9796 21.5839C15.374 21.6119 14.9014 22.1183 14.9014 22.7313C14.9291 23.3443 15.4293 23.8228 16.0349 23.7961C16.6273 23.7681 17.1012 23.2617 17.0736 22.6473C17.0604 22.049 16.572 21.5825 15.9796 21.5839ZM10.5493 16.7929C9.94373 16.8196 9.47113 17.3273 9.47244 17.9404C9.49878 18.5534 10.0003 19.0331 10.6059 19.0052C11.1983 18.9785 11.6709 18.4708 11.6433 17.8577C11.6301 17.258 11.143 16.7916 10.5493 16.7929ZM15.9743 16.7463C15.3688 16.7729 14.8949 17.2807 14.8962 17.8937C14.9225 18.5067 15.4241 18.9852 16.0296 18.9585C16.622 18.9305 17.0946 18.4241 17.0683 17.8111C17.0538 17.2114 16.5667 16.745 15.9743 16.7463ZM21.3981 16.753C20.7925 16.7663 20.3186 17.2594 20.3199 17.8724V17.8871C20.3331 18.5001 20.8333 18.9652 21.4402 18.9519C22.0326 18.9372 22.5052 18.4295 22.492 17.8164C22.4644 17.2301 21.9891 16.7516 21.3981 16.753ZM19.8578 6.67933L12.0382 6.69L12.0395 7.76812C12.0395 8.3425 11.6064 8.79561 11.0272 8.79561C10.4479 8.79694 10.0122 8.34517 10.0122 7.77079L10.0109 6.74464C7.44382 7.00184 6.02338 8.51042 6.02732 11.401L6.02865 11.8154L25.9595 11.7888V11.3223C25.9029 8.45711 24.4654 6.95386 21.8851 6.72998L21.8865 7.75613C21.8865 8.32918 21.4402 8.78361 20.8741 8.78361C20.2949 8.78495 19.8591 8.33184 19.8591 7.75879L19.8578 6.67933Z" fill="#1B1B1B"/>
</svg>
