<svg width="32" height="32" viewBox="0 0 32 32" fill="none" xmlns="http://www.w3.org/2000/svg">
<path d="M10.5599 17.9596C12.4399 17.9596 13.9466 19.4809 13.9466 21.3743V25.9196C13.9466 27.7996 12.4399 29.3329 10.5599 29.3329H6.05323C4.18656 29.3329 2.66656 27.7996 2.66656 25.9196V21.3743C2.66656 19.4809 4.18656 17.9596 6.05323 17.9596H10.5599ZM25.9467 17.9596C27.8134 17.9596 29.3334 19.4809 29.3334 21.3743V25.9196C29.3334 27.7996 27.8134 29.3329 25.9467 29.3329H21.44C19.56 29.3329 18.0534 27.7996 18.0534 25.9196V21.3743C18.0534 19.4809 19.56 17.9596 21.44 17.9596H25.9467ZM10.5599 2.66667C12.4399 2.66667 13.9466 4.20001 13.9466 6.08134V10.6267C13.9466 12.52 12.4399 14.04 10.5599 14.04H6.05323C4.18656 14.04 2.66656 12.52 2.66656 10.6267V6.08134C2.66656 4.20001 4.18656 2.66667 6.05323 2.66667H10.5599ZM25.9467 2.66667C27.8134 2.66667 29.3334 4.20001 29.3334 6.08134V10.6267C29.3334 12.52 27.8134 14.04 25.9467 14.04H21.44C19.56 14.04 18.0534 12.52 18.0534 10.6267V6.08134C18.0534 4.20001 19.56 2.66667 21.44 2.66667H25.9467Z" fill="#1B1B1B"/>
</svg>
