<svg width="72" height="72" viewBox="0 0 72 72" fill="none" xmlns="http://www.w3.org/2000/svg">
<rect width="72" height="72" rx="16" fill="#FAFAFA"/>
<circle cx="36" cy="36" r="36" fill="#5ACED9"/>
<circle cx="4.5" cy="67.5" r="4.5" fill="#78A0CF"/>
<circle cx="10.125" cy="61.875" r="3.375" fill="#FAFAFA"/>
<circle cx="11.8125" cy="70.3125" r="1.6875" fill="#FFBE3B"/>
<circle cx="67.5" cy="4.5" r="4.5" transform="rotate(-180 67.5 4.5)" fill="#FFBE3B"/>
<circle cx="60.75" cy="10.125" r="3.375" transform="rotate(-180 60.75 10.125)" fill="#FAFAFA"/>
<circle cx="16.3125" cy="14.0625" r="1.6875" transform="rotate(-180 16.3125 14.0625)" fill="white"/>
<circle cx="52.3125" cy="62.4375" r="1.6875" transform="rotate(-180 52.3125 62.4375)" fill="#5ACED9"/>
<circle cx="60.1875" cy="1.6875" r="1.6875" transform="rotate(-180 60.1875 1.6875)" fill="#78A0CF"/>
<path d="M12.0139 39.3211L12.021 45.1453C13.4297 45.3343 14.5173 46.5394 14.519 48.0002L56.6746 47.9487C56.6729 46.4879 57.7573 45.28 59.1657 45.0875L59.1585 39.2633C57.7499 39.0743 56.6623 37.8692 56.6606 36.4084C56.6588 34.9477 57.7432 33.7398 59.1516 33.5472L59.1445 27.7231C57.7358 27.534 56.6483 26.3289 56.6465 24.8682L14.4911 24.9198C14.4929 26.3805 13.4084 27.5885 12 27.781L12.0071 33.6051C13.4158 33.7941 14.5033 34.9992 14.5051 36.46C14.5067 37.9209 13.4223 39.1286 12.0139 39.3211Z" fill="#FFBE3B"/>
<path d="M51.176 23.8278C51.1948 23.9071 51.2049 23.99 51.2053 24.0751L51.2122 26.2324C51.2143 26.8282 50.7329 27.3127 50.1371 27.3145C49.5415 27.3165 49.0569 26.8352 49.0551 26.2394L49.0481 24.0821C49.0461 23.4863 49.5274 23.0018 50.1232 23C50.6335 22.9981 51.0626 23.3518 51.176 23.8278Z" fill="#5ACED9"/>
<path d="M51.2527 30.1515C51.2708 30.231 51.2802 30.3139 51.2798 30.3991L51.2549 34.8542C51.2517 35.45 50.766 35.9302 50.1703 35.9268C49.5747 35.9235 49.0944 35.4383 49.0977 34.8422L49.1227 30.387C49.1259 29.7913 49.6115 29.311 50.2073 29.3145C50.7177 29.3171 51.1435 29.6744 51.2527 30.1515ZM51.203 39.0617C51.2212 39.1411 51.2306 39.224 51.2302 39.3092L51.2053 43.7644C51.202 44.3601 50.7164 44.8404 50.1206 44.8369C49.5249 44.8337 49.0447 44.3483 49.0481 43.7523L49.073 39.2971C49.0763 38.7014 49.5619 38.2211 50.1577 38.2246C50.6681 38.2273 51.0939 38.5845 51.203 39.0617Z" fill="#5ACED9"/>
<path d="M51.176 47.6647C51.1948 47.744 51.2049 47.8269 51.2053 47.912L51.2122 50.0693C51.2143 50.6651 50.7329 51.1496 50.1371 51.1514C49.5415 51.1534 49.0569 50.6721 49.0551 50.0763L49.0481 47.919C49.0461 47.3233 49.5274 46.8387 50.1232 46.8369C50.6335 46.8351 51.0626 47.1887 51.176 47.6647Z" fill="#5ACED9"/>
<path d="M43.7078 28.3401H18.9281C17.8236 28.3401 16.9282 29.2355 16.9282 30.34V42.8279C16.9282 43.9324 17.8236 44.8278 18.9281 44.8278H43.7078C44.8123 44.8278 45.7077 43.9324 45.7077 42.8279V30.34C45.7077 29.2355 44.8123 28.3401 43.7078 28.3401Z" fill="#FAFAFA"/>
<circle cx="63.3125" cy="21.3125" r="1.6875" transform="rotate(-180 63.3125 21.3125)" fill="#DCDCDC"/>
</svg>
