<svg width="72" height="72" viewBox="0 0 72 72" fill="none" xmlns="http://www.w3.org/2000/svg">
<circle cx="36" cy="36" r="36" fill="#FFD36C"/>
<ellipse cx="53.375" cy="48.2838" rx="3.375" ry="3.28378" fill="#78A0CF"/>
<ellipse cx="18.375" cy="22.2838" rx="3.375" ry="3.28378" transform="rotate(-180 18.375 22.2838)" fill="#FAFAFA"/>
<circle cx="52.3125" cy="62.5726" r="1.6875" transform="rotate(-180 52.3125 62.5726)" fill="#FFD36C"/>
<g clip-path="url(#clip0_1042_16640)">
<path d="M53.1975 46.682V24.4901C53.1975 23.9463 52.7443 23.505 52.185 23.505H19.7691C19.2102 23.505 18.7566 23.9459 18.7566 24.4901V46.6816H53.1975V46.682Z" fill="#1D54BD"/>
<path d="M50.8017 42.3764V26.7428C50.8017 26.2425 50.3848 25.8369 49.8706 25.8369H22.0839C21.5697 25.8369 21.1528 26.2425 21.1528 26.7428V42.3764H50.8017Z" fill="#FAFAFA"/>
<path d="M41.2864 44.5293V46.19H30.6685V44.5293H16.5066V45.9217C16.5066 47.5144 17.8337 48.8056 19.4706 48.8056H52.4843C54.1212 48.8056 55.4483 47.5144 55.4483 45.9217V44.5293H41.2864Z" fill="#ADEEFF"/>
<path d="M52.4842 49.2356H19.4705C17.5924 49.2356 16.064 47.7489 16.064 45.9212V44.5292C16.064 44.2911 16.2622 44.0986 16.5065 44.0986H30.6684C30.9127 44.0986 31.111 44.2911 31.111 44.5292V45.7593H40.8437V44.5292C40.8437 44.2911 41.0415 44.0986 41.2863 44.0986H55.4482C55.6929 44.0986 55.8907 44.2911 55.8907 44.5292V45.9212C55.8907 47.7489 54.3627 49.2356 52.4842 49.2356ZM16.949 44.9593V45.9208C16.949 47.2736 18.0801 48.3741 19.4705 48.3741H52.4842C53.8746 48.3741 55.0057 47.2731 55.0057 45.9208V44.9593H41.7288V46.1894C41.7288 46.4275 41.531 46.62 41.2863 46.62H30.6684C30.4242 46.62 30.2259 46.4275 30.2259 46.1894V44.9593H16.949Z" fill="#081C42"/>
<path d="M53.1976 44.9594C52.9529 44.9594 52.7551 44.7669 52.7551 44.5288V24.4901C52.7551 24.1844 52.4998 23.9356 52.1856 23.9356H19.7697C19.4555 23.9356 19.1997 24.1844 19.1997 24.4901V44.5288C19.1997 44.7669 19.0015 44.9594 18.7572 44.9594C18.5129 44.9594 18.3147 44.7669 18.3147 44.5288V24.4901C18.3147 23.7095 18.9674 23.0745 19.7697 23.0745H52.1856C52.9879 23.0745 53.6402 23.7095 53.6402 24.4901V44.5288C53.6402 44.7669 53.4423 44.9594 53.1976 44.9594Z" fill="#081C42"/>
<path d="M50.8018 42.8065H21.153C20.9087 42.8065 20.7104 42.6141 20.7104 42.376V26.7423C20.7104 26.0052 21.3269 25.4059 22.084 25.4059H49.8703C50.6279 25.4059 51.2439 26.0057 51.2439 26.7423V42.376C51.2443 42.6141 51.0465 42.8065 50.8018 42.8065ZM21.5955 41.9454H50.3593V26.7423C50.3593 26.4801 50.1402 26.267 49.8707 26.267H22.084C21.8145 26.267 21.5955 26.4806 21.5955 26.7423V41.9454Z" fill="#081C42"/>
<path d="M35.9774 39.1692H27.959V30.5193H29.5609" fill="#E0BC4B"/>
<path d="M42.3938 30.5193H43.9958V39.1692H35.9773" fill="#E0BC4B"/>
<path d="M35.9774 39.1692C34.1901 37.5886 32.0708 36.6939 29.5591 36.6099C29.5591 36.5113 29.5591 27.9746 29.5591 27.9746C32.0708 28.059 34.1901 28.9533 35.9774 30.5339V39.1692Z" fill="#FEFEFE"/>
<path d="M35.9773 39.1692C37.7646 37.5886 39.8839 36.6939 42.3956 36.6099C42.3956 36.5113 42.3956 27.9746 42.3956 27.9746C39.8839 28.059 37.7646 28.9533 35.9773 30.5339V39.1692Z" fill="#FEFEFE"/>
<path d="M35.9774 39.5998H27.9594C27.7151 39.5998 27.5168 39.4073 27.5168 39.1692V30.5188C27.5168 30.2811 27.7151 30.0883 27.9594 30.0883H29.5595C29.8038 30.0883 30.002 30.2811 30.002 30.5188C30.002 30.7565 29.8038 30.9494 29.5595 30.9494H28.4019V38.7386H35.9774C36.2217 38.7386 36.4199 38.9311 36.4199 39.1692C36.4199 39.4073 36.2217 39.5998 35.9774 39.5998Z" fill="#081C42"/>
<path d="M43.9954 39.5998H35.9774C35.7332 39.5998 35.5349 39.4073 35.5349 39.1692C35.5349 38.9311 35.7332 38.7386 35.9774 38.7386H43.5529V30.9494H42.3957C42.151 30.9494 41.9532 30.7565 41.9532 30.5188C41.9532 30.2811 42.151 30.0883 42.3957 30.0883H43.9954C44.2402 30.0883 44.438 30.2811 44.438 30.5188V39.1692C44.438 39.4073 44.2402 39.5998 43.9954 39.5998Z" fill="#081C42"/>
<path d="M35.9773 39.5998C35.8693 39.5998 35.7627 39.5615 35.6795 39.4879C33.9063 37.9193 31.8995 37.1189 29.5439 37.0397C29.3054 37.0315 29.1165 36.8416 29.1165 36.6096V27.9747C29.1165 27.858 29.1651 27.7461 29.2514 27.6651C29.3373 27.5842 29.4452 27.536 29.574 27.5446C32.1123 27.6298 34.367 28.5284 36.2747 30.2158C36.3671 30.2971 36.4198 30.413 36.4198 30.5339V39.1693C36.4198 39.3398 36.3167 39.4939 36.1565 39.5628C36.099 39.5878 36.0379 39.5998 35.9773 39.5998ZM30.0019 36.2018C32.0495 36.3461 33.905 37.0328 35.5348 38.2483V30.7264C33.9143 29.3413 32.0986 28.587 30.0019 28.4298V36.2018Z" fill="#081C42"/>
<path d="M35.9774 39.5998C35.9168 39.5998 35.8562 39.5878 35.7982 39.5628C35.638 39.4939 35.5349 39.3398 35.5349 39.1692V30.5339C35.5349 30.4125 35.5876 30.2971 35.6796 30.2153C37.5878 28.528 39.842 27.6294 42.3807 27.5441C42.4909 27.5407 42.617 27.5837 42.7033 27.6647C42.7896 27.7456 42.8387 27.8576 42.8387 27.9743V36.6096C42.8387 36.8416 42.6497 37.0315 42.4112 37.0397C40.0561 37.1189 38.0489 37.9193 36.2752 39.4879C36.1921 39.5615 36.0854 39.5998 35.9774 39.5998ZM36.42 30.7268V38.2487C38.0502 37.0332 39.9057 36.3465 41.9532 36.2023V28.4298C39.8566 28.5874 38.0405 29.3417 36.42 30.7268Z" fill="#081C42"/>
</g>
<defs>
<clipPath id="clip0_1042_16640">
<rect width="40" height="26.3545" fill="white" transform="translate(16 23)"/>
</clipPath>
</defs>
</svg>
