<svg width="32" height="32" viewBox="0 0 32 32" fill="none" xmlns="http://www.w3.org/2000/svg">
<path d="M6.40002 6.40001V25.6C6.40002 26.4487 6.73717 27.2626 7.33728 27.8628C7.9374 28.4629 8.75133 28.8 9.60002 28.8H24.8C25.0122 28.8 25.2157 28.7157 25.3657 28.5657C25.5157 28.4157 25.6 28.2122 25.6 28C25.6 27.7878 25.5157 27.5844 25.3657 27.4343C25.2157 27.2843 25.0122 27.2 24.8 27.2H9.60002C9.17568 27.2 8.76871 27.0314 8.46865 26.7314C8.1686 26.4313 8.00002 26.0244 8.00002 25.6H24C24.4244 25.6 24.8313 25.4314 25.1314 25.1314C25.4315 24.8313 25.6 24.4244 25.6 24V6.40001C25.6 5.55132 25.2629 4.73739 24.6628 4.13727C24.0626 3.53715 23.2487 3.20001 22.4 3.20001H9.60002C8.75133 3.20001 7.9374 3.53715 7.33728 4.13727C6.73717 4.73739 6.40002 5.55132 6.40002 6.40001ZM22.4 4.80001C22.8244 4.80001 23.2313 4.96858 23.5314 5.26864C23.8315 5.5687 24 5.97567 24 6.40001V24H8.00002V6.40001C8.00002 5.97567 8.1686 5.5687 8.46865 5.26864C8.76871 4.96858 9.17568 4.80001 9.60002 4.80001H22.4ZM17.2 9.20001C17.2 8.88175 17.0736 8.57653 16.8486 8.35148C16.6235 8.12644 16.3183 8.00001 16 8.00001C15.6818 8.00001 15.3765 8.12644 15.1515 8.35148C14.9265 8.57653 14.8 8.88175 14.8 9.20001C14.8 9.51827 14.9265 9.8235 15.1515 10.0485C15.3765 10.2736 15.6818 10.4 16 10.4C16.3183 10.4 16.6235 10.2736 16.8486 10.0485C17.0736 9.8235 17.2 9.51827 17.2 9.20001ZM16.8 20C16.8 20.2122 16.7157 20.4157 16.5657 20.5657C16.4157 20.7157 16.2122 20.8 16 20.8C15.7879 20.8 15.5844 20.7157 15.4343 20.5657C15.2843 20.4157 15.2 20.2122 15.2 20V13.6C15.2 13.3878 15.2843 13.1844 15.4343 13.0343C15.5844 12.8843 15.7879 12.8 16 12.8C16.2122 12.8 16.4157 12.8843 16.5657 13.0343C16.7157 13.1844 16.8 13.3878 16.8 13.6V20Z" fill="#1B1B1B"/>
</svg>
