<svg width="73" height="72" viewBox="0 0 73 72" fill="none" xmlns="http://www.w3.org/2000/svg">
<defs>
<linearGradient id="paint0_linear_1042_16591" x1="27.4507" y1="51.6047" x2="27.4507" y2="35.9633" gradientUnits="userSpaceOnUse">
<stop stop-color="#009E89"/>
<stop offset="1" stop-color="#00BFA5"/>
</linearGradient>
<radialGradient id="paint1_radial_1042_16591" cx="0" cy="0" r="1" gradientUnits="userSpaceOnUse" gradientTransform="translate(27.3179 25.9965) scale(7.02366 7.9241)">
<stop offset="0.794" stop-color="#6D4C41" stop-opacity="0"/>
<stop offset="1" stop-color="#6D4C41"/>
</radialGradient>
<radialGradient id="paint2_radial_1042_16591" cx="0" cy="0" r="1" gradientUnits="userSpaceOnUse" gradientTransform="translate(44.1771 28.3633) scale(8.81775 10.494)">
<stop offset="0.794" stop-color="#6D4C41" stop-opacity="0"/>
<stop offset="1" stop-color="#6D4C41"/>
</radialGradient>
<linearGradient id="paint3_linear_1042_16591" x1="44.3521" y1="51.6047" x2="44.3521" y2="35.8687" gradientUnits="userSpaceOnUse">
<stop stop-color="#530EEB"/>
<stop offset="1" stop-color="#651FFF"/>
</linearGradient>
<radialGradient id="paint4_radial_1042_16591" cx="0" cy="0" r="1" gradientUnits="userSpaceOnUse" gradientTransform="translate(44.2393 29.111) scale(9.23606 11.208)">
<stop offset="0.794" stop-color="#6D4C41" stop-opacity="0"/>
<stop offset="1" stop-color="#6D4C41"/>
</radialGradient>
<radialGradient id="paint5_radial_1042_16591" cx="0" cy="0" r="1" gradientUnits="userSpaceOnUse" gradientTransform="translate(35.9013 43.6266) scale(7.63493 11.1226)">
<stop offset="0.594" stop-color="#212121"/>
<stop offset="1" stop-color="#616161" stop-opacity="0.05"/>
</radialGradient>
<radialGradient id="paint6_radial_1042_16591" cx="0" cy="0" r="1" gradientUnits="userSpaceOnUse" gradientTransform="translate(35.88 41.1034) rotate(90) scale(7.24158 6.31834)">
<stop offset="0.794" stop-color="#6D4C41" stop-opacity="0"/>
<stop offset="1" stop-color="#6D4C41"/>
</radialGradient>
<clipPath id="clip0_1042_16591">
<rect width="11.2676" height="11.2676" fill="white" transform="translate(30.2676 46.7324)"/>
</clipPath>
</defs>
<circle cx="36.3333" cy="36" r="36" fill="#FFD36C"/>
<ellipse cx="21.375" cy="20.2838" rx="3.375" ry="3.28378" fill="#78A0CF"/>
<ellipse cx="52.375" cy="51.2838" rx="3.375" ry="3.28378" transform="rotate(-180 52.375 51.2838)" fill="#FAFAFA"/>
<circle cx="52.6458" cy="62.4375" r="1.6875" transform="rotate(-180 52.6458 62.4375)" fill="#FFD36C"/>
<path d="M29.969 35.6394C29.1099 35.4901 28.262 35.4225 27.4282 35.4225C26.1549 35.4225 24.9183 35.583 23.7493 35.8591C21.831 36.3154 20.0817 37.2197 19 38.5718V51.8028H35.9014V41.7746C35.9014 38.3154 33.3155 36.2169 29.969 35.6394Z" fill="url(#paint0_linear_1042_16591)"/>
<path d="M27.2985 37.7521C26.2084 37.7521 25.3267 36.8704 25.3267 35.7803V33.9718H29.2703V35.7803C29.2703 36.8704 28.3858 37.7521 27.2985 37.7521Z" fill="#FFD3B3"/>
<path d="M19 43.9155V51.8029H21.2535V43.9155H19Z" fill="#FFD3B3"/>
<path d="M32.3747 26.6592H22.2198C21.124 26.6592 20.2283 27.6141 20.2283 28.7803C20.2283 29.9465 21.124 30.9014 22.2198 30.9014H32.3747C33.4705 30.9014 34.3663 29.9465 34.3663 28.7803C34.3663 27.6141 33.4705 26.6592 32.3747 26.6592Z" fill="#FFD3B3"/>
<path d="M27.2985 19.1577C24.0647 19.1577 21.0703 22.6169 21.0703 27.5915C21.0703 32.5408 24.1548 34.9887 27.2985 34.9887C30.4421 34.9887 33.5267 32.5408 33.5267 27.5915C33.5267 22.6169 30.5323 19.1577 27.2985 19.1577Z" fill="#FFD3B3"/>
<path d="M27.3212 18.0564H27.3184H27.3156C18.9381 18.1015 20.6536 27.6705 20.6536 27.6705C20.6536 27.6705 21.0283 28.6564 21.2001 29.093C21.2254 29.155 21.3156 29.1494 21.3297 29.0817C21.51 28.2817 22.1522 25.4451 22.4761 24.5832C22.6677 24.0761 23.1945 23.7803 23.7297 23.8761C24.5494 24.0254 25.8592 24.2085 27.3015 24.2085H27.3353C28.7776 24.2085 30.0846 24.0254 30.9071 23.8761C31.4423 23.7803 31.9691 24.0761 32.1607 24.5832C32.4846 25.4423 33.124 28.262 33.3043 29.0733C33.3184 29.1409 33.4114 29.1465 33.4367 29.0817L33.986 27.6677C33.9832 27.6705 35.6987 18.1015 27.3212 18.0564Z" fill="#543930"/>
<path d="M33.983 27.6705C33.983 27.6705 35.6985 18.1015 27.321 18.0564H27.3182H27.3154C27.1858 18.0564 27.0562 18.0592 26.9323 18.0648C26.6816 18.0761 26.4422 18.0958 26.2112 18.1212H26.2055C26.1886 18.124 26.1745 18.1268 26.1576 18.1268C19.1013 19.017 20.6534 27.6705 20.6534 27.6705L21.2027 29.0874C21.2281 29.1494 21.3182 29.1437 21.3323 29.0789C21.5126 28.2705 22.1548 25.4451 22.4788 24.586C22.6703 24.0789 23.1971 23.7832 23.7323 23.8789C24.552 24.0282 25.8619 24.2113 27.3041 24.2113H27.3379C28.7802 24.2113 30.0872 24.0282 30.9098 23.8789C31.445 23.7832 31.9717 24.0789 32.1633 24.586C32.4872 25.4508 33.1323 28.2902 33.3098 29.0874C33.3238 29.1522 33.414 29.1606 33.4393 29.0958C33.6055 28.6592 33.983 27.6705 33.983 27.6705Z" fill="url(#paint1_radial_1042_16591)"/>
<path d="M44.2816 18.0564C36.6732 18.0564 36.7351 25.0902 36.7351 25.2029C36.7351 29.7578 37.0844 36.1944 38.907 38.7268C39.6309 39.7296 41.0281 39.786 41.0281 39.786L44.1774 39.7803L47.3267 39.786C47.3267 39.786 48.7239 39.7296 49.4478 38.7268C51.2703 36.1944 51.6196 29.7578 51.6196 25.2029C51.6168 25.0902 51.8901 18.0564 44.2816 18.0564Z" fill="#543930"/>
<path d="M44.2816 18.0564C36.6732 18.0564 36.7351 25.0902 36.7351 25.2029C36.7351 29.7578 37.0844 36.1944 38.907 38.7268C39.6309 39.7296 41.0281 39.786 41.0281 39.786L44.1774 39.7803L47.3267 39.786C47.3267 39.786 48.7239 39.7296 49.4478 38.7268C51.2703 36.1944 51.6196 29.7578 51.6196 25.2029C51.6168 25.0902 51.8901 18.0564 44.2816 18.0564Z" fill="url(#paint2_radial_1042_16591)"/>
<path d="M48.0535 35.8591C46.8845 35.583 45.6478 35.4225 44.3746 35.4225C43.5408 35.4225 42.6929 35.4901 41.8338 35.6394C38.4873 36.2169 35.9014 38.3154 35.9014 41.7746V51.8028H52.8028V38.5746C51.7211 37.2197 49.9718 36.3154 48.0535 35.8591Z" fill="url(#paint3_linear_1042_16591)"/>
<path d="M44.1774 37.7634C43.0873 37.7634 42.2056 36.8817 42.2056 35.7916V33.9832H46.1492V35.7916C46.1492 36.8817 45.2675 37.7634 44.1774 37.7634Z" fill="#FFD3B3"/>
<path d="M50.5493 43.9155V51.8029H52.8028V43.9155H50.5493Z" fill="#FFD3B3"/>
<path d="M44.1775 20.2113C40.9775 20.2113 38.0142 22.5916 38.0142 27.6367C38.0142 31.6902 40.524 34.0874 42.7099 34.8592C43.2311 35.0423 43.7325 35.1352 44.1804 35.1352C44.6226 35.1352 45.124 35.0423 45.6395 34.862C47.8254 34.093 50.3437 31.693 50.3437 27.6367C50.3409 22.5888 47.3775 20.2113 44.1775 20.2113Z" fill="#FFD3B3"/>
<path d="M44.8874 29.8874C44.8684 29.88 44.8485 29.8753 44.8282 29.8733H43.5268C43.5071 29.8761 43.4874 29.8817 43.4677 29.8874C43.3494 29.9353 43.2846 30.0564 43.3409 30.186C43.3972 30.3155 43.6564 30.6817 44.1775 30.6817C44.6987 30.6817 44.9578 30.3155 45.0141 30.186C45.0705 30.0564 45.0057 29.9353 44.8874 29.8874Z" fill="#FFD3B3"/>
<path d="M44.2816 18.0564C36.6732 18.0564 36.7351 25.0902 36.7351 25.2029C36.7351 26.6423 36.7689 28.2677 36.876 29.9015L39.0619 34.2761C39.0619 34.2761 38.6844 30.8479 38.6422 28.524C38.6365 28.2254 38.5858 27.4761 38.7295 26.8226C38.952 26.2705 39.245 25.8423 39.6224 25.7578C43.7689 24.8254 46.1182 22.6254 46.1182 22.6254C46.7295 23.9578 48.6365 25.2592 49.3239 25.7522C49.5182 25.893 49.6647 26.3465 49.7746 26.9099C49.8337 27.493 49.8112 28.1325 49.8055 28.5071L49.2393 34.2648L51.4788 29.9043C51.4788 29.8958 51.4816 29.8846 51.4844 29.8761C51.5886 28.2536 51.6224 26.6367 51.6224 25.2057C51.6168 25.0902 51.8901 18.0564 44.2816 18.0564Z" fill="#543930"/>
<path d="M44.2816 18.0564C36.6732 18.0564 36.7351 25.0902 36.7351 25.2029C36.7351 26.6423 36.7689 28.2677 36.876 29.9015L38.121 29.8986C38.1098 29.3578 38.4901 26.0085 39.6196 25.755C43.7661 24.8226 46.1154 22.6226 46.1154 22.6226C46.7267 23.955 48.6337 25.2564 49.321 25.7494C49.8844 26.155 50.0562 29.1916 50.045 29.9015H51.4732C51.4732 29.893 51.476 29.8817 51.4788 29.8733C51.583 28.2508 51.6168 26.6339 51.6168 25.2029C51.6168 25.0902 51.8901 18.0564 44.2816 18.0564Z" fill="url(#paint4_radial_1042_16591)"/>
<path opacity="0.4" d="M35.9069 41.7746C35.9069 38.3155 33.183 36.2169 29.8365 35.6394C29.3182 35.5493 28.859 35.4929 28.2957 35.4591V51.8028H43.5069V35.4507C42.9435 35.4817 42.3999 35.5436 41.8449 35.6394C38.4985 36.2169 35.9069 38.3155 35.9069 41.7746Z" fill="url(#paint5_radial_1042_16591)"/>
<path d="M41.9776 51.2338C41.9776 48.4619 38.4536 47.5323 37.2255 47.5323H34.5832C33.3579 47.5323 29.8283 48.4619 29.8283 51.2338C29.8283 51.2338 29.8255 51.4563 29.8198 51.8028H41.9832L41.9776 51.2338Z" fill="#B2EBF2"/>
<path d="M35.9014 49.6338C35.5511 49.6338 35.215 49.4946 34.9673 49.2468C34.7195 48.9991 34.5803 48.6631 34.5803 48.3127V47.2986H37.2254V48.3127C37.2243 48.6632 37.0843 48.999 36.8362 49.2466C36.5881 49.4942 36.252 49.6334 35.9014 49.6338Z" fill="#FFD3B3"/>
<path d="M40.0535 42.0028H31.7493C30.8535 42.0028 30.1211 42.707 30.1211 43.569C30.1211 44.431 30.8535 45.1352 31.7493 45.1352H40.0507C40.9464 45.1352 41.6788 44.431 41.6788 43.569C41.6788 42.707 40.9493 42.0028 40.0535 42.0028Z" fill="#FFD3B3"/>
<path d="M35.9014 35.5409C33.2733 35.5409 30.8423 38.3015 30.8423 42.2733C30.8423 46.2226 33.3493 48.1775 35.9014 48.1775C38.4536 48.1775 40.9606 46.2254 40.9606 42.2733C40.9606 38.2986 38.5296 35.5409 35.9014 35.5409Z" fill="#FFD3B3"/>
<path d="M35.9324 34.9465C30.3183 34.9465 29.9268 39.5324 30.1549 41.5381C30.3549 43.3099 31.2789 43.7465 31.2789 43.7465C31.2789 43.7465 31.0958 42.2001 31.3916 41.0789C31.6254 40.1888 32.1803 39.5296 32.1803 39.5296C32.1803 39.5296 33.1944 40.4085 35.0817 40.9803C35.9916 41.2564 37.1578 41.1184 37.1578 41.1184L36.5042 39.9634C36.5042 39.9634 37.5747 40.7493 38.2395 40.8986C39.093 41.0902 39.7183 41.0085 39.7183 41.0085L39.4057 39.7888C39.4057 39.7888 39.9493 40.1437 40.3549 41.1155C40.7606 42.0874 40.5099 43.7465 40.5099 43.7465C40.5099 43.7465 41.4845 43.3127 41.6423 41.5381C41.8366 39.3155 41.5211 34.9465 35.9324 34.9465Z" fill="#543930"/>
<path d="M35.9324 34.9465C30.3183 34.9465 29.9268 39.5324 30.1549 41.5381C30.3549 43.3099 31.2789 43.7465 31.2789 43.7465C31.2789 43.7465 31.0958 42.2001 31.3916 41.0789C31.6254 40.1888 32.1803 39.5296 32.1803 39.5296C32.1803 39.5296 33.1944 40.4085 35.0817 40.9803C35.9916 41.2564 37.1578 41.1184 37.1578 41.1184L36.5042 39.9634C36.5042 39.9634 37.5747 40.7493 38.2395 40.8986C39.093 41.0902 39.7183 41.0085 39.7183 41.0085L39.4057 39.7888C39.4057 39.7888 39.9493 40.1437 40.3549 41.1155C40.7606 42.0874 40.5099 43.7465 40.5099 43.7465C40.5099 43.7465 41.4845 43.3127 41.6423 41.5381C41.8366 39.3155 41.5211 34.9465 35.9324 34.9465Z" fill="url(#paint6_radial_1042_16591)"/>
<g clip-path="url(#clip0_1042_16591)">
<path d="M35.9015 57.9999C39.0129 57.9999 41.5352 55.4776 41.5352 52.3662C41.5352 49.2548 39.0129 46.7325 35.9015 46.7325C32.7901 46.7325 30.2678 49.2548 30.2678 52.3662C30.2678 55.4776 32.7901 57.9999 35.9015 57.9999Z" fill="white"/>
<path d="M36.7211 56.149C35.4617 56.149 34.4407 55.1281 34.4407 53.8687H39.0014C39.0014 55.1281 37.9805 56.149 36.7211 56.149Z" fill="#7F184C"/>
<path d="M35.6792 50.8516C35.5526 50.8516 35.45 50.749 35.45 50.6224C35.45 50.3268 35.2095 50.0863 34.9139 50.0863C34.6183 50.0863 34.3778 50.3268 34.3778 50.6224C34.3778 50.749 34.2752 50.8516 34.1486 50.8516C34.022 50.8516 33.9194 50.749 33.9194 50.6224C33.9194 50.0741 34.3656 49.6279 34.9139 49.6279C35.4622 49.6279 35.9084 50.0741 35.9084 50.6224C35.9084 50.749 35.8057 50.8516 35.6792 50.8516Z" fill="#7F184C"/>
<path d="M39.55 50.8516C39.4234 50.8516 39.3208 50.749 39.3208 50.6224C39.3208 50.3268 39.0804 50.0863 38.7847 50.0863C38.4891 50.0863 38.2486 50.3268 38.2486 50.6224C38.2486 50.749 38.146 50.8516 38.0195 50.8516C37.8929 50.8516 37.7903 50.749 37.7903 50.6224C37.7903 50.0741 38.2364 49.6279 38.7848 49.6279C39.3331 49.6279 39.7792 50.0741 39.7792 50.6224C39.7792 50.749 39.6766 50.8516 39.55 50.8516Z" fill="#7F184C"/>
<path d="M34.9971 53.8687V54.2246C34.9971 54.3747 35.1187 54.4964 35.2688 54.4964H38.1733C38.3233 54.4964 38.445 54.3747 38.445 54.2246V53.8687H34.9971Z" fill="#F2F2F2"/>
<path d="M36.769 55.203C36.1525 54.9166 35.4685 54.9582 34.9138 55.2552C35.3306 55.7985 35.9861 56.1491 36.7237 56.1491C37.0488 56.1491 37.3577 56.0806 37.6376 55.958C37.4322 55.6403 37.1378 55.3744 36.769 55.203Z" fill="#FC4C59"/>
<path d="M34.3776 50.6224C34.3776 50.3268 34.6181 50.0863 34.9137 50.0863C35.2093 50.0863 35.4498 50.3268 35.4498 50.6224C35.4498 50.749 35.5524 50.8516 35.679 50.8516C35.8056 50.8516 35.9082 50.749 35.9082 50.6224C35.9082 50.0741 35.462 49.6279 34.9137 49.6279C34.3653 49.6279 33.9192 50.0741 33.9192 50.6224C33.9192 50.749 34.0218 50.8516 34.1484 50.8516C34.275 50.8516 34.3776 50.749 34.3776 50.6224Z" fill="#1D54BD"/>
<path d="M38.2487 50.6224C38.2487 50.3268 38.4892 50.0863 38.7848 50.0863C39.0804 50.0863 39.3209 50.3268 39.3209 50.6224C39.3209 50.749 39.4235 50.8516 39.5501 50.8516C39.6766 50.8516 39.7792 50.749 39.7792 50.6224C39.7792 50.0741 39.3331 49.6279 38.7848 49.6279C38.2364 49.6279 37.7903 50.0741 37.7903 50.6224C37.7903 50.749 37.8929 50.8516 38.0195 50.8516C38.146 50.8516 38.2487 50.749 38.2487 50.6224Z" fill="#1D54BD"/>
<path d="M34.2114 53.8686C34.2114 55.2524 35.3372 56.3781 36.721 56.3781C38.1048 56.3781 39.2305 55.2524 39.2305 53.8686C39.2305 53.742 39.1279 53.6394 39.0014 53.6394H34.4406C34.314 53.6394 34.2114 53.742 34.2114 53.8686ZM38.7595 54.0978C38.6452 55.1213 37.7746 55.9198 36.721 55.9198C35.6674 55.9198 34.7968 55.1213 34.6825 54.0978H38.7595Z" fill="#1D54BD"/>
</g>

</svg>
