<svg width="73" height="72" viewBox="0 0 73 72" fill="none" xmlns="http://www.w3.org/2000/svg">
<defs>
<linearGradient id="paint0_linear_1034_16428" x1="26.507" y1="51.8054" x2="26.507" y2="34.2088" gradientUnits="userSpaceOnUse">
<stop stop-color="#009E89"/>
<stop offset="1" stop-color="#00BFA5"/>
</linearGradient>
<radialGradient id="paint1_radial_1034_16428" cx="0" cy="0" r="1" gradientUnits="userSpaceOnUse" gradientTransform="translate(26.3578 22.996) scale(7.90162 8.91461)">
<stop offset="0.794" stop-color="#6D4C41" stop-opacity="0"/>
<stop offset="1" stop-color="#6D4C41"/>
</radialGradient>
<radialGradient id="paint2_radial_1034_16428" cx="0" cy="0" r="1" gradientUnits="userSpaceOnUse" gradientTransform="translate(45.3244 25.6586) scale(9.91996 11.8057)">
<stop offset="0.794" stop-color="#6D4C41" stop-opacity="0"/>
<stop offset="1" stop-color="#6D4C41"/>
</radialGradient>
<linearGradient id="paint3_linear_1034_16428" x1="45.5212" y1="51.8054" x2="45.5212" y2="34.1023" gradientUnits="userSpaceOnUse">
<stop stop-color="#935B12"/>
<stop offset="1" stop-color="#FFBE3B"/>
</linearGradient>
<radialGradient id="paint4_radial_1034_16428" cx="0" cy="0" r="1" gradientUnits="userSpaceOnUse" gradientTransform="translate(45.3944 26.4998) scale(10.3906 12.6089)">
<stop offset="0.794" stop-color="#6D4C41" stop-opacity="0"/>
<stop offset="1" stop-color="#6D4C41"/>
</radialGradient>
<radialGradient id="paint5_radial_1034_16428" cx="0" cy="0" r="1" gradientUnits="userSpaceOnUse" gradientTransform="translate(36.0141 42.83) scale(8.58929 12.5129)">
<stop offset="0.594" stop-color="#212121"/>
<stop offset="1" stop-color="#616161" stop-opacity="0.05"/>
</radialGradient>
<radialGradient id="paint6_radial_1034_16428" cx="0" cy="0" r="1" gradientUnits="userSpaceOnUse" gradientTransform="translate(35.99 39.9913) rotate(90) scale(8.14678 7.10813)">
<stop offset="0.794" stop-color="#6D4C41" stop-opacity="0"/>
<stop offset="1" stop-color="#6D4C41"/>
</radialGradient>
<clipPath id="clip0_1034_16428">
<rect width="12.6761" height="12.6761" fill="white" transform="translate(29.676 46.324)"/>
</clipPath>
</defs>
<circle cx="36.3333" cy="36" r="36" fill="#5ACED9"/>
<circle cx="4.83325" cy="67.5" r="4.5" fill="#78A0CF"/>
<circle cx="10.4583" cy="61.875" r="3.375" fill="#FAFAFA"/>
<circle cx="12.1458" cy="70.3125" r="1.6875" fill="#FFBE3B"/>
<circle cx="67.8333" cy="4.5" r="4.5" transform="rotate(-180 67.8333 4.5)" fill="#FFBE3B"/>
<circle cx="61.0833" cy="10.125" r="3.375" transform="rotate(-180 61.0833 10.125)" fill="#FAFAFA"/>
<circle cx="16.6458" cy="14.0625" r="1.6875" transform="rotate(-180 16.6458 14.0625)" fill="white"/>
<circle cx="52.6458" cy="62.4375" r="1.6875" transform="rotate(-180 52.6458 62.4375)" fill="#5ACED9"/>
<circle cx="60.5208" cy="1.6875" r="1.6875" transform="rotate(-180 60.5208 1.6875)" fill="#78A0CF"/>
<circle cx="63.6458" cy="21.3125" r="1.6875" transform="rotate(-180 63.6458 21.3125)" fill="#DCDCDC"/>
<path d="M29.3401 33.8444C28.3736 33.6764 27.4197 33.6003 26.4817 33.6003C25.0493 33.6003 23.6581 33.781 22.343 34.0915C20.1849 34.6049 18.2169 35.6222 17 37.1433V52.0282H36.0141V40.7465C36.0141 36.8549 33.1049 34.494 29.3401 33.8444Z" fill="url(#paint0_linear_1034_16428)"/>
<path d="M26.336 36.2211C25.1096 36.2211 24.1177 35.2292 24.1177 34.0028V31.9683H28.5543V34.0028C28.5543 35.2292 27.5592 36.2211 26.336 36.2211Z" fill="#FFD3B3"/>
<path d="M17 43.1549V52.0281H19.5352V43.1549H17Z" fill="#FFD3B3"/>
<path d="M32.0464 23.7416H20.6221C19.3893 23.7416 18.3816 24.8159 18.3816 26.1278C18.3816 27.4398 19.3893 28.5141 20.6221 28.5141H32.0464C33.2791 28.5141 34.2869 27.4398 34.2869 26.1278C34.2869 24.8159 33.2791 23.7416 32.0464 23.7416Z" fill="#FFD3B3"/>
<path d="M26.336 15.3025C22.698 15.3025 19.3293 19.194 19.3293 24.7905C19.3293 30.3585 22.7994 33.1123 26.336 33.1123C29.8727 33.1123 33.3427 30.3585 33.3427 24.7905C33.3427 19.194 29.9741 15.3025 26.336 15.3025Z" fill="#FFD3B3"/>
<path d="M26.3612 14.0634H26.3581H26.3549C16.9303 14.1141 18.8602 24.8792 18.8602 24.8792C18.8602 24.8792 19.2817 25.9884 19.475 26.4796C19.5035 26.5493 19.6049 26.5429 19.6208 26.4669C19.8236 25.5669 20.5461 22.3757 20.9105 21.406C21.126 20.8355 21.7186 20.5028 22.3208 20.6105C23.2429 20.7785 24.7165 20.9845 26.3391 20.9845H26.3771C27.9996 20.9845 29.4701 20.7785 30.3954 20.6105C30.9975 20.5028 31.5901 20.8355 31.8056 21.406C32.1701 22.3725 32.8894 25.5447 33.0922 26.4574C33.1081 26.5334 33.2127 26.5398 33.2412 26.4669L33.8591 24.876C33.856 24.8792 35.7859 14.1141 26.3612 14.0634Z" fill="#543930"/>
<path d="M33.856 24.8792C33.856 24.8792 35.786 14.1141 26.3613 14.0634H26.3581H26.355C26.2092 14.0634 26.0634 14.0665 25.924 14.0729C25.6419 14.0855 25.3726 14.1077 25.1127 14.1362H25.1064C25.0874 14.1394 25.0715 14.1426 25.0525 14.1426C17.1141 15.144 18.8603 24.8792 18.8603 24.8792L19.4782 26.4732C19.5067 26.5429 19.6081 26.5366 19.624 26.4637C19.8268 25.5542 20.5493 22.3757 20.9138 21.4091C21.1293 20.8387 21.7219 20.506 22.324 20.6137C23.2462 20.7817 24.7198 20.9876 26.3423 20.9876H26.3803C28.0029 20.9876 29.4733 20.7817 30.3986 20.6137C31.0007 20.506 31.5933 20.8387 31.8088 21.4091C32.1733 22.382 32.899 25.5764 33.0986 26.4732C33.1145 26.5461 33.2159 26.5556 33.2444 26.4827C33.4314 25.9915 33.856 24.8792 33.856 24.8792Z" fill="url(#paint1_radial_1034_16428)"/>
<path d="M45.442 14.0634C36.8824 14.0634 36.9522 21.9764 36.9522 22.1031C36.9522 27.2274 37.3451 34.4686 39.3955 37.3176C40.2099 38.4458 41.7817 38.5091 41.7817 38.5091L45.3247 38.5028L48.8677 38.5091C48.8677 38.5091 50.4395 38.4458 51.2539 37.3176C53.3043 34.4686 53.6972 27.2274 53.6972 22.1031C53.6941 21.9764 54.0015 14.0634 45.442 14.0634Z" fill="#543930"/>
<path d="M45.442 14.0634C36.8824 14.0634 36.9522 21.9764 36.9522 22.1031C36.9522 27.2274 37.3451 34.4686 39.3955 37.3176C40.2099 38.4458 41.7817 38.5091 41.7817 38.5091L45.3247 38.5028L48.8677 38.5091C48.8677 38.5091 50.4395 38.4458 51.2539 37.3176C53.3043 34.4686 53.6972 27.2274 53.6972 22.1031C53.6941 21.9764 54.0015 14.0634 45.442 14.0634Z" fill="url(#paint2_radial_1034_16428)"/>
<path d="M49.6853 34.0915C48.3701 33.781 46.9789 33.6003 45.5466 33.6003C44.6085 33.6003 43.6547 33.6764 42.6881 33.8444C38.9233 34.494 36.0142 36.8549 36.0142 40.7465V52.0282H55.0282V37.1465C53.8113 35.6222 51.8434 34.6049 49.6853 34.0915Z" fill="url(#paint3_linear_1034_16428)"/>
<path d="M45.3248 36.2338C44.0983 36.2338 43.1064 35.2419 43.1064 34.0155V31.981H47.5431V34.0155C47.5431 35.2419 46.5512 36.2338 45.3248 36.2338Z" fill="#FFD3B3"/>
<path d="M52.4929 43.1549V52.0281H55.0281V43.1549H52.4929Z" fill="#FFD3B3"/>
<path d="M45.3247 16.4877C41.7247 16.4877 38.3909 19.1655 38.3909 24.8412C38.3909 29.4014 41.2145 32.0982 43.6736 32.9665C44.2599 33.1725 44.824 33.2771 45.3278 33.2771C45.8254 33.2771 46.3895 33.1725 46.9694 32.9697C49.4285 32.1046 52.2616 29.4046 52.2616 24.8412C52.2585 19.1623 48.9247 16.4877 45.3247 16.4877Z" fill="#FFD3B3"/>
<path d="M46.1233 27.3733C46.1019 27.365 46.0796 27.3597 46.0568 27.3574H44.5927C44.5705 27.3606 44.5483 27.3669 44.5261 27.3733C44.393 27.4271 44.3201 27.5634 44.3835 27.7092C44.4469 27.855 44.7385 28.2669 45.3247 28.2669C45.911 28.2669 46.2025 27.855 46.2659 27.7092C46.3293 27.5634 46.2564 27.4271 46.1233 27.3733Z" fill="#FFD3B3"/>
<path d="M45.442 14.0634C36.8824 14.0634 36.9522 21.9764 36.9522 22.1031C36.9522 23.7225 36.9902 25.551 37.1106 27.3891L39.5698 32.3105C39.5698 32.3105 39.1451 28.4538 39.0976 25.8394C39.0913 25.5035 39.0342 24.6605 39.1958 23.9253C39.4462 23.3042 39.7758 22.8225 40.2004 22.7274C44.8652 21.6785 47.5082 19.2035 47.5082 19.2035C48.1958 20.7024 50.3413 22.1665 51.1145 22.7211C51.3332 22.8796 51.4979 23.3898 51.6215 24.0236C51.6881 24.6796 51.6627 25.3989 51.6564 25.8204L51.0194 32.2979L53.5388 27.3922C53.5388 27.3827 53.542 27.37 53.5451 27.3605C53.6624 25.5352 53.7004 23.7162 53.7004 22.1063C53.6941 21.9764 54.0015 14.0634 45.442 14.0634Z" fill="#543930"/>
<path d="M45.442 14.0634C36.8824 14.0634 36.9522 21.9764 36.9522 22.1031C36.9522 23.7225 36.9902 25.551 37.1106 27.3891L38.5113 27.3859C38.4986 26.7774 38.9265 23.0095 40.1972 22.7243C44.862 21.6753 47.505 19.2003 47.505 19.2003C48.1927 20.6993 50.3381 22.1634 51.1113 22.7179C51.7451 23.1743 51.9384 26.5905 51.9258 27.3891H53.5324C53.5324 27.3796 53.5356 27.3669 53.5388 27.3574C53.656 25.532 53.6941 23.713 53.6941 22.1031C53.6941 21.9764 54.0015 14.0634 45.442 14.0634Z" fill="url(#paint4_radial_1034_16428)"/>
<path opacity="0.4" d="M36.0204 40.7465C36.0204 36.855 32.956 34.4941 29.1912 33.8444C28.6081 33.743 28.0916 33.6796 27.4578 33.6416V52.0282H44.5704V33.6321C43.9366 33.6669 43.325 33.7367 42.7007 33.8444C38.9359 34.4941 36.0204 36.855 36.0204 40.7465Z" fill="url(#paint5_radial_1034_16428)"/>
<path d="M42.8496 51.3881C42.8496 48.2698 38.8851 47.224 37.5035 47.224H34.5309C33.1524 47.224 29.1816 48.2698 29.1816 51.3881C29.1816 51.3881 29.1785 51.6384 29.1721 52.0282H42.8559L42.8496 51.3881Z" fill="#B2EBF2"/>
<path d="M36.0141 49.5881C35.6199 49.5881 35.2419 49.4315 34.9631 49.1527C34.6844 48.874 34.5278 48.496 34.5278 48.1018V46.9609H37.5035V48.1018C37.5023 48.4961 37.3449 48.8739 37.0657 49.1525C36.7866 49.431 36.4084 49.5876 36.0141 49.5881Z" fill="#FFD3B3"/>
<path d="M40.6852 41.0032H31.3429C30.3352 41.0032 29.5112 41.7954 29.5112 42.7651C29.5112 43.7349 30.3352 44.5271 31.3429 44.5271H40.682C41.6898 44.5271 42.5137 43.7349 42.5137 42.7651C42.5137 41.7954 41.6929 41.0032 40.6852 41.0032Z" fill="#FFD3B3"/>
<path d="M36.0141 33.7334C33.0574 33.7334 30.3225 36.839 30.3225 41.3073C30.3225 45.7503 33.1429 47.9496 36.0141 47.9496C38.8852 47.9496 41.7056 45.7535 41.7056 41.3073C41.7056 36.8359 38.9707 33.7334 36.0141 33.7334Z" fill="#FFD3B3"/>
<path d="M36.049 33.0648C29.7331 33.0648 29.2926 38.224 29.5493 40.4803C29.7743 42.4736 30.8138 42.9648 30.8138 42.9648C30.8138 42.9648 30.6078 41.225 30.9405 39.9638C31.2035 38.9624 31.8278 38.2208 31.8278 38.2208C31.8278 38.2208 32.9687 39.2095 35.0919 39.8528C36.1155 40.1634 37.4275 40.0081 37.4275 40.0081L36.6923 38.7088C36.6923 38.7088 37.8965 39.593 38.6444 39.7609C39.6046 39.9764 40.3081 39.8845 40.3081 39.8845L39.9564 38.5124C39.9564 38.5124 40.568 38.9116 41.0243 40.005C41.4807 41.0983 41.1986 42.9648 41.1986 42.9648C41.1986 42.9648 42.2951 42.4768 42.4726 40.4803C42.6912 37.98 42.3363 33.0648 36.049 33.0648Z" fill="#543930"/>
<path d="M36.049 33.0648C29.7331 33.0648 29.2926 38.224 29.5493 40.4803C29.7743 42.4736 30.8138 42.9648 30.8138 42.9648C30.8138 42.9648 30.6078 41.225 30.9405 39.9638C31.2035 38.9624 31.8278 38.2208 31.8278 38.2208C31.8278 38.2208 32.9687 39.2095 35.0919 39.8528C36.1155 40.1634 37.4275 40.0081 37.4275 40.0081L36.6923 38.7088C36.6923 38.7088 37.8965 39.593 38.6444 39.7609C39.6046 39.9764 40.3081 39.8845 40.3081 39.8845L39.9564 38.5124C39.9564 38.5124 40.568 38.9116 41.0243 40.005C41.4807 41.0983 41.1986 42.9648 41.1986 42.9648C41.1986 42.9648 42.2951 42.4768 42.4726 40.4803C42.6912 37.98 42.3363 33.0648 36.049 33.0648Z" fill="url(#paint6_radial_1034_16428)"/>
<g clip-path="url(#clip0_1034_16428)">
<path d="M36.0141 58.9998C39.5145 58.9998 42.352 56.1623 42.352 52.662C42.352 49.1617 39.5145 46.3241 36.0141 46.3241C32.5138 46.3241 29.6763 49.1617 29.6763 52.662C29.6763 56.1623 32.5138 58.9998 36.0141 58.9998Z" fill="#FFBE3B"/>
<path d="M36.936 56.9176C35.5192 56.9176 34.3706 55.769 34.3706 54.3522H39.5015C39.5015 55.769 38.3529 56.9176 36.936 56.9176Z" fill="#7F184C"/>
<path d="M35.7639 50.958C35.6215 50.958 35.5061 50.8426 35.5061 50.7002C35.5061 50.3676 35.2355 50.0971 34.9029 50.0971C34.5704 50.0971 34.2998 50.3677 34.2998 50.7002C34.2998 50.8426 34.1844 50.958 34.042 50.958C33.8996 50.958 33.7842 50.8426 33.7842 50.7002C33.7842 50.0833 34.2861 49.5814 34.903 49.5814C35.5198 49.5814 36.0218 50.0833 36.0218 50.7002C36.0217 50.8426 35.9063 50.958 35.7639 50.958Z" fill="#7F184C"/>
<path d="M40.1186 50.958C39.9762 50.958 39.8608 50.8426 39.8608 50.7002C39.8608 50.3676 39.5902 50.0971 39.2577 50.0971C38.9251 50.0971 38.6546 50.3677 38.6546 50.7002C38.6546 50.8426 38.5391 50.958 38.3967 50.958C38.2544 50.958 38.1389 50.8426 38.1389 50.7002C38.1389 50.0833 38.6408 49.5814 39.2577 49.5814C39.8746 49.5814 40.3765 50.0833 40.3765 50.7002C40.3764 50.8426 40.261 50.958 40.1186 50.958Z" fill="#7F184C"/>
<path d="M34.9968 54.3522V54.7526C34.9968 54.9215 35.1337 55.0583 35.3025 55.0583H38.57C38.7389 55.0583 38.8758 54.9215 38.8758 54.7526V54.3522H34.9968Z" fill="#F2F2F2"/>
<path d="M36.9901 55.8533C36.2966 55.5311 35.5271 55.578 34.9031 55.9121C35.372 56.5233 36.1094 56.9177 36.9392 56.9177C37.3049 56.9177 37.6525 56.8406 37.9673 56.7028C37.7363 56.3453 37.4051 56.0462 36.9901 55.8533Z" fill="#FC4C59"/>
<path d="M34.2999 50.7002C34.2999 50.3676 34.5705 50.0971 34.903 50.0971C35.2355 50.0971 35.5061 50.3677 35.5061 50.7002C35.5061 50.8426 35.6216 50.958 35.7639 50.958C35.9063 50.958 36.0218 50.8426 36.0218 50.7002C36.0218 50.0833 35.5199 49.5814 34.903 49.5814C34.2861 49.5814 33.7842 50.0833 33.7842 50.7002C33.7842 50.8426 33.8996 50.958 34.042 50.958C34.1845 50.958 34.2999 50.8426 34.2999 50.7002Z" fill="black"/>
<path d="M38.6546 50.7002C38.6546 50.3676 38.9252 50.0971 39.2577 50.0971C39.5903 50.0971 39.8608 50.3677 39.8608 50.7002C39.8608 50.8426 39.9763 50.958 40.1187 50.958C40.261 50.958 40.3765 50.8426 40.3765 50.7002C40.3765 50.0833 39.8746 49.5814 39.2577 49.5814C38.6408 49.5814 38.1389 50.0833 38.1389 50.7002C38.1389 50.8426 38.2544 50.958 38.3967 50.958C38.5391 50.958 38.6546 50.8426 38.6546 50.7002Z" fill="black"/>
<path d="M34.113 54.3522C34.113 55.9089 35.3795 57.1754 36.9363 57.1754C38.4931 57.1754 39.7596 55.9089 39.7596 54.3522C39.7596 54.2098 39.6441 54.0944 39.5017 54.0944H34.3709C34.2285 54.0943 34.113 54.2098 34.113 54.3522ZM39.2296 54.61C39.101 55.7615 38.1216 56.6598 36.9363 56.6598C35.751 56.6598 34.7716 55.7615 34.643 54.61H39.2296Z" fill="black"/>
</g>
</svg>
