<svg width="73" height="72" viewBox="0 0 73 72" fill="none" xmlns="http://www.w3.org/2000/svg">
<circle cx="36.6667" cy="36" r="36" fill="#FFD36C"/>
<ellipse cx="21.375" cy="51.2838" rx="3.375" ry="3.28378" fill="#78A0CF"/>
<ellipse cx="54.375" cy="17.2838" rx="3.375" ry="3.28378" transform="rotate(-180 54.375 17.2838)" fill="#FAFAFA"/>
<circle cx="52.9792" cy="62.4375" r="1.6875" transform="rotate(-180 52.9792 62.4375)" fill="#FFD36C"/>
<g clip-path="url(#clip0_1042_16570)">
<rect x="21" y="20.9697" width="31.0303" height="31.0303" rx="4" fill="white"/>
<path d="M41.1562 41.9688V33.25C41.1562 32.4479 40.9896 31.7552 40.6562 31.1719C40.3229 30.5885 39.8333 30.1406 39.1875 29.8281C38.5417 29.5156 37.7448 29.3594 36.7969 29.3594C35.9219 29.3594 35.1406 29.5156 34.4531 29.8281C33.776 30.1302 33.2396 30.5417 32.8438 31.0625C32.4583 31.5729 32.2656 32.1406 32.2656 32.7656L30.3906 32.75C30.3906 32.1146 30.5469 31.5 30.8594 30.9062C31.1719 30.3125 31.6146 29.7812 32.1875 29.3125C32.7604 28.8438 33.4427 28.474 34.2344 28.2031C35.0365 27.9219 35.9167 27.7812 36.875 27.7812C38.0833 27.7812 39.1458 27.9844 40.0625 28.3906C40.9896 28.7969 41.7135 29.4062 42.2344 30.2188C42.7552 31.0312 43.0156 32.0521 43.0156 33.2812V41.4531C43.0156 42.0365 43.0573 42.6406 43.1406 43.2656C43.2344 43.8906 43.3646 44.4062 43.5312 44.8125V45H41.5469C41.4219 44.625 41.3229 44.1562 41.25 43.5938C41.1875 43.0208 41.1562 42.4792 41.1562 41.9688ZM41.5938 35.1562L41.625 36.5938H37.9531C36.9948 36.5938 36.1354 36.6823 35.375 36.8594C34.625 37.026 33.9896 37.276 33.4688 37.6094C32.9479 37.9323 32.5469 38.3229 32.2656 38.7812C31.9948 39.2396 31.8594 39.7604 31.8594 40.3438C31.8594 40.9479 32.0104 41.5 32.3125 42C32.625 42.5 33.0625 42.901 33.625 43.2031C34.1979 43.4948 34.875 43.6406 35.6562 43.6406C36.6979 43.6406 37.6146 43.4479 38.4062 43.0625C39.2083 42.6771 39.8698 42.1719 40.3906 41.5469C40.9115 40.9219 41.2604 40.2396 41.4375 39.5L42.25 40.5781C42.1146 41.099 41.8646 41.6354 41.5 42.1875C41.1458 42.7292 40.6823 43.2396 40.1094 43.7188C39.5365 44.1875 38.8594 44.5729 38.0781 44.875C37.3073 45.1667 36.4323 45.3125 35.4531 45.3125C34.349 45.3125 33.3854 45.1042 32.5625 44.6875C31.75 44.2708 31.1146 43.7031 30.6562 42.9844C30.2083 42.2552 29.9844 41.4323 29.9844 40.5156C29.9844 39.6823 30.1615 38.9375 30.5156 38.2812C30.8698 37.6146 31.3802 37.0521 32.0469 36.5938C32.724 36.125 33.5365 35.7708 34.4844 35.5312C35.4427 35.2812 36.5156 35.1562 37.7031 35.1562H41.5938Z" fill="#1D54BD"/>
<g clip-path="url(#clip1_1042_16570)">
<path d="M53.5344 19.9237L56.5925 22.9818L47.0786 32.5443L44.0205 29.4862L53.5344 19.9237Z" fill="#EFC75E"/>
<path d="M46.2712 31.7332L54.6804 23.324L55.5042 24.1477L47.095 32.5569L46.2712 31.7332Z" fill="#F4D88F"/>
<path d="M44.0205 29.4863L44.7971 30.2629L53.7286 20.8945L52.8549 20.6033L44.0205 29.4863Z" fill="#E3BD59"/>
<path d="M56.4954 18.2734L58.2914 20.0694C58.6312 20.4092 58.6312 20.9917 58.2914 21.3314L56.3012 23.3216L53.2432 20.2635L55.1848 18.2733C55.5731 17.9336 56.1556 17.885 56.4954 18.2734Z" fill="#E19178"/>
<path d="M55.6702 18.7588C56.01 18.419 56.641 18.419 56.9808 18.7588L58.2914 20.0694L56.4954 18.2734C56.1555 17.9336 55.5245 17.9336 55.1848 18.3219L53.2432 20.2635L53.7286 20.7004L55.6702 18.7588Z" fill="#CB836D"/>
<path d="M52.1052 21.3421L55.1846 24.4865L56.6409 23.0303L53.5343 19.9237L52.1052 21.3421Z" fill="#ECEEEE"/>
<path d="M44.0204 29.4863L43.0496 33.5152L47.0784 32.5444L44.0204 29.4863Z" fill="#DCDCDC"/>
<path d="M44.0204 32.5443H43.2922L43.0496 33.5151L44.0204 33.2725V32.5443Z" fill="#1D54BD"/>
</g>
</g>
<defs>
<clipPath id="clip0_1042_16570">
<rect width="37.5554" height="34" fill="white" transform="translate(21 18)"/>
</clipPath>
<clipPath id="clip1_1042_16570">
<rect width="15.5152" height="15.5152" fill="white" transform="translate(43.0403 18)"/>
</clipPath>
</defs>
</svg>
