<svg width="73" height="72" viewBox="0 0 73 72" fill="none" xmlns="http://www.w3.org/2000/svg">
<rect x="0.666748" width="72" height="72" rx="16" fill="#FAFAFA"/>
<circle cx="36.6667" cy="36" r="36" fill="#5ACED9"/>
<circle cx="5.16675" cy="67.5" r="4.5" fill="#78A0CF"/>
<circle cx="10.7917" cy="61.875" r="3.375" fill="#FAFAFA"/>
<circle cx="12.4792" cy="70.3125" r="1.6875" fill="#FFBE3B"/>
<circle cx="68.1667" cy="4.5" r="4.5" transform="rotate(-180 68.1667 4.5)" fill="#FFBE3B"/>
<circle cx="61.4167" cy="10.125" r="3.375" transform="rotate(-180 61.4167 10.125)" fill="#FAFAFA"/>
<circle cx="16.9792" cy="14.0625" r="1.6875" transform="rotate(-180 16.9792 14.0625)" fill="white"/>
<circle cx="52.9792" cy="62.4375" r="1.6875" transform="rotate(-180 52.9792 62.4375)" fill="#5ACED9"/>
<circle cx="60.8542" cy="1.6875" r="1.6875" transform="rotate(-180 60.8542 1.6875)" fill="#78A0CF"/>
<circle cx="63.9792" cy="21.3125" r="1.6875" transform="rotate(-180 63.9792 21.3125)" fill="#DCDCDC"/>
<rect x="18.6667" y="18" width="36" height="36" rx="4" fill="white"/>
<path d="M42.1953 42.2109V31.3125C42.1953 30.3099 41.987 29.444 41.5703 28.7148C41.1536 27.9857 40.5417 27.4258 39.7344 27.0352C38.9271 26.6445 37.931 26.4492 36.7461 26.4492C35.6523 26.4492 34.6758 26.6445 33.8164 27.0352C32.9701 27.4128 32.2995 27.9271 31.8047 28.5781C31.3229 29.2161 31.082 29.9258 31.082 30.707L28.7383 30.6875C28.7383 29.8932 28.9336 29.125 29.3242 28.3828C29.7148 27.6406 30.2682 26.9766 30.9844 26.3906C31.7005 25.8047 32.5534 25.3424 33.543 25.0039C34.5456 24.6523 35.6458 24.4766 36.8438 24.4766C38.3542 24.4766 39.6823 24.7305 40.8281 25.2383C41.987 25.7461 42.8919 26.5078 43.543 27.5234C44.194 28.5391 44.5195 29.8151 44.5195 31.3516V41.5664C44.5195 42.2956 44.5716 43.0508 44.6758 43.832C44.793 44.6133 44.9557 45.2578 45.1641 45.7656V46H42.6836C42.5273 45.5312 42.4036 44.9453 42.3125 44.2422C42.2344 43.526 42.1953 42.849 42.1953 42.2109ZM42.7422 33.6953L42.7812 35.4922H38.1914C36.9935 35.4922 35.9193 35.6029 34.9688 35.8242C34.0312 36.0326 33.237 36.3451 32.5859 36.7617C31.9349 37.1654 31.4336 37.6536 31.082 38.2266C30.7435 38.7995 30.5742 39.4505 30.5742 40.1797C30.5742 40.9349 30.763 41.625 31.1406 42.25C31.5312 42.875 32.0781 43.3763 32.7812 43.7539C33.4974 44.1185 34.3438 44.3008 35.3203 44.3008C36.6224 44.3008 37.7682 44.0599 38.7578 43.5781C39.7604 43.0964 40.5872 42.4648 41.2383 41.6836C41.8893 40.9023 42.3255 40.0495 42.5469 39.125L43.5625 40.4727C43.3932 41.1237 43.0807 41.7943 42.625 42.4844C42.1823 43.1615 41.6029 43.7995 40.8867 44.3984C40.1706 44.9844 39.3242 45.4661 38.3477 45.8438C37.3841 46.2083 36.2904 46.3906 35.0664 46.3906C33.6862 46.3906 32.4818 46.1302 31.4531 45.6094C30.4375 45.0885 29.6432 44.3789 29.0703 43.4805C28.5104 42.569 28.2305 41.5404 28.2305 40.3945C28.2305 39.3529 28.4518 38.4219 28.8945 37.6016C29.3372 36.7682 29.9753 36.0651 30.8086 35.4922C31.6549 34.9062 32.6706 34.4635 33.8555 34.1641C35.0534 33.8516 36.3945 33.6953 37.8789 33.6953H42.7422Z" fill="#FFBE3B"/>
<g clip-path="url(#clip0_1034_16384)">
<path d="M54.0914 19.1068L57.6392 22.6546L46.6015 33.7487L43.0537 30.2008L54.0914 19.1068Z" fill="#EFC75E"/>
<path d="M45.665 32.8076L55.421 23.0516L56.3767 24.0073L46.6207 33.7633L45.665 32.8076Z" fill="#F4D88F"/>
<path d="M43.0537 30.2008L43.9547 31.1019L54.3167 20.2331L53.303 19.8951L43.0537 30.2008Z" fill="#E3BD59"/>
<path d="M57.5267 17.1921L59.6103 19.2758C60.0046 19.67 60.0046 20.3458 59.6103 20.74L57.3015 23.0488L53.7537 19.501L56.0062 17.1921C56.4568 16.7979 57.1325 16.7416 57.5267 17.1921Z" fill="#E19178"/>
<path d="M56.5694 17.7553C56.9636 17.3611 57.6957 17.3611 58.0899 17.7553L59.6103 19.2758L57.5267 17.1922C57.1325 16.798 56.4004 16.798 56.0062 17.2485L53.7537 19.5011L54.3168 20.0079L56.5694 17.7553Z" fill="#CB836D"/>
<path d="M52.4336 20.7523L56.0062 24.4004L57.6957 22.7109L54.0915 19.1068L52.4336 20.7523Z" fill="#ECEEEE"/>
<path d="M43.0538 30.2009L41.9275 34.8751L46.6016 33.7487L43.0538 30.2009Z" fill="#DCDCDC"/>
<path d="M43.0538 33.7487H42.209L41.9275 34.875L43.0538 34.5934V33.7487Z" fill="#1D54BD"/>
</g>
<defs>
<clipPath id="clip0_1034_16384">
<rect width="18" height="18" fill="white" transform="translate(41.9167 16.875)"/>
</clipPath>
</defs>
</svg>
