<svg width="123" height="150" viewBox="0 0 123 150" fill="none" xmlns="http://www.w3.org/2000/svg">
<g clip-path="url(#clip0_663_10855)">
<path d="M5.62519e-05 0V88.8598C-0.00294441 103.011 4.89794 116.721 13.8619 127.64C22.8259 138.558 35.2941 146.004 49.1276 148.699C52.9351 149.449 56.8071 149.818 60.687 149.802C87.5434 149.435 113.86 129.101 120.892 103.854C122.112 99.4413 122.76 94.8895 122.819 90.3108C121.782 97.7365 118.789 104.749 114.149 110.625C113.6 111.312 100.307 127.379 79.471 126.102C75.3482 125.851 60.9374 124.971 53.4624 113.527C50.7686 109.27 49.3169 104.341 49.2721 99.2973L49.1276 98.6976V59.8396C49.1306 45.6888 44.2297 31.9781 35.2657 21.0595C26.3018 10.141 13.8335 2.69538 5.62519e-05 0Z" fill="url(#paint0_linear_663_10855)"/>
<path d="M122.819 0V88.8598C122.822 103.011 117.921 116.721 108.957 127.64C99.993 138.558 87.5247 146.004 73.6913 148.699C69.8837 149.449 66.0118 149.818 62.1319 149.802C33.7111 151.286 7.39278 129.222 1.92657 103.854C0.706706 99.4413 0.0591645 94.8895 0 90.3108C1.03717 97.7365 4.03011 104.749 8.66956 110.625C9.21863 111.312 22.512 127.379 43.3478 126.102C47.4707 125.851 61.8814 124.971 69.3565 113.527C72.0503 109.27 73.5019 104.341 73.5468 99.2973L73.6913 98.6976V59.8396C73.6883 45.6888 78.5891 31.9781 87.5531 21.0595C96.5171 10.141 108.985 2.69538 122.819 0Z" fill="url(#paint1_linear_663_10855)"/>
<path d="M67.6194 114.319C67.6194 114.579 67.7223 114.828 67.9053 115.011C68.0884 115.195 68.3367 115.298 68.5956 115.298V115.298C76.2814 115.29 83.6498 112.222 89.0845 106.769C94.5191 101.316 97.5761 93.9225 97.5848 86.2106V85.615H96.2129C92.4566 85.6141 88.7369 86.3561 85.2666 87.7984C81.7962 89.2408 78.6431 91.3553 75.9877 94.021C73.3322 96.6868 71.2263 99.8515 69.7904 103.334C68.3545 106.817 67.6168 110.55 67.6194 114.319V114.319Z" fill="#FFE089"/>
<path d="M67.8761 109.377C67.9329 109.629 68.0862 109.848 68.3029 109.987C68.5196 110.127 68.7821 110.175 69.0337 110.121V110.121C72.7348 109.303 76.2393 107.762 79.347 105.584C82.4547 103.407 85.1048 100.636 87.1458 97.4298C89.1868 94.2237 90.5788 90.6453 91.2423 86.899C91.9057 83.1527 91.8276 79.312 91.0125 75.5961L90.8906 75.0359L89.5313 75.3231C82.1629 76.9566 75.7422 81.4618 71.6812 87.8479C67.6202 94.2341 66.2515 101.978 67.8761 109.377V109.377Z" fill="#FFD36C"/>
<path d="M66.973 104.739C67.0362 104.852 67.1211 104.951 67.2229 105.032C67.3246 105.112 67.4412 105.171 67.5659 105.206C67.6905 105.241 67.8208 105.252 67.9492 105.236C68.0777 105.221 68.2017 105.181 68.3142 105.117V105.117C75.0365 101.352 79.9754 95.0754 82.0475 87.6651C84.1196 80.2547 83.1557 72.3154 79.3673 65.5884L79.0816 65.0825L77.8814 65.753C71.2439 69.4598 66.366 75.6495 64.3203 82.9606C62.2747 90.2718 63.2288 98.1056 66.973 104.739V104.739Z" fill="#FFBE3B"/>
<path d="M55.0026 114.319C55.0026 114.579 54.8998 114.828 54.7167 115.011C54.5336 115.195 54.2853 115.298 54.0264 115.298V115.298C46.3407 115.29 38.9723 112.222 33.5376 106.769C28.103 101.316 25.046 93.9225 25.0372 86.2106V85.615H26.4092C30.1655 85.6141 33.8851 86.3561 37.3555 87.7984C40.8259 89.2408 43.9789 91.3553 46.6344 94.021C49.2899 96.6868 51.3958 99.8515 52.8317 103.334C54.2675 106.817 55.0052 110.55 55.0026 114.319V114.319Z" fill="#FFE089"/>
<path d="M54.7459 109.377C54.6892 109.629 54.5358 109.848 54.3192 109.987C54.1025 110.127 53.84 110.175 53.5883 110.121V110.121C49.8873 109.303 46.3828 107.762 43.2751 105.584C40.1674 103.407 37.5173 100.636 35.4763 97.4298C33.4353 94.2237 32.0433 90.6453 31.3798 86.899C30.7163 83.1527 30.7944 79.312 31.6096 75.5961L31.7314 75.0359L33.0908 75.3231C40.4591 76.9566 46.8799 81.4618 50.9409 87.8479C55.0019 94.2341 56.3706 101.978 54.7459 109.377V109.377Z" fill="#FFD36C"/>
<path d="M55.6491 104.739C55.5859 104.852 55.5009 104.951 55.3992 105.032C55.2974 105.112 55.1809 105.171 55.0562 105.206C54.9316 105.241 54.8013 105.252 54.6728 105.236C54.5444 105.221 54.4204 105.181 54.3079 105.117V105.117C47.5856 101.352 42.6467 95.0754 40.5746 87.6651C38.5025 80.2547 39.4663 72.3154 43.2547 65.5884L43.5404 65.0825L44.7407 65.753C51.3781 69.4598 56.2561 75.6495 58.3018 82.9606C60.3474 90.2718 59.3932 98.1056 55.6491 104.739V104.739Z" fill="#FFBE3B"/>
</g>
<path d="M61.1923 77.2484C61.2597 77.3242 61.3397 77.3844 61.428 77.4255C61.5162 77.4666 61.6108 77.4878 61.7064 77.4878C61.8019 77.4878 61.8965 77.4666 61.9847 77.4255C62.073 77.3844 62.1531 77.3242 62.2204 77.2484V77.2484C66.2488 72.7291 68.5111 66.6061 68.5111 60.2226C68.5111 53.8391 66.2488 47.7162 62.2204 43.1969L61.9169 42.8572L61.1972 43.6626C57.2175 48.1159 54.9812 54.156 54.9803 60.4543C54.9794 66.7527 57.2139 72.7936 61.1923 77.2484V77.2484Z" fill="#E84126"/>
<defs>
<linearGradient id="paint0_linear_663_10855" x1="-2.66136" y1="-10.2902" x2="106.57" y2="171.601" gradientUnits="userSpaceOnUse">
<stop stop-color="#59DED2"/>
<stop offset="1" stop-color="#018893"/>
</linearGradient>
<linearGradient id="paint1_linear_663_10855" x1="125.48" y1="-10.2902" x2="16.2484" y2="171.601" gradientUnits="userSpaceOnUse">
<stop stop-color="#018893"/>
<stop offset="1" stop-color="#59DED2"/>
</linearGradient>
<clipPath id="clip0_663_10855">
<rect width="122.819" height="149.873" fill="white"/>
</clipPath>
</defs>
</svg>
