<svg width="32" height="32" viewBox="0 0 32 32" fill="none" xmlns="http://www.w3.org/2000/svg">
<path d="M15.8114 23.2135C16.1234 23.0451 16.3179 22.7251 16.3179 22.377V16.9564H27.0209C27.5614 16.9564 28 16.5279 28 16C28 15.4721 27.5614 15.0437 27.0209 15.0437H16.3179V9.62308C16.3179 9.27369 16.1234 8.95363 15.8114 8.78659C15.4994 8.61699 15.1182 8.62847 14.8166 8.81337L4.45689 15.1903C4.17231 15.3663 4 15.671 4 16C4 16.329 4.17231 16.6338 4.45689 16.8097L14.8166 23.1867C14.9759 23.2836 15.1574 23.3333 15.3388 23.3333C15.5007 23.3333 15.6639 23.2925 15.8114 23.2135Z" fill="#FAFAFA"/>
</svg>
