<svg width="24" height="24" viewBox="0 0 24 24" fill="none" xmlns="http://www.w3.org/2000/svg">
<path d="M0 7.50024V21.8128L0.00754189 21.8188C0.0450799 23.0292 1.03127 23.9997 2.24997 23.9997H4.49994V7.50024H0Z" fill="#CCD0D2"/>
<path d="M4.49997 0.000488281V21.7491C4.49997 22.9918 3.49201 23.999 2.25 23.999H21.7336L21.7352 23.9976L21.7509 23.999C22.9906 23.999 23.9979 22.9948 24.0001 21.7544V0.000488281H4.49997Z" fill="#E4E7E7"/>
<path d="M6.74976 8.25024V9.75022H21.7493V8.25024H6.74976ZM6.74976 12.7501H21.7493V11.2501H6.74976V12.7501ZM6.74976 15.75H21.7493V14.25H6.74976V15.75ZM6.74976 18.7499H17.9994V17.2499H6.74976V18.7499Z" fill="#B6B9B9"/>
<path d="M9.38669 2.27967C9.15272 2.27967 8.97797 2.42142 8.97797 2.67639V4.60008H8.96674L7.49444 2.44765C7.42322 2.35612 7.25447 2.27967 7.15095 2.27967C6.9162 2.27967 6.74146 2.42142 6.74146 2.67639V5.56759C6.74146 5.82256 6.91543 5.96431 7.15095 5.96431C7.38492 5.96431 7.55966 5.82256 7.55966 5.56759V3.67012H7.57089L9.0431 5.79702C9.11963 5.88923 9.28307 5.96577 9.3866 5.96577C9.62134 5.96577 9.79609 5.82401 9.79609 5.56905V2.67639C9.79618 2.42219 9.62143 2.27967 9.38669 2.27967ZM12.3086 5.23309H11.2991V4.45833H12.1938C12.4555 4.45833 12.5921 4.28058 12.5921 4.10738C12.5921 3.92886 12.4609 3.75565 12.1938 3.75565H11.2991V3.0132H12.259C12.5148 3.0132 12.6468 2.83545 12.6468 2.66148C12.6468 2.48373 12.5208 2.31052 12.259 2.31052H10.9053C10.6166 2.31052 10.4801 2.49873 10.4801 2.75301V5.55345C10.4801 5.78219 10.6601 5.9344 10.9008 5.9344H12.3085C12.565 5.9344 12.697 5.75742 12.697 5.58344C12.6971 5.40561 12.5711 5.23309 12.3086 5.23309ZM17.9821 2.27967C17.7188 2.27967 17.5936 2.42142 17.5456 2.64562L17.0814 4.81006H17.0708L16.3607 2.57972C16.3007 2.39674 16.138 2.27975 15.9362 2.27975C15.7345 2.27975 15.5717 2.39674 15.5117 2.57972L14.8015 4.81014H14.791L14.3267 2.64571C14.2779 2.42142 14.1527 2.27975 13.8902 2.27975C13.6503 2.27975 13.5017 2.45228 13.5017 2.61648L13.5235 2.789L14.2165 5.56767C14.2705 5.78142 14.4505 5.9644 14.7572 5.9644C15.0242 5.9644 15.2319 5.80164 15.2979 5.59244L15.9316 3.6283H15.9421L16.5744 5.59244C16.6404 5.80164 16.8466 5.9644 17.1151 5.9644C17.421 5.9644 17.5995 5.78142 17.6558 5.56767L18.3488 2.789L18.3705 2.61648C18.3684 2.45296 18.2214 2.27967 17.9821 2.27967ZM19.9224 3.31316C19.9224 3.09942 20.1346 2.98321 20.3708 2.98321C20.6993 2.98321 20.8726 3.13542 21.0961 3.13542C21.3204 3.13542 21.462 2.9569 21.462 2.75892C21.462 2.3562 20.697 2.2489 20.3911 2.2489C19.6658 2.2489 19.0388 2.69216 19.0388 3.40461C19.0388 4.58586 20.8613 4.22436 20.8613 4.82583C20.8613 5.07479 20.6648 5.26308 20.3049 5.26308C19.9501 5.26308 19.6441 5.06434 19.3877 5.06434C19.1634 5.06434 19.0217 5.22709 19.0217 5.42584C19.0217 5.90509 19.9284 5.99585 20.3492 5.99585C21.1022 5.99585 21.7456 5.54282 21.7456 4.81537C21.7455 3.50137 19.9224 3.83741 19.9224 3.31316Z" fill="#9FA1A1"/>
</svg>
