<svg width="32" height="32" viewBox="0 0 32 32" fill="none" xmlns="http://www.w3.org/2000/svg">
<path d="M26.3594 15.5271C25.3854 14.3897 24.9428 13.4041 24.9428 11.7295V11.1602C24.9428 8.97805 24.4406 7.57209 23.3486 6.16613C21.6657 3.98266 18.8325 2.66667 16.059 2.66667H15.9411C13.2258 2.66667 10.4814 3.92223 8.76935 6.01708C7.61779 7.45124 7.05726 8.91762 7.05726 11.1602V11.7295C7.05726 13.4041 6.64381 14.3897 5.64067 15.5271C4.90256 16.3651 4.66669 17.442 4.66669 18.6076C4.66669 19.7745 5.04965 20.8797 5.81824 21.7781C6.82138 22.855 8.23796 23.5426 9.68502 23.6621C11.7801 23.9011 13.8751 23.9911 16.0007 23.9911C18.1249 23.9911 20.22 23.8407 22.3163 23.6621C23.7621 23.5426 25.1787 22.855 26.1818 21.7781C26.9491 20.8797 27.3334 19.7745 27.3334 18.6076C27.3334 17.442 27.0975 16.3651 26.3594 15.5271Z" fill="#1B1B1B"/>
<path d="M18.6783 25.6378C18.0117 25.4955 13.9502 25.4955 13.2836 25.6378C12.7138 25.7694 12.0976 26.0756 12.0976 26.747C12.1307 27.3876 12.5057 27.9529 13.0252 28.3114L13.0239 28.3128C13.6957 28.8365 14.4842 29.1695 15.3098 29.289C15.7497 29.3495 16.1976 29.3468 16.6535 29.289C17.4777 29.1695 18.2662 28.8365 18.938 28.3128L18.9367 28.3114C19.4561 27.9529 19.8312 27.3876 19.8643 26.747C19.8643 26.0756 19.2481 25.7694 18.6783 25.6378Z" fill="#1B1B1B"/>
</svg>
