<svg width="32" height="32" viewBox="0 0 32 32" fill="none" xmlns="http://www.w3.org/2000/svg">
<path d="M14 25.3333C20.2594 25.3333 25.3334 20.2593 25.3334 14C25.3334 7.74067 20.2594 2.66667 14 2.66667C7.74069 2.66667 2.66669 7.74067 2.66669 14C2.66669 20.2593 7.74069 25.3333 14 25.3333Z" stroke="#1B1B1B" stroke-width="2.5" stroke-linejoin="round"/>
<path d="M18.6 8.8C17.4667 7.46667 15.8 6.66667 14 6.66667C12.2 6.66667 10.5333 7.46667 9.39998 8.8C9.13332 9.06667 9.19998 9.53334 9.46665 9.73334C9.73332 10 10.2 9.93334 10.4 9.66667C11.3333 8.60001 12.6 8.00001 14 8.00001C15.4 8.00001 16.6667 8.60001 17.6 9.66667C17.7333 9.80001 17.9333 9.93334 18.1333 9.93334C18.2667 9.93334 18.4667 9.86667 18.5333 9.8C18.8 9.53334 18.8 9.06667 18.6 8.8Z" fill="#1B1B1B"/>
<path d="M23.4943 25.539C24.0096 25.0271 24.8358 25.0271 25.3511 25.539L28.7574 28.2885H28.8165C29.5056 28.9851 29.5056 30.1144 28.8165 30.8109C28.1274 31.5074 27.0101 31.5074 26.321 30.8109L23.4943 27.5713L23.387 27.4502C23.1872 27.1973 23.0768 26.882 23.0768 26.5551C23.0768 26.1738 23.227 25.8082 23.4943 25.539Z" fill="#1B1B1B"/>
</svg>
