<svg width="32" height="32" viewBox="0 0 32 32" fill="none" xmlns="http://www.w3.org/2000/svg">
<path d="M28.5805 3.44265C27.9136 2.75814 26.9265 2.50312 26.0061 2.77156L4.54399 9.0127C3.57292 9.28248 2.88464 10.0569 2.69923 11.0407C2.50982 12.042 3.17142 13.3131 4.03578 13.8446L10.7465 17.9691C11.4348 18.3919 12.3232 18.2858 12.8927 17.7114L20.5772 9.97907C20.964 9.57642 21.6043 9.57642 21.9911 9.97907C22.378 10.3683 22.378 10.9991 21.9911 11.4018L14.2933 19.1354C13.7224 19.7085 13.6157 20.6011 14.0359 21.2937L18.1362 28.0717C18.6164 28.877 19.4434 29.3333 20.3505 29.3333C20.4572 29.3333 20.5772 29.3333 20.6839 29.3199C21.7243 29.1857 22.5514 28.4743 22.8581 27.4677L29.2208 6.03306C29.5009 5.12038 29.2474 4.12716 28.5805 3.44265Z" fill="#1B1B1B"/>
</svg>
