<svg width="32" height="32" viewBox="0 0 32 32" fill="none" xmlns="http://www.w3.org/2000/svg">
<path d="M18 29H14C13.7348 29 13.4804 29.1054 13.2929 29.2929C13.1054 29.4804 13 29.7348 13 30C13 30.2652 13.1054 30.5196 13.2929 30.7071C13.4804 30.8946 13.7348 31 14 31H18C18.2652 31 18.5196 30.8946 18.7071 30.7071C18.8946 30.5196 19 30.2652 19 30C19 29.7348 18.8946 29.4804 18.7071 29.2929C18.5196 29.1054 18.2652 29 18 29ZM19 26H13C12.7348 26 12.4804 26.1054 12.2929 26.2929C12.1054 26.4804 12 26.7348 12 27C12 27.2652 12.1054 27.5196 12.2929 27.7071C12.4804 27.8946 12.7348 28 13 28H19C19.2652 28 19.5196 27.8946 19.7071 27.7071C19.8946 27.5196 20 27.2652 20 27C20 26.7348 19.8946 26.4804 19.7071 26.2929C19.5196 26.1054 19.2652 26 19 26ZM23.0887 3.91812C21.2094 2.03625 18.6919 0.999998 16 0.999998C14.6859 0.996866 13.3841 1.25339 12.1695 1.75482C10.9548 2.25626 9.85116 2.99274 8.92195 3.92195C7.99274 4.85116 7.25626 5.95479 6.75482 7.16946C6.25339 8.38413 5.99687 9.6859 6 11C6 13.9137 7.11687 16.6394 9.0625 18.4775L9.335 18.7331C10.4606 19.7856 12 21.2275 12 22.5V24C12 24.2652 12.1054 24.5196 12.2929 24.7071C12.4804 24.8946 12.7348 25 13 25H14.5C14.6326 25 14.7598 24.9473 14.8536 24.8536C14.9473 24.7598 15 24.6326 15 24.5V17.1762C15 17.0751 14.9694 16.9764 14.9122 16.893C14.8549 16.8097 14.7738 16.7456 14.6794 16.7094C14.1019 16.4738 13.5534 16.1729 13.0444 15.8125C12.93 15.7395 12.8317 15.6439 12.7554 15.5316C12.6791 15.4194 12.6265 15.2928 12.6008 15.1595C12.575 15.0263 12.5766 14.8892 12.6055 14.7566C12.6345 14.624 12.6901 14.4987 12.769 14.3883C12.8479 14.2779 12.9484 14.1847 13.0645 14.1143C13.1806 14.044 13.3098 13.9981 13.4442 13.9793C13.5786 13.9605 13.7154 13.9693 13.8463 14.0051C13.9772 14.0409 14.0995 14.1029 14.2056 14.1875C14.6681 14.515 15.5587 15 16 15C16.4412 15 17.3319 14.5137 17.7956 14.1875C18.0116 14.0517 18.2712 14.0036 18.5214 14.053C18.7717 14.1024 18.9936 14.2455 19.1418 14.4531C19.29 14.6607 19.3532 14.9171 19.3186 15.1698C19.284 15.4225 19.1542 15.6524 18.9556 15.8125C18.4465 16.1722 17.898 16.4725 17.3206 16.7075C17.2262 16.7438 17.1451 16.8078 17.0878 16.8912C17.0306 16.9745 17 17.0733 17 17.1744V24.5C17 24.6326 17.0527 24.7598 17.1464 24.8536C17.2402 24.9473 17.3674 25 17.5 25H19C19.2652 25 19.5196 24.8946 19.7071 24.7071C19.8946 24.5196 20 24.2652 20 24V22.5C20 21.2575 21.5225 19.8169 22.6344 18.7644L22.9412 18.4731C24.9425 16.5625 26 13.9756 26 11C26.0066 9.68578 25.7528 8.38327 25.2531 7.16773C24.7534 5.95219 24.0178 4.84772 23.0887 3.91812Z" fill="#1B1B1B"/>
</svg>
