<svg width="72" height="72" viewBox="0 0 72 72" fill="none" xmlns="http://www.w3.org/2000/svg">
<rect width="72" height="72" rx="16" fill="#FAFAFA"/>
<ellipse cx="36" cy="35.027" rx="36" ry="35.027" fill="#5ACED9"/>
<ellipse cx="4.5" cy="67.6215" rx="4.5" ry="4.37838" fill="#78A0CF"/>
<ellipse cx="11.2188" cy="60.875" rx="3.46875" ry="3.375" fill="#FAFAFA"/>
<ellipse cx="11.8125" cy="70.3582" rx="1.6875" ry="1.64189" fill="#FFBE3B"/>
<ellipse cx="67.5" cy="6.32438" rx="4.5" ry="4.37838" transform="rotate(-180 67.5 6.32438)" fill="#FFBE3B"/>
<ellipse cx="60.75" cy="11.7973" rx="3.375" ry="3.28378" transform="rotate(-180 60.75 11.7973)" fill="#FAFAFA"/>
<ellipse cx="16.3125" cy="15.6284" rx="1.6875" ry="1.64189" transform="rotate(-180 16.3125 15.6284)" fill="white"/>
<ellipse cx="52.3125" cy="62.696" rx="1.6875" ry="1.64189" transform="rotate(-180 52.3125 62.696)" fill="#5ACED9"/>
<ellipse cx="60.1875" cy="3.58784" rx="1.6875" ry="1.64189" transform="rotate(-180 60.1875 3.58784)" fill="#78A0CF"/>
<ellipse cx="63.3125" cy="21.3581" rx="1.6875" ry="1.64189" transform="rotate(-180 63.3125 21.3581)" fill="#DCDCDC"/>
<g clip-path="url(#clip0_1034_16311)">
<path d="M55.9451 48.4103V22.1929C55.9451 21.5504 55.4098 21.0291 54.749 21.0291H16.453C15.7927 21.0291 15.2568 21.5499 15.2568 22.1929V48.4098H55.9451V48.4103Z" fill="#FFBE3B"/>
<path d="M53.1149 43.3236V24.8542C53.1149 24.2631 52.6224 23.7839 52.0149 23.7839H19.1878C18.5804 23.7839 18.0879 24.2631 18.0879 24.8542V43.3236H53.1149Z" fill="#FFF7D7"/>
<path d="M41.8731 45.8669V47.8289H29.3293V45.8669H12.5984V47.512C12.5984 49.3935 14.1662 50.919 16.1 50.919H55.1023C57.0361 50.919 58.604 49.3935 58.604 47.512V45.8669H41.8731Z" fill="#FFE089"/>
<path d="M55.1024 51.4271H16.1001C13.8814 51.4271 12.0757 49.6707 12.0757 47.5114V45.8669C12.0757 45.5856 12.3099 45.3583 12.5985 45.3583H29.3293C29.6179 45.3583 29.8521 45.5856 29.8521 45.8669V47.3202H41.3504V45.8669C41.3504 45.5856 41.5841 45.3583 41.8732 45.3583H58.6041C58.8932 45.3583 59.1268 45.5856 59.1268 45.8669V47.5114C59.1268 49.6707 57.3216 51.4271 55.1024 51.4271ZM13.1213 46.3751V47.5109C13.1213 49.1091 14.4575 50.4093 16.1001 50.4093H55.1024C56.745 50.4093 58.0813 49.1086 58.0813 47.5109V46.3751H42.396V47.8283C42.396 48.1096 42.1623 48.337 41.8732 48.337H29.3293C29.0408 48.337 28.8066 48.1096 28.8066 47.8283V46.3751H13.1213Z" fill="#081C42"/>
<path d="M55.9452 46.3751C55.6561 46.3751 55.4224 46.1478 55.4224 45.8665V22.1929C55.4224 21.8317 55.1207 21.5377 54.7495 21.5377H16.4536C16.0824 21.5377 15.7802 21.8317 15.7802 22.1929V45.8665C15.7802 46.1478 15.546 46.3751 15.2574 46.3751C14.9688 46.3751 14.7346 46.1478 14.7346 45.8665V22.1929C14.7346 21.2707 15.5057 20.5204 16.4536 20.5204H54.7495C55.6974 20.5204 56.468 21.2707 56.468 22.1929V45.8665C56.468 46.1478 56.2343 46.3751 55.9452 46.3751Z" fill="#081C42"/>
<path d="M53.1147 43.8318H18.0877C17.7992 43.8318 17.5649 43.6044 17.5649 43.3232V24.8537C17.5649 23.9828 18.2932 23.2748 19.1877 23.2748H52.0142C52.9093 23.2748 53.637 23.9833 53.637 24.8537V43.3232C53.6375 43.6044 53.4038 43.8318 53.1147 43.8318ZM18.6105 42.8145H52.5919V24.8537C52.5919 24.5439 52.3331 24.2921 52.0148 24.2921H19.1877C18.8693 24.2921 18.6105 24.5444 18.6105 24.8537V42.8145Z" fill="#081C42"/>
<path d="M35.6014 39.5347H26.1284V29.3157H28.0209" fill="#E0BC4B"/>
<path d="M43.1818 29.3157H45.0743V39.5347H35.6013" fill="#E0BC4B"/>
<path d="M35.6014 39.5346C33.4898 37.6673 30.9862 36.6103 28.0188 36.5112C28.0188 36.3947 28.0188 26.3094 28.0188 26.3094C30.9862 26.4091 33.4898 27.4656 35.6014 29.3329V39.5346Z" fill="#FEFEFE"/>
<path d="M35.6013 39.5346C37.7129 37.6673 40.2165 36.6103 43.1839 36.5112C43.1839 36.3947 43.1839 26.3094 43.1839 26.3094C40.2165 26.4091 37.7129 27.4656 35.6013 29.3329V39.5346Z" fill="#FEFEFE"/>
<path d="M35.6012 40.0434H26.1287C25.8402 40.0434 25.606 39.816 25.606 39.5347V29.3152C25.606 29.0344 25.8402 28.8065 26.1287 28.8065H28.0192C28.3077 28.8065 28.5419 29.0344 28.5419 29.3152C28.5419 29.596 28.3077 29.8238 28.0192 29.8238H26.6515V39.026H35.6012C35.8898 39.026 36.124 39.2534 36.124 39.5347C36.124 39.816 35.8898 40.0434 35.6012 40.0434Z" fill="#081C42"/>
<path d="M45.0736 40.0434H35.6012C35.3126 40.0434 35.0784 39.816 35.0784 39.5347C35.0784 39.2534 35.3126 39.026 35.6012 39.026H44.5508V29.8238H43.1837C42.8946 29.8238 42.6609 29.596 42.6609 29.3152C42.6609 29.0344 42.8946 28.8065 43.1837 28.8065H45.0736C45.3627 28.8065 45.5964 29.0344 45.5964 29.3152V39.5347C45.5964 39.816 45.3627 40.0434 45.0736 40.0434Z" fill="#081C42"/>
<path d="M35.6012 40.0433C35.4736 40.0433 35.3476 39.9981 35.2494 39.9111C33.1545 38.058 30.7837 37.1124 28.0009 37.0188C27.7191 37.0092 27.4958 36.7849 27.4958 36.5107V26.3095C27.4958 26.1716 27.5534 26.0394 27.6553 25.9438C27.7567 25.8481 27.8843 25.7912 28.0364 25.8013C31.0351 25.9021 33.6988 26.9636 35.9525 28.9571C36.0618 29.0532 36.124 29.19 36.124 29.333V39.5347C36.124 39.7361 36.0022 39.9182 35.8129 39.9996C35.745 40.0291 35.6728 40.0433 35.6012 40.0433ZM28.542 36.029C30.9609 36.1994 33.153 37.0107 35.0784 38.4467V29.5603C33.1639 27.924 31.0189 27.0328 28.542 26.8471V36.029Z" fill="#081C42"/>
<path d="M35.6012 40.0433C35.5295 40.0433 35.4579 40.029 35.3894 39.9995C35.2002 39.9181 35.0784 39.736 35.0784 39.5346V29.3329C35.0784 29.1895 35.1406 29.0531 35.2493 28.9565C37.5036 26.9631 40.1667 25.9015 43.1659 25.8008C43.2961 25.7967 43.4451 25.8476 43.5471 25.9432C43.649 26.0388 43.707 26.1711 43.707 26.3089V36.5106C43.707 36.7848 43.4838 37.0091 43.202 37.0188C40.4197 37.1124 38.0483 38.058 35.953 39.911C35.8547 39.998 35.7287 40.0433 35.6012 40.0433ZM36.124 29.5608V38.4471C38.0499 37.0111 40.242 36.1998 42.6609 36.0294V26.8471C40.1839 27.0332 38.0384 27.9244 36.124 29.5608Z" fill="#081C42"/>
</g>
<defs>
<clipPath id="clip0_1034_16311">
<rect width="47.2558" height="31.1351" fill="white" transform="translate(12 20.4324)"/>
</clipPath>
</defs>
</svg>
