<svg width="72" height="72" viewBox="0 0 72 72" fill="none" xmlns="http://www.w3.org/2000/svg">
<circle cx="36" cy="36" r="36" fill="#FFD36C"/>
<ellipse cx="25.375" cy="51.2838" rx="3.375" ry="3.28378" fill="#78A0CF"/>
<ellipse cx="48.375" cy="16.2838" rx="3.375" ry="3.28378" transform="rotate(-180 48.375 16.2838)" fill="#FAFAFA"/>
<ellipse cx="52.3125" cy="62.696" rx="1.6875" ry="1.64189" transform="rotate(-180 52.3125 62.696)" fill="#FFD36C"/>
<g clip-path="url(#clip0_1042_16556)">
<path d="M29.5 51.5L27.5 50.5L27 22L30.5 20.5L51 35V37.5L29.5 51.5Z" fill="white"/>
<path d="M50.1924 33.0829L31.7529 20.6131C30.6548 19.8704 29.2999 19.7981 28.1289 20.4199C26.9579 21.0416 26.2588 22.2043 26.2588 23.5301V48.4698C26.2588 49.7956 26.9579 50.9583 28.1289 51.58C28.6575 51.8608 29.2235 52 29.7865 52C30.4708 52 31.1505 51.7943 31.753 51.3869L50.1924 38.9171C51.1622 38.2613 51.7412 37.1708 51.7412 36.0001C51.7412 34.8293 51.1622 33.7388 50.1924 33.0829ZM49.4784 37.8613L31.039 50.3311C30.3382 50.8049 29.4738 50.8512 28.7267 50.4544C27.9794 50.0577 27.5334 49.3158 27.5334 48.4698V23.5303C27.5334 22.6843 27.9795 21.9424 28.7267 21.5457C29.0639 21.3666 29.4251 21.2778 29.7844 21.2778C30.2209 21.2778 30.6546 21.4089 31.039 21.6689L49.4784 34.1388C50.1065 34.5634 50.4666 35.2419 50.4666 36C50.4666 36.7581 50.1064 37.4366 49.4784 37.8613Z" fill="#1D54BD"/>
<path d="M45.7305 32.6045L44.6958 31.9034C44.4044 31.706 44.0083 31.782 43.8107 32.0734C43.6132 32.3647 43.6895 32.761 43.9808 32.9584L45.0155 33.6597C45.1251 33.7339 45.2493 33.7695 45.3725 33.7695C45.5767 33.7695 45.7773 33.6715 45.9006 33.4897C46.0981 33.1982 46.0218 32.802 45.7305 32.6045Z" fill="#1D54BD"/>
<path d="M42.7352 30.5747L30.3079 22.1528C30.0165 21.9555 29.6203 22.0315 29.4228 22.3229C29.2253 22.6143 29.3015 23.0105 29.5928 23.208L42.0202 31.6298C42.1298 31.7041 42.254 31.7397 42.3772 31.7397C42.5814 31.7397 42.782 31.6417 42.9053 31.4598C43.1028 31.1684 43.0265 30.7722 42.7352 30.5747Z" fill="#1D54BD"/>
</g>
<defs>
<clipPath id="clip0_1042_16556">
<rect width="32" height="32" fill="white" transform="translate(23 20)"/>
</clipPath>
</defs>
</svg>
