<svg width="32" height="32" viewBox="0 0 32 32" fill="none" xmlns="http://www.w3.org/2000/svg">
<path d="M16 2.66667C23.3488 2.66667 29.3333 8.64834 29.3333 16.0077C29.3333 23.3517 23.3488 29.3333 16 29.3333C8.65121 29.3333 2.66666 23.3517 2.66666 16.0077C2.66666 8.64834 8.65121 2.66667 16 2.66667ZM14.4813 10.7065C14.1982 10.7065 13.9279 10.7709 13.6705 10.8995C13.3488 11.0796 13.0914 11.3626 12.9498 11.6971C12.8597 11.9286 12.7181 12.6233 12.7181 12.6361C12.5766 13.3951 12.4993 14.63 12.4993 15.9936C12.4993 17.2941 12.5766 18.4763 12.6924 19.2481C12.7053 19.261 12.8468 20.1229 13.0013 20.4187C13.2844 20.959 13.8378 21.2935 14.4298 21.2935H14.4813C14.8674 21.2806 15.6782 20.9461 15.6782 20.9333C17.0425 20.3673 19.7323 18.6049 20.8134 17.4343L20.8906 17.3571C21.0322 17.2156 21.2123 16.9969 21.251 16.9455C21.4569 16.6754 21.5598 16.3409 21.5598 16.0077C21.5598 15.6334 21.444 15.2861 21.2252 15.0031C21.1737 14.9516 20.9807 14.7329 20.8005 14.5528C19.7452 13.4208 16.991 11.5684 15.5495 11.0024C15.3307 10.9137 14.7773 10.7194 14.4813 10.7065Z" fill="#1B1B1B"/>
</svg>
