<svg width="32" height="32" viewBox="0 0 32 32" fill="none" xmlns="http://www.w3.org/2000/svg">
<path d="M16.5815 5.33333C17.0148 5.33333 17.3668 5.67531 17.3668 6.09747V9.30436C17.3668 9.81796 17.8053 10.2439 18.334 10.2439C18.8756 10.2439 19.3011 9.81796 19.3011 9.30436V6.09747C19.3011 5.67531 19.6531 5.33333 20.0877 5.33333H24.2914C27.0767 5.33333 29.3333 7.52554 29.3333 10.2314V13.3881C29.3333 13.6387 29.2302 13.8767 29.0496 14.0521C28.8691 14.2274 28.6241 14.3277 28.3662 14.3277C27.412 14.3277 26.6383 15.0793 26.6383 15.9937C26.6383 16.9145 27.403 17.6623 28.3482 17.6723C28.8807 17.6773 29.3333 18.0381 29.3333 18.5555V21.7686C29.3333 24.4732 27.0767 26.6667 24.2914 26.6667H20.0877C19.6531 26.6667 19.3011 26.3247 19.3011 25.9025V23.1967C19.3011 22.6706 18.8756 22.2572 18.334 22.2572C17.8053 22.2572 17.3668 22.6706 17.3668 23.1967V25.9025C17.3668 26.3247 17.0148 26.6667 16.5815 26.6667H7.70856C4.93616 26.6667 2.66666 24.4745 2.66666 21.7686V18.5555C2.66666 18.0381 3.11927 17.6773 3.65183 17.6723C4.59831 17.6623 5.36169 16.9145 5.36169 15.9937C5.36169 15.1043 4.61379 14.4279 3.63377 14.4279C3.37588 14.4279 3.13087 14.3277 2.95034 14.1523C2.76982 13.9769 2.66666 13.7389 2.66666 13.4883V10.2439C2.66666 7.54308 4.94132 5.33333 7.72146 5.33333H16.5815ZM18.334 12.9372C17.8053 12.9372 17.3668 13.3631 17.3668 13.8767V18.8874C17.3668 19.4011 17.8053 19.827 18.334 19.827C18.8756 19.827 19.3011 19.4011 19.3011 18.8874V13.8767C19.3011 13.3631 18.8756 12.9372 18.334 12.9372Z" fill="#1B1B1B"/>
</svg>
